<?xml version="1.0" encoding="utf-8"?>
<svg width="797px" height="774px" viewbox="0 0 797 774" version="1.1" xmlns:xlink="http://www.w3.org/1999/xlink" xmlns="http://www.w3.org/2000/svg">
  <defs>
    <path d="M0 0L91.1903 0L91.1903 84.9956L0 84.9956L0 0Z" id="path_1" />
    <path d="M0 0L64.1182 0L64.1182 59.7625L0 59.7625L0 0Z" id="path_2" />
    <path d="M0 0L256 0L256 256L0 256L0 0Z" id="path_3" />
    <clipPath id="mask_1">
      <use xlink:href="#path_1" />
    </clipPath>
    <clipPath id="mask_2">
      <use xlink:href="#path_2" />
    </clipPath>
    <clipPath id="mask_3">
      <use xlink:href="#path_3" />
    </clipPath>
  </defs>
  <g id="Group-3">
    <path d="M34.1658 365.435C107.084 351.876 31.1268 306.573 53.1302 219.378C75.1337 132.183 173.497 144.047 138.5 79.3589C103.503 14.6706 203.926 -22.7685 238.163 15.2467C269.792 50.3662 327.553 77.1325 355.41 65.3244C357.707 64.3508 359.801 63.1149 361.66 61.5999C386.063 41.7104 446.544 37.3024 453.839 37.0397C461.133 36.777 539.926 37.9628 492.623 115.095C445.32 192.227 437.469 238.769 491.113 260.006C544.756 281.242 628.503 347.843 580.292 387.592C532.081 427.342 469.975 415.815 449.628 440.959C429.281 466.103 420.622 544.937 357.037 504.997C293.451 465.057 364.097 423.036 283.926 418.639C203.755 414.243 198.567 479.618 99.4113 482.684C0.255646 485.75 -30.8691 381.111 34.166 365.435C99.2011 349.759 34.1661 365.435 34.1661 365.435L34.166 365.435" transform="matrix(0.49999997 0.86602545 -0.86602545 0.49999997 498.7187 -6.1035156E-05)" id="New-shape-3" fill="#2D4B87" fill-opacity="0.8" fill-rule="evenodd" stroke="none" />
    <g id="Group-2" transform="translate(51.771484 153.88452)">
      <path d="M38.4752 383.268C121.484 369.79 34.309 321.205 58.369 229.564C82.4291 137.922 194.763 151.519 154.076 82.9613C113.389 14.4035 227.486 -23.933 266.989 16.5082C303.482 53.8689 369.682 82.7175 401.315 70.5839C403.924 69.5835 406.297 68.3044 408.399 66.7285C435.997 46.0402 504.929 42.0677 513.246 41.872C521.563 41.6763 611.448 43.8021 558.412 124.558C505.375 205.314 496.974 254.273 558.412 277.248C619.849 300.223 716.162 371.339 661.646 412.691C607.13 454.042 536.155 441.205 513.246 467.475C490.337 493.746 481.399 576.725 408.399 533.929C335.399 491.134 415.478 447.637 323.983 442.112C232.488 436.588 227.347 505.423 114.288 507.551C1.22818 509.679 -35.5167 399.064 38.4754 383.268C112.468 367.472 38.4755 383.268 38.4755 383.268L38.4754 383.268" id="New-shape-3" fill="#EF8318" fill-opacity="0.8980392" fill-rule="evenodd" stroke="none" />
      <g id="icons8_services-4" transform="translate(293.70312 229.68408)">
        <path d="M0 0L91.1903 0L91.1903 84.9956L0 84.9956L0 0Z" id="Background" fill="none" fill-rule="evenodd" stroke="none" />
        <g clip-path="url(#mask_1)">
          <path d="M63.6117 0.00133018C63.4503 0.00651758 63.2889 0.0324559 63.1331 0.0947085L60.4893 1.09075C59.8604 1.32939 59.4986 1.94672 59.621 2.56406L60.5783 7.27451C59.3372 8.11492 58.2463 9.11097 57.3223 10.2419L52.2964 9.27697C51.6341 9.14728 50.9662 9.47411 50.699 10.0551L49.5859 12.5037C49.3243 13.0848 49.5358 13.7592 50.0923 14.1171L54.3335 16.8147C54.0942 18.2206 54.083 19.642 54.3001 21.0583L50.0033 23.6885C49.4411 24.036 49.2129 24.7052 49.469 25.2915L50.5376 27.7556C50.7881 28.3418 51.4504 28.6842 52.1183 28.5649L57.1665 27.6726C58.0682 28.8295 59.1368 29.8463 60.3557 30.7023L59.3149 35.392C59.1813 36.0093 59.532 36.6318 60.1553 36.8808L62.7824 37.9184C63.4058 38.1622 64.1293 37.9651 64.5134 37.4463L67.4076 33.4932C68.9159 33.7111 70.441 33.7267 71.9604 33.5244L74.7823 37.5293C75.0495 37.908 75.5059 38.1259 75.9734 38.1259C76.1515 38.1259 76.3296 38.0948 76.5021 38.0273L79.1459 37.0313C79.7804 36.7978 80.1422 36.1753 80.0142 35.558L79.0624 30.8527C80.3036 30.0123 81.3945 29.0162 82.3129 27.8801L87.3388 28.8502C88.0011 28.9696 88.669 28.6479 88.9362 28.0669L90.0493 25.6183C90.3109 25.0373 90.0994 24.3629 89.5428 24.0049L85.2961 21.3073C85.5355 19.9014 85.5466 18.4852 85.3351 17.0689L89.6263 14.4336C90.1941 14.086 90.4222 13.4168 90.1662 12.8306L89.0976 10.3664C88.8416 9.78018 88.1792 9.43779 87.5169 9.55711L82.4631 10.4494C81.5615 9.29253 80.4928 8.27574 79.2795 7.41977L80.3147 2.73007C80.4539 2.11273 80.1032 1.4902 79.4799 1.24119L76.8528 0.208839C76.2294 -0.0401716 75.5059 0.156961 75.1218 0.675733L72.2276 4.62878C70.7193 4.41089 69.1942 4.40052 67.6748 4.59765L64.8529 0.597917C64.5746 0.20365 64.1015 -0.0194207 63.6117 0.00133018L63.6117 0.00133018ZM63.1162 2.96353L65.8101 6.7817C66.1273 7.23303 66.7062 7.4561 67.2794 7.35235C69.0494 7.02033 70.8304 7.0359 72.5781 7.39385C73.1402 7.50798 73.7302 7.29528 74.0642 6.84395L76.8193 3.07248L77.2923 3.25924L76.3016 7.73105C76.1847 8.2602 76.4241 8.80491 76.9083 9.10579C78.3999 10.024 79.6467 11.212 80.6151 12.6283C80.9268 13.0848 81.5112 13.3234 82.0845 13.2197L86.8934 12.3689L87.0882 12.815L82.9973 15.3259C82.5075 15.6216 82.2626 16.1663 82.3795 16.6954C82.7357 18.3451 82.7246 20.0052 82.335 21.6341C82.2125 22.1633 82.4407 22.708 82.9249 23.0141L86.9657 25.582L86.7654 26.0281L81.9732 25.0995C81.3999 24.9958 80.8211 25.2189 80.4983 25.6702C79.5131 27.0605 78.2385 28.2225 76.7191 29.1252C76.2293 29.4157 75.9788 29.9604 76.0846 30.4948L76.9918 34.977L76.5187 35.1585L73.8248 31.3404C73.5632 30.9617 73.1069 30.7438 72.6393 30.7438C72.5447 30.7438 72.4445 30.749 72.3555 30.7697C70.5855 31.1017 68.8045 31.0914 67.0568 30.7282C66.4947 30.6141 65.9047 30.8268 65.5763 31.2781L62.8212 35.0444L62.3426 34.8576L63.3388 30.391C63.4557 29.8619 63.2108 29.3172 62.7266 29.0163C61.235 28.098 59.9882 26.91 59.0198 25.4938C58.7081 25.0373 58.1292 24.8038 57.5504 24.9024L52.7415 25.748L52.5467 25.307L56.6432 22.7962C57.1274 22.5005 57.3723 21.9558 57.261 21.4266C56.8992 19.7769 56.9159 18.1169 57.2999 16.4879C57.428 15.9588 57.1942 15.4141 56.71 15.108L52.6692 12.5401L52.8695 12.0991L57.6617 13.0225C58.235 13.1263 58.8194 12.9032 59.1367 12.4519C60.1274 11.0616 61.3964 9.89952 62.9158 8.99685C63.4056 8.70634 63.6561 8.16163 63.5503 7.62729L62.6431 3.14511L63.1162 2.96353ZM69.8176 11.0926C65.1033 11.0926 61.2685 14.6669 61.2685 19.0609C61.2685 23.4549 65.1033 27.0292 69.8176 27.0292C74.5318 27.0292 78.3667 23.4549 78.3667 19.0609C78.3667 14.6669 74.5318 11.0926 69.8176 11.0926L69.8176 11.0926ZM69.8173 13.4322C73.1513 13.4322 75.8563 15.9535 75.8563 19.0609C75.8563 22.1684 73.1513 24.6896 69.8173 24.6896C66.4834 24.6896 63.7784 22.1684 63.7784 19.0609C63.7784 15.9535 66.4834 13.4322 69.8173 13.4322L69.8173 13.4322ZM69.8174 16.4049C68.2422 16.4049 66.9677 17.5929 66.9677 19.0611C66.9677 20.5292 68.2422 21.7172 69.8174 21.7172C71.3925 21.7172 72.6671 20.5292 72.6671 19.0611C72.6671 17.5929 71.3925 16.4049 69.8174 16.4049L69.8174 16.4049ZM31.035 23.0452C29.727 23.0452 28.5916 23.8753 28.2743 25.0581L26.4488 31.8125C24.4506 32.3157 22.5304 33.0575 20.7271 34.038L14.3097 30.4481C13.191 29.8204 11.755 29.9812 10.8311 30.8476L8.37099 33.1353C7.44706 34.0017 7.26895 35.3349 7.94242 36.3829L11.7828 42.3643C10.7476 44.0451 9.94611 45.8349 9.41736 47.7025L2.15954 49.3937C0.89053 49.6894 0 50.7476 0 51.9719L0 55.2091C0 56.4282 0.89053 57.4865 2.15954 57.7822L9.40623 59.4838C9.94611 61.3462 10.742 63.1359 11.794 64.8167L7.94242 70.7982C7.26895 71.8461 7.44149 73.1793 8.37099 74.0457L10.8311 76.3335C11.755 77.1946 13.1854 77.3606 14.3097 76.7329L20.7271 73.1534C22.5249 74.1183 24.4506 74.8653 26.4543 75.3582L28.2743 82.123C28.586 83.311 29.7214 84.1358 31.035 84.1358L34.508 84.1358C35.816 84.1358 36.9514 83.3058 37.2687 82.123L39.0943 75.3686C41.0924 74.8653 43.0126 74.1183 44.8159 73.143L51.2333 76.7329C52.3521 77.3606 53.788 77.1998 54.7175 76.3335L57.172 74.0457C58.096 73.1845 58.2741 71.8461 57.6006 70.7982L53.7658 64.8167C54.801 63.1411 55.5969 61.3462 56.1257 59.4786L63.3835 57.7874C64.6525 57.4917 65.543 56.4334 65.543 55.2091L65.543 51.9719C65.543 50.7476 64.6525 49.6894 63.3835 49.3937L56.1368 47.6973C55.5969 45.8349 54.7954 44.0399 53.7491 42.3643L57.6006 36.3829C58.2741 35.3349 58.1015 34.0017 57.172 33.1353L54.7175 30.8476C53.788 29.9864 52.3576 29.8204 51.2333 30.4481L44.8159 34.0224C43.0126 33.0575 41.0924 32.3157 39.0887 31.8228L37.2743 25.0581C36.957 23.8753 35.8216 23.0452 34.508 23.0452L31.035 23.0452ZM31.035 25.7012L34.5081 25.7012L36.3226 32.466C36.573 33.3946 37.3522 34.126 38.3541 34.3751C40.1129 34.8212 41.8049 35.4748 43.3911 36.3256C44.2984 36.8133 45.4004 36.8081 46.2798 36.3153L52.6972 32.7254L55.1573 35.0183L51.3057 40.9998C50.777 41.8194 50.7714 42.8518 51.2946 43.6922C52.2074 45.1707 52.9087 46.7529 53.3873 48.3871C53.6545 49.3261 54.4393 50.0471 55.4356 50.2806L62.6934 51.9718L62.6934 55.2089L55.4356 56.9001C54.4393 57.1336 53.6545 57.8599 53.3873 58.7936C52.9087 60.433 52.2018 62.01 51.2946 63.4885C50.7714 64.3289 50.777 65.3613 51.3057 66.181L55.1573 72.1624L52.6972 74.4554L46.2854 70.8655C45.4004 70.3726 44.2984 70.3674 43.3967 70.8551C41.8105 71.7059 40.1129 72.3595 38.3541 72.8057C37.3522 73.0547 36.573 73.7861 36.3226 74.7148L34.5081 81.4795L31.035 81.4795L29.2206 74.7148C28.9701 73.7913 28.1909 73.0599 27.1891 72.8057C25.4303 72.3595 23.7383 71.7059 22.152 70.8551C21.7012 70.6113 21.2002 70.4971 20.7049 70.4971C20.204 70.4971 19.703 70.6165 19.2578 70.8655L12.846 74.4554L10.3859 72.1624L14.2374 66.1861C14.7662 65.3665 14.7717 64.3341 14.2485 63.4885C13.3357 62.01 12.6345 60.433 12.1558 58.7936C11.8886 57.8547 11.1039 57.1284 10.1076 56.9001L2.84975 55.2089L2.84975 51.9718L10.1076 50.2806C11.0983 50.0523 11.8831 49.3209 12.1558 48.3871C12.6345 46.7478 13.3357 45.1707 14.2485 43.6922C14.7717 42.8466 14.7662 41.8142 14.2374 40.9946L10.3859 35.0183L12.846 32.7254L19.2578 36.3153C20.1372 36.8081 21.2448 36.8133 22.152 36.3256C23.7383 35.4748 25.4303 34.8212 27.1891 34.3751C28.1909 34.126 28.9701 33.3946 29.2206 32.466L31.035 25.7012ZM32.4713 37.6591C30.4954 37.6695 28.514 37.9703 26.6438 38.5669C25.898 38.8056 25.5029 39.5578 25.7589 40.2529C25.9593 40.808 26.5158 41.1556 27.1058 41.1556C27.2561 41.1556 27.4119 41.1297 27.5678 41.0778C30.7236 40.0714 34.2467 40.061 37.4081 41.0363C38.1595 41.2593 38.961 40.8858 39.2059 40.1855C39.4564 39.4903 39.05 38.7433 38.3042 38.5099C36.4285 37.934 34.4471 37.6487 32.4713 37.6591L32.4713 37.6591ZM42.8345 41.0362C42.4727 41.0777 42.1277 41.2437 41.8828 41.5342C41.3985 42.11 41.5043 42.9453 42.1221 43.4018C42.8624 43.9465 43.5581 44.5586 44.1759 45.2227C44.4597 45.5235 44.8549 45.674 45.2557 45.674C45.584 45.674 45.9235 45.565 46.1907 45.3472C46.7807 44.8647 46.8419 44.0243 46.3243 43.4692C45.584 42.6859 44.7659 41.9596 43.8865 41.3163C43.5748 41.0881 43.2019 40.9999 42.8345 41.0362L42.8345 41.0362ZM32.7714 44.2941C27.2723 44.2941 22.7974 48.4651 22.7974 53.5905C22.7974 58.716 27.2723 62.8869 32.7714 62.8869C38.2704 62.8869 42.7453 58.716 42.7453 53.5905C42.7453 48.4651 38.2704 44.2941 32.7714 44.2941L32.7714 44.2941ZM16.7867 46.4054C16.2301 46.421 15.7125 46.7426 15.501 47.2562C15.2171 47.941 15.5845 48.7088 16.3192 48.9733L18.7403 49.8397C18.9073 49.9019 19.0854 49.9279 19.2524 49.9279C19.8256 49.9279 20.3655 49.6011 20.5826 49.0719C20.8664 48.3871 20.4935 47.6245 19.7644 47.36L17.3433 46.4936C17.1596 46.4262 16.9704 46.4002 16.7867 46.4054L16.7867 46.4054ZM32.7717 46.9501C36.7012 46.9501 39.896 49.9278 39.896 53.5904C39.896 57.2529 36.7012 60.2307 32.7717 60.2307C28.8423 60.2307 25.6475 57.2529 25.6475 53.5904C25.6475 49.9278 28.8423 46.9501 32.7717 46.9501L32.7717 46.9501ZM32.7712 50.9343C31.1961 50.9343 29.9215 52.1222 29.9215 53.5904C29.9215 55.0585 31.1961 56.2465 32.7712 56.2465C34.3463 56.2465 35.6209 55.0585 35.6209 53.5904C35.6209 52.1222 34.3463 50.9343 32.7712 50.9343L32.7712 50.9343ZM18.2784 52.2676L15.6903 52.3091C14.9 52.3246 14.271 52.9264 14.2877 53.6579C14.3044 54.3842 14.9389 54.9652 15.7126 54.9652L15.7404 54.9652L18.3285 54.9237C19.1189 54.9081 19.7478 54.3064 19.7311 53.5697C19.7144 52.8382 19.0743 52.2935 18.2784 52.2676L18.2784 52.2676ZM19.4359 57.227C19.2467 57.227 19.063 57.2633 18.8793 57.3308L16.4972 58.2801C15.768 58.5655 15.4341 59.3436 15.7402 60.0232C15.9684 60.5264 16.4972 60.8325 17.0537 60.8325C17.2374 60.8325 17.4266 60.7962 17.6103 60.7235L19.9925 59.7794C20.716 59.4941 21.0556 58.7159 20.7494 58.0363C20.5212 57.5331 19.9869 57.227 19.4359 57.227L19.4359 57.227ZM22.4804 61.4342C22.113 61.4342 21.7512 61.5639 21.473 61.8233L19.6362 63.53C19.0797 64.054 19.0797 64.8892 19.6362 65.4132C19.9145 65.6674 20.2819 65.7971 20.6436 65.7971C21.011 65.7971 21.3783 65.6674 21.6566 65.4132L23.4878 63.7012C24.0444 63.1825 24.0444 62.3421 23.4878 61.8233C23.2095 61.5639 22.8477 61.4342 22.4804 61.4342L22.4804 61.4342Z" transform="translate(0 0.8598633)" id="Shape" fill="#FFFFFF" fill-rule="evenodd" stroke="none" />
        </g>
      </g>
      <g id="icons8_search-4" transform="translate(529.73926 306.3589)">
        <path d="M0 0L64.1182 0L64.1182 59.7625L0 59.7625L0 0Z" id="Background" fill="none" fill-rule="evenodd" stroke="none" />
        <g clip-path="url(#mask_2)">
          <path d="M25.0462 0C11.2355 0 0 10.4723 0 23.3447C0 36.2172 11.2355 46.6895 25.0462 46.6895C30.572 46.6895 35.679 45.0116 39.8234 42.1774C39.8234 42.1774 42.6059 44.7161 42.7389 44.7599C42.7389 44.7818 42.735 44.8 42.735 44.8219C42.735 46.0694 43.2555 47.2439 44.2026 48.123L54.5654 57.7819C55.5438 58.6938 56.8235 59.1461 58.1071 59.1461C59.3907 59.1461 60.6743 58.6938 61.6488 57.7819L61.9931 57.4572C62.9402 56.5781 63.4607 55.4073 63.4607 54.1598C63.4607 52.9123 62.9402 51.7378 61.9931 50.8587L51.6303 41.1998C50.6363 40.2733 49.3292 39.8247 48.026 39.8429C47.9751 39.7152 45.2514 37.1181 45.2514 37.1181C48.2921 33.2553 50.0923 28.4952 50.0923 23.3447C50.0923 10.4723 38.8568 0 25.0462 0L25.0462 0ZM25.0462 1.86766C37.7532 1.86766 48.0887 11.501 48.0887 23.3448C48.0887 35.1886 37.7532 44.822 25.0462 44.822C12.3392 44.822 2.00377 35.1886 2.00377 23.3448C2.00377 11.501 12.3392 1.86766 25.0462 1.86766L25.0462 1.86766ZM25.0462 5.60283C19.9626 5.60283 15.1803 7.44852 11.5839 10.797C4.16394 17.7166 4.16394 28.9731 11.5839 35.889C15.1803 39.2411 19.9626 41.0868 25.0462 41.0868C30.1298 41.0868 34.912 39.2411 38.5085 35.8926C45.9284 28.9731 45.9284 17.7166 38.5085 10.797C34.912 7.44852 30.1298 5.60283 25.0462 5.60283L25.0462 5.60283ZM25.0462 7.47034C29.5936 7.47034 33.871 9.12271 37.0879 12.121C43.729 18.3074 43.729 28.3821 37.0879 34.5685C33.871 37.5668 29.5936 39.2192 25.0462 39.2192C20.4987 39.2192 16.2213 37.5668 13.0045 34.5685C6.36332 28.3821 6.36332 18.311 13.0045 12.121C16.2213 9.12271 20.4987 7.47034 25.0462 7.47034L25.0462 7.47034ZM24.8543 10.2717C21.2109 10.3118 17.7357 11.6687 15.1254 14.098C14.7341 14.4665 14.7341 15.0537 15.1254 15.4221C15.3211 15.6009 15.5794 15.6957 15.8377 15.6957C16.0921 15.6957 16.3503 15.6009 16.546 15.4221C19.0976 13.0402 22.6236 11.8621 26.2279 12.194C26.7797 12.2378 27.2689 11.8694 27.3237 11.355C27.3785 10.8407 26.9754 10.3848 26.4236 10.3337C25.8992 10.2863 25.3748 10.2644 24.8543 10.2717L24.8543 10.2717ZM31.918 12.0227C31.5345 11.9716 31.1314 12.1357 30.9162 12.4677C30.6305 12.909 30.7831 13.4817 31.2606 13.748C32.0824 14.2149 32.8534 14.7766 33.546 15.4222C33.7417 15.6046 33.9961 15.6958 34.2544 15.6958C34.5127 15.6958 34.767 15.6046 34.9666 15.4222C35.3541 15.0575 35.3541 14.4666 34.9666 14.1018C34.1565 13.3504 33.2565 12.6938 32.2937 12.1503C32.1763 12.0847 32.0472 12.0409 31.918 12.0227L31.918 12.0227ZM11.0201 22.411C10.4683 22.411 10.0182 22.8268 10.0182 23.3448C10.0182 23.8628 10.4683 24.2786 11.0201 24.2786L13.0238 24.2786C13.5756 24.2786 14.0256 23.8628 14.0256 23.3448C14.0256 22.8268 13.5756 22.411 13.0238 22.411L11.0201 22.411ZM37.0685 22.411C36.5167 22.411 36.0667 22.8268 36.0667 23.3448C36.0667 23.8628 36.5167 24.2786 37.0685 24.2786L39.0722 24.2786C39.624 24.2786 40.0741 23.8628 40.0741 23.3448C40.0741 22.8268 39.624 22.411 39.0722 22.411L37.0685 22.411ZM13.9165 26.6094C13.7874 26.6058 13.6504 26.6277 13.5252 26.6751L11.6663 27.3754C11.1536 27.5688 10.907 28.1122 11.1145 28.5901C11.271 28.9548 11.6467 29.1773 12.042 29.1773C12.1672 29.1773 12.2963 29.1555 12.4176 29.108L14.2765 28.4077C14.7892 28.2144 15.0357 27.6709 14.8283 27.193C14.6718 26.8356 14.3078 26.6131 13.9165 26.6094L13.9165 26.6094ZM36.1133 26.7881C35.7219 26.7881 35.3501 27.0033 35.1897 27.3571C34.9744 27.8349 35.2093 28.3821 35.7219 28.5827L37.5652 29.3122C37.6904 29.3633 37.8235 29.3852 37.9565 29.3852C38.3479 29.3852 38.7157 29.1736 38.8801 28.8161C39.0953 28.3419 38.8566 27.7948 38.3479 27.5942L36.5046 26.8647C36.3755 26.8136 36.2424 26.7881 36.1133 26.7881L36.1133 26.7881ZM16.5459 30.3335C16.2876 30.3335 16.0332 30.4247 15.8376 30.6071L14.4209 31.9276C14.0296 32.2923 14.0296 32.8832 14.4209 33.248C14.6166 33.4304 14.8709 33.5216 15.1292 33.5216C15.3875 33.5216 15.6419 33.4304 15.8376 33.248L17.2542 31.9276C17.6456 31.5628 17.6456 30.9719 17.2542 30.6071C17.0586 30.4247 16.8003 30.3335 16.5459 30.3335L16.5459 30.3335ZM33.5462 30.3335C33.2918 30.3335 33.0335 30.4247 32.8378 30.6071C32.4465 30.9719 32.4465 31.5628 32.8378 31.9276L34.2545 33.248C34.4502 33.4304 34.7045 33.5216 34.9628 33.5216C35.2211 33.5216 35.4755 33.4304 35.6712 33.248C36.0625 32.8832 36.0625 32.2923 35.6712 31.9276L34.2545 30.6071C34.0588 30.4247 33.8005 30.3335 33.5462 30.3335L33.5462 30.3335ZM20.3496 32.7264C19.9583 32.7264 19.5865 32.938 19.426 33.2954L18.6433 35.0134C18.4281 35.4876 18.6668 36.0384 19.1756 36.239C19.3047 36.2901 19.4339 36.312 19.5669 36.312C19.9544 36.312 20.3261 36.0968 20.4905 35.743L21.2732 34.0249C21.4884 33.5508 21.2497 33 20.741 32.7993C20.6118 32.7483 20.4788 32.7264 20.3496 32.7264L20.3496 32.7264ZM29.5661 32.7994C29.437 32.7994 29.3 32.8213 29.1747 32.8687C28.6582 33.062 28.4116 33.6055 28.619 34.0833L29.3704 35.816C29.527 36.1807 29.9027 36.3996 30.3018 36.3996C30.4271 36.3996 30.5523 36.3777 30.6775 36.3303C31.1902 36.137 31.4367 35.5935 31.2293 35.1156L30.4779 33.383C30.3214 33.0255 29.9574 32.8067 29.5661 32.7994L29.5661 32.7994ZM25.0459 33.6164C24.4941 33.6164 24.044 34.0322 24.044 34.5502L24.044 36.4177C24.044 36.9357 24.4941 37.3515 25.0459 37.3515C25.5977 37.3515 26.0477 36.9357 26.0477 36.4177L26.0477 34.5502C26.0477 34.0322 25.5977 33.6164 25.0459 33.6164L25.0459 33.6164ZM43.9912 38.5881L45.8697 40.3426C45.3962 40.5615 44.9422 40.8351 44.5469 41.2035L44.2026 41.5208C43.8112 41.8856 43.5177 42.305 43.279 42.7501L41.4005 41.0029C42.328 40.2587 43.1929 39.4526 43.9912 38.5881L43.9912 38.5881ZM48.0884 41.6996C48.8594 41.6996 49.6303 41.9732 50.2174 42.5203L60.5802 52.1792C61.1477 52.7081 61.4568 53.4121 61.4568 54.1599C61.4568 54.9076 61.1438 55.6116 60.5763 56.1405L60.2319 56.4615C59.0579 57.5521 57.1559 57.5521 55.9819 56.4615L45.619 46.8026C45.0516 46.2737 44.7385 45.5697 44.7385 44.822C44.7385 44.0742 45.0516 43.3702 45.619 42.8413L45.9634 42.5203C46.5505 41.9732 47.3214 41.6996 48.0884 41.6996L48.0884 41.6996Z" id="Shape" fill="#FFFFFF" fill-rule="evenodd" stroke="none" />
        </g>
      </g>
    </g>
    <g id="ux-design" transform="translate(295.3711 478.00024)">
      <path d="M0 0L256 0L256 256L0 256L0 0Z" id="Background" fill="none" fill-rule="evenodd" stroke="none" />
      <g clip-path="url(#mask_3)">
        <path d="M0 27.33L0 13.665C0 9.89151 1.33413 6.67064 4.00239 4.00239C6.67064 1.33413 9.89151 0 13.665 0L205.595 0C209.368 0 212.589 1.33413 215.258 4.00239C217.926 6.67064 219.26 9.89151 219.26 13.665L219.26 123.776L219.26 137.441C219.26 141.214 217.926 144.435 215.258 147.104C212.589 149.772 209.368 151.106 205.595 151.106L27.33 151.106L13.665 151.106C9.89151 151.106 6.67064 149.772 4.00239 147.104C1.33413 144.435 0 141.214 0 137.441L0 27.33Z" transform="translate(18.370117 31.282959)" id="Rectangle" fill="#CECECE" fill-rule="evenodd" stroke="none" />
        <path d="M10 137.441L10 13.665C10.0086 6.12201 16.1214 0.00899887 23.6647 1.90735e-06L13.665 0C6.12169 0.00881767 0.00881958 6.12169 0 13.665L0 137.441C0.00902557 144.985 6.12205 151.097 13.6654 151.106L23.665 151.106C16.1217 151.097 10.0088 144.984 10 137.441L10 137.441Z" transform="translate(18.370117 31.282959)" id="Shape" fill="#AFAFAF" fill-rule="evenodd" stroke="none" />
        <path d="M13.6654 137.441L13.6654 13.665C13.6563 6.12132 7.54332 0.0086174 0 0L10.0004 0C17.5437 0.00882149 23.6566 6.12169 23.6654 13.665L23.6654 137.441C23.6563 144.985 17.5433 151.097 10 151.106L0.000366211 151.106C7.54369 151.097 13.6565 144.984 13.6654 137.441L13.6654 137.441Z" transform="translate(213.96484 31.282959)" id="Shape" fill="#E2E2E2" fill-rule="evenodd" stroke="none" />
        <path d="M0 10.512L0 5.256C0 3.8046 0.513149 2.56574 1.53945 1.53945C2.56574 0.513149 3.8046 0 5.256 0L197.186 0C198.637 0 199.876 0.513149 200.903 1.53945C201.929 2.56574 202.442 3.8046 202.442 5.256L202.442 117.032C202.442 118.483 201.929 119.722 200.903 120.749C199.876 121.775 198.637 122.288 197.186 122.288L10.512 122.288L5.256 122.288C3.8046 122.288 2.56574 121.775 1.53945 120.749C0.513149 119.722 0 118.483 0 117.032L0 10.512Z" transform="translate(26.779297 39.691895)" id="Rectangle" fill="#63BCE7" fill-rule="evenodd" stroke="none" />
        <path d="M10 117.033L10 5.256C10.0083 2.35658 12.3566 0.00822449 15.256 3.8147e-06L5.256 0C2.35661 0.00823975 0.00823975 2.35661 0 5.256L1.90735e-06 117.033C0.008255 119.932 2.35664 122.281 5.25602 122.289L15.256 122.289C12.3566 122.281 10.0082 119.932 10 117.033L10 117.033Z" transform="translate(26.779297 39.690918)" id="Shape" fill="#6377E7" fill-rule="evenodd" stroke="none" />
        <path d="M5.25603 117.033L5.25603 5.256C5.24777 2.35659 2.89938 0.0082283 0 3.8147e-06L10 0C12.8994 0.00824356 15.2478 2.35661 15.256 5.256L15.256 117.033C15.2478 119.932 12.8994 122.281 10 122.289L3.05176e-05 122.289C2.89941 122.281 5.24779 119.932 5.25603 117.033L5.25603 117.033Z" transform="translate(213.96484 39.690918)" id="Shape" fill="#63E2E7" fill-rule="evenodd" stroke="none" />
        <path d="M0 0L76.383 0L76.383 9.19701L0 9.19701L0 0Z" transform="translate(89.80859 204.54688)" id="Shape" fill="#9E9E9E" fill-rule="evenodd" stroke="none" />
        <path d="M0 0L10 0L10 9.19701L0 9.19701L0 0Z" transform="translate(89.80859 204.54688)" id="Shape" fill="#707070" fill-rule="evenodd" stroke="none" />
        <path d="M0 0L54.659 0L54.659 22.158L0 22.158L0 0Z" transform="translate(100.66992 182.38892)" id="Shape" fill="#CECECE" fill-rule="evenodd" stroke="none" />
        <path d="M0 0L10 0L10 22.158L0 22.158L0 0Z" transform="translate(100.66992 182.38892)" id="Shape" fill="#AFAFAF" fill-rule="evenodd" stroke="none" />
        <path d="M0 10L0 5C0 3.61929 0.488155 2.44078 1.46447 1.46447C2.44078 0.488155 3.61929 0 5 0L78.583 0C79.9637 0 81.1422 0.488155 82.1185 1.46447C83.0948 2.44078 83.583 3.61929 83.583 5L83.583 132.164C83.583 133.545 83.0948 134.723 82.1185 135.7C81.1422 136.676 79.9637 137.164 78.583 137.164L5 137.164C3.61929 137.164 2.44078 136.676 1.46447 135.7C0.488155 134.723 0 133.545 0 132.164L0 10Z" transform="translate(121.87109 76.58008)" id="Rectangle" fill="#F8AF23" fill-rule="evenodd" stroke="none" />
        <path d="M0 13.333C0 16.0944 2.23858 18.333 5 18.333L78.583 18.333C81.3444 18.333 83.583 16.0944 83.583 13.333L83.583 0L7.62939e-06 0L0 13.333Z" transform="translate(121.87109 195.41113)" id="Shape" fill="#9E9E9E" fill-rule="evenodd" stroke="none" />
        <path d="M83.584 5C83.584 2.23858 81.3454 0 78.584 0L5 0C2.23858 0 0 2.23858 0 5L0 10.5L83.583 10.5L83.584 5Z" transform="translate(121.87109 76.58008)" id="Shape" fill="#9E9E9E" fill-rule="evenodd" stroke="none" />
        <path d="M0 4.708C0 2.10784 2.10784 0 4.708 0C7.30816 0 9.416 2.10784 9.416 4.708C9.416 7.30816 7.30816 9.416 4.708 9.416C2.10784 9.416 0 7.30816 0 4.708Z" transform="translate(158.95508 199.87012)" id="Circle" fill="#3F3679" fill-rule="evenodd" stroke="none" />
        <path d="M0 4.776L0 3.412C0 2.4698 0.333117 1.66559 0.999352 0.999352C1.66559 0.333117 2.4698 0 3.412 0L52.538 0C53.4802 0 54.2844 0.333117 54.9506 0.999352C55.6169 1.66559 55.95 2.4698 55.95 3.412L55.95 4.776L55.95 6.14C55.95 7.0822 55.6169 7.88641 54.9506 8.55265C54.2844 9.21888 53.4802 9.552 52.538 9.552L3.412 9.552C2.4698 9.552 1.66559 9.21888 0.999352 8.55265C0.333117 7.88641 0 7.0822 0 6.14L0 4.776Z" transform="translate(135.6875 104.76611)" id="Rectangle" fill="#F46275" fill-rule="evenodd" stroke="none" />
        <path d="M0 4.776L0 3.412C0 2.4698 0.333117 1.66559 0.999352 0.999352C1.66559 0.333117 2.4698 0 3.412 0L52.538 0C53.4802 0 54.2844 0.333117 54.9506 0.999352C55.6169 1.66559 55.95 2.4698 55.95 3.412L55.95 4.776L55.95 6.14C55.95 7.0822 55.6169 7.88641 54.9506 8.55265C54.2844 9.21888 53.4802 9.552 52.538 9.552L3.412 9.552C2.4698 9.552 1.66559 9.21888 0.999352 8.55265C0.333117 7.88641 0 7.0822 0 6.14L0 4.776Z" transform="translate(135.6875 123.26807)" id="Rectangle" fill="#F46275" fill-rule="evenodd" stroke="none" />
        <path d="M0 4.776L0 3.412C0 2.4698 0.333117 1.66559 0.999352 0.999352C1.66559 0.333117 2.4698 0 3.412 0L52.538 0C53.4802 0 54.2844 0.333117 54.9506 0.999352C55.6169 1.66559 55.95 2.4698 55.95 3.412L55.95 4.776L55.95 6.14C55.95 7.0822 55.6169 7.88641 54.9506 8.55265C54.2844 9.21888 53.4802 9.552 52.538 9.552L3.412 9.552C2.4698 9.552 1.66559 9.21888 0.999352 8.55265C0.333117 7.88641 0 7.0822 0 6.14L0 4.776Z" transform="translate(135.6875 141.771)" id="Rectangle" fill="#F46275" fill-rule="evenodd" stroke="none" />
        <path d="M0 0L55.95 0L55.95 25.757L0 25.757L0 0Z" transform="translate(135.6875 159.80103)" id="Shape" fill="#63BCE7" fill-rule="evenodd" stroke="none" />
        <path d="M0 22.918L27.975 0L55.95 22.918L0 22.918Z" transform="translate(135.6875 162.64111)" id="Shape" fill="#F8AF23" fill-rule="evenodd" stroke="none" />
        <path d="M0 5.873L7.168 0L14.56 6.056L14.56 17.801L0 5.873Z" transform="translate(177.07812 167.75806)" id="Shape" fill="#F46275" fill-rule="evenodd" stroke="none" />
        <path d="M0 0L55.95 0L55.95 25.757L0 25.757L0 0Z" transform="translate(48.176758 59.02295)" id="Shape" fill="#F46275" fill-rule="evenodd" stroke="none" />
        <path d="M0 22.917L27.975 0L55.95 22.917L0 22.917Z" transform="translate(48.176758 61.863037)" id="Shape" fill="#F8AF23" fill-rule="evenodd" stroke="none" />
        <path d="M0 4.776L0 3.412C0 2.4698 0.333117 1.66559 0.999352 0.999352C1.66559 0.333117 2.4698 0 3.412 0L52.538 0C53.4802 0 54.2844 0.333117 54.9506 0.999352C55.6169 1.66559 55.95 2.4698 55.95 3.412L55.95 4.776L55.95 6.14C55.95 7.0822 55.6169 7.88641 54.9506 8.55265C54.2844 9.21888 53.4802 9.552 52.538 9.552L3.412 9.552C2.4698 9.552 1.66559 9.21888 0.999352 8.55265C0.333117 7.88641 0 7.0822 0 6.14L0 4.776Z" transform="translate(48.176758 96.53491)" id="Rectangle" fill="#F8AF23" fill-rule="evenodd" stroke="none" />
        <path d="M0 4.776L0 3.412C0 2.4698 0.333117 1.66559 0.999352 0.999352C1.66559 0.333117 2.4698 0 3.412 0L52.538 0C53.4802 0 54.2844 0.333117 54.9506 0.999352C55.6169 1.66559 55.95 2.4698 55.95 3.412L55.95 4.776L55.95 6.14C55.95 7.0822 55.6169 7.88641 54.9506 8.55265C54.2844 9.21888 53.4802 9.552 52.538 9.552L3.412 9.552C2.4698 9.552 1.66559 9.21888 0.999352 8.55265C0.333117 7.88641 0 7.0822 0 6.14L0 4.776Z" transform="translate(48.176758 115.03711)" id="Rectangle" fill="#F8AF23" fill-rule="evenodd" stroke="none" />
        <path d="M0 4.776L0 3.412C0 2.4698 0.333117 1.66559 0.999352 0.999352C1.66559 0.333117 2.4698 0 3.412 0L52.538 0C53.4802 0 54.2844 0.333117 54.9506 0.999352C55.6169 1.66559 55.95 2.4698 55.95 3.412L55.95 4.776L55.95 6.14C55.95 7.0822 55.6169 7.88641 54.9506 8.55265C54.2844 9.21888 53.4802 9.552 52.538 9.552L3.412 9.552C2.4698 9.552 1.66559 9.21888 0.999352 8.55265C0.333117 7.88641 0 7.0822 0 6.14L0 4.776Z" transform="translate(48.176758 133.54004)" id="Rectangle" fill="#F8AF23" fill-rule="evenodd" stroke="none" />
        <g id="Group" transform="translate(7.8203125 29.782959)">
          <path d="M19.5 0L1.5 0C0.671575 0 1.90735e-06 0.67157 0 1.5C-1.90735e-06 2.32841 0.671566 3 1.49999 3L19.5 3C20.3284 3 21 2.32843 21 1.5C21 0.671585 20.3284 0 19.5 0L19.5 0Z" transform="translate(0.0030078888 193.43399)" id="Shape" fill="#3F3679" fill-rule="evenodd" stroke="none" />
          <path d="M19.5 0L1.5 0C0.67157 0 0 0.67157 0 1.5C0 2.32841 0.67157 3 1.49998 3L19.5 3C20.3284 3 21 2.32843 21 1.5C21 0.671585 20.3284 0 19.5 0L19.5 0Z" transform="translate(219.36 193.43399)" id="Shape" fill="#3F3679" fill-rule="evenodd" stroke="none" />
          <path d="M182.458 0L1.5 0C0.671574 0 3.8147e-06 0.67157 0 1.5C-3.8147e-06 2.32841 0.671566 3 1.49999 3L182.458 3C183.286 3 183.958 2.32843 183.958 1.5C183.958 0.671585 183.286 0 182.458 0L182.458 0Z" transform="translate(28.20102 193.43399)" id="Shape" fill="#3F3679" fill-rule="evenodd" stroke="none" />
          <path d="M1.50001 185.461L238.86 185.461C239.688 185.461 240.36 184.789 240.36 183.961C240.36 183.133 239.688 182.461 238.86 182.461L198.103 182.461C198.776 181.418 199.135 180.203 199.135 178.961L199.135 154.106L216.146 154.106C224.518 154.097 231.302 147.313 231.311 138.941L231.311 15.165C231.302 6.79475 224.519 0.0100727 216.147 1.90735e-06L24.215 0C15.8435 0.0093708 9.05936 6.79349 9.05 15.165L9.05 138.941C9.05867 147.311 15.8422 154.096 24.2137 154.106L91.35 154.106L91.35 173.264L81.989 173.264C81.1606 173.264 80.489 173.936 80.489 174.764L80.489 182.464L1.5 182.464C0.671575 182.464 1.90735e-06 183.136 0 183.964C-1.90735e-06 184.792 0.671566 185.464 1.49999 185.464L1.50001 185.461ZM115.551 58.795L196.134 58.795L196.134 164.128L115.551 164.128L115.551 58.795ZM196.134 55.795L115.551 55.795L115.551 51.795C115.551 49.862 117.118 48.295 119.051 48.295L192.634 48.295C194.567 48.295 196.134 49.862 196.134 51.795L196.134 55.795ZM199.134 57.295L199.134 51.795C199.13 48.2072 196.222 45.2995 192.634 45.295L119.051 45.295C115.463 45.2994 112.555 48.207 112.551 51.795L112.551 130.695L24.215 130.695C22.1419 130.693 20.4618 129.013 20.459 126.94L20.459 15.164C20.4613 13.0904 22.1417 11.4101 24.2151 11.408L216.145 11.408C218.218 11.4102 219.899 13.0905 219.901 15.164L219.901 126.941C219.898 129.014 218.218 130.694 216.145 130.696L199.135 130.696L199.134 57.295ZM158.371 182.461L119.051 182.461C117.118 182.461 115.551 180.894 115.551 178.961L115.551 167.128L196.134 167.128L196.134 178.961C196.134 180.894 194.567 182.461 192.634 182.461L158.371 182.461ZM12.05 138.941L12.05 15.165C12.0581 8.44907 17.5002 3.00738 24.2156 2.99998L216.145 2.99998C222.86 3.00771 228.302 8.44965 228.31 15.165L228.31 138.941C228.303 145.656 222.861 151.099 216.145 151.106L199.135 151.106L199.135 133.696L216.146 133.696C219.875 133.692 222.898 130.67 222.902 126.941L222.902 15.164C222.898 11.4345 219.875 8.41233 216.146 8.40797L24.215 8.40797C20.4856 8.41238 17.4634 11.4346 17.459 15.164L17.459 126.941C17.4635 130.67 20.4859 133.692 24.2151 133.696L112.551 133.696L112.551 151.105L24.215 151.105C17.4998 151.098 12.0577 145.656 12.05 138.941L12.05 138.941ZM94.35 154.106L112.55 154.106L112.55 173.264L94.35 173.264L94.35 154.106ZM83.489 176.264L112.552 176.264L112.552 178.964C112.552 180.204 112.91 181.42 113.583 182.463L83.489 182.464L83.489 176.264Z" id="Shape" fill="#3F3679" fill-rule="evenodd" stroke="none" />
          <path d="M54.038 7.62939e-06L4.912 7.62939e-06C2.20033 0.00276184 0.00276184 2.20033 1.52588e-05 4.91201L0 7.64101C0.00265503 10.3525 2.20013 12.5501 4.91182 12.553L54.038 12.553C56.7497 12.5503 58.9473 10.3527 58.95 7.64101L58.95 4.912C58.9474 2.20052 56.7499 0.00286102 54.0382 0L54.038 7.62939e-06ZM55.95 7.64101C55.9489 8.6965 55.0935 9.5519 54.038 9.55301L4.912 9.55301C3.85649 9.5519 3.0011 8.69652 3 7.64101L3 4.912C3.0011 3.85651 3.85648 3.00111 4.91199 3L54.038 3C55.0935 3.00111 55.9489 3.85649 55.95 4.912L55.95 7.64101Z" transform="translate(126.36801 73.48298)" id="Shape" fill="#3F3679" fill-rule="evenodd" stroke="none" />
          <path d="M54.038 7.62939e-06L4.912 7.62939e-06C2.20033 0.00276184 0.00276184 2.20033 1.52588e-05 4.91201L0 7.64101C0.00265503 10.3525 2.20013 12.5501 4.91182 12.553L54.038 12.553C56.7497 12.5502 58.9473 10.3527 58.95 7.64099L58.95 4.912C58.9474 2.20052 56.7499 0.00286102 54.0382 0L54.038 7.62939e-06ZM55.95 7.64101C55.9489 8.6965 55.0935 9.5519 54.038 9.55301L4.912 9.55301C3.85649 9.55191 3.0011 8.69652 3 7.64101L3 4.912C3.0011 3.85651 3.85648 3.00111 4.91199 3L54.038 3C55.0935 3.00111 55.9489 3.85649 55.95 4.912L55.95 7.64101Z" transform="translate(126.36801 91.98498)" id="Shape" fill="#3F3679" fill-rule="evenodd" stroke="none" />
          <path d="M54.038 0L4.912 0C2.20033 0.00274658 0.00276184 2.20032 1.52588e-05 4.912L0 7.64101C0.00265503 10.3525 2.20013 12.5502 4.91182 12.553L54.038 12.553C56.7497 12.5503 58.9473 10.3527 58.95 7.64101L58.95 4.912C58.9474 2.2005 56.7499 0.00285339 54.0382 0L54.038 0ZM55.95 7.64101C55.9489 8.69652 55.0935 9.55191 54.038 9.55302L4.912 9.55301C3.85649 9.55193 3.0011 8.69653 3 7.64102L3 4.912C3.0011 3.85649 3.85648 3.0011 4.91199 2.99998L54.038 3C55.0935 3.00108 55.9489 3.85648 55.95 4.91199L55.95 7.64101Z" transform="translate(126.36801 110.48798)" id="Shape" fill="#3F3679" fill-rule="evenodd" stroke="none" />
          <path d="M57.45 0L1.5 0C0.67157 0 0 0.67157 0 1.5L0 27.257C0 28.0854 0.67157 28.757 1.5 28.757L57.45 28.757C58.2784 28.757 58.95 28.0854 58.95 27.257L58.95 1.5C58.95 0.67157 58.2784 0 57.45 0L57.45 0ZM53.25 25.757L5.698 25.757L29.475 6.278L53.25 25.757ZM45.25 15.329L50.05 11.396L55.942 16.222L55.942 24.089L45.25 15.329ZM55.943 12.344L51.012 8.3C50.4594 7.84778 49.6646 7.84778 49.112 8.3L42.894 13.394L30.426 3.17999C30.3278 3.10738 30.221 3.04724 30.108 3.00101L55.95 3.00099L55.943 12.344ZM28.843 3.00002C28.73 3.04626 28.6232 3.1064 28.525 3.17903L3.00099 24.089L3.00099 3.00002L28.843 3.00002Z" transform="translate(126.36801 128.517)" id="Shape" fill="#3F3679" fill-rule="evenodd" stroke="none" />
          <path d="M57.45 0L1.5 0C0.671574 0 0 0.671574 0 1.5L0 27.257C0 28.0854 0.671574 28.757 1.5 28.757L57.45 28.757C58.2784 28.757 58.95 28.0854 58.95 27.257L58.95 1.5C58.95 0.671574 58.2784 0 57.45 0L57.45 0ZM55.95 24.09L30.423 3.177C30.3246 3.10391 30.2174 3.04344 30.104 2.997L55.947 2.997L55.95 24.09ZM53.25 25.757L5.69801 25.757L29.475 6.277L53.25 25.757ZM28.844 3C28.7306 3.04644 28.6234 3.10691 28.525 3.18L3 24.089L3 3L28.844 3Z" transform="translate(38.857006 27.739986)" id="Shape" fill="#3F3679" fill-rule="evenodd" stroke="none" />
          <path d="M54.038 0L4.912 0C2.20032 0.00276184 0.00275421 2.20033 0 4.912L0 7.64101C0.0026474 10.3525 2.20012 12.5501 4.9118 12.553L54.038 12.553C56.7497 12.5503 58.9472 10.3527 58.95 7.64101L58.95 4.911C58.9466 2.19958 56.7492 0.00268555 54.0379 0L54.038 0ZM55.95 7.641C55.9489 8.6965 55.0935 9.55189 54.038 9.553L4.912 9.553C3.85649 9.5519 3.0011 8.69651 3 7.641L3 4.911C3.00103 3.85561 3.85636 3.00017 4.91187 2.99899L54.038 2.99899C55.0935 3.0001 55.9489 3.85548 55.95 4.911L55.95 7.641Z" transform="translate(38.857006 65.25199)" id="Shape" fill="#3F3679" fill-rule="evenodd" stroke="none" />
          <path d="M54.038 0L4.912 0C2.20032 0.00276184 0.00275421 2.20033 0 4.912L0 7.64101C0.0026474 10.3525 2.20012 12.5501 4.9118 12.553L54.038 12.553C56.7497 12.5503 58.9472 10.3527 58.95 7.64101L58.95 4.912C58.9474 2.20052 56.7499 0.00286102 54.0382 0L54.038 0ZM55.95 7.641C55.9489 8.6965 55.0935 9.55189 54.038 9.553L4.912 9.553C3.85649 9.5519 3.0011 8.69651 3 7.641L3 4.912C3.00103 3.85662 3.85636 3.00117 4.91187 3L54.038 3C55.0935 3.00111 55.9489 3.85649 55.95 4.912L55.95 7.641Z" transform="translate(38.857006 83.75399)" id="Shape" fill="#3F3679" fill-rule="evenodd" stroke="none" />
          <path d="M54.038 0L4.912 0C2.20032 0.00276184 0.00275421 2.20033 0 4.91202L0 7.64101C0.0026474 10.3525 2.20012 12.5501 4.9118 12.553L54.038 12.553C56.7497 12.5502 58.9472 10.3527 58.95 7.64099L58.95 4.912C58.9474 2.20052 56.7499 0.00286865 54.0382 1.52588e-05L54.038 0ZM55.95 7.64101C55.9489 8.6965 55.0935 9.5519 54.038 9.55301L4.912 9.55301C3.85649 9.55191 3.0011 8.69652 3 7.64101L3 4.912C3.00103 3.85661 3.85636 3.00117 4.91187 3L54.038 3C55.0935 3.0011 55.9489 3.85649 55.95 4.912L55.95 7.64101Z" transform="translate(38.857006 102.25698)" id="Shape" fill="#3F3679" fill-rule="evenodd" stroke="none" />
        </g>
      </g>
    </g>
    <g id="html" transform="translate(0 412.2937)">
      <path d="M241 120.5C241 129.682 239.972 138.619 238.029 147.207C235.009 160.55 229.777 173.053 222.733 184.306C222.434 184.788 222.129 185.27 221.819 185.752C200.369 218.995 163.004 241 120.5 241C77.9955 241 40.6306 218.995 19.1816 185.752C9.85135 171.302 3.53121 154.727 1.10662 136.908C0.546015 132.796 0.196753 128.615 0.0640147 124.376C0.0197695 123.087 7.01402e-09 121.799 7.01402e-09 120.5C7.01402e-09 108.779 1.67241 97.4525 4.79035 86.7402C6.03959 82.4564 7.51995 78.2709 9.22202 74.1983C11.9813 67.5586 15.3256 61.2239 19.1816 55.2478C40.6306 22.0049 77.9955 0 120.5 0C163.004 0 200.369 22.0049 221.818 55.2478C226.697 62.8073 230.755 70.9472 233.864 79.5446C235.334 83.627 236.598 87.8125 237.631 92.0865C238.625 96.1882 239.407 100.374 239.963 104.628C240.509 108.745 240.838 112.931 240.956 117.17C240.985 118.277 241 119.383 241 120.5L241 120.5Z" id="Shape" fill="#5C5E70" fill-rule="evenodd" stroke="none" />
      <path d="M202.637 60.137L202.637 185.752C181.188 218.995 143.823 241 101.318 241C58.8139 241 21.449 218.995 0 185.752L0 10.732C0 4.80541 4.80541 0 10.732 0L142.5 0L202.637 60.137L202.637 60.137Z" transform="translate(19.18164 0)" id="Shape" fill="#F9EED7" fill-rule="evenodd" stroke="none" />
      <path d="M0 49.4041L0 0L60.137 60.137L10.733 60.137C4.8054 60.137 0 55.3316 0 49.4041L0 49.4041Z" transform="translate(161.68164 0)" id="Shape" fill="#E8DBC4" fill-rule="evenodd" stroke="none" />
      <g id="Group" transform="translate(19.18164 54.398193)">
        <path d="M202.637 0L202.637 29.9678C181.188 63.2107 143.823 85.2156 101.318 85.2156C58.8139 85.2156 21.449 63.2107 0 29.9678L0 0L202.637 0L202.637 0L202.637 0Z" transform="translate(0 101.38619)" id="Shape" fill="#FF525D" fill-rule="evenodd" stroke="none" />
        <path d="M2.47261 13.5614L22.7345 0.39916C23.1332 0.0800259 23.6914 0 24.2497 0C26.6427 0 29.6741 2.55309 29.6741 5.82354C29.6741 7.17963 29.1158 8.37569 28.238 8.93441L14.1983 18.0279L28.238 27.1219C29.1153 27.6802 29.6741 28.8767 29.6741 30.2328C29.6741 33.5037 26.6427 36.0559 24.2497 36.0559C23.6914 36.0559 23.1327 35.9763 22.7345 35.6572L2.47261 22.4949C0.638275 21.2984 0 19.384 0 18.0275C-0.000466853 16.6723 0.638275 14.758 2.47261 13.5614L2.47261 13.5614Z" transform="translate(49.188934 21.457445)" id="Shape" fill="#FF525D" fill-rule="evenodd" stroke="none" />
        <path d="M36.4545 4.22785C36.4545 4.70702 36.375 5.26481 36.1354 5.74304L8.05609 63.2564C7.49783 64.4529 5.98217 65.2503 4.4665 65.2503C1.75431 65.2503 0 63.0168 0 61.0224C0 60.5442 0.159571 59.9855 0.398686 59.5072L28.3975 1.99437C29.0353 0.637801 30.3119 0 31.748 0C33.9819 -1.07735e-05 36.4545 1.67522 36.4545 4.22785L36.4545 4.22785Z" transform="translate(83.09059 0)" id="Shape" fill="#FF525D" fill-rule="evenodd" stroke="none" />
        <path d="M27.2005 22.4949L6.93957 35.6572C6.54042 35.9763 5.98216 36.0559 5.42438 36.0559C3.03132 36.0559 0 33.5037 0 30.2328C0 28.8767 0.557782 27.6806 1.43518 27.1219L15.4748 18.0279L1.43518 8.93441C0.557782 8.37616 0 7.17963 0 5.82354C0 2.55262 3.03133 0 5.42438 0C5.98216 0 6.54089 0.0800187 6.93957 0.39916L27.2005 13.5614C29.0348 14.758 29.6731 16.6723 29.6731 18.0279C29.6736 19.384 29.0348 21.2984 27.2005 22.4949L27.2005 22.4949Z" transform="translate(123.7747 21.457445)" id="Shape" fill="#FF525D" fill-rule="evenodd" stroke="none" />
      </g>
      <g id="Group" transform="translate(56.660156 172.08813)">
        <path d="M19.9098 23.1068L8.74943 23.1068L8.74943 38.3049C8.74943 40.0997 6.56207 40.9973 4.37471 40.9973C2.18736 40.9973 0 40.1001 0 38.3049L0 2.63594C0 0.785132 2.18736 0 4.37471 0C6.56254 0 8.74943 0.785132 8.74943 2.63594L8.74943 16.3762L19.9098 16.3762L19.9098 2.63594C19.9098 0.785132 22.0972 0 24.2845 0C26.4719 0 28.6592 0.785132 28.6592 2.63594L28.6592 38.3049C28.6592 40.0997 26.4719 40.9973 24.2845 40.9973C22.0972 40.9973 19.9098 40.1002 19.9098 38.3049L19.9098 23.1068L19.9098 23.1068Z" id="Shape" fill="#F9EED7" fill-rule="evenodd" stroke="none" />
        <path d="M26.8644 0C28.7153 0 29.5004 2.01885 29.5004 3.86965C29.5004 6.00099 28.5472 7.8518 26.8644 7.8518L19.1247 7.8518L19.1247 38.3049C19.1247 40.0997 16.9373 40.9973 14.75 40.9973C12.5631 40.9973 10.3757 40.1001 10.3757 38.3049L10.3757 7.8518L2.63594 7.8518C0.953178 7.8518 0 6.00099 0 3.86965C0 2.01885 0.785607 0 2.63594 0L26.8644 0L26.8644 0Z" transform="translate(34.939594 0)" id="Shape" fill="#F9EED7" fill-rule="evenodd" stroke="none" />
        <path d="M19.7418 26.4709C19.0127 27.7051 17.891 28.0972 16.8253 28.0972C15.8156 28.0972 14.7504 27.7606 14.0773 26.4709L8.74944 16.7123L8.74944 38.3044C8.74944 40.0992 6.56208 40.9968 4.37472 40.9968C2.18736 40.9968 0 40.0997 0 38.3044L0 4.37424C0 1.17723 2.18736 0 4.37472 0C7.51572 0 8.86147 0.336551 11.1613 4.37424L16.9378 14.4694L22.7138 4.37424C25.0136 0.336077 26.3594 0 29.5004 0C31.7442 0 33.8751 1.17817 33.8751 4.37424L33.8751 38.3044C33.8751 40.0992 31.6877 40.9968 29.5004 40.9968C27.313 40.9968 25.1257 40.0997 25.1257 38.3044L25.1257 17.2729L19.7418 26.4709L19.7418 26.4709Z" transform="translate(70.72085 0.00045967105)" id="Shape" fill="#F9EED7" fill-rule="evenodd" stroke="none" />
        <path d="M3.81363 40.9973C1.90682 40.9973 0 40.1002 0 38.3049L0 2.63594C0 0.785132 2.18736 0 4.37472 0C6.56208 0 8.74944 0.785132 8.74944 2.63594L8.74944 33.37L21.5361 33.37C23.2189 33.37 24.06 35.2769 24.06 37.1837C24.06 39.0905 23.2184 40.9973 21.5361 40.9973L3.81363 40.9973L3.81363 40.9973Z" transform="translate(113.45646 0)" id="Shape" fill="#F9EED7" fill-rule="evenodd" stroke="none" />
      </g>
    </g>
    <g id="css" transform="translate(366.3711 153.36743)">
      <path d="M233 116.5C233 153.961 215.316 187.294 187.841 208.606C168.131 223.899 143.381 233 116.5 233C89.6194 233 64.8691 223.899 45.1592 208.606C17.6843 187.294 0 153.961 0 116.5C0 52.1588 52.1588 0 116.5 0C180.841 0 233 52.1588 233 116.5L233 116.5Z" id="Shape" fill="#F2F2F2" fill-rule="evenodd" stroke="none" />
      <path d="M169.282 0L155.982 154.236C136.272 169.529 111.521 178.63 84.6409 178.63C57.7603 178.63 33.01 169.529 13.3001 154.236L0 0L169.282 0L169.282 0Z" transform="translate(31.859375 54.370117)" id="Shape" fill="#006BC0" fill-rule="evenodd" stroke="none" />
      <path d="M0 0L0 161.079L55.6433 145.37L68.056 0L0 0Z" transform="translate(116.49805 68.870605)" id="Polygon" fill="#0096DC" fill-rule="evenodd" stroke="none" />
      <path d="M101.948 42.796L61.8164 42.796L103.751 21.4542L105.564 0L0 0L1.84716 21.8733L44.2227 21.8733L3.56417 42.203L5.45593 64.6106L5.45593 64.6106L77.9835 64.6106L75.6062 91.2978L52.7818 97.4796L29.0062 90.8222L28.4119 74.1796L6.26415 74.1796L9.03466 106.99L52.7818 119.353L96.5284 106.99L101.949 42.7924L101.948 42.796Z" transform="translate(63.716797 89.079834)" id="Polygon" fill="#FFFFFF" fill-rule="evenodd" stroke="none" />
      <g id="Group" transform="translate(67.32324 7.133789)">
        <path d="M7.92519 23.4584L7.92519 8.24192L29.7985 8.24192L29.7985 0L0 0L0 31.7003L29.7985 31.7003L29.7985 23.4584L7.92519 23.4584Z" id="Polygon" fill="#222123" fill-rule="evenodd" stroke="none" />
        <path d="M8.04397 12.4027L8.04397 8.59825L29.799 8.59825L29.799 8.24192L29.799 0L0 0L0 19.6539L21.3582 19.6539L21.3582 23.4584L0 23.4584L0 31.7003L29.799 31.7003L29.799 23.4584L29.799 12.4027L8.04397 12.4027Z" transform="translate(34.553543 0)" id="Polygon" fill="#222123" fill-rule="evenodd" stroke="none" />
        <path d="M8.04397 12.4027L8.04397 8.59825L29.7985 8.59825L29.7985 8.24192L29.7985 0L0 0L0 19.6539L21.3582 19.6539L21.3582 23.4584L0 23.4584L0 31.7003L29.7985 31.7003L29.7985 23.4584L29.7985 12.4027L8.04397 12.4027Z" transform="translate(68.552505 0)" id="Polygon" fill="#222123" fill-rule="evenodd" stroke="none" />
      </g>
    </g>
    <g id="browser" transform="translate(58.95117 118.000244)">
      <path d="M171.687 149.703C171.687 158.954 164.188 166.453 154.938 166.453L16.75 166.453C7.49929 166.453 0 158.954 0 149.703L0 16.75C0 7.49929 7.49929 0 16.75 0L154.938 0C164.188 0 171.687 7.49929 171.687 16.75L171.687 149.703L171.687 149.703Z" transform="translate(48.15625 5.234375)" id="Shape" fill="#FFFFFF" fill-rule="evenodd" stroke="none" />
      <path d="M16.75 0L154.794 0C164.045 0 171.544 7.49929 171.544 16.75L171.544 37.6875L0 37.6875L0 16.75C0 7.49929 7.49929 0 16.75 0L16.75 0Z" transform="translate(48.299805 5.234375)" id="Shape" fill="#FF5A5A" fill-rule="evenodd" stroke="none" />
      <path d="M0 0L165.358 0" transform="translate(52.416992 42.921875)" id="Shape" fill="#231F20" fill-rule="evenodd" stroke="none" />
      <path d="M110.314 16.75L53.3906 16.75L32.4531 0L32.4531 16.75L23.6855 16.75C10.6043 16.75 0 27.3543 0 40.4355L0 100.631C0 113.712 10.6043 124.316 23.6855 124.316L110.314 124.316C123.396 124.316 134 113.712 134 100.631L134 40.4355C134 27.3543 123.396 16.75 110.314 16.75L110.314 16.75Z" transform="translate(128.76562 138.44922)" id="Shape" fill="#78D2FA" fill-rule="evenodd" stroke="none" />
      <path d="M131.259 13.7884L98.8041 13.7884C88.3651 5.1747 74.9829 0 60.3921 0C27.0387 -7.98702e-06 0 27.0387 0 60.3926C0 93.7466 27.0387 120.785 60.3921 120.785C93.7456 120.785 120.785 93.7461 120.785 60.3926C120.785 49.9553 118.137 40.1367 113.476 31.5711L131.259 13.7884L131.259 13.7884Z" transform="translate(5.234375 87.06494)" id="Shape" fill="#A5DC69" fill-rule="evenodd" stroke="none" />
      <path d="M5.23438 10.4688L67.4737 10.4688C70.3647 10.4688 72.7081 8.1248 72.7081 5.23438C72.7081 2.34395 70.3647 0 67.4737 0L5.23438 0C2.34343 0 0 2.34395 0 5.23438C0 8.1248 2.34343 10.4688 5.23438 10.4688L5.23438 10.4688Z" transform="translate(129.8623 18.84375)" id="Shape" fill="#000000" fill-rule="evenodd" stroke="none" />
      <path d="M5.23438 10.4688C6.61102 10.4688 7.96149 9.90867 8.93508 8.93456C9.90868 7.96148 10.4688 6.61102 10.4688 5.23438C10.4688 3.85773 9.90867 2.50727 8.93508 1.53367C7.9615 0.560078 6.61102 0 5.23438 0C3.8525 0 2.50203 0.559555 1.52844 1.53367C0.554842 2.50779 0 3.85773 0 5.23438C0 6.61102 0.554842 7.96148 1.52844 8.93456C2.50727 9.90867 3.8525 10.4688 5.23438 10.4688L5.23438 10.4688Z" transform="translate(83.740234 18.84375)" id="Shape" fill="#000000" fill-rule="evenodd" stroke="none" />
      <path d="M5.23438 10.4688C6.61102 10.4688 7.96149 9.90867 8.93508 8.93456C9.90868 7.96148 10.4688 6.61102 10.4688 5.23438C10.4688 3.85773 9.90867 2.50727 8.93508 1.53367C7.96149 0.560078 6.61102 0 5.23438 0C3.85773 0 2.50727 0.559555 1.53367 1.53367C0.560078 2.50779 0 3.85773 0 5.23438C0 6.61102 0.560078 7.96148 1.53367 8.93456C2.50727 9.90867 3.85774 10.4688 5.23438 10.4688L5.23438 10.4688Z" transform="translate(63.833008 18.84375)" id="Shape" fill="#000000" fill-rule="evenodd" stroke="none" />
      <path d="M5.23438 10.4688C6.61102 10.4688 7.96149 9.90867 8.93508 8.93456C9.90867 7.96148 10.4688 6.61102 10.4688 5.23438C10.4688 3.85773 9.90867 2.50727 8.93508 1.53367C7.9615 0.560078 6.61102 0 5.23438 0C3.85773 0 2.50726 0.559555 1.53367 1.53367C0.560082 2.50727 0 3.85773 0 5.23438C0 6.61102 0.560082 7.96148 1.53367 8.93456C2.50726 9.90867 3.85773 10.4688 5.23438 10.4688L5.23438 10.4688Z" transform="translate(103.640625 18.84375)" id="Shape" fill="#000000" fill-rule="evenodd" stroke="none" />
      <path d="M31.9297 5.23438C31.9297 2.34395 29.5863 0 26.6953 0L5.23437 0C2.34343 0 0 2.34395 0 5.23438C0 8.1248 2.34343 10.4688 5.23437 10.4688L26.6953 10.4688C29.5863 10.4688 31.9297 8.12479 31.9297 5.23438L31.9297 5.23438Z" transform="translate(123.53125 64.9292)" id="Shape" fill="#000000" fill-rule="evenodd" stroke="none" />
      <path d="M5.23437 10.4688L26.6519 10.4688C29.5428 10.4688 31.8862 8.1248 31.8862 5.23438C31.8862 2.34395 29.5428 0 26.6519 0L5.23437 0C2.34342 0 0 2.34395 0 5.23438C0 8.1248 2.34342 10.4688 5.23437 10.4688L5.23437 10.4688Z" transform="translate(166.37402 64.9292)" id="Shape" fill="#000000" fill-rule="evenodd" stroke="none" />
      <path d="M10.8058 0C10.8053 0 10.8048 0 10.8043 0L5.23228 0.0020926C2.34186 0.0031389 -0.00103831 2.34709 0 5.23856C0.00105429 8.12846 2.34448 10.4708 5.23437 10.4708C5.2349 10.4708 5.23543 10.4708 5.23647 10.4708L10.8079 10.4687C13.6984 10.4677 16.0413 8.12375 16.0402 5.23228C16.0392 2.34186 13.6957 0 10.8058 0L10.8058 0Z" transform="translate(182.21973 115.16211)" id="Shape" fill="#000000" fill-rule="evenodd" stroke="none" />
      <path d="M25.4647 0C25.4642 0 25.4631 0 25.4621 0L5.23176 0.0109901C2.3408 0.0125636 -0.00156546 2.35703 0 5.24798C0.00156546 8.13788 2.34448 10.4797 5.23438 10.4797C5.2349 10.4797 5.23594 10.4797 5.237 10.4797L25.4673 10.4687C28.3583 10.4672 30.7006 8.1227 30.6991 5.23175C30.6975 2.34186 28.3546 0 25.4647 0L25.4647 0Z" transform="translate(143.08203 115.17505)" id="Shape" fill="#000000" fill-rule="evenodd" stroke="none" />
      <path d="M22.7313 0L5.23438 0C2.34342 0 0 2.34395 0 5.23438C0 8.1248 2.34342 10.4688 5.23438 10.4688L22.7313 10.4688C25.6223 10.4688 27.9657 8.1248 27.9657 5.23438C27.9657 2.34395 25.6223 0 22.7313 0L22.7313 0Z" transform="translate(151.57324 90.05322)" id="Shape" fill="#000000" fill-rule="evenodd" stroke="none" />
      <path d="M5.23438 0C3.85249 0 2.50727 0.559555 1.52844 1.53367C0.554858 2.50726 0 3.85773 0 5.23438C0 6.61102 0.554842 7.96149 1.52844 8.93456C2.50727 9.91338 3.85251 10.4688 5.23438 10.4688C6.61102 10.4688 7.95626 9.91338 8.93508 8.93456C9.90867 7.96149 10.4688 6.61102 10.4688 5.23438C10.4688 3.85773 9.90867 2.50726 8.93508 1.53367C7.95626 0.559555 6.61102 0 5.23438 0L5.23438 0Z" transform="translate(187.79297 90.052246)" id="Shape" fill="#000000" fill-rule="evenodd" stroke="none" />
      <path d="M5.23438 0C3.85773 0 2.50727 0.559555 1.53367 1.53367C0.560082 2.50725 0 3.85773 0 5.23438C0 6.61102 0.560082 7.96148 1.53367 8.93456C2.50725 9.90814 3.85773 10.4688 5.23438 10.4688C6.61102 10.4688 7.96148 9.90867 8.93508 8.93456C9.90867 7.96148 10.4688 6.61102 10.4688 5.23438C10.4688 3.85773 9.90867 2.50727 8.93508 1.53367C7.9615 0.560066 6.61102 0 5.23438 0L5.23438 0Z" transform="translate(190.53125 257.53125)" id="Shape" fill="#000000" fill-rule="evenodd" stroke="none" />
      <path d="M239.08 149.965L225.078 149.965L225.078 21.9844C225.078 9.86209 215.216 0 203.094 0L64.9063 0C52.784 0 42.9219 9.86209 42.9219 21.9844L42.9219 85.8814C17.8911 95.1405 0 119.248 0 147.458C0 183.644 29.4402 213.084 65.6265 213.084C90.6767 213.084 112.49 198.974 123.546 178.286C123.542 178.486 123.531 178.684 123.531 178.885L123.531 239.08C123.531 255.027 136.505 268 152.451 268L176.91 268C179.801 268 182.144 265.656 182.144 262.766C182.144 259.875 179.801 257.531 176.91 257.531L152.451 257.531C142.277 257.531 134 249.254 134 239.08L134 178.885C134 168.711 142.277 160.434 152.451 160.434L161.219 160.434C164.11 160.434 166.453 158.09 166.453 155.199L166.453 149.34L178.886 159.287C179.814 160.03 180.968 160.434 182.156 160.434L239.08 160.434C249.254 160.434 257.531 168.711 257.531 178.885L257.531 239.08C257.531 249.254 249.254 257.531 239.08 257.531L217.776 257.531C214.885 257.531 212.541 259.875 212.541 262.766C212.541 265.656 214.885 268 217.776 268L239.08 268C255.027 268 268 255.027 268 239.08L268 178.885C268 162.938 255.027 149.965 239.08 149.965L239.08 149.965ZM64.9063 10.4688L203.094 10.4688C209.444 10.4688 214.609 15.6346 214.609 21.9844L214.609 37.6875L53.3906 37.6875L53.3906 21.9844C53.3906 15.6346 58.5564 10.4688 64.9063 10.4688L64.9063 10.4688ZM65.6265 202.615C35.2122 202.615 10.4688 177.871 10.4688 147.458C10.4688 117.043 35.2122 92.2993 65.6265 92.2993C78.4083 92.2993 90.8667 96.771 100.707 104.891C101.645 105.665 102.822 106.088 104.038 106.088L123.856 106.088L115.009 114.934C113.368 116.575 113.003 119.099 114.112 121.138C118.477 129.16 120.784 138.261 120.784 147.458C120.784 177.871 96.0408 202.615 65.6265 202.615L65.6265 202.615ZM164.489 134.362C162.917 133.105 160.765 132.86 158.951 133.731C157.138 134.603 155.984 136.437 155.984 138.449L155.984 149.965L152.451 149.965C143.329 149.965 135.186 154.215 129.881 160.833C130.779 156.513 131.253 152.04 131.253 147.458C131.253 137.844 129.131 128.313 125.088 119.66L140.194 104.555C141.691 103.058 142.139 100.807 141.329 98.8506C140.518 96.8951 138.61 95.6195 136.493 95.6195L105.875 95.6195C94.4103 86.7148 80.1932 81.8311 65.6265 81.8311C61.4453 81.8311 57.3562 82.2289 53.3906 82.98L53.3906 48.1563L214.609 48.1563L214.609 149.965L183.992 149.965L164.489 134.362L164.489 134.362Z" id="Shape" fill="#000000" fill-rule="evenodd" stroke="none" />
      <path d="M21.9435 33.5C24.8345 33.5 27.1779 31.156 27.1779 28.2656L27.1779 5.23438C27.1779 2.34395 24.8345 0 21.9435 0C19.0526 0 16.7092 2.34395 16.7092 5.23438L16.7092 11.5156L10.4687 11.5156L10.4687 5.23438C10.4687 2.34395 8.12533 0 5.23437 0C2.34342 0 0 2.34395 0 5.23438L0 28.2656C0 31.156 2.34342 33.5 5.23437 33.5C8.12533 33.5 10.4687 31.156 10.4687 28.2656L10.4687 21.9844L16.7092 21.9844L16.7092 28.2656C16.7092 31.156 19.0526 33.5 21.9435 33.5L21.9435 33.5Z" transform="translate(140.33398 192.23242)" id="Shape" fill="#000000" fill-rule="evenodd" stroke="none" />
      <path d="M5.23437 0C2.34342 0 0 2.34395 0 5.23438L0 28.2656C0 31.156 2.34342 33.5 5.23437 33.5L15.1232 33.5C18.0141 33.5 20.3575 31.156 20.3575 28.2656C20.3575 25.3752 18.0141 23.0313 15.1232 23.0313L10.4687 23.0313L10.4687 5.23438C10.4687 2.34395 8.12533 0 5.23437 0L5.23437 0Z" transform="translate(233.1914 192.23242)" id="Shape" fill="#000000" fill-rule="evenodd" stroke="none" />
      <path d="M18.8924 10.4688C21.7834 10.4688 24.1268 8.1248 24.1268 5.23438C24.1268 2.34395 21.7834 0 18.8924 0L5.23438 0C2.34342 0 0 2.34395 0 5.23438C0 8.1248 2.34342 10.4688 5.23438 10.4688L6.82876 10.4688L6.82876 28.2656C6.82876 31.156 9.17219 33.5 12.0631 33.5C14.9541 33.5 17.2975 31.156 17.2975 28.2656L17.2975 10.4688L18.8924 10.4688L18.8924 10.4688Z" transform="translate(171.6748 192.23242)" id="Shape" fill="#000000" fill-rule="evenodd" stroke="none" />
      <path d="M17.6011 17.8668L17.6011 28.2654C17.6011 31.1558 19.9446 33.4998 22.8355 33.4998C25.7265 33.4998 28.0699 31.1558 28.0699 28.2654L28.0699 5.23418C28.0699 3.11687 26.7943 1.20842 24.8387 0.398137C22.8837 -0.410054 20.6318 0.0359256 19.1343 1.53295L14.0349 6.63228L8.93561 1.53295C7.43859 0.0359256 5.18623 -0.411092 3.23118 0.398137C1.2751 1.20842 0 3.11687 0 5.23418L0 28.2654C0 31.1558 2.34342 33.4998 5.23438 33.4998C8.12533 33.4998 10.4688 31.1558 10.4688 28.2654L10.4688 17.8668C11.4355 18.7666 12.7096 19.2696 14.0349 19.2696C15.3603 19.2696 16.6344 18.7666 17.6011 17.8668L17.6011 17.8668Z" transform="translate(199.51953 192.23267)" id="Shape" fill="#000000" fill-rule="evenodd" stroke="none" />
      <path d="M19.1421 10.4687C21.4588 10.4687 23.6369 11.3712 25.2752 13.0095C27.3192 15.053 30.6342 15.0535 32.6777 13.0095C34.7217 10.9655 34.7222 7.65109 32.6777 5.60654C29.0623 1.99116 24.255 0 19.1421 0C14.0292 0 9.22192 1.99116 5.60654 5.60654C1.99063 9.22193 0 14.0292 0 19.1421C0 24.255 1.99116 29.0618 5.60654 32.6777C9.33812 36.4093 14.2401 38.2748 19.1421 38.2748C24.0441 38.2748 28.9456 36.4093 32.6777 32.6777C34.7217 30.6337 34.7222 27.3193 32.6777 25.2747C30.6342 23.2317 27.3192 23.2317 25.2752 25.2747C21.8928 28.6566 16.3904 28.6566 13.009 25.2747C11.3706 23.6363 10.4682 21.4583 10.4682 19.1416C10.4682 16.8243 11.3706 14.6468 13.009 13.0085C14.6474 11.3701 16.8254 10.4687 19.1421 10.4687L19.1421 10.4687Z" transform="translate(19.323242 128.31543)" id="Shape" fill="#000000" fill-rule="evenodd" stroke="none" />
      <path d="M12.1882 10.4688L19.1421 10.4688C22.0331 10.4688 24.3765 8.1248 24.3765 5.23438C24.3765 2.34395 22.0331 0 19.1421 0L12.1882 0C5.46783 0 0 5.46731 0 12.1882C0 18.9092 5.46783 24.3765 12.1882 24.3765C13.1367 24.3765 13.9077 25.148 13.9077 26.096C13.9077 27.0439 13.1362 27.8155 12.1882 27.8155L5.23438 27.8155C2.34343 27.8155 0 30.1594 0 33.0499C0 35.9403 2.34343 38.2842 5.23438 38.2842L12.1882 38.2842C18.9087 38.2842 24.3765 32.8169 24.3765 26.096C24.3765 19.375 18.9087 13.9077 12.1882 13.9077C11.2398 13.9077 10.4688 13.1362 10.4688 12.1882C10.4688 11.2403 11.2403 10.4688 12.1882 10.4688L12.1882 10.4688Z" transform="translate(56.38379 128.31543)" id="Shape" fill="#000000" fill-rule="evenodd" stroke="none" />
      <path d="M12.1882 10.4688L19.1421 10.4688C22.0331 10.4688 24.3765 8.1248 24.3765 5.23438C24.3765 2.34395 22.0331 0 19.1421 0L12.1882 0C5.46783 0 0 5.46731 0 12.1882C0 18.9092 5.46783 24.3765 12.1882 24.3765C13.1367 24.3765 13.9077 25.148 13.9077 26.096C13.9077 27.0439 13.1362 27.8155 12.1882 27.8155L5.23438 27.8155C2.34343 27.8155 0 30.1594 0 33.0499C0 35.9403 2.34343 38.2842 5.23438 38.2842L12.1882 38.2842C18.9087 38.2842 24.3765 32.8169 24.3765 26.096C24.3765 19.375 18.9087 13.9077 12.1882 13.9077C11.2398 13.9077 10.4688 13.1362 10.4688 12.1882C10.4688 11.2403 11.2403 10.4688 12.1882 10.4688L12.1882 10.4688Z" transform="translate(84.47754 128.31543)" id="Shape" fill="#000000" fill-rule="evenodd" stroke="none" />
    </g>
  </g>
</svg>