<?xml version="1.0" encoding="utf-8"?>
<svg width="597px" height="85px" viewbox="0 0 597 85" version="1.1" xmlns:xlink="http://www.w3.org/1999/xlink" xmlns="http://www.w3.org/2000/svg">
  <g id="LẬP-TRÌNH-CĂN-BẢN">
    <path d="M524.688 4.875Q525.844 4.75 527.188 4.75Q529.938 4.75 531.703 6.0625Q533.469 7.375 533.469 9.59375Q533.469 11.5 532.266 12.8125Q531.063 14.125 529.281 14.3438L529.281 15.9063L525.906 15.9063L525.906 12.3125Q528.303 12.3125 529.058 11.199Q529.406 10.6863 529.406 9.9375Q529.406 7.96875 526.469 7.96875Q525.938 7.96875 524.688 8.21875L524.688 4.875ZM55.3438 15.9375L59.1563 15.9375L52.4063 5.5625L48.25 5.5625L41.5313 15.9375L45.0625 15.9375L50.2188 8.75L55.3438 15.9375ZM205.625 15.9688L209.594 15.9688L202.688 5.71875L197.438 5.71875L205.625 15.9688ZM390.453 13.7656Q392.906 11.5938 393.219 8.0625L390.031 8.0625Q389.719 10.2813 388.203 11.5938Q386.688 12.9063 384.563 12.9063Q379.563 12.9063 379.188 8.0625L376.063 8.0625Q376.219 11.625 378.531 13.7813Q380.844 15.9375 384.5 15.9375Q388 15.9375 390.453 13.7656ZM360.844 63.0313Q355.875 65.6563 348.469 65.6563Q338.906 65.6563 333.156 59.5Q327.406 53.3438 327.406 43.3438Q327.406 32.5938 333.875 25.9688Q340.344 19.3438 350.281 19.3438Q356.656 19.3438 360.844 21.1875L360.844 26.7813Q356.031 24.0938 350.219 24.0938Q342.5 24.0938 337.703 29.25Q332.906 34.4063 332.906 43.0313Q332.906 51.2188 337.391 56.0781Q341.875 60.9375 349.156 60.9375Q355.906 60.9375 360.844 57.9375L360.844 63.0313ZM5.875 64.9063L29.125 64.9063L29.125 60.1563L11.125 60.1563L11.125 20.0938L5.875 20.0938L5.875 64.9063ZM64.875 64.9063L70.6875 64.9063L53.4375 20.0938L48 20.0938L30.8125 64.9063L36.6563 64.9063L41.125 52.3438L60.125 52.3438L64.875 64.9063ZM82.5313 47.9688L82.5313 64.9063L77.2813 64.9063L77.2813 20.0938L89.5938 20.0938Q96.7813 20.0938 100.734 23.5938Q104.688 27.0938 104.688 33.4688Q104.688 39.8438 100.297 43.9063Q95.9063 47.9688 88.4375 47.9688L82.5313 47.9688ZM144.219 24.8438L157.156 24.8438L157.156 20.0938L126.063 20.0938L126.063 24.8438L138.969 24.8438L138.969 64.9063L144.219 64.9063L144.219 24.8438ZM196.313 64.9063L190.063 64.9063L182.563 52.3438Q181.531 50.5938 180.563 49.3594Q179.594 48.125 178.578 47.3438Q177.563 46.5625 176.391 46.2031Q175.219 45.8438 173.75 45.8438L169.438 45.8438L169.438 64.9063L164.188 64.9063L164.188 20.0938L177.563 20.0938Q180.5 20.0938 182.984 20.8281Q185.469 21.5625 187.297 23.0625Q189.125 24.5625 190.156 26.7969Q191.188 29.0313 191.188 32.0313Q191.188 34.375 190.484 36.3281Q189.781 38.2813 188.484 39.8125Q187.188 41.3438 185.359 42.4219Q183.531 43.5 181.25 44.0938L181.25 44.2188Q182.375 44.7188 183.203 45.3594Q184.031 46 184.781 46.875Q185.531 47.75 186.266 48.8594Q187 49.9688 187.906 51.4375L196.313 64.9063ZM202.469 64.9063L207.719 64.9063L207.719 20.0938L202.469 20.0938L202.469 64.9063ZM255.625 64.9063L249.188 64.9063L226.125 29.1875Q225.25 27.8438 224.688 26.375L224.5 26.375Q224.75 27.8125 224.75 32.5313L224.75 64.9063L219.5 64.9063L219.5 20.0938L226.313 20.0938L248.75 55.25Q250.156 57.4375 250.563 58.25L250.688 58.25Q250.375 56.3125 250.375 51.6563L250.375 20.0938L255.625 20.0938L255.625 64.9063ZM295.813 64.9063L301.063 64.9063L301.063 20.0938L295.813 20.0938L295.813 39.75L272.625 39.75L272.625 20.0938L267.375 20.0938L267.375 64.9063L272.625 64.9063L272.625 44.4688L295.813 44.4688L295.813 64.9063ZM398.844 64.9063L404.656 64.9063L387.406 20.0938L381.969 20.0938L364.781 64.9063L370.625 64.9063L375.094 52.3438L394.094 52.3438L398.844 64.9063ZM447.375 64.9063L440.938 64.9063L417.875 29.1875Q417 27.8438 416.438 26.375L416.25 26.375Q416.5 27.8125 416.5 32.5313L416.5 64.9063L411.25 64.9063L411.25 20.0938L418.063 20.0938L440.5 55.25Q441.906 57.4375 442.313 58.25L442.438 58.25Q442.125 56.3125 442.125 51.6563L442.125 20.0938L447.375 20.0938L447.375 64.9063ZM476.656 20.0938L476.656 64.9063L489.719 64.9063Q496 64.9063 500.125 61.3438Q504.25 57.7813 504.25 52.0313Q504.25 47.4063 501.531 44.5156Q498.813 41.625 494.281 41.0938L494.281 40.9688Q497.906 39.7813 499.969 36.9688Q502.031 34.1563 502.031 30.3438Q502.031 25.7813 498.625 22.9375Q495.219 20.0938 489.406 20.0938L476.656 20.0938ZM548.031 64.9063L542.219 64.9063L537.469 52.3438L518.469 52.3438L514 64.9063L508.156 64.9063L525.344 20.0938L530.781 20.0938L548.031 64.9063ZM584.313 64.9063L590.75 64.9063L590.75 20.0938L585.5 20.0938L585.5 51.6563Q585.5 56.3125 585.813 58.25L585.688 58.25Q585.281 57.4375 583.875 55.25L561.438 20.0938L554.625 20.0938L554.625 64.9063L559.875 64.9063L559.875 32.5313Q559.875 27.8125 559.625 26.375L559.813 26.375Q560.375 27.8438 561.25 29.1875L584.313 64.9063ZM82.5313 24.8438L82.5313 43.2188L88.0313 43.2188Q93.4688 43.2188 96.3281 40.7344Q99.1875 38.25 99.1875 33.7188Q99.1875 24.8438 88.6875 24.8438L82.5313 24.8438ZM169.438 24.8438L169.438 41.0938L176.563 41.0938Q178.531 41.0938 180.203 40.5Q181.875 39.9063 183.094 38.7969Q184.313 37.6875 185 36.0781Q185.688 34.4688 185.688 32.4688Q185.688 28.875 183.359 26.8594Q181.031 24.8438 176.625 24.8438L169.438 24.8438ZM481.906 39.3125L481.906 24.8438L487.938 24.8438Q496.531 24.8438 496.531 31.375Q496.531 35.1563 494.063 37.2344Q491.594 39.3125 487.281 39.3125L481.906 39.3125ZM51.375 28.5313L58.4063 47.625L42.875 47.625L49.8438 28.5313Q50.25 27.4375 50.5625 25.5313L50.6875 25.5313Q51.0313 27.5938 51.375 28.5313ZM385.344 28.5313L392.375 47.625L376.844 47.625L383.813 28.5313Q384.219 27.4375 384.531 25.5313L384.656 25.5313Q385 27.5938 385.344 28.5313ZM535.75 47.625L528.719 28.5313Q528.375 27.5938 528.031 25.5313L527.906 25.5313Q527.594 27.4375 527.188 28.5313L520.219 47.625L535.75 47.625ZM481.906 60.1563L481.906 44.0313L487.938 44.0313Q498.75 44.0313 498.75 51.9688Q498.75 55.7813 496.203 57.9688Q493.656 60.1563 489.031 60.1563L481.906 60.1563ZM49.2813 73.8125Q50.1875 74.7188 51.4688 74.7188Q52.75 74.7188 53.6563 73.8125Q54.5625 72.9063 54.5625 71.625Q54.5625 70.3438 53.6563 69.4844Q52.75 68.625 51.4688 68.625Q50.25 68.625 49.3125 69.4844Q48.375 70.3438 48.375 71.625Q48.375 72.9063 49.2813 73.8125Z" />
  </g>
</svg>