<svg width="832" height="459" xmlns="http://www.w3.org/2000/svg" xmlns:xlink="http://www.w3.org/1999/xlink" overflow="hidden"><defs><clipPath id="clip0"><rect x="206" y="123" width="832" height="459"/></clipPath></defs><g clip-path="url(#clip0)" transform="translate(-206 -123)"><path d="M209 153C209 138.088 221.088 126 236 126 250.912 126 263 138.088 263 153 263 167.912 250.912 180 236 180 221.088 180 209 167.912 209 153Z" stroke="#EF8318" stroke-width="4" stroke-miterlimit="8" fill="#FFFFFF" fill-rule="evenodd"/><text font-family="Calibri,Calibri_MSFontService,sans-serif" font-weight="700" font-size="24" transform="translate(229.763 160)">1</text><path d="M314 135C314 130.029 318.029 126 323 126L1019 126C1023.97 126 1028 130.029 1028 135L1028 171C1028 175.971 1023.97 180 1019 180L323 180C318.029 180 314 175.971 314 171Z" fill="#D9D9D9" fill-rule="evenodd"/><text fill="#404040" font-family="Arial,Arial_MSFontService,sans-serif" font-weight="700" font-size="24" transform="translate(323.6 161)">Cài đặt môi trường phát triển (jdk, sdk, android studio,<tspan font-size="24" x="623.667" y="0">…</tspan>)</text><path d="M209 222C209 207.088 221.088 195 236 195 250.912 195 263 207.088 263 222 263 236.912 250.912 249 236 249 221.088 249 209 236.912 209 222Z" stroke="#EF8318" stroke-width="4" stroke-miterlimit="8" fill="#FFFFFF" fill-rule="evenodd"/><text font-family="Calibri,Calibri_MSFontService,sans-serif" font-weight="700" font-size="24" transform="translate(229.763 229)">2</text><path d="M314 207.667C314 200.671 319.671 195 326.667 195L1015.33 195C1022.33 195 1028 200.671 1028 207.667L1028 258.333C1028 265.329 1022.33 271 1015.33 271L326.667 271C319.671 271 314 265.329 314 258.333Z" fill="#D9D9D9" fill-rule="evenodd"/><text fill="#404040" font-family="Arial,Arial_MSFontService,sans-serif" font-weight="700" font-size="24" transform="translate(323.6 230)">Tạo một project android,tìm hiểu gradle, tìm hiểu cấu trúc 1 <tspan font-size="24" x="0" y="29">project android, chạy project trên máy ảo, máy thật</tspan></text><path d="M209 310C209 295.088 221.088 283 236 283 250.912 283 263 295.088 263 310 263 324.912 250.912 337 236 337 221.088 337 209 324.912 209 310Z" stroke="#EF8318" stroke-width="4" stroke-miterlimit="8" fill="#FFFFFF" fill-rule="evenodd"/><text font-family="Calibri,Calibri_MSFontService,sans-serif" font-weight="700" font-size="24" transform="translate(229.763 317)">3</text><path d="M314 296C314 288.82 319.82 283 327 283L1015 283C1022.18 283 1028 288.82 1028 296L1028 348C1028 355.18 1022.18 361 1015 361L327 361C319.82 361 314 355.18 314 348Z" fill="#D9D9D9" fill-rule="evenodd"/><text fill="#404040" font-family="Arial,Arial_MSFontService,sans-serif" font-weight="700" font-size="24" transform="translate(323.6 318)">Các layout container cơ bản: LinearLayout, RelativeLayout, <tspan font-size="24" x="0" y="29">FrameLayout, TableLayout, Viewpager, Fragment</tspan></text><path d="M209 398C209 383.088 221.088 371 236 371 250.912 371 263 383.088 263 398 263 412.912 250.912 425 236 425 221.088 425 209 412.912 209 398Z" stroke="#EF8318" stroke-width="4" stroke-miterlimit="8" fill="#FFFFFF" fill-rule="evenodd"/><text font-family="Calibri,Calibri_MSFontService,sans-serif" font-weight="700" font-size="24" transform="translate(229.763 406)">4</text><path d="M314 383.667C314 376.671 319.671 371 326.667 371L1015.33 371C1022.33 371 1028 376.671 1028 383.667L1028 434.333C1028 441.329 1022.33 447 1015.33 447L326.667 447C319.671 447 314 441.329 314 434.333Z" fill="#D9D9D9" fill-rule="evenodd"/><text fill="#404040" font-family="Arial,Arial_MSFontService,sans-serif" font-weight="700" font-size="24" transform="translate(323.6 407)">Các control cơ bản, TextView, EditText, Button, ImageView, <tspan font-size="24" x="0" y="29">RadioButton, CheckBox</tspan></text><path d="M209 483.5C209 468.864 221.088 457 236 457 250.912 457 263 468.864 263 483.5 263 498.136 250.912 510 236 510 221.088 510 209 498.136 209 483.5Z" stroke="#EF8318" stroke-width="4" stroke-miterlimit="8" fill="#FFFFFF" fill-rule="evenodd"/><text font-family="Calibri,Calibri_MSFontService,sans-serif" font-weight="700" font-size="24" transform="translate(229.763 491)">5</text><path d="M314 465.834C314 460.955 317.955 457 322.834 457L1019.17 457C1024.05 457 1028 460.955 1028 465.834L1028 501.166C1028 506.045 1024.05 510 1019.17 510L322.834 510C317.955 510 314 506.045 314 501.166Z" fill="#D9D9D9" fill-rule="evenodd"/><text fill="#404040" font-family="Arial,Arial_MSFontService,sans-serif" font-weight="700" font-size="24" transform="translate(323.6 492)">Xây dựng view dạng list, gridview sử dụng RecyclerView</text><path d="M209 552.5C209 537.864 221.088 526 236 526 250.912 526 263 537.864 263 552.5 263 567.136 250.912 579 236 579 221.088 579 209 567.136 209 552.5Z" stroke="#EF8318" stroke-width="4" stroke-miterlimit="8" fill="#FFFFFF" fill-rule="evenodd"/><text font-family="Calibri,Calibri_MSFontService,sans-serif" font-weight="700" font-size="24" transform="translate(229.763 560)">6</text><path d="M314 534.834C314 529.955 317.955 526 322.834 526L1019.17 526C1024.05 526 1028 529.955 1028 534.834L1028 570.166C1028 575.045 1024.05 579 1019.17 579L322.834 579C317.955 579 314 575.045 314 570.166Z" fill="#D9D9D9" fill-rule="evenodd"/><text fill="#404040" font-family="Arial,Arial_MSFontService,sans-serif" font-weight="700" font-size="24" transform="translate(323.6 561)">Chỉnh sửa,<tspan font-size="24" x="132" y="0">th</tspan><tspan font-size="24" x="154.667" y="0">ê</tspan><tspan font-size="24" x="168" y="0">m, xóa, sắp xếp các item trên RecyclerView.</tspan></text><path d="M236 180 236 195.24" stroke="#EF8318" stroke-width="4" stroke-miterlimit="8" fill="none" fill-rule="evenodd"/><path d="M236 249 236 283.447" stroke="#EF8318" stroke-width="4" stroke-miterlimit="8" fill="none" fill-rule="evenodd"/><path d="M236 337 236 371.447" stroke="#EF8318" stroke-width="4" stroke-miterlimit="8" fill="none" fill-rule="evenodd"/><path d="M236 425 236 456.56" stroke="#EF8318" stroke-width="4" stroke-miterlimit="8" fill="none" fill-rule="evenodd"/><path d="M236 510 236 525.24" stroke="#EF8318" stroke-width="4" stroke-miterlimit="8" fill="none" fill-rule="evenodd"/></g></svg>