<?xml version="1.0" encoding="utf-8"?>
<svg width="1321px" height="490px" viewbox="0 0 1321 490" version="1.1" xmlns:xlink="http://www.w3.org/1999/xlink" xmlns="http://www.w3.org/2000/svg">
  <path d="M0 0L5 0L5 60L0 60L0 0Z" transform="translate(40.19995 83.956055)" id="Rectangle-12" fill="#EF8318" fill-rule="evenodd" stroke="none" />
  <path d="M0 0L5 0L5 60L0 60L0 0Z" transform="translate(40.19995 213.4541)" id="Rectangle-13" fill="#EF8318" fill-rule="evenodd" stroke="none" />
  <path d="M0 0L5 0L5 60L0 60L0 0Z" transform="translate(40.299805 343.4541)" id="Rectangle-14" fill="#EF8318" fill-rule="evenodd" stroke="none" />
  <path d="M0 35C0 15.67 18.3563 0 41 0C63.6437 0 82 15.67 82 35C82 54.33 63.6437 70 41 70C18.3563 70 0 54.33 0 35Z" transform="translate(2.1999512 13.454102)" id="Ellipse-19" fill="#E2DBDB" fill-opacity="0.49803922" fill-rule="evenodd" stroke="#EF8318" stroke-width="4" />
  <path d="M0 35C0 15.67 18.3563 0 41 0C63.6437 0 82 15.67 82 35C82 54.33 63.6437 70 41 70C18.3563 70 0 54.33 0 35Z" transform="translate(2.1999512 13.454102)" id="Ellipse-20" fill="#E2DBDB" fill-opacity="0.49803922" fill-rule="evenodd" stroke="#EF8318" stroke-width="4" />
  <path d="M0 35C0 15.67 18.3563 0 41 0C63.6437 0 82 15.67 82 35C82 54.33 63.6437 70 41 70C18.3563 70 0 54.33 0 35Z" transform="translate(2 143.4541)" id="Ellipse-21" fill="#E2DBDB" fill-opacity="0.49803922" fill-rule="evenodd" stroke="#EF8318" stroke-width="4" />
  <path d="M0 35C0 15.67 18.3563 0 41 0C63.6437 0 82 15.67 82 35C82 54.33 63.6437 70 41 70C18.3563 70 0 54.33 0 35Z" transform="translate(2.0996094 273.4541)" id="Ellipse-22" fill="#E2DBDB" fill-opacity="0.49803922" fill-rule="evenodd" stroke="#EF8318" stroke-width="4" />
  <path d="M0 35C0 15.67 18.3563 0 41 0C63.6437 0 82 15.67 82 35C82 54.33 63.6437 70 41 70C18.3563 70 0 54.33 0 35Z" transform="translate(2.2058105 413.0547)" id="Ellipse-23" fill="#E2DBDB" fill-opacity="0.49803922" fill-rule="evenodd" stroke="#EF8318" stroke-width="4" />
  <g id="1" transform="translate(33.19995 24.954102)">
    <path d="M14.625 10.834L14.625 36.6035L9.08789 36.6035L9.08789 17.0918Q8.63086 17.4961 8.00684 17.8564Q7.38281 18.2168 6.67969 18.5068Q5.97656 18.7969 5.2207 18.999Q4.46484 19.2012 3.72656 19.2891L3.72656 14.6133Q5.88867 13.9805 7.80469 12.9961Q9.7207 12.0117 11.2676 10.834L14.625 10.834Z" />
  </g>
  <g id="2" transform="translate(33.19995 153.9541)">
    <path d="M7.54102 31.998L18.2285 31.998L18.2285 36.6035L1.45898 36.6035L1.45898 34.7051Q1.45898 32.7715 2.10938 31.2334Q2.75977 29.6953 3.74414 28.4736Q4.72852 27.252 5.89746 26.3115Q7.06641 25.3711 8.12109 24.6152Q9.22851 23.8242 10.0635 23.1035Q10.8984 22.3828 11.4697 21.6709Q12.041 20.959 12.3223 20.2295Q12.6035 19.5 12.6035 18.6738Q12.6035 17.0566 11.6895 16.2305Q10.7754 15.4043 8.89453 15.4043Q5.64258 15.4043 2.67188 17.9883L2.67188 13.1016Q5.95898 10.9746 10.0898 10.9746Q12.0059 10.9746 13.5264 11.4756Q15.0469 11.9766 16.1016 12.9082Q17.1563 13.8398 17.71 15.167Q18.2637 16.4941 18.2637 18.1289Q18.2637 19.8691 17.7275 21.2227Q17.1914 22.5762 16.3037 23.6836Q15.416 24.791 14.2559 25.7139Q13.0957 26.6367 11.8477 27.498Q11.0039 28.0957 10.2217 28.6846Q9.43945 29.2734 8.8418 29.8447Q8.24414 30.416 7.89258 30.9609Q7.54101 31.5059 7.54102 31.998Z" />
  </g>
  <g id="3" transform="translate(33.399902 284.4541)">
    <path d="M2.05664 35.7773L2.05664 30.9434Q4.58789 32.7891 7.96289 32.7891Q10.0898 32.7891 11.2764 31.875Q12.4629 30.9609 12.4629 29.3262Q12.4629 27.6387 10.9951 26.7246Q9.52734 25.8105 6.96094 25.8105L4.62305 25.8105L4.62305 21.5566L6.78516 21.5566Q11.707 21.5566 11.707 18.2871Q11.707 15.2109 7.92773 15.2109Q5.39648 15.2109 3.00586 16.8457L3.00586 12.3105Q5.66016 10.9746 9.19336 10.9746Q13.0605 10.9746 15.2139 12.7148Q17.3672 14.4551 17.3672 17.2324Q17.3672 22.1719 12.3574 23.4199L12.3574 23.5078Q15.0293 23.8418 16.5762 25.4502Q18.123 27.0586 18.123 29.3965Q18.123 32.9297 15.5391 34.9863Q12.9551 37.043 8.40234 37.043Q4.5 37.043 2.05664 35.7773Z" />
  </g>
  <g id="4" transform="translate(33.599365 424.56152)">
    <path d="M16.7344 11.3965L16.7344 27.2871L19.7578 27.2871L19.7578 31.4355L16.7344 31.4355L16.7344 36.6035L11.6719 36.6035L11.6719 31.4355L0.685547 31.4355L0.685547 27.0938Q2.14453 25.459 3.70898 23.5166Q5.27344 21.5742 6.73242 19.5176Q8.19141 17.4609 9.44824 15.3779Q10.7051 13.2949 11.584 11.3965L16.7344 11.3965ZM5.66016 27.2871L11.6719 27.2871L11.6719 18.4805Q11.0566 19.623 10.3359 20.792Q9.61523 21.9609 8.82422 23.0947Q8.0332 24.2285 7.22461 25.292Q6.41602 26.3555 5.66016 27.2871Z" />
  </g>
  <path d="M19.999 0L1179 0Q1179.49 0 1179.98 0.0240897Q1180.47 0.0481793 1180.96 0.0963006Q1181.45 0.144422 1181.94 0.216459Q1182.42 0.288496 1182.9 0.384275Q1183.38 0.480054 1183.86 0.599345Q1184.34 0.718635 1184.81 0.86115Q1185.28 1.00366 1185.74 1.16906Q1186.2 1.33446 1186.65 1.52233Q1187.11 1.71021 1187.55 1.92012Q1188 2.13003 1188.43 2.36146Q1188.86 2.59289 1189.28 2.84529Q1189.7 3.09768 1190.11 3.37044Q1190.52 3.64319 1190.91 3.93565Q1191.31 4.22811 1191.69 4.53956Q1192.07 4.85102 1192.43 5.18072Q1192.8 5.51042 1193.14 5.85757Q1193.49 6.20472 1193.82 6.56849Q1194.15 6.93226 1194.46 7.31177Q1194.77 7.69128 1195.06 8.08561Q1195.36 8.47994 1195.63 8.88815Q1195.9 9.29636 1196.15 9.71746Q1196.41 10.1386 1196.64 10.5715Q1196.87 11.0045 1197.08 11.4483Q1197.29 11.8921 1197.48 12.3457Q1197.67 12.7993 1197.83 13.2615Q1198 13.7238 1198.14 14.1936Q1198.28 14.6634 1198.4 15.1396Q1198.52 15.6159 1198.62 16.0974Q1198.71 16.5789 1198.78 17.0645Q1198.86 17.5502 1198.9 18.0388Q1198.95 18.5273 1198.98 19.0177Q1199 19.5081 1199 19.999L1199 77.0229Q1199 77.5139 1198.98 78.0042Q1198.95 78.4946 1198.9 78.9832Q1198.86 79.4718 1198.78 79.9574Q1198.71 80.443 1198.62 80.9245Q1198.52 81.406 1198.4 81.8823Q1198.28 82.3585 1198.14 82.8283Q1198 83.2981 1197.83 83.7604Q1197.67 84.2226 1197.48 84.6762Q1197.29 85.1298 1197.08 85.5736Q1196.87 86.0174 1196.64 86.4504Q1196.41 86.8834 1196.15 87.3045Q1195.9 87.7256 1195.63 88.1338Q1195.36 88.542 1195.06 88.9363Q1194.77 89.3307 1194.46 89.7102Q1194.15 90.0897 1193.82 90.4534Q1193.49 90.8172 1193.14 91.1644Q1192.8 91.5115 1192.43 91.8412Q1192.07 92.1709 1191.69 92.4824Q1191.31 92.7938 1190.91 93.0863Q1190.52 93.3787 1190.11 93.6515Q1189.7 93.9242 1189.28 94.1766Q1188.86 94.429 1188.43 94.6605Q1188 94.8919 1187.55 95.1018Q1187.11 95.3117 1186.65 95.4996Q1186.2 95.6875 1185.74 95.8529Q1185.28 96.0183 1184.81 96.1608Q1184.34 96.3033 1183.86 96.4226Q1183.38 96.5419 1182.9 96.6376Q1182.42 96.7334 1181.94 96.8055Q1181.45 96.8775 1180.96 96.9256Q1180.47 96.9738 1179.98 96.9978Q1179.49 97.0219 1179 97.0219L19.999 97.0219Q19.5081 97.0219 19.0177 96.9978Q18.5273 96.9738 18.0388 96.9256Q17.5502 96.8775 17.0645 96.8055Q16.5789 96.7334 16.0974 96.6376Q15.6159 96.5419 15.1396 96.4226Q14.6634 96.3033 14.1936 96.1608Q13.7238 96.0183 13.2615 95.8529Q12.7993 95.6875 12.3457 95.4996Q11.8921 95.3117 11.4483 95.1018Q11.0045 94.8919 10.5715 94.6605Q10.1386 94.429 9.71746 94.1766Q9.29636 93.9242 8.88815 93.6515Q8.47994 93.3787 8.08561 93.0863Q7.69128 92.7938 7.31177 92.4824Q6.93226 92.1709 6.56849 91.8412Q6.20472 91.5115 5.85757 91.1644Q5.51042 90.8172 5.18072 90.4534Q4.85102 90.0897 4.53956 89.7102Q4.22811 89.3307 3.93565 88.9363Q3.64319 88.542 3.37044 88.1338Q3.09768 87.7256 2.84529 87.3045Q2.59289 86.8834 2.36146 86.4504Q2.13003 86.0174 1.92012 85.5736Q1.71021 85.1298 1.52233 84.6762Q1.33446 84.2226 1.16906 83.7604Q1.00366 83.2981 0.86115 82.8283Q0.718635 82.3585 0.599345 81.8823Q0.480054 81.406 0.384275 80.9245Q0.288496 80.443 0.216459 79.9574Q0.144422 79.4718 0.0963006 78.9832Q0.0481793 78.4946 0.0240897 78.0042Q0 77.5139 0 77.0229L0 19.999Q0 19.5081 0.0240897 19.0177Q0.0481793 18.5273 0.0963006 18.0388Q0.144422 17.5502 0.216459 17.0645Q0.288496 16.5789 0.384275 16.0974Q0.480054 15.6159 0.599345 15.1396Q0.718635 14.6634 0.86115 14.1936Q1.00366 13.7238 1.16906 13.2615Q1.33446 12.7993 1.52233 12.3457Q1.71021 11.8921 1.92012 11.4483Q2.13003 11.0045 2.36146 10.5715Q2.59289 10.1386 2.84529 9.71746Q3.09768 9.29636 3.37044 8.88815Q3.64319 8.47994 3.93565 8.08561Q4.22811 7.69128 4.53956 7.31177Q4.85102 6.93226 5.18072 6.56849Q5.51042 6.20472 5.85757 5.85757Q6.20472 5.51042 6.56849 5.18072Q6.93226 4.85102 7.31177 4.53956Q7.69128 4.22811 8.08561 3.93565Q8.47994 3.64319 8.88815 3.37044Q9.29636 3.09768 9.71746 2.84529Q10.1386 2.59289 10.5715 2.36146Q11.0045 2.13003 11.4483 1.92012Q11.8921 1.71021 12.3457 1.52233Q12.7993 1.33446 13.2615 1.16906Q13.7238 1.00366 14.1936 0.86115Q14.6634 0.718635 15.1396 0.599345Q15.6159 0.480054 16.0974 0.384275Q16.5789 0.288496 17.0645 0.216459Q17.5502 0.144422 18.0388 0.0963006Q18.5273 0.0481793 19.0177 0.0240897Q19.5081 0 19.999 0L19.999 0Z" transform="translate(121.40576 0)" id="Rectangle-15" fill="#E2DBDB" fill-opacity="0.49803922" fill-rule="evenodd" stroke="none" />
  <path d="M19.999 0L1178 0Q1178.49 0 1178.98 0.0240897Q1179.47 0.0481793 1179.96 0.0963006Q1180.45 0.144422 1180.94 0.216459Q1181.42 0.288496 1181.9 0.384275Q1182.38 0.480054 1182.86 0.599345Q1183.34 0.718635 1183.81 0.86115Q1184.28 1.00366 1184.74 1.16906Q1185.2 1.33446 1185.65 1.52233Q1186.11 1.71021 1186.55 1.92012Q1187 2.13003 1187.43 2.36146Q1187.86 2.59289 1188.28 2.84529Q1188.7 3.09768 1189.11 3.37044Q1189.52 3.64319 1189.91 3.93565Q1190.31 4.22811 1190.69 4.53956Q1191.07 4.85102 1191.43 5.18072Q1191.8 5.51042 1192.14 5.85757Q1192.49 6.20472 1192.82 6.56849Q1193.15 6.93226 1193.46 7.31177Q1193.77 7.69128 1194.06 8.08561Q1194.36 8.47994 1194.63 8.88815Q1194.9 9.29636 1195.15 9.71746Q1195.41 10.1386 1195.64 10.5715Q1195.87 11.0045 1196.08 11.4483Q1196.29 11.8921 1196.48 12.3457Q1196.67 12.7993 1196.83 13.2615Q1197 13.7238 1197.14 14.1936Q1197.28 14.6634 1197.4 15.1396Q1197.52 15.6159 1197.62 16.0974Q1197.71 16.5789 1197.78 17.0645Q1197.86 17.5502 1197.9 18.0388Q1197.95 18.5273 1197.98 19.0177Q1198 19.5081 1198 19.999L1198 76.0229Q1198 76.5139 1197.98 77.0042Q1197.95 77.4946 1197.9 77.9832Q1197.86 78.4718 1197.78 78.9574Q1197.71 79.443 1197.62 79.9245Q1197.52 80.406 1197.4 80.8823Q1197.28 81.3585 1197.14 81.8283Q1197 82.2981 1196.83 82.7604Q1196.67 83.2226 1196.48 83.6762Q1196.29 84.1298 1196.08 84.5736Q1195.87 85.0174 1195.64 85.4504Q1195.41 85.8834 1195.15 86.3045Q1194.9 86.7256 1194.63 87.1338Q1194.36 87.542 1194.06 87.9363Q1193.77 88.3307 1193.46 88.7102Q1193.15 89.0897 1192.82 89.4534Q1192.49 89.8172 1192.14 90.1644Q1191.8 90.5115 1191.43 90.8412Q1191.07 91.1709 1190.69 91.4824Q1190.31 91.7938 1189.91 92.0863Q1189.52 92.3787 1189.11 92.6515Q1188.7 92.9242 1188.28 93.1766Q1187.86 93.429 1187.43 93.6605Q1187 93.8919 1186.55 94.1018Q1186.11 94.3117 1185.65 94.4996Q1185.2 94.6875 1184.74 94.8529Q1184.28 95.0183 1183.81 95.1608Q1183.34 95.3033 1182.86 95.4226Q1182.38 95.5419 1181.9 95.6376Q1181.42 95.7334 1180.94 95.8055Q1180.45 95.8775 1179.96 95.9256Q1179.47 95.9738 1178.98 95.9978Q1178.49 96.0219 1178 96.0219L19.999 96.0219Q19.5081 96.0219 19.0177 95.9978Q18.5273 95.9738 18.0388 95.9256Q17.5502 95.8775 17.0645 95.8055Q16.5789 95.7334 16.0974 95.6376Q15.6159 95.5419 15.1396 95.4226Q14.6634 95.3033 14.1936 95.1608Q13.7238 95.0183 13.2615 94.8529Q12.7993 94.6875 12.3457 94.4996Q11.8921 94.3117 11.4483 94.1018Q11.0045 93.8919 10.5715 93.6605Q10.1386 93.429 9.71746 93.1766Q9.29636 92.9242 8.88815 92.6515Q8.47994 92.3787 8.08561 92.0863Q7.69128 91.7938 7.31177 91.4824Q6.93226 91.1709 6.56849 90.8412Q6.20472 90.5115 5.85757 90.1644Q5.51042 89.8172 5.18072 89.4534Q4.85102 89.0897 4.53956 88.7102Q4.22811 88.3307 3.93565 87.9363Q3.64319 87.542 3.37044 87.1338Q3.09768 86.7256 2.84529 86.3045Q2.59289 85.8834 2.36146 85.4504Q2.13003 85.0174 1.92012 84.5736Q1.71021 84.1298 1.52233 83.6762Q1.33446 83.2226 1.16906 82.7604Q1.00366 82.2981 0.86115 81.8283Q0.718635 81.3585 0.599345 80.8823Q0.480054 80.406 0.384275 79.9245Q0.288496 79.443 0.216459 78.9574Q0.144422 78.4718 0.0963006 77.9832Q0.0481793 77.4946 0.0240897 77.0042Q0 76.5139 0 76.0229L0 19.999Q0 19.5081 0.0240897 19.0177Q0.0481793 18.5273 0.0963006 18.0388Q0.144422 17.5502 0.216459 17.0645Q0.288496 16.5789 0.384275 16.0974Q0.480054 15.6159 0.599345 15.1396Q0.718635 14.6634 0.86115 14.1936Q1.00366 13.7238 1.16906 13.2615Q1.33446 12.7993 1.52233 12.3457Q1.71021 11.8921 1.92012 11.4483Q2.13003 11.0045 2.36146 10.5715Q2.59289 10.1386 2.84529 9.71746Q3.09768 9.29636 3.37044 8.88815Q3.64319 8.47994 3.93565 8.08561Q4.22811 7.69128 4.53956 7.31177Q4.85102 6.93226 5.18072 6.56849Q5.51042 6.20472 5.85757 5.85757Q6.20472 5.51042 6.56849 5.18072Q6.93226 4.85102 7.31177 4.53956Q7.69128 4.22811 8.08561 3.93565Q8.47994 3.64319 8.88815 3.37044Q9.29636 3.09768 9.71746 2.84529Q10.1386 2.59289 10.5715 2.36146Q11.0045 2.13003 11.4483 1.92012Q11.8921 1.71021 12.3457 1.52233Q12.7993 1.33446 13.2615 1.16906Q13.7238 1.00366 14.1936 0.86115Q14.6634 0.718635 15.1396 0.599345Q15.6159 0.480054 16.0974 0.384275Q16.5789 0.288496 17.0645 0.216459Q17.5502 0.144422 18.0388 0.0963006Q18.5273 0.0481793 19.0177 0.0240897Q19.5081 0 19.999 0Z" transform="translate(122.21484 129.96387)" id="Rectangle-16" fill="#E2DBDB" fill-opacity="0.49803922" fill-rule="evenodd" stroke="none" />
  <path d="M19.999 0L1178 0Q1178.49 0 1178.98 0.0240897Q1179.47 0.0481793 1179.96 0.0963006Q1180.45 0.144422 1180.94 0.216459Q1181.42 0.288496 1181.9 0.384275Q1182.38 0.480054 1182.86 0.599345Q1183.34 0.718635 1183.81 0.86115Q1184.28 1.00366 1184.74 1.16906Q1185.2 1.33446 1185.65 1.52233Q1186.11 1.71021 1186.55 1.92012Q1187 2.13003 1187.43 2.36146Q1187.86 2.59289 1188.28 2.84529Q1188.7 3.09768 1189.11 3.37044Q1189.52 3.64319 1189.91 3.93565Q1190.31 4.22811 1190.69 4.53956Q1191.07 4.85102 1191.43 5.18072Q1191.8 5.51042 1192.14 5.85757Q1192.49 6.20472 1192.82 6.56849Q1193.15 6.93226 1193.46 7.31177Q1193.77 7.69128 1194.06 8.08561Q1194.36 8.47994 1194.63 8.88815Q1194.9 9.29636 1195.15 9.71746Q1195.41 10.1386 1195.64 10.5715Q1195.87 11.0045 1196.08 11.4483Q1196.29 11.8921 1196.48 12.3457Q1196.67 12.7993 1196.83 13.2615Q1197 13.7238 1197.14 14.1936Q1197.28 14.6634 1197.4 15.1396Q1197.52 15.6159 1197.62 16.0974Q1197.71 16.5789 1197.78 17.0645Q1197.86 17.5502 1197.9 18.0388Q1197.95 18.5273 1197.98 19.0177Q1198 19.5081 1198 19.999L1198 91.0229Q1198 91.5139 1197.98 92.0042Q1197.95 92.4946 1197.9 92.9832Q1197.86 93.4718 1197.78 93.9574Q1197.71 94.443 1197.62 94.9245Q1197.52 95.4061 1197.4 95.8823Q1197.28 96.3585 1197.14 96.8283Q1197 97.2981 1196.83 97.7604Q1196.67 98.2226 1196.48 98.6762Q1196.29 99.1298 1196.08 99.5736Q1195.87 100.017 1195.64 100.45Q1195.41 100.883 1195.15 101.304Q1194.9 101.726 1194.63 102.134Q1194.36 102.542 1194.06 102.936Q1193.77 103.331 1193.46 103.71Q1193.15 104.09 1192.82 104.453Q1192.49 104.817 1192.14 105.164Q1191.8 105.512 1191.43 105.841Q1191.07 106.171 1190.69 106.482Q1190.31 106.794 1189.91 107.086Q1189.52 107.379 1189.11 107.651Q1188.7 107.924 1188.28 108.177Q1187.86 108.429 1187.43 108.66Q1187 108.892 1186.55 109.102Q1186.11 109.312 1185.65 109.5Q1185.2 109.687 1184.74 109.853Q1184.28 110.018 1183.81 110.161Q1183.34 110.303 1182.86 110.423Q1182.38 110.542 1181.9 110.638Q1181.42 110.733 1180.94 110.805Q1180.45 110.878 1179.96 110.926Q1179.47 110.974 1178.98 110.998Q1178.49 111.022 1178 111.022L19.999 111.022Q19.5081 111.022 19.0177 110.998Q18.5273 110.974 18.0388 110.926Q17.5502 110.878 17.0645 110.805Q16.5789 110.733 16.0974 110.638Q15.6159 110.542 15.1396 110.423Q14.6634 110.303 14.1936 110.161Q13.7238 110.018 13.2615 109.853Q12.7993 109.687 12.3457 109.5Q11.8921 109.312 11.4483 109.102Q11.0045 108.892 10.5715 108.66Q10.1386 108.429 9.71746 108.177Q9.29636 107.924 8.88815 107.651Q8.47994 107.379 8.08561 107.086Q7.69128 106.794 7.31177 106.482Q6.93226 106.171 6.56849 105.841Q6.20472 105.512 5.85757 105.164Q5.51042 104.817 5.18072 104.453Q4.85102 104.09 4.53956 103.71Q4.22811 103.331 3.93565 102.936Q3.64319 102.542 3.37044 102.134Q3.09768 101.726 2.84529 101.304Q2.59289 100.883 2.36146 100.45Q2.13003 100.017 1.92012 99.5736Q1.71021 99.1298 1.52233 98.6762Q1.33446 98.2226 1.16906 97.7604Q1.00366 97.2981 0.86115 96.8283Q0.718635 96.3585 0.599345 95.8823Q0.480054 95.4061 0.384275 94.9245Q0.288496 94.443 0.216459 93.9574Q0.144422 93.4718 0.0963006 92.9832Q0.0481793 92.4946 0.0240897 92.0042Q0 91.5139 0 91.0229L0 19.999Q0 19.5081 0.0240897 19.0177Q0.0481793 18.5273 0.0963006 18.0388Q0.144422 17.5502 0.216459 17.0645Q0.288496 16.5789 0.384275 16.0974Q0.480054 15.6159 0.599345 15.1396Q0.718635 14.6634 0.86115 14.1936Q1.00366 13.7238 1.16906 13.2615Q1.33446 12.7993 1.52233 12.3457Q1.71021 11.8921 1.92012 11.4483Q2.13003 11.0045 2.36146 10.5715Q2.59289 10.1386 2.84529 9.71746Q3.09768 9.29636 3.37044 8.88815Q3.64319 8.47994 3.93565 8.08561Q4.22811 7.69128 4.53956 7.31177Q4.85102 6.93226 5.18072 6.56849Q5.51042 6.20472 5.85757 5.85757Q6.20472 5.51042 6.56849 5.18072Q6.93226 4.85102 7.31177 4.53956Q7.69128 4.22811 8.08561 3.93565Q8.47994 3.64319 8.88815 3.37044Q9.29636 3.09768 9.71746 2.84529Q10.1386 2.59289 10.5715 2.36146Q11.0045 2.13003 11.4483 1.92012Q11.8921 1.71021 12.3457 1.52233Q12.7993 1.33446 13.2615 1.16906Q13.7238 1.00366 14.1936 0.86115Q14.6634 0.718635 15.1396 0.599345Q15.6159 0.480054 16.0974 0.384275Q16.5789 0.288496 17.0645 0.216459Q17.5502 0.144422 18.0388 0.0963006Q18.5273 0.0481793 19.0177 0.0240897Q19.5081 0 19.999 0Z" transform="translate(122.30542 261.5791)" id="Rectangle-17" fill="#E2DBDB" fill-opacity="0.49803922" fill-rule="evenodd" stroke="none" />
  <path d="M19.999 0L1179 0Q1179.49 0 1179.98 0.0240897Q1180.47 0.0481793 1180.96 0.0963006Q1181.45 0.144422 1181.94 0.216459Q1182.42 0.288496 1182.9 0.384275Q1183.38 0.480054 1183.86 0.599345Q1184.34 0.718635 1184.81 0.86115Q1185.28 1.00366 1185.74 1.16906Q1186.2 1.33446 1186.65 1.52233Q1187.11 1.71021 1187.55 1.92012Q1188 2.13003 1188.43 2.36146Q1188.86 2.59289 1189.28 2.84529Q1189.7 3.09768 1190.11 3.37044Q1190.52 3.64319 1190.91 3.93565Q1191.31 4.22811 1191.69 4.53956Q1192.07 4.85102 1192.43 5.18072Q1192.8 5.51042 1193.14 5.85757Q1193.49 6.20472 1193.82 6.56849Q1194.15 6.93226 1194.46 7.31177Q1194.77 7.69128 1195.06 8.08561Q1195.36 8.47994 1195.63 8.88815Q1195.9 9.29636 1196.15 9.71746Q1196.41 10.1386 1196.64 10.5715Q1196.87 11.0045 1197.08 11.4483Q1197.29 11.8921 1197.48 12.3457Q1197.67 12.7993 1197.83 13.2615Q1198 13.7238 1198.14 14.1936Q1198.28 14.6634 1198.4 15.1396Q1198.52 15.6159 1198.62 16.0974Q1198.71 16.5789 1198.78 17.0645Q1198.86 17.5502 1198.9 18.0388Q1198.95 18.5273 1198.98 19.0177Q1199 19.5081 1199 19.999L1199 77.0229Q1199 77.5139 1198.98 78.0042Q1198.95 78.4946 1198.9 78.9832Q1198.86 79.4718 1198.78 79.9574Q1198.71 80.443 1198.62 80.9245Q1198.52 81.406 1198.4 81.8823Q1198.28 82.3585 1198.14 82.8283Q1198 83.2981 1197.83 83.7604Q1197.67 84.2226 1197.48 84.6762Q1197.29 85.1298 1197.08 85.5736Q1196.87 86.0174 1196.64 86.4504Q1196.41 86.8834 1196.15 87.3045Q1195.9 87.7256 1195.63 88.1338Q1195.36 88.542 1195.06 88.9363Q1194.77 89.3307 1194.46 89.7102Q1194.15 90.0897 1193.82 90.4534Q1193.49 90.8172 1193.14 91.1644Q1192.8 91.5115 1192.43 91.8412Q1192.07 92.1709 1191.69 92.4824Q1191.31 92.7938 1190.91 93.0863Q1190.52 93.3787 1190.11 93.6515Q1189.7 93.9242 1189.28 94.1766Q1188.86 94.429 1188.43 94.6605Q1188 94.8919 1187.55 95.1018Q1187.11 95.3117 1186.65 95.4996Q1186.2 95.6875 1185.74 95.8529Q1185.28 96.0183 1184.81 96.1608Q1184.34 96.3033 1183.86 96.4226Q1183.38 96.5419 1182.9 96.6376Q1182.42 96.7334 1181.94 96.8055Q1181.45 96.8775 1180.96 96.9256Q1180.47 96.9738 1179.98 96.9978Q1179.49 97.0219 1179 97.0219L19.999 97.0219Q19.5081 97.0219 19.0177 96.9978Q18.5273 96.9738 18.0388 96.9256Q17.5502 96.8775 17.0645 96.8055Q16.5789 96.7334 16.0974 96.6376Q15.6159 96.5419 15.1396 96.4226Q14.6634 96.3033 14.1936 96.1608Q13.7238 96.0183 13.2615 95.8529Q12.7993 95.6875 12.3457 95.4996Q11.8921 95.3117 11.4483 95.1018Q11.0045 94.8919 10.5715 94.6605Q10.1386 94.429 9.71746 94.1766Q9.29636 93.9242 8.88815 93.6515Q8.47994 93.3787 8.08561 93.0863Q7.69128 92.7938 7.31177 92.4824Q6.93226 92.1709 6.56849 91.8412Q6.20472 91.5115 5.85757 91.1644Q5.51042 90.8172 5.18072 90.4534Q4.85102 90.0897 4.53956 89.7102Q4.22811 89.3307 3.93565 88.9363Q3.64319 88.542 3.37044 88.1338Q3.09768 87.7256 2.84529 87.3045Q2.59289 86.8834 2.36146 86.4504Q2.13003 86.0174 1.92012 85.5736Q1.71021 85.1298 1.52233 84.6762Q1.33446 84.2226 1.16906 83.7604Q1.00366 83.2981 0.86115 82.8283Q0.718635 82.3585 0.599345 81.8823Q0.480054 81.406 0.384275 80.9245Q0.288496 80.443 0.216459 79.9574Q0.144422 79.4718 0.0963006 78.9832Q0.0481793 78.4946 0.0240897 78.0042Q0 77.5139 0 77.0229L0 19.999Q0 19.5081 0.0240897 19.0177Q0.0481793 18.5273 0.0963006 18.0388Q0.144422 17.5502 0.216459 17.0645Q0.288496 16.5789 0.384275 16.0974Q0.480054 15.6159 0.599345 15.1396Q0.718635 14.6634 0.86115 14.1936Q1.00366 13.7238 1.16906 13.2615Q1.33446 12.7993 1.52233 12.3457Q1.71021 11.8921 1.92012 11.4483Q2.13003 11.0045 2.36146 10.5715Q2.59289 10.1386 2.84529 9.71746Q3.09768 9.29636 3.37044 8.88815Q3.64319 8.47994 3.93565 8.08561Q4.22811 7.69128 4.53956 7.31177Q4.85102 6.93226 5.18072 6.56849Q5.51042 6.20472 5.85757 5.85757Q6.20472 5.51042 6.56849 5.18072Q6.93226 4.85102 7.31177 4.53956Q7.69128 4.22811 8.08561 3.93565Q8.47994 3.64319 8.88815 3.37044Q9.29636 3.09768 9.71746 2.84529Q10.1386 2.59289 10.5715 2.36146Q11.0045 2.13003 11.4483 1.92012Q11.8921 1.71021 12.3457 1.52233Q12.7993 1.33446 13.2615 1.16906Q13.7238 1.00366 14.1936 0.86115Q14.6634 0.718635 15.1396 0.599345Q15.6159 0.480054 16.0974 0.384275Q16.5789 0.288496 17.0645 0.216459Q17.5502 0.144422 18.0388 0.0963006Q18.5273 0.0481793 19.0177 0.0240897Q19.5081 0 19.999 0L19.999 0Z" transform="translate(121.40552 392.33105)" id="Rectangle-18" fill="#E2DBDB" fill-opacity="0.49803922" fill-rule="evenodd" stroke="none" />
  <g id="Phần-1-Giới-thiệu-chung-về-Web-và-cách-cài-đặt-công-cụ." transform="translate(161.51562 19.861328)">
    <path d="M49.0957 12.5215L45.6328 12.5215L40.9922 8.19727L45.9141 8.19727L49.0957 12.5215ZM447.891 12.5215L451.354 12.5215L448.172 8.19727L443.25 8.19727L447.891 12.5215ZM36.1934 36.6035L41.7305 36.6035L41.7305 25.5469Q41.7305 18.1641 35.6133 18.1641Q32.1152 18.1641 30.0762 21.2754L30.0059 21.2754L30.0059 9.95508L24.4512 9.95508L24.4512 36.6035L30.0059 36.6035L30.0059 26.3379Q30.0059 24.6328 30.9199 23.5254Q31.834 22.418 33.3105 22.418Q36.1934 22.418 36.1934 26.373L36.1934 36.6035ZM242.016 36.6035L247.553 36.6035L247.553 25.5469Q247.553 18.1641 241.436 18.1641Q237.938 18.1641 235.898 21.2754L235.828 21.2754L235.828 9.95508L230.273 9.95508L230.273 36.6035L235.828 36.6035L235.828 26.3379Q235.828 24.6328 236.742 23.5254Q237.656 22.418 239.133 22.418Q242.016 22.418 242.016 26.373L242.016 36.6035ZM347.924 36.6035L342.387 36.6035L342.387 26.373Q342.387 22.418 339.504 22.418Q338.027 22.418 337.113 23.5254Q336.199 24.6328 336.199 26.3379L336.199 36.6035L330.645 36.6035L330.645 9.95508L336.199 9.95508L336.199 21.2754L336.27 21.2754Q338.309 18.1641 341.807 18.1641Q347.924 18.1641 347.924 25.5469L347.924 36.6035ZM538.295 34.5117L538.225 34.5117L538.225 36.6035L532.67 36.6035L532.67 9.95508L538.225 9.95508L538.225 21.3105L538.295 21.3105Q540.352 18.1641 544.148 18.1641Q547.629 18.1641 549.51 20.5547Q551.391 22.9453 551.391 27.0938Q551.391 31.5938 549.193 34.3184Q546.996 37.043 543.322 37.043Q540 37.043 538.295 34.5117ZM684.949 36.6035L679.412 36.6035L679.412 26.373Q679.412 22.418 676.529 22.418Q675.053 22.418 674.139 23.5254Q673.225 24.6328 673.225 26.3379L673.225 36.6035L667.67 36.6035L667.67 9.95508L673.225 9.95508L673.225 21.2754L673.295 21.2754Q675.334 18.1641 678.832 18.1641Q684.949 18.1641 684.949 25.5469L684.949 36.6035ZM776.215 16.0195L773.701 16.0195L773.701 36.6035L768.146 36.6035L768.146 34.125L768.076 34.125Q766.178 37.043 762.504 37.043Q759.129 37.043 757.072 34.6611Q755.016 32.2793 755.016 28.0078Q755.016 23.543 757.283 20.8535Q759.551 18.1641 763.225 18.1641Q766.705 18.1641 768.076 20.6602L768.146 20.6602L768.146 16.0195L762.346 16.0195L762.346 12.416L768.146 12.416L768.146 9.95508L773.701 9.95508L773.701 12.416L776.215 12.416L776.215 16.0195ZM163.705 14.9209Q164.602 15.7559 166.008 15.7559Q167.432 15.7559 168.319 14.9473Q169.207 14.1387 169.207 12.873Q169.207 11.625 168.319 10.834Q167.432 10.043 166.008 10.043Q164.602 10.043 163.705 10.834Q162.809 11.625 162.809 12.873Q162.809 14.0859 163.705 14.9209ZM196.611 14.9209Q197.508 15.7559 198.914 15.7559Q200.338 15.7559 201.226 14.9473Q202.113 14.1387 202.113 12.873Q202.113 11.625 201.226 10.834Q200.338 10.043 198.914 10.043Q197.508 10.043 196.611 10.834Q195.715 11.625 195.715 12.873Q195.715 14.0859 196.611 14.9209ZM254.76 15.7559Q253.354 15.7559 252.457 14.9209Q251.561 14.0859 251.561 12.873Q251.561 11.625 252.457 10.834Q253.354 10.043 254.76 10.043Q256.184 10.043 257.071 10.834Q257.959 11.625 257.959 12.873Q257.959 14.1387 257.071 14.9473Q256.184 15.7559 254.76 15.7559ZM272.83 15.7559L276.469 15.7559L272.32 10.043L267.961 10.043L263.83 15.7559L267.469 15.7559L270.053 12.4512L272.83 15.7559ZM736.436 14.9209Q737.332 15.7559 738.738 15.7559Q740.162 15.7559 741.05 14.9473Q741.938 14.1387 741.938 12.873Q741.938 11.625 741.05 10.834Q740.162 10.043 738.738 10.043Q737.332 10.043 736.436 10.834Q735.539 11.625 735.539 12.873Q735.539 14.0859 736.436 14.9209ZM854.473 15.7559L850.834 15.7559L848.057 12.4512L845.473 15.7559L841.834 15.7559L845.965 10.043L850.324 10.043L854.473 15.7559ZM188.016 10.0781L182.514 15.7559L178.506 15.7559L183.076 10.0781L188.016 10.0781ZM595.723 15.7559L591.732 15.7559L586.213 10.0781L591.152 10.0781L595.723 15.7559ZM644.344 10.0781L638.842 15.7559L634.834 15.7559L639.404 10.0781L644.344 10.0781ZM727.84 15.7559L723.85 15.7559L718.33 10.0781L723.27 10.0781L727.84 15.7559ZM790.813 14.2969Q792.404 12.8379 792.615 10.3594L789.451 10.3594Q789.117 12.7324 786.709 12.7324Q784.213 12.7324 783.914 10.3594L780.768 10.3594Q780.838 12.75 782.455 14.2529Q784.072 15.7559 786.639 15.7559Q789.223 15.7559 790.813 14.2969ZM59.6777 15.1758L56.1445 15.1758L53.666 12.7676L50.9941 15.1758L47.4609 15.1758L51.4688 10.7988L55.6699 10.7988L59.6777 15.1758ZM458.402 15.1758L461.936 15.1758L457.928 10.7988L453.727 10.7988L449.719 15.1758L453.252 15.1758L455.924 12.7676L458.402 15.1758ZM109.494 10.834L109.494 36.6035L103.957 36.6035L103.957 17.0918Q103.5 17.4961 102.876 17.8564Q102.252 18.2168 101.549 18.5068Q100.846 18.7969 100.09 18.999Q99.334 19.2012 98.5957 19.2891L98.5957 14.6133Q100.758 13.9805 102.674 12.9961Q104.59 12.0117 106.137 10.834L109.494 10.834ZM158.836 34.916Q155.145 37.043 149.66 37.043Q143.578 37.043 140.071 33.6768Q136.564 30.3105 136.564 24.4043Q136.564 18.4629 140.396 14.7188Q144.229 10.9746 150.592 10.9746Q154.6 10.9746 157.658 12.082L157.658 17.4082Q154.74 15.7207 150.521 15.7207Q146.988 15.7207 144.765 18.0146Q142.541 20.3086 142.541 24.1406Q142.541 28.0254 144.536 30.1523Q146.531 32.2793 149.924 32.2793Q151.963 32.2793 153.158 31.6992L153.158 26.7773L148.113 26.7773L148.113 22.2422L158.836 22.2422L158.836 34.916ZM8.56055 36.6035L8.56055 27.9199L11.2676 27.9199Q15.8379 27.9199 18.5713 25.5732Q21.3047 23.2266 21.3047 19.4297Q21.3047 11.3965 11.7773 11.3965L2.88281 11.3965L2.88281 36.6035L8.56055 36.6035ZM510.539 11.3965L503.877 36.6035L497.584 36.6035L493.4 20.4316Q493.066 19.166 492.996 17.6016L492.926 17.6016Q492.768 19.3242 492.469 20.4316L488.18 36.6035L481.623 36.6035L474.996 11.3965L481.201 11.3965L484.752 28.1836Q484.98 29.2559 485.086 31.0664L485.191 31.0664Q485.262 29.7129 485.701 28.1133L490.271 11.3965L496.354 11.3965L500.484 28.3242Q500.713 29.2559 500.889 31.0313L500.959 31.0313Q501.029 29.6426 501.328 28.2188L504.809 11.3965L510.539 11.3965ZM227.145 36.3926Q225.914 37.043 223.436 37.043Q217.564 37.043 217.564 30.9434L217.564 22.6992L214.646 22.6992L214.646 18.6035L217.564 18.6035L217.564 14.7188L223.102 13.1367L223.102 18.6035L227.145 18.6035L227.145 22.6992L223.102 22.6992L223.102 29.9766Q223.102 32.7891 225.334 32.7891Q226.213 32.7891 227.145 32.2793L227.145 36.3926ZM809.104 36.3926Q807.873 37.043 805.395 37.043Q799.523 37.043 799.523 30.9434L799.523 22.6992L796.605 22.6992L796.605 18.6035L799.523 18.6035L799.523 14.7188L805.061 13.1367L805.061 18.6035L809.104 18.6035L809.104 22.6992L805.061 22.6992L805.061 29.9766Q805.061 32.7891 807.293 32.7891Q808.172 32.7891 809.104 32.2793L809.104 36.3926ZM189.422 20.8359Q191.83 23.332 191.83 27.3574Q191.83 31.8398 189.202 34.4414Q186.574 37.043 182.004 37.043Q177.504 37.043 174.929 34.5205Q172.354 31.998 172.354 27.6738Q172.354 23.209 175.025 20.6865Q177.697 18.1641 182.25 18.1641Q183.445 18.1641 184.939 18.4277Q185.941 18.6035 186.873 18.6035Q189.984 18.6035 189.984 16.125Q189.984 15.2461 189.668 14.1738L193.043 14.1738Q193.447 15.3867 193.447 16.4766Q193.447 20.4492 189.422 20.8359ZM8.56055 23.6133L8.56055 15.7559L10.793 15.7559Q15.3281 15.7559 15.3281 19.6406Q15.3281 23.6133 10.793 23.6133L8.56055 23.6133ZM61.1016 36.6035L55.8457 36.6035L55.8457 34.0195L55.7754 34.0195Q53.9648 37.043 50.4141 37.043Q47.7949 37.043 46.292 35.5576Q44.7891 34.0723 44.7891 31.5938Q44.7891 26.3555 50.9941 25.5469L55.8809 24.8965Q55.8809 21.9434 52.6816 21.9434Q49.4648 21.9434 46.5645 23.8594L46.5645 19.6758Q47.7246 19.0781 49.7373 18.6211Q51.75 18.1641 53.4023 18.1641Q61.1016 18.1641 61.1016 25.8457L61.1016 36.6035ZM77.3438 36.6035L82.8809 36.6035L82.8809 25.582Q82.8809 18.1641 76.9043 18.1641Q73.1074 18.1641 71.1211 21.4512L71.0508 21.4512L71.0508 18.6035L65.4961 18.6035L65.4961 36.6035L71.0508 36.6035L71.0508 26.3379Q71.0508 24.6328 71.9824 23.5254Q72.9141 22.418 74.3555 22.418Q77.3438 22.418 77.3438 26.6016L77.3438 36.6035ZM266.607 29.1855L278.35 29.1855L278.35 26.8477Q278.35 22.8398 276.196 20.502Q274.043 18.1641 270.105 18.1641Q266.309 18.1641 263.707 20.7832Q261.105 23.4023 261.105 27.8848Q261.105 32.209 263.514 34.626Q265.922 37.043 270.281 37.043Q274.271 37.043 276.768 35.707L276.768 31.6992Q274.518 33.1055 271.547 33.1055Q266.889 33.1055 266.607 29.1855ZM321.574 37.043Q325.125 37.043 327.006 35.9531L327.006 31.4883Q325.02 32.7891 322.945 32.7891Q320.607 32.7891 319.271 31.4268Q317.936 30.0645 317.936 27.6738Q317.936 25.2129 319.333 23.8154Q320.73 22.418 323.121 22.418Q325.266 22.418 327.006 23.7188L327.006 19.0078Q325.582 18.1641 322.4 18.1641Q317.795 18.1641 315.044 20.8096Q312.293 23.4551 312.293 28.043Q312.293 32.0156 314.859 34.5293Q317.426 37.043 321.574 37.043ZM391.482 36.6035L385.945 36.6035L385.945 26.6016Q385.945 22.418 382.957 22.418Q381.516 22.418 380.584 23.5254Q379.652 24.6328 379.652 26.3379L379.652 36.6035L374.098 36.6035L374.098 18.6035L379.652 18.6035L379.652 21.4512L379.723 21.4512Q381.709 18.1641 385.506 18.1641Q391.482 18.1641 391.482 25.582L391.482 36.6035ZM410.625 42.3076Q413.525 39.5566 413.525 34.5469L413.525 18.6035L407.971 18.6035L407.971 20.6953L407.9 20.6953Q406.266 18.1641 402.979 18.1641Q399.305 18.1641 397.055 20.8535Q394.805 23.543 394.805 28.1133Q394.805 32.1914 396.826 34.6172Q398.848 37.043 402.293 37.043Q406.002 37.043 407.9 34.0195L407.971 34.0195L407.971 35.4434Q407.971 37.9922 406.424 39.4775Q404.877 40.9629 402.064 40.9629Q399.234 40.9629 396.457 39.3457L396.457 44.0215Q398.584 45.0586 402.223 45.0586Q407.725 45.0586 410.625 42.3076ZM452.039 29.1855L463.781 29.1855L463.781 26.8477Q463.781 22.8398 461.628 20.502Q459.475 18.1641 455.537 18.1641Q451.74 18.1641 449.139 20.7832Q446.537 23.4023 446.537 27.8848Q446.537 32.209 448.945 34.626Q451.354 37.043 455.713 37.043Q459.703 37.043 462.199 35.707L462.199 31.6992Q459.949 33.1055 456.979 33.1055Q452.32 33.1055 452.039 29.1855ZM517.623 29.1855L529.365 29.1855L529.365 26.8477Q529.365 22.8398 527.212 20.502Q525.059 18.1641 521.121 18.1641Q517.324 18.1641 514.723 20.7832Q512.121 23.4023 512.121 27.8848Q512.121 32.209 514.529 34.626Q516.938 37.043 521.297 37.043Q525.287 37.043 527.783 35.707L527.783 31.6992Q525.533 33.1055 522.563 33.1055Q517.904 33.1055 517.623 29.1855ZM599.414 36.6035L594.158 36.6035L594.158 34.0195L594.088 34.0195Q592.277 37.043 588.727 37.043Q586.107 37.043 584.604 35.5576Q583.102 34.0723 583.102 31.5938Q583.102 26.3555 589.307 25.5469L594.193 24.8965Q594.193 21.9434 590.994 21.9434Q587.777 21.9434 584.877 23.8594L584.877 19.6758Q586.037 19.0781 588.05 18.6211Q590.063 18.1641 591.715 18.1641Q599.414 18.1641 599.414 25.8457L599.414 36.6035ZM621.949 37.043Q625.5 37.043 627.381 35.9531L627.381 31.4883Q625.395 32.7891 623.32 32.7891Q620.982 32.7891 619.646 31.4268Q618.311 30.0645 618.311 27.6738Q618.311 25.2129 619.708 23.8154Q621.105 22.418 623.496 22.418Q625.641 22.418 627.381 23.7188L627.381 19.0078Q625.957 18.1641 622.775 18.1641Q618.17 18.1641 615.419 20.8096Q612.668 23.4551 612.668 28.043Q612.668 32.0156 615.234 34.5293Q617.801 37.043 621.949 37.043ZM645.996 36.6035L640.74 36.6035L640.74 34.0195L640.67 34.0195Q638.859 37.043 635.309 37.043Q632.689 37.043 631.187 35.5576Q629.684 34.0723 629.684 31.5938Q629.684 26.3555 635.889 25.5469L640.775 24.8965Q640.775 21.9434 637.576 21.9434Q634.359 21.9434 631.459 23.8594L631.459 19.6758Q632.619 19.0781 634.632 18.6211Q636.645 18.1641 638.297 18.1641Q645.996 18.1641 645.996 25.8457L645.996 36.6035ZM658.6 37.043Q662.15 37.043 664.031 35.9531L664.031 31.4883Q662.045 32.7891 659.971 32.7891Q657.633 32.7891 656.297 31.4268Q654.961 30.0645 654.961 27.6738Q654.961 25.2129 656.358 23.8154Q657.756 22.418 660.146 22.418Q662.291 22.418 664.031 23.7188L664.031 19.0078Q662.607 18.1641 659.426 18.1641Q654.82 18.1641 652.069 20.8096Q649.318 23.4551 649.318 28.043Q649.318 32.0156 651.885 34.5293Q654.451 37.043 658.6 37.043ZM707.484 37.043Q711.035 37.043 712.916 35.9531L712.916 31.4883Q710.93 32.7891 708.855 32.7891Q706.518 32.7891 705.182 31.4268Q703.846 30.0645 703.846 27.6738Q703.846 25.2129 705.243 23.8154Q706.641 22.418 709.031 22.418Q711.176 22.418 712.916 23.7188L712.916 19.0078Q711.492 18.1641 708.311 18.1641Q703.705 18.1641 700.954 20.8096Q698.203 23.4551 698.203 28.043Q698.203 32.0156 700.77 34.5293Q703.336 37.043 707.484 37.043ZM731.531 36.6035L726.275 36.6035L726.275 34.0195L726.205 34.0195Q724.395 37.043 720.844 37.043Q718.225 37.043 716.722 35.5576Q715.219 34.0723 715.219 31.5938Q715.219 26.3555 721.424 25.5469L726.311 24.8965Q726.311 21.9434 723.111 21.9434Q719.895 21.9434 716.994 23.8594L716.994 19.6758Q718.154 19.0781 720.167 18.6211Q722.18 18.1641 723.832 18.1641Q731.531 18.1641 731.531 25.8457L731.531 36.6035ZM788.572 36.6035L793.828 36.6035L793.828 25.8457Q793.828 18.1641 786.129 18.1641Q784.477 18.1641 782.464 18.6211Q780.451 19.0781 779.291 19.6758L779.291 23.8594Q782.191 21.9434 785.408 21.9434Q788.607 21.9434 788.607 24.8965L783.721 25.5469Q777.516 26.3555 777.516 31.5938Q777.516 34.0723 779.019 35.5576Q780.521 37.043 783.141 37.043Q786.691 37.043 788.502 34.0195L788.572 34.0195L788.572 36.6035ZM830.373 37.043Q833.924 37.043 835.805 35.9531L835.805 31.4883Q833.818 32.7891 831.744 32.7891Q829.406 32.7891 828.07 31.4268Q826.734 30.0645 826.734 27.6738Q826.734 25.2129 828.132 23.8154Q829.529 22.418 831.92 22.418Q834.064 22.418 835.805 23.7188L835.805 19.0078Q834.381 18.1641 831.199 18.1641Q826.594 18.1641 823.843 20.8096Q821.092 23.4551 821.092 28.043Q821.092 32.0156 823.658 34.5293Q826.225 37.043 830.373 37.043ZM848.021 37.043Q843.521 37.043 840.946 34.5205Q838.371 31.998 838.371 27.6738Q838.371 23.209 841.043 20.6865Q843.715 18.1641 848.268 18.1641Q852.75 18.1641 855.299 20.6865Q857.848 23.209 857.848 27.3574Q857.848 31.8398 855.22 34.4414Q852.592 37.043 848.021 37.043ZM873.281 36.6035L878.818 36.6035L878.818 25.582Q878.818 18.1641 872.842 18.1641Q869.045 18.1641 867.059 21.4512L866.988 21.4512L866.988 18.6035L861.434 18.6035L861.434 36.6035L866.988 36.6035L866.988 26.3379Q866.988 24.6328 867.92 23.5254Q868.852 22.418 870.293 22.418Q873.281 22.418 873.281 26.6016L873.281 36.6035ZM900.861 34.5469Q900.861 39.5566 897.961 42.3076Q895.061 45.0586 889.559 45.0586Q885.92 45.0586 883.793 44.0215L883.793 39.3457Q886.57 40.9629 889.4 40.9629Q892.213 40.9629 893.76 39.4775Q895.307 37.9922 895.307 35.4434L895.307 34.0195L895.236 34.0195Q893.338 37.043 889.629 37.043Q886.184 37.043 884.162 34.6172Q882.141 32.1914 882.141 28.1133Q882.141 23.543 884.391 20.8535Q886.641 18.1641 890.314 18.1641Q893.602 18.1641 895.236 20.6953L895.307 20.6953L895.307 18.6035L900.861 18.6035L900.861 34.5469ZM923.643 37.043Q927.193 37.043 929.074 35.9531L929.074 31.4883Q927.088 32.7891 925.014 32.7891Q922.676 32.7891 921.34 31.4268Q920.004 30.0645 920.004 27.6738Q920.004 25.2129 921.401 23.8154Q922.799 22.418 925.189 22.418Q927.334 22.418 929.074 23.7188L929.074 19.0078Q927.65 18.1641 924.469 18.1641Q919.863 18.1641 917.112 20.8096Q914.361 23.4551 914.361 28.043Q914.361 32.0156 916.928 34.5293Q919.494 37.043 923.643 37.043ZM118.107 23.3408Q119.021 24.1758 120.393 24.1758Q121.869 24.1758 122.792 23.3672Q123.715 22.5586 123.715 21.2754Q123.715 20.0273 122.81 19.21Q121.904 18.3926 120.48 18.3926Q119.074 18.3926 118.134 19.2012Q117.193 20.0098 117.193 21.2754Q117.193 22.5059 118.107 23.3408ZM163.195 36.6035L168.75 36.6035L168.75 18.6035L163.195 18.6035L163.195 36.6035ZM196.102 36.6035L201.656 36.6035L201.656 18.6035L196.102 18.6035L196.102 36.6035ZM257.502 36.6035L251.947 36.6035L251.947 18.6035L257.502 18.6035L257.502 36.6035ZM298.758 36.6035L293.221 36.6035L293.221 33.8613L293.133 33.8613Q291.076 37.043 287.631 37.043Q281.373 37.043 281.373 29.4668L281.373 18.6035L286.91 18.6035L286.91 28.9746Q286.91 32.7891 289.934 32.7891Q291.428 32.7891 292.324 31.7432Q293.221 30.6973 293.221 28.9043L293.221 18.6035L298.758 18.6035L298.758 36.6035ZM363.885 36.6035L369.422 36.6035L369.422 18.6035L363.885 18.6035L363.885 28.9043Q363.885 30.6973 362.988 31.7432Q362.092 32.7891 360.598 32.7891Q357.574 32.7891 357.574 28.9746L357.574 18.6035L352.037 18.6035L352.037 29.4668Q352.037 37.043 358.295 37.043Q361.74 37.043 363.797 33.8613L363.885 33.8613L363.885 36.6035ZM438.539 36.6035L432.211 36.6035L425.83 18.6035L431.771 18.6035L434.9 29.6953Q435.428 31.5762 435.516 32.8945L435.586 32.8945Q435.709 31.6465 436.236 29.8008L439.436 18.6035L445.236 18.6035L438.539 36.6035ZM569.039 36.6035L575.367 36.6035L582.064 18.6035L576.264 18.6035L573.064 29.8008Q572.537 31.6465 572.414 32.8945L572.344 32.8945Q572.256 31.5762 571.729 29.6953L568.6 18.6035L562.658 18.6035L569.039 36.6035ZM735.926 36.6035L741.48 36.6035L741.48 18.6035L735.926 18.6035L735.926 36.6035ZM949.816 36.6035L944.279 36.6035L944.279 33.8613L944.191 33.8613Q942.135 37.043 938.689 37.043Q932.432 37.043 932.432 29.4668L932.432 18.6035L937.969 18.6035L937.969 28.9746Q937.969 32.7891 940.992 32.7891Q942.486 32.7891 943.383 31.7432Q944.279 30.6973 944.279 28.9043L944.279 18.6035L949.816 18.6035L949.816 36.6035ZM270.07 21.9082Q273.199 21.9082 273.199 25.7754L266.572 25.7754Q266.783 24.123 267.759 23.0156Q268.734 21.9082 270.07 21.9082ZM455.502 21.9082Q458.631 21.9082 458.631 25.7754L452.004 25.7754Q452.215 24.123 453.19 23.0156Q454.166 21.9082 455.502 21.9082ZM521.086 21.9082Q524.215 21.9082 524.215 25.7754L517.588 25.7754Q517.799 24.123 518.774 23.0156Q519.75 21.9082 521.086 21.9082ZM182.145 22.418Q180.176 22.418 179.086 23.7715Q177.996 25.125 177.996 27.6035Q177.996 32.7891 182.18 32.7891Q186.17 32.7891 186.17 27.4629Q186.17 22.418 182.145 22.418ZM408.041 26.5313L408.041 27.9551Q408.041 30.1348 406.978 31.4619Q405.914 32.7891 404.191 32.7891Q402.451 32.7891 401.449 31.4795Q400.447 30.1699 400.447 27.9199Q400.447 25.3008 401.502 23.8594Q402.557 22.418 404.402 22.418Q406.02 22.418 407.03 23.6221Q408.041 24.8262 408.041 26.5313ZM538.137 26.918L538.137 28.7637Q538.137 30.5039 539.139 31.6465Q540.141 32.7891 541.705 32.7891Q543.604 32.7891 544.649 31.3213Q545.695 29.8535 545.695 27.1641Q545.695 24.9316 544.737 23.6748Q543.779 22.418 542.004 22.418Q540.334 22.418 539.235 23.666Q538.137 24.9141 538.137 26.918ZM768.252 27.8496L768.252 26.4961Q768.252 24.7383 767.232 23.5781Q766.213 22.418 764.578 22.418Q762.732 22.418 761.695 23.8682Q760.658 25.3184 760.658 27.8496Q760.658 30.2227 761.66 31.5059Q762.662 32.7891 764.438 32.7891Q766.125 32.7891 767.188 31.4355Q768.252 30.082 768.252 27.8496ZM848.162 22.418Q846.193 22.418 845.104 23.7715Q844.014 25.125 844.014 27.6035Q844.014 32.7891 848.197 32.7891Q852.188 32.7891 852.188 27.4629Q852.188 22.418 848.162 22.418ZM895.377 27.9551L895.377 26.5313Q895.377 24.8262 894.366 23.6221Q893.355 22.418 891.738 22.418Q889.893 22.418 888.838 23.8594Q887.783 25.3008 887.783 27.9199Q887.783 30.1699 888.785 31.4795Q889.787 32.7891 891.527 32.7891Q893.25 32.7891 894.313 31.4619Q895.377 30.1348 895.377 27.9551ZM55.8809 29.291L55.8809 28.0781L52.6113 28.5Q49.9043 28.8516 49.9043 30.9434Q49.9043 31.8926 50.5635 32.499Q51.2227 33.1055 52.3477 33.1055Q53.9121 33.1055 54.8965 32.0244Q55.8809 30.9434 55.8809 29.291ZM594.193 29.291L594.193 28.0781L590.924 28.5Q588.217 28.8516 588.217 30.9434Q588.217 31.8926 588.876 32.499Q589.535 33.1055 590.66 33.1055Q592.225 33.1055 593.209 32.0244Q594.193 30.9434 594.193 29.291ZM640.775 29.291L640.775 28.0781L637.506 28.5Q634.799 28.8516 634.799 30.9434Q634.799 31.8926 635.458 32.499Q636.117 33.1055 637.242 33.1055Q638.807 33.1055 639.791 32.0244Q640.775 30.9434 640.775 29.291ZM726.311 29.291L726.311 28.0781L723.041 28.5Q720.334 28.8516 720.334 30.9434Q720.334 31.8926 720.993 32.499Q721.652 33.1055 722.777 33.1055Q724.342 33.1055 725.326 32.0244Q726.311 30.9434 726.311 29.291ZM788.607 28.0781L788.607 29.291Q788.607 30.9434 787.623 32.0244Q786.639 33.1055 785.074 33.1055Q783.949 33.1055 783.29 32.499Q782.631 31.8926 782.631 30.9434Q782.631 28.8516 785.338 28.5L788.607 28.0781ZM118.107 36.1992Q119.021 37.043 120.393 37.043Q121.869 37.043 122.792 36.2256Q123.715 35.4082 123.715 34.125Q123.715 32.877 122.81 32.0596Q121.904 31.2422 120.48 31.2422Q119.074 31.2422 118.134 32.0508Q117.193 32.8594 117.193 34.125Q117.193 35.3555 118.107 36.1992ZM954.686 36.1992Q955.6 37.043 956.971 37.043Q958.447 37.043 959.37 36.2256Q960.293 35.4082 960.293 34.125Q960.293 32.877 959.388 32.0596Q958.482 31.2422 957.059 31.2422Q955.652 31.2422 954.712 32.0508Q953.771 32.8594 953.771 34.125Q953.771 35.3555 954.686 36.1992ZM268.515 42.7734Q269.279 43.4766 270.457 43.4766Q271.635 43.4766 272.382 42.791Q273.129 42.1055 273.129 41.0684Q273.129 40.0313 272.382 39.3633Q271.635 38.6953 270.457 38.6953Q269.297 38.6953 268.523 39.3545Q267.75 40.0137 267.75 41.0684Q267.75 42.0703 268.515 42.7734ZM783.958 42.7734Q784.723 43.4766 785.9 43.4766Q787.078 43.4766 787.825 42.791Q788.572 42.1055 788.572 41.0684Q788.572 40.0313 787.825 39.3633Q787.078 38.6953 785.9 38.6953Q784.74 38.6953 783.967 39.3545Q783.193 40.0137 783.193 41.0684Q783.193 42.0703 783.958 42.7734ZM940.887 43.4766Q939.709 43.4766 938.944 42.7734Q938.18 42.0703 938.18 41.0684Q938.18 40.0137 938.953 39.3545Q939.727 38.6953 940.887 38.6953Q942.064 38.6953 942.812 39.3633Q943.559 40.0313 943.559 41.0684Q943.559 42.1055 942.812 42.791Q942.064 43.4766 940.887 43.4766Z" />
  </g>
  <g id="Phần-2-Làm-quen-với-giao-diện-của-lập-trình-" transform="translate(160.70581 157.3916)">
    <path d="M45.6328 12.5215L49.0957 12.5215L45.9141 8.19727L40.9922 8.19727L45.6328 12.5215ZM681.452 14.3145L681.452 15.1758L678.991 15.1758L678.991 12.9961Q681.083 12.873 681.083 11.8711Q681.083 10.9043 679.641 10.9043Q678.973 10.9043 678.27 11.0801L678.27 9.02344Q679.852 8.91797 680.292 8.91797Q683.966 8.91797 683.966 11.6953Q683.966 13.875 681.452 14.3145ZM41.7305 36.6035L36.1934 36.6035L36.1934 26.373Q36.1934 22.418 33.3105 22.418Q31.834 22.418 30.9199 23.5254Q30.0059 24.6328 30.0059 26.3379L30.0059 36.6035L24.4512 36.6035L24.4512 9.95508L30.0059 9.95508L30.0059 21.2754L30.0762 21.2754Q32.1152 18.1641 35.6133 18.1641Q41.7305 18.1641 41.7305 25.5469L41.7305 36.6035ZM567.561 36.6035L573.115 36.6035L573.115 9.95508L567.561 9.95508L567.561 20.6602L567.49 20.6602Q566.119 18.1641 562.639 18.1641Q558.965 18.1641 556.697 20.8535Q554.43 23.543 554.43 28.0078Q554.43 32.2793 556.486 34.6611Q558.543 37.043 561.918 37.043Q565.592 37.043 567.49 34.125L567.561 34.125L567.561 36.6035ZM745.052 36.6035L739.498 36.6035L739.498 9.95508L745.052 9.95508L745.052 36.6035ZM889.406 36.6035L894.944 36.6035L894.944 25.5469Q894.944 18.1641 888.826 18.1641Q885.328 18.1641 883.289 21.2754L883.219 21.2754L883.219 9.95508L877.664 9.95508L877.664 36.6035L883.219 36.6035L883.219 26.3379Q883.219 24.6328 884.133 23.5254Q885.047 22.418 886.524 22.418Q889.406 22.418 889.406 26.373L889.406 36.6035ZM422.395 15.7559Q420.989 15.7559 420.092 14.9209Q419.196 14.0859 419.196 12.873Q419.196 11.625 420.092 10.834Q420.989 10.043 422.395 10.043Q423.819 10.043 424.707 10.834Q425.594 11.625 425.594 12.873Q425.594 14.1387 424.707 14.9473Q423.819 15.7559 422.395 15.7559ZM480.81 15.7559Q479.404 15.7559 478.507 14.9209Q477.611 14.0859 477.611 12.873Q477.611 11.625 478.507 10.834Q479.404 10.043 480.81 10.043Q482.234 10.043 483.121 10.834Q484.009 11.625 484.009 12.873Q484.009 14.1387 483.121 14.9473Q482.234 15.7559 480.81 15.7559ZM580.604 15.7559Q579.197 15.7559 578.301 14.9209Q577.404 14.0859 577.404 12.873Q577.404 11.625 578.301 10.834Q579.197 10.043 580.604 10.043Q582.027 10.043 582.915 10.834Q583.803 11.625 583.803 12.873Q583.803 14.1387 582.915 14.9473Q582.027 15.7559 580.604 15.7559ZM598.674 15.7559L602.313 15.7559L598.164 10.043L593.805 10.043L589.674 15.7559L593.313 15.7559L595.897 12.4512L598.674 15.7559ZM760.011 15.7559L763.65 15.7559L759.501 10.043L755.142 10.043L751.011 15.7559L754.65 15.7559L757.234 12.4512L760.011 15.7559ZM199.218 15.7559L195.228 15.7559L189.708 10.0781L194.648 10.0781L199.218 15.7559ZM405.995 15.7559L411.497 10.0781L406.557 10.0781L401.987 15.7559L405.995 15.7559ZM848.362 15.7559L852.352 15.7559L847.781 10.0781L842.842 10.0781L848.362 15.7559ZM56.1445 15.1758L59.6777 15.1758L55.6699 10.7988L51.4688 10.7988L47.4609 15.1758L50.9941 15.1758L53.666 12.7676L56.1445 15.1758ZM129.061 31.998L118.374 31.998Q118.374 31.5059 118.725 30.9609Q119.077 30.416 119.674 29.8447Q120.272 29.2734 121.054 28.6846Q121.837 28.0957 122.68 27.498Q123.928 26.6367 125.089 25.7139Q126.249 24.791 127.136 23.6836Q128.024 22.5762 128.56 21.2227Q129.096 19.8691 129.096 18.1289Q129.096 16.4941 128.543 15.167Q127.989 13.8398 126.934 12.9082Q125.88 11.9766 124.359 11.4756Q122.839 10.9746 120.923 10.9746Q116.792 10.9746 113.505 13.1016L113.505 17.9883Q116.475 15.4043 119.727 15.4043Q121.608 15.4043 122.522 16.2305Q123.436 17.0566 123.436 18.6738Q123.436 19.5 123.155 20.2295Q122.874 20.959 122.302 21.6709Q121.731 22.3828 120.896 23.1035Q120.061 23.8242 118.954 24.6152Q117.899 25.3711 116.73 26.3115Q115.561 27.252 114.577 28.4736Q113.592 29.6953 112.942 31.2334Q112.292 32.7715 112.292 34.7051L112.292 36.6035L129.061 36.6035L129.061 31.998ZM8.56055 27.9199L8.56055 36.6035L2.88281 36.6035L2.88281 11.3965L11.7773 11.3965Q21.3047 11.3965 21.3047 19.4297Q21.3047 23.2266 18.5713 25.5732Q15.8379 27.9199 11.2676 27.9199L8.56055 27.9199ZM170.074 36.6035L185.085 36.6035L185.085 31.998L175.751 31.998L175.751 11.3965L170.074 11.3965L170.074 36.6035ZM824.49 37.043Q826.969 37.043 828.199 36.3926L828.199 32.2793Q827.268 32.7891 826.389 32.7891Q824.156 32.7891 824.156 29.9766L824.156 22.6992L828.199 22.6992L828.199 18.6035L824.156 18.6035L824.156 13.1367L818.619 14.7188L818.619 18.6035L815.701 18.6035L815.701 22.6992L818.619 22.6992L818.619 30.9434Q818.619 37.043 824.49 37.043ZM415.311 27.3574Q415.311 23.332 412.903 20.8359Q416.928 20.4492 416.928 16.4766Q416.928 15.3867 416.524 14.1738L413.149 14.1738Q413.465 15.2461 413.465 16.125Q413.465 18.6035 410.354 18.6035Q409.422 18.6035 408.421 18.4277Q406.926 18.1641 405.731 18.1641Q401.178 18.1641 398.506 20.6865Q395.835 23.209 395.835 27.6738Q395.835 31.998 398.41 34.5205Q400.985 37.043 405.485 37.043Q410.055 37.043 412.683 34.4414Q415.311 31.8398 415.311 27.3574ZM8.56055 15.7559L8.56055 23.6133L10.793 23.6133Q15.3281 23.6133 15.3281 19.6406Q15.3281 15.7559 10.793 15.7559L8.56055 15.7559ZM55.8457 36.6035L61.1016 36.6035L61.1016 25.8457Q61.1016 18.1641 53.4023 18.1641Q51.75 18.1641 49.7373 18.6211Q47.7246 19.0781 46.5645 19.6758L46.5645 23.8594Q49.4648 21.9434 52.6816 21.9434Q55.8809 21.9434 55.8809 24.8965L50.9941 25.5469Q44.7891 26.3555 44.7891 31.5938Q44.7891 34.0723 46.292 35.5576Q47.7949 37.043 50.4141 37.043Q53.9648 37.043 55.7754 34.0195L55.8457 34.0195L55.8457 36.6035ZM82.8809 36.6035L77.3438 36.6035L77.3438 26.6016Q77.3438 22.418 74.3555 22.418Q72.9141 22.418 71.9824 23.5254Q71.0508 24.6328 71.0508 26.3379L71.0508 36.6035L65.4961 36.6035L65.4961 18.6035L71.0508 18.6035L71.0508 21.4512L71.1211 21.4512Q73.1074 18.1641 76.9043 18.1641Q82.8809 18.1641 82.8809 25.582L82.8809 36.6035ZM202.91 36.6035L197.654 36.6035L197.654 34.0195L197.583 34.0195Q195.773 37.043 192.222 37.043Q189.603 37.043 188.1 35.5576Q186.597 34.0723 186.597 31.5938Q186.597 26.3555 192.802 25.5469L197.689 24.8965Q197.689 21.9434 194.49 21.9434Q191.273 21.9434 188.372 23.8594L188.372 19.6758Q189.533 19.0781 191.545 18.6211Q193.558 18.1641 195.21 18.1641Q202.91 18.1641 202.91 25.8457L202.91 36.6035ZM230.349 36.6035L235.886 36.6035L235.886 25.4063Q235.886 18.1641 230.015 18.1641Q226.025 18.1641 223.968 21.5215Q222.562 18.1641 218.747 18.1641Q216.902 18.1641 215.346 19.0693Q213.79 19.9746 212.929 21.416L212.859 21.416L212.859 18.6035L207.304 18.6035L207.304 36.6035L212.859 36.6035L212.859 26.6016Q212.859 24.668 213.711 23.543Q214.564 22.418 215.988 22.418Q218.818 22.418 218.818 26.2324L218.818 36.6035L224.372 36.6035L224.372 26.5313Q224.372 24.7734 225.234 23.5957Q226.095 22.418 227.466 22.418Q230.349 22.418 230.349 26.3379L230.349 36.6035ZM283.789 44.8828L278.234 44.8828L278.234 34.125L278.164 34.125Q276.283 37.043 272.627 37.043Q269.234 37.043 267.169 34.6787Q265.104 32.3145 265.104 28.043Q265.104 23.543 267.371 20.8535Q269.639 18.1641 273.277 18.1641Q276.582 18.1641 278.164 20.6953L278.234 20.6953L278.234 18.6035L283.789 18.6035L283.789 44.8828ZM326.416 29.1855L314.674 29.1855Q314.955 33.1055 319.613 33.1055Q322.584 33.1055 324.834 31.6992L324.834 35.707Q322.338 37.043 318.348 37.043Q313.988 37.043 311.58 34.626Q309.172 32.209 309.172 27.8848Q309.172 23.4023 311.773 20.7832Q314.375 18.1641 318.172 18.1641Q322.109 18.1641 324.263 20.502Q326.416 22.8398 326.416 26.8477L326.416 29.1855ZM341.568 36.6035L347.105 36.6035L347.105 25.582Q347.105 18.1641 341.129 18.1641Q337.332 18.1641 335.346 21.4512L335.275 21.4512L335.275 18.6035L329.721 18.6035L329.721 36.6035L335.275 36.6035L335.275 26.3379Q335.275 24.6328 336.207 23.5254Q337.139 22.418 338.58 22.418Q341.568 22.418 341.568 26.6016L341.568 36.6035ZM470.456 42.3076Q473.357 39.5566 473.357 34.5469L473.357 18.6035L467.802 18.6035L467.802 20.6953L467.732 20.6953Q466.097 18.1641 462.81 18.1641Q459.136 18.1641 456.886 20.8535Q454.636 23.543 454.636 28.1133Q454.636 32.1914 456.658 34.6172Q458.679 37.043 462.124 37.043Q465.833 37.043 467.732 34.0195L467.802 34.0195L467.802 35.4434Q467.802 37.9922 466.255 39.4775Q464.708 40.9629 461.896 40.9629Q459.066 40.9629 456.288 39.3457L456.288 44.0215Q458.415 45.0586 462.054 45.0586Q467.556 45.0586 470.456 42.3076ZM497.949 36.6035L503.204 36.6035L503.204 25.8457Q503.204 18.1641 495.505 18.1641Q493.853 18.1641 491.84 18.6211Q489.827 19.0781 488.667 19.6758L488.667 23.8594Q491.568 21.9434 494.784 21.9434Q497.984 21.9434 497.984 24.8965L493.097 25.5469Q486.892 26.3555 486.892 31.5938Q486.892 34.0723 488.395 35.5576Q489.898 37.043 492.517 37.043Q496.068 37.043 497.878 34.0195L497.949 34.0195L497.949 36.6035ZM516.177 37.043Q511.677 37.043 509.102 34.5205Q506.527 31.998 506.527 27.6738Q506.527 23.209 509.199 20.6865Q511.87 18.1641 516.423 18.1641Q520.906 18.1641 523.454 20.6865Q526.003 23.209 526.003 27.3574Q526.003 31.8398 523.375 34.4414Q520.747 37.043 516.177 37.043ZM592.451 29.1855L604.193 29.1855L604.193 26.8477Q604.193 22.8398 602.04 20.502Q599.887 18.1641 595.949 18.1641Q592.152 18.1641 589.551 20.7832Q586.949 23.4023 586.949 27.8848Q586.949 32.209 589.357 34.626Q591.766 37.043 596.125 37.043Q600.115 37.043 602.611 35.707L602.611 31.6992Q600.361 33.1055 597.391 33.1055Q592.732 33.1055 592.451 29.1855ZM624.883 36.6035L619.346 36.6035L619.346 26.6016Q619.346 22.418 616.358 22.418Q614.916 22.418 613.984 23.5254Q613.053 24.6328 613.053 26.3379L613.053 36.6035L607.498 36.6035L607.498 18.6035L613.053 18.6035L613.053 21.4512L613.123 21.4512Q615.109 18.1641 618.906 18.1641Q624.883 18.1641 624.883 25.582L624.883 36.6035ZM663.382 37.043Q666.932 37.043 668.813 35.9531L668.813 31.4883Q666.827 32.7891 664.753 32.7891Q662.415 32.7891 661.079 31.4268Q659.743 30.0645 659.743 27.6738Q659.743 25.2129 661.14 23.8154Q662.538 22.418 664.929 22.418Q667.073 22.418 668.813 23.7188L668.813 19.0078Q667.389 18.1641 664.208 18.1641Q659.602 18.1641 656.851 20.8096Q654.1 23.4551 654.1 28.043Q654.1 32.0156 656.667 34.5293Q659.233 37.043 663.382 37.043ZM703.952 36.6035L709.208 36.6035L709.208 25.8457Q709.208 18.1641 701.509 18.1641Q699.856 18.1641 697.844 18.6211Q695.831 19.0781 694.671 19.6758L694.671 23.8594Q697.571 21.9434 700.788 21.9434Q703.987 21.9434 703.987 24.8965L699.1 25.5469Q692.895 26.3555 692.895 31.5938Q692.895 34.0723 694.398 35.5576Q695.901 37.043 698.52 37.043Q702.071 37.043 703.882 34.0195L703.952 34.0195L703.952 36.6035ZM759.449 36.6035L764.705 36.6035L764.705 25.8457Q764.705 18.1641 757.005 18.1641Q755.353 18.1641 753.34 18.6211Q751.328 19.0781 750.167 19.6758L750.167 23.8594Q753.068 21.9434 756.285 21.9434Q759.484 21.9434 759.484 24.8965L754.597 25.5469Q748.392 26.3555 748.392 31.5938Q748.392 34.0723 749.895 35.5576Q751.398 37.043 754.017 37.043Q757.568 37.043 759.378 34.0195L759.449 34.0195L759.449 36.6035ZM774.724 34.5117L774.654 34.5117L774.654 44.8828L769.099 44.8828L769.099 18.6035L774.654 18.6035L774.654 21.3105L774.724 21.3105Q776.781 18.1641 780.507 18.1641Q784.005 18.1641 785.913 20.5635Q787.82 22.9629 787.82 27.0938Q787.82 31.5938 785.596 34.3184Q783.373 37.043 779.681 37.043Q776.429 37.043 774.724 34.5117ZM873.27 36.6035L867.733 36.6035L867.733 26.6016Q867.733 22.418 864.744 22.418Q863.303 22.418 862.371 23.5254Q861.44 24.6328 861.44 26.3379L861.44 36.6035L855.885 36.6035L855.885 18.6035L861.44 18.6035L861.44 21.4512L861.51 21.4512Q863.496 18.1641 867.293 18.1641Q873.27 18.1641 873.27 25.582L873.27 36.6035ZM843.07 23.6133Q842.069 23.0684 840.733 23.0684Q838.922 23.0684 837.903 24.3955Q836.883 25.7227 836.883 28.0078L836.883 36.6035L831.328 36.6035L831.328 18.6035L836.883 18.6035L836.883 21.9434L836.953 21.9434Q838.272 18.2871 841.699 18.2871Q842.578 18.2871 843.07 18.498L843.07 23.6133ZM136.356 24.1758Q134.985 24.1758 134.071 23.3408Q133.157 22.5059 133.157 21.2754Q133.157 20.0098 134.097 19.2012Q135.038 18.3926 136.444 18.3926Q137.868 18.3926 138.773 19.21Q139.678 20.0273 139.678 21.2754Q139.678 22.5586 138.756 23.3672Q137.833 24.1758 136.356 24.1758ZM300.031 36.6035L305.568 36.6035L305.568 18.6035L300.031 18.6035L300.031 28.9043Q300.031 30.6973 299.135 31.7432Q298.238 32.7891 296.744 32.7891Q293.721 32.7891 293.721 28.9746L293.721 18.6035L288.184 18.6035L288.184 29.4668Q288.184 37.043 294.441 37.043Q297.887 37.043 299.943 33.8613L300.031 33.8613L300.031 36.6035ZM394.534 18.6035L387.837 36.6035L381.508 36.6035L375.128 18.6035L381.069 18.6035L384.198 29.6953Q384.725 31.5762 384.813 32.8945L384.883 32.8945Q385.006 31.6465 385.534 29.8008L388.733 18.6035L394.534 18.6035ZM425.137 36.6035L419.583 36.6035L419.583 18.6035L425.137 18.6035L425.137 36.6035ZM483.552 36.6035L477.997 36.6035L477.997 18.6035L483.552 18.6035L483.552 36.6035ZM583.346 36.6035L577.791 36.6035L577.791 18.6035L583.346 18.6035L583.346 36.6035ZM689.555 36.6035L684.018 36.6035L684.018 33.8613L683.93 33.8613Q681.874 37.043 678.429 37.043Q672.171 37.043 672.171 29.4668L672.171 18.6035L677.708 18.6035L677.708 28.9746Q677.708 32.7891 680.731 32.7891Q682.225 32.7891 683.122 31.7432Q684.018 30.6973 684.018 28.9043L684.018 18.6035L689.555 18.6035L689.555 36.6035ZM845.654 36.6035L851.209 36.6035L851.209 18.6035L845.654 18.6035L845.654 36.6035ZM321.266 25.7754Q321.266 21.9082 318.137 21.9082Q316.801 21.9082 315.825 23.0156Q314.85 24.123 314.639 25.7754L321.266 25.7754ZM595.914 21.9082Q599.043 21.9082 599.043 25.7754L592.416 25.7754Q592.627 24.123 593.603 23.0156Q594.578 21.9082 595.914 21.9082ZM278.34 28.0078L278.34 26.5664Q278.34 24.8086 277.32 23.6133Q276.301 22.418 274.701 22.418Q272.855 22.418 271.801 23.8682Q270.746 25.3184 270.746 27.8848Q270.746 30.1875 271.774 31.4883Q272.803 32.7891 274.455 32.7891Q276.213 32.7891 277.276 31.4707Q278.34 30.1523 278.34 28.0078ZM402.567 23.7715Q403.657 22.418 405.626 22.418Q409.651 22.418 409.651 27.4629Q409.651 32.7891 405.661 32.7891Q401.477 32.7891 401.477 27.6035Q401.477 25.125 402.567 23.7715ZM467.872 26.5313L467.872 27.9551Q467.872 30.1348 466.809 31.4619Q465.745 32.7891 464.023 32.7891Q462.283 32.7891 461.281 31.4795Q460.279 30.1699 460.279 27.9199Q460.279 25.3008 461.333 23.8594Q462.388 22.418 464.234 22.418Q465.851 22.418 466.862 23.6221Q467.872 24.8262 467.872 26.5313ZM516.318 22.418Q514.349 22.418 513.259 23.7715Q512.169 25.125 512.169 27.6035Q512.169 32.7891 516.353 32.7891Q520.343 32.7891 520.343 27.4629Q520.343 22.418 516.318 22.418ZM567.666 26.4961L567.666 27.8496Q567.666 30.082 566.603 31.4355Q565.539 32.7891 563.852 32.7891Q562.076 32.7891 561.074 31.5059Q560.072 30.2227 560.072 27.8496Q560.072 25.3184 561.109 23.8682Q562.146 22.418 563.992 22.418Q565.627 22.418 566.646 23.5781Q567.666 24.7383 567.666 26.4961ZM774.566 27.1289L774.566 28.5703Q774.566 30.4336 775.55 31.6113Q776.535 32.7891 778.134 32.7891Q780.033 32.7891 781.079 31.3213Q782.125 29.8535 782.125 27.1641Q782.125 22.418 778.433 22.418Q776.728 22.418 775.647 23.71Q774.566 25.002 774.566 27.1289ZM55.8809 28.0781L55.8809 29.291Q55.8809 30.9434 54.8965 32.0244Q53.9121 33.1055 52.3477 33.1055Q51.2227 33.1055 50.5635 32.499Q49.9043 31.8926 49.9043 30.9434Q49.9043 28.8516 52.6113 28.5L55.8809 28.0781ZM197.689 28.0781L194.419 28.5Q191.712 28.8516 191.712 30.9434Q191.712 31.8926 192.371 32.499Q193.031 33.1055 194.156 33.1055Q195.72 33.1055 196.704 32.0244Q197.689 30.9434 197.689 29.291L197.689 28.0781ZM494.714 28.5L497.984 28.0781L497.984 29.291Q497.984 30.9434 496.999 32.0244Q496.015 33.1055 494.45 33.1055Q493.325 33.1055 492.666 32.499Q492.007 31.8926 492.007 30.9434Q492.007 28.8516 494.714 28.5ZM700.718 28.5L703.987 28.0781L703.987 29.291Q703.987 30.9434 703.003 32.0244Q702.018 33.1055 700.454 33.1055Q699.329 33.1055 698.67 32.499Q698.011 31.8926 698.011 30.9434Q698.011 28.8516 700.718 28.5ZM756.214 28.5L759.484 28.0781L759.484 29.291Q759.484 30.9434 758.5 32.0244Q757.515 33.1055 755.951 33.1055Q754.826 33.1055 754.167 32.499Q753.507 31.8926 753.507 30.9434Q753.507 28.8516 756.214 28.5ZM136.356 37.043Q134.985 37.043 134.071 36.1992Q133.157 35.3555 133.157 34.125Q133.157 32.8594 134.097 32.0508Q135.038 31.2422 136.444 31.2422Q137.868 31.2422 138.773 32.0596Q139.678 32.877 139.678 34.125Q139.678 35.4082 138.756 36.2256Q137.833 37.043 136.356 37.043ZM594.358 42.7734Q595.123 43.4766 596.301 43.4766Q597.479 43.4766 598.226 42.791Q598.973 42.1055 598.973 41.0684Q598.973 40.0313 598.226 39.3633Q597.479 38.6953 596.301 38.6953Q595.141 38.6953 594.367 39.3545Q593.594 40.0137 593.594 41.0684Q593.594 42.0703 594.358 42.7734ZM754.834 42.7734Q755.599 43.4766 756.777 43.4766Q757.955 43.4766 758.702 42.791Q759.449 42.1055 759.449 41.0684Q759.449 40.0313 758.702 39.3633Q757.955 38.6953 756.777 38.6953Q755.617 38.6953 754.843 39.3545Q754.07 40.0137 754.07 41.0684Q754.07 42.0703 754.834 42.7734Z" />
  </g>
  <g id="Phần-3-Lập-trình-Html,Css,Javascript-cơ-bản-và-những-điều-cần-biết." transform="translate(160.7146 287.3916)">
    <path d="M45.6328 12.5215L49.0957 12.5215L45.9141 8.19727L40.9922 8.19727L45.6328 12.5215ZM966.604 12.5215L963.141 12.5215L958.5 8.19727L963.422 8.19727L966.604 12.5215ZM1030.83 12.5215L1034.3 12.5215L1031.12 8.19727L1026.19 8.19727L1030.83 12.5215ZM1130.61 12.5215L1135.27 8.19727L1130.33 8.19727L1127.16 12.5215L1130.61 12.5215ZM716.836 15.1758L716.836 14.3145Q719.35 13.875 719.35 11.6953Q719.35 8.91797 715.676 8.91797Q715.236 8.91797 713.654 9.02344L713.654 11.0801Q714.357 10.9043 715.025 10.9043Q716.467 10.9043 716.467 11.8711Q716.467 12.873 714.375 12.9961L714.375 15.1758L716.836 15.1758ZM41.7305 36.6035L36.1934 36.6035L36.1934 26.373Q36.1934 22.418 33.3105 22.418Q31.834 22.418 30.9199 23.5254Q30.0059 24.6328 30.0059 26.3379L30.0059 36.6035L24.4512 36.6035L24.4512 9.95508L30.0059 9.95508L30.0059 21.2754L30.0762 21.2754Q32.1152 18.1641 35.6133 18.1641Q41.7305 18.1641 41.7305 25.5469L41.7305 36.6035ZM285.258 36.6035L279.721 36.6035L279.721 26.373Q279.721 22.418 276.838 22.418Q275.361 22.418 274.447 23.5254Q273.533 24.6328 273.533 26.3379L273.533 36.6035L267.979 36.6035L267.979 9.95508L273.533 9.95508L273.533 21.2754L273.604 21.2754Q275.643 18.1641 279.141 18.1641Q285.258 18.1641 285.258 25.5469L285.258 36.6035ZM379.705 36.6035L374.15 36.6035L374.15 9.95508L379.705 9.95508L379.705 36.6035ZM691.77 34.5117L691.699 34.5117L691.699 36.6035L686.145 36.6035L686.145 9.95508L691.699 9.95508L691.699 21.3105L691.77 21.3105Q693.826 18.1641 697.623 18.1641Q701.104 18.1641 702.984 20.5547Q704.865 22.9453 704.865 27.0938Q704.865 31.5938 702.668 34.3184Q700.471 37.043 696.797 37.043Q693.475 37.043 691.77 34.5117ZM847.424 36.6035L841.887 36.6035L841.887 26.373Q841.887 22.418 839.004 22.418Q837.527 22.418 836.613 23.5254Q835.699 24.6328 835.699 26.3379L835.699 36.6035L830.145 36.6035L830.145 9.95508L835.699 9.95508L835.699 21.2754L835.77 21.2754Q837.809 18.1641 841.307 18.1641Q847.424 18.1641 847.424 25.5469L847.424 36.6035ZM949.992 16.0195L947.479 16.0195L947.479 36.6035L941.924 36.6035L941.924 34.125L941.854 34.125Q939.955 37.043 936.281 37.043Q932.906 37.043 930.85 34.6611Q928.793 32.2793 928.793 28.0078Q928.793 23.543 931.061 20.8535Q933.328 18.1641 937.002 18.1641Q940.482 18.1641 941.854 20.6602L941.924 20.6602L941.924 16.0195L936.123 16.0195L936.123 12.416L941.924 12.416L941.924 9.95508L947.479 9.95508L947.479 12.416L949.992 12.416L949.992 16.0195ZM1087.96 34.5117L1088.03 34.5117Q1089.74 37.043 1093.06 37.043Q1096.73 37.043 1098.93 34.3184Q1101.13 31.5938 1101.13 27.0938Q1101.13 22.9453 1099.25 20.5547Q1097.37 18.1641 1093.89 18.1641Q1090.09 18.1641 1088.03 21.3105L1087.96 21.3105L1087.96 9.95508L1082.41 9.95508L1082.41 36.6035L1087.96 36.6035L1087.96 34.5117ZM169.928 15.7559L166.289 15.7559L163.512 12.4512L160.928 15.7559L157.289 15.7559L161.42 10.043L165.779 10.043L169.928 15.7559ZM580.271 14.9209Q581.168 15.7559 582.574 15.7559Q583.998 15.7559 584.886 14.9473Q585.773 14.1387 585.773 12.873Q585.773 11.625 584.886 10.834Q583.998 10.043 582.574 10.043Q581.168 10.043 580.271 10.834Q579.375 11.625 579.375 12.873Q579.375 14.0859 580.271 14.9209ZM953.139 14.9209Q954.035 15.7559 955.441 15.7559Q956.865 15.7559 957.753 14.9473Q958.641 14.1387 958.641 12.873Q958.641 11.625 957.753 10.834Q956.865 10.043 955.441 10.043Q954.035 10.043 953.139 10.834Q952.242 11.625 952.242 12.873Q952.242 14.0859 953.139 14.9209ZM1107.54 15.7559Q1106.14 15.7559 1105.24 14.9209Q1104.35 14.0859 1104.35 12.873Q1104.35 11.625 1105.24 10.834Q1106.14 10.043 1107.54 10.043Q1108.97 10.043 1109.86 10.834Q1110.74 11.625 1110.74 12.873Q1110.74 14.1387 1109.86 14.9473Q1108.97 15.7559 1107.54 15.7559ZM242.666 15.7559L238.676 15.7559L233.156 10.0781L238.096 10.0781L242.666 15.7559ZM790.348 15.7559L786.357 15.7559L780.838 10.0781L785.777 10.0781L790.348 15.7559ZM865.679 14.0947Q866.654 12.75 866.654 10.2891L864.123 10.2891Q864.123 12.2402 862.752 12.2402Q862.031 12.2402 860.643 11.4668Q859.113 10.6055 857.689 10.6055Q855.949 10.6055 854.982 11.959Q854.016 13.3125 854.016 15.7559L856.494 15.7559Q856.494 13.8574 857.9 13.8574Q858.498 13.8574 860.063 14.6836Q861.504 15.4395 863.016 15.4395Q864.703 15.4395 865.679 14.0947ZM56.1445 15.1758L59.6777 15.1758L55.6699 10.7988L51.4688 10.7988L47.4609 15.1758L50.9941 15.1758L53.666 12.7676L56.1445 15.1758ZM977.186 15.1758L973.652 15.1758L971.174 12.7676L968.502 15.1758L964.969 15.1758L968.977 10.7988L973.178 10.7988L977.186 15.1758ZM1041.35 15.1758L1044.88 15.1758L1040.87 10.7988L1036.67 10.7988L1032.66 15.1758L1036.2 15.1758L1038.87 12.7676L1041.35 15.1758ZM1125.25 15.1758L1128.78 15.1758L1124.79 10.7988L1120.57 10.7988L1116.58 15.1758L1120.1 15.1758L1122.59 12.7676L1125.25 15.1758ZM96.9258 30.9434L96.9258 35.7773Q99.3691 37.043 103.271 37.043Q107.824 37.043 110.408 34.9863Q112.992 32.9297 112.992 29.3965Q112.992 27.0586 111.445 25.4502Q109.898 23.8418 107.227 23.5078L107.227 23.4199Q112.236 22.1719 112.236 17.2324Q112.236 14.4551 110.083 12.7148Q107.93 10.9746 104.063 10.9746Q100.529 10.9746 97.875 12.3105L97.875 16.8457Q100.266 15.2109 102.797 15.2109Q106.576 15.2109 106.576 18.2871Q106.576 21.5566 101.654 21.5566L99.4922 21.5566L99.4922 25.8105L101.83 25.8105Q104.396 25.8105 105.864 26.7246Q107.332 27.6387 107.332 29.3262Q107.332 30.9609 106.146 31.875Q104.959 32.7891 102.832 32.7891Q99.457 32.7891 96.9258 30.9434ZM412.752 35.707Q409.992 37.043 405.545 37.043Q399.744 37.043 396.422 33.6328Q393.1 30.2227 393.1 24.5449Q393.1 18.498 396.835 14.7363Q400.57 10.9746 406.529 10.9746Q410.221 10.9746 412.752 11.9063L412.752 17.373Q410.221 15.8613 406.986 15.8613Q403.436 15.8613 401.256 18.0938Q399.076 20.3262 399.076 24.1406Q399.076 27.7969 401.133 29.9678Q403.189 32.1387 406.67 32.1387Q409.992 32.1387 412.752 30.5215L412.752 35.707ZM8.56055 27.9199L8.56055 36.6035L2.88281 36.6035L2.88281 11.3965L11.7773 11.3965Q21.3047 11.3965 21.3047 19.4297Q21.3047 23.2266 18.5713 25.5732Q15.8379 27.9199 11.2676 27.9199L8.56055 27.9199ZM138.146 36.6035L153.158 36.6035L153.158 31.998L143.824 31.998L143.824 11.3965L138.146 11.3965L138.146 36.6035ZM316.248 36.6035L321.943 36.6035L321.943 11.3965L316.248 11.3965L316.248 21.4512L305.807 21.4512L305.807 11.3965L300.129 11.3965L300.129 36.6035L305.807 36.6035L305.807 26.3379L316.248 26.3379L316.248 36.6035ZM469.09 26.6016Q469.09 31.6641 466.743 34.3535Q464.396 37.043 459.949 37.043Q457.963 37.043 456.275 36.3574L456.275 31.0313Q457.734 32.1387 459.545 32.1387Q463.43 32.1387 463.43 26.373L463.43 11.3965L469.09 11.3965L469.09 26.6016ZM218.514 36.3926Q217.283 37.043 214.805 37.043Q208.934 37.043 208.934 30.9434L208.934 22.6992L206.016 22.6992L206.016 18.6035L208.934 18.6035L208.934 14.7188L214.471 13.1367L214.471 18.6035L218.514 18.6035L218.514 22.6992L214.471 22.6992L214.471 29.9766Q214.471 32.7891 216.703 32.7891Q217.582 32.7891 218.514 32.2793L218.514 36.3926ZM338.045 36.3926Q336.814 37.043 334.336 37.043Q328.465 37.043 328.465 30.9434L328.465 22.6992L325.547 22.6992L325.547 18.6035L328.465 18.6035L328.465 14.7188L334.002 13.1367L334.002 18.6035L338.045 18.6035L338.045 22.6992L334.002 22.6992L334.002 29.9766Q334.002 32.7891 336.234 32.7891Q337.113 32.7891 338.045 32.2793L338.045 36.3926ZM619.488 37.043Q621.967 37.043 623.197 36.3926L623.197 32.2793Q622.266 32.7891 621.387 32.7891Q619.154 32.7891 619.154 29.9766L619.154 22.6992L623.197 22.6992L623.197 18.6035L619.154 18.6035L619.154 13.1367L613.617 14.7188L613.617 18.6035L610.699 18.6035L610.699 22.6992L613.617 22.6992L613.617 30.9434Q613.617 37.043 619.488 37.043ZM1145.32 36.3926Q1144.09 37.043 1141.61 37.043Q1135.74 37.043 1135.74 30.9434L1135.74 22.6992L1132.82 22.6992L1132.82 18.6035L1135.74 18.6035L1135.74 14.7188L1141.28 13.1367L1141.28 18.6035L1145.32 18.6035L1145.32 22.6992L1141.28 22.6992L1141.28 29.9766Q1141.28 32.7891 1143.51 32.7891Q1144.39 32.7891 1145.32 32.2793L1145.32 36.3926ZM671.941 27.3574Q671.941 23.332 669.533 20.8359Q673.559 20.4492 673.559 16.4766Q673.559 15.3867 673.154 14.1738L669.779 14.1738Q670.096 15.2461 670.096 16.125Q670.096 18.6035 666.984 18.6035Q666.053 18.6035 665.051 18.4277Q663.557 18.1641 662.361 18.1641Q657.809 18.1641 655.137 20.6865Q652.465 23.209 652.465 27.6738Q652.465 31.998 655.04 34.5205Q657.615 37.043 662.115 37.043Q666.686 37.043 669.313 34.4414Q671.941 31.8398 671.941 27.3574ZM868.922 36.6035L868.922 20.959Q871.26 20.8359 872.552 19.5615Q873.844 18.2871 873.844 16.2305Q873.844 15.0176 873.563 14.1738L870.328 14.1738Q870.645 15.2461 870.645 16.002Q870.645 18.6035 868.447 18.6035L863.385 18.6035L863.385 28.9043Q863.385 30.6973 862.488 31.7432Q861.592 32.7891 860.098 32.7891Q857.074 32.7891 857.074 28.9746L857.074 18.6035L851.537 18.6035L851.537 29.4668Q851.537 37.043 857.795 37.043Q861.24 37.043 863.297 33.8613L863.385 33.8613L863.385 36.6035L868.922 36.6035ZM8.56055 15.7559L8.56055 23.6133L10.793 23.6133Q15.3281 23.6133 15.3281 19.6406Q15.3281 15.7559 10.793 15.7559L8.56055 15.7559ZM55.8457 36.6035L61.1016 36.6035L61.1016 25.8457Q61.1016 18.1641 53.4023 18.1641Q51.75 18.1641 49.7373 18.6211Q47.7246 19.0781 46.5645 19.6758L46.5645 23.8594Q49.4648 21.9434 52.6816 21.9434Q55.8809 21.9434 55.8809 24.8965L50.9941 25.5469Q44.7891 26.3555 44.7891 31.5938Q44.7891 34.0723 46.292 35.5576Q47.7949 37.043 50.4141 37.043Q53.9648 37.043 55.7754 34.0195L55.8457 34.0195L55.8457 36.6035ZM82.8809 36.6035L77.3438 36.6035L77.3438 26.6016Q77.3438 22.418 74.3555 22.418Q72.9141 22.418 71.9824 23.5254Q71.0508 24.6328 71.0508 26.3379L71.0508 36.6035L65.4961 36.6035L65.4961 18.6035L71.0508 18.6035L71.0508 21.4512L71.1211 21.4512Q73.1074 18.1641 76.9043 18.1641Q82.8809 18.1641 82.8809 25.582L82.8809 36.6035ZM170.982 36.6035L165.727 36.6035L165.727 34.0195L165.656 34.0195Q163.846 37.043 160.295 37.043Q157.676 37.043 156.173 35.5576Q154.67 34.0723 154.67 31.5938Q154.67 26.3555 160.875 25.5469L165.762 24.8965Q165.762 21.9434 162.563 21.9434Q159.346 21.9434 156.445 23.8594L156.445 19.6758Q157.605 19.0781 159.618 18.6211Q161.631 18.1641 163.283 18.1641Q170.982 18.1641 170.982 25.8457L170.982 36.6035ZM180.932 34.5117L181.002 34.5117Q182.707 37.043 185.959 37.043Q189.65 37.043 191.874 34.3184Q194.098 31.5938 194.098 27.0938Q194.098 22.9629 192.19 20.5635Q190.283 18.1641 186.785 18.1641Q183.059 18.1641 181.002 21.3105L180.932 21.3105L180.932 18.6035L175.377 18.6035L175.377 44.8828L180.932 44.8828L180.932 34.5117ZM258.047 36.6035L263.584 36.6035L263.584 25.582Q263.584 18.1641 257.607 18.1641Q253.811 18.1641 251.824 21.4512L251.754 21.4512L251.754 18.6035L246.199 18.6035L246.199 36.6035L251.754 36.6035L251.754 26.3379Q251.754 24.6328 252.686 23.5254Q253.617 22.418 255.059 22.418Q258.047 22.418 258.047 26.6016L258.047 36.6035ZM364.219 36.6035L369.756 36.6035L369.756 25.4063Q369.756 18.1641 363.885 18.1641Q359.895 18.1641 357.838 21.5215Q356.432 18.1641 352.617 18.1641Q350.771 18.1641 349.216 19.0693Q347.66 19.9746 346.799 21.416L346.729 21.416L346.729 18.6035L341.174 18.6035L341.174 36.6035L346.729 36.6035L346.729 26.6016Q346.729 24.668 347.581 23.543Q348.434 22.418 349.857 22.418Q352.688 22.418 352.688 26.2324L352.688 36.6035L358.242 36.6035L358.242 26.5313Q358.242 24.7734 359.104 23.5957Q359.965 22.418 361.336 22.418Q364.219 22.418 364.219 26.3379L364.219 36.6035ZM415.424 31.6289L415.424 36.1289Q417.955 37.043 420.926 37.043Q422.543 37.043 424.046 36.7178Q425.549 36.3926 426.7 35.6807Q427.852 34.9688 428.546 33.835Q429.24 32.7012 429.24 31.1016Q429.24 29.959 428.897 29.1328Q428.555 28.3066 427.913 27.6914Q427.271 27.0762 426.375 26.6191Q425.479 26.1621 424.371 25.7754Q423.756 25.5645 423.132 25.3623Q422.508 25.1602 421.998 24.9053Q421.488 24.6504 421.172 24.2988Q420.855 23.9473 420.855 23.4551Q420.855 23.0859 421.066 22.7959Q421.277 22.5059 421.646 22.3213Q422.016 22.1367 422.499 22.04Q422.982 21.9434 423.527 21.9434Q424.688 21.9434 425.892 22.251Q427.096 22.5586 428.15 23.1738L428.15 18.8848Q426.955 18.5332 425.725 18.3486Q424.494 18.1641 423.299 18.1641Q421.77 18.1641 420.354 18.4893Q418.939 18.8145 417.841 19.5088Q416.742 20.2031 416.083 21.293Q415.424 22.3828 415.424 23.8945Q415.424 25.002 415.714 25.8105Q416.004 26.6191 416.558 27.2344Q417.111 27.8496 417.929 28.3154Q418.746 28.7813 419.818 29.1855Q420.486 29.4492 421.207 29.6602Q421.928 29.8711 422.534 30.1348Q423.141 30.3984 423.527 30.75Q423.914 31.1016 423.914 31.6289Q423.914 32.4551 423.062 32.8594Q422.209 33.2637 420.732 33.2637Q419.52 33.2637 418.157 32.8594Q416.795 32.4551 415.424 31.6289ZM431.262 36.1289L431.262 31.6289Q432.633 32.4551 433.995 32.8594Q435.357 33.2637 436.57 33.2637Q438.047 33.2637 438.899 32.8594Q439.752 32.4551 439.752 31.6289Q439.752 31.1016 439.365 30.75Q438.979 30.3984 438.372 30.1348Q437.766 29.8711 437.045 29.6602Q436.324 29.4492 435.656 29.1855Q434.584 28.7813 433.767 28.3154Q432.949 27.8496 432.396 27.2344Q431.842 26.6191 431.552 25.8105Q431.262 25.002 431.262 23.8945Q431.262 22.3828 431.921 21.293Q432.58 20.2031 433.679 19.5088Q434.777 18.8145 436.192 18.4893Q437.607 18.1641 439.137 18.1641Q440.332 18.1641 441.563 18.3486Q442.793 18.5332 443.988 18.8848L443.988 23.1738Q442.934 22.5586 441.729 22.251Q440.525 21.9434 439.365 21.9434Q438.82 21.9434 438.337 22.04Q437.854 22.1367 437.484 22.3213Q437.115 22.5059 436.904 22.7959Q436.693 23.0859 436.693 23.4551Q436.693 23.9473 437.01 24.2988Q437.326 24.6504 437.836 24.9053Q438.346 25.1602 438.97 25.3623Q439.594 25.5645 440.209 25.7754Q441.316 26.1621 442.213 26.6191Q443.109 27.0762 443.751 27.6914Q444.393 28.3066 444.735 29.1328Q445.078 29.959 445.078 31.1016Q445.078 32.7012 444.384 33.835Q443.689 34.9688 442.538 35.6807Q441.387 36.3926 439.884 36.7178Q438.381 37.043 436.764 37.043Q433.793 37.043 431.262 36.1289ZM483.785 36.6035L489.041 36.6035L489.041 25.8457Q489.041 18.1641 481.342 18.1641Q479.689 18.1641 477.677 18.6211Q475.664 19.0781 474.504 19.6758L474.504 23.8594Q477.404 21.9434 480.621 21.9434Q483.82 21.9434 483.82 24.8965L478.934 25.5469Q472.729 26.3555 472.729 31.5938Q472.729 34.0723 474.231 35.5576Q475.734 37.043 478.354 37.043Q481.904 37.043 483.715 34.0195L483.785 34.0195L483.785 36.6035ZM522.668 36.6035L527.924 36.6035L527.924 25.8457Q527.924 18.1641 520.225 18.1641Q518.572 18.1641 516.56 18.6211Q514.547 19.0781 513.387 19.6758L513.387 23.8594Q516.287 21.9434 519.504 21.9434Q522.703 21.9434 522.703 24.8965L517.816 25.5469Q511.611 26.3555 511.611 31.5938Q511.611 34.0723 513.114 35.5576Q514.617 37.043 517.236 37.043Q520.787 37.043 522.598 34.0195L522.668 34.0195L522.668 36.6035ZM531.141 36.1289L531.141 31.6289Q532.512 32.4551 533.874 32.8594Q535.236 33.2637 536.449 33.2637Q537.926 33.2637 538.778 32.8594Q539.631 32.4551 539.631 31.6289Q539.631 31.1016 539.244 30.75Q538.857 30.3984 538.251 30.1348Q537.645 29.8711 536.924 29.6602Q536.203 29.4492 535.535 29.1855Q534.463 28.7813 533.646 28.3154Q532.828 27.8496 532.274 27.2344Q531.721 26.6191 531.431 25.8105Q531.141 25.002 531.141 23.8945Q531.141 22.3828 531.8 21.293Q532.459 20.2031 533.558 19.5088Q534.656 18.8145 536.071 18.4893Q537.486 18.1641 539.016 18.1641Q540.211 18.1641 541.441 18.3486Q542.672 18.5332 543.867 18.8848L543.867 23.1738Q542.813 22.5586 541.608 22.251Q540.404 21.9434 539.244 21.9434Q538.699 21.9434 538.216 22.04Q537.732 22.1367 537.363 22.3213Q536.994 22.5059 536.783 22.7959Q536.572 23.0859 536.572 23.4551Q536.572 23.9473 536.889 24.2988Q537.205 24.6504 537.715 24.9053Q538.225 25.1602 538.849 25.3623Q539.473 25.5645 540.088 25.7754Q541.195 26.1621 542.092 26.6191Q542.988 27.0762 543.63 27.6914Q544.271 28.3066 544.614 29.1328Q544.957 29.959 544.957 31.1016Q544.957 32.7012 544.263 33.835Q543.568 34.9688 542.417 35.6807Q541.266 36.3926 539.763 36.7178Q538.26 37.043 536.643 37.043Q533.672 37.043 531.141 36.1289ZM556.365 37.043Q559.916 37.043 561.797 35.9531L561.797 31.4883Q559.811 32.7891 557.736 32.7891Q555.398 32.7891 554.063 31.4268Q552.727 30.0645 552.727 27.6738Q552.727 25.2129 554.124 23.8154Q555.521 22.418 557.912 22.418Q560.057 22.418 561.797 23.7188L561.797 19.0078Q560.373 18.1641 557.191 18.1641Q552.586 18.1641 549.835 20.8096Q547.084 23.4551 547.084 28.043Q547.084 32.0156 549.65 34.5293Q552.217 37.043 556.365 37.043ZM595.617 34.5117L595.547 34.5117L595.547 44.8828L589.992 44.8828L589.992 18.6035L595.547 18.6035L595.547 21.3105L595.617 21.3105Q597.674 18.1641 601.4 18.1641Q604.898 18.1641 606.806 20.5635Q608.713 22.9629 608.713 27.0938Q608.713 31.5938 606.489 34.3184Q604.266 37.043 600.574 37.043Q597.322 37.043 595.617 34.5117ZM649.898 35.9531Q648.018 37.043 644.467 37.043Q640.318 37.043 637.752 34.5293Q635.186 32.0156 635.186 28.043Q635.186 23.4551 637.937 20.8096Q640.688 18.1641 645.293 18.1641Q648.475 18.1641 649.898 19.0078L649.898 23.7188Q648.158 22.418 646.014 22.418Q643.623 22.418 642.226 23.8154Q640.828 25.2129 640.828 27.6738Q640.828 30.0645 642.164 31.4268Q643.5 32.7891 645.838 32.7891Q647.912 32.7891 649.898 31.4883L649.898 35.9531ZM718.189 36.6035L723.445 36.6035L723.445 25.8457Q723.445 18.1641 715.746 18.1641Q714.094 18.1641 712.081 18.6211Q710.068 19.0781 708.908 19.6758L708.908 23.8594Q711.809 21.9434 715.025 21.9434Q718.225 21.9434 718.225 24.8965L713.338 25.5469Q707.133 26.3555 707.133 31.5938Q707.133 34.0723 708.636 35.5576Q710.139 37.043 712.758 37.043Q716.309 37.043 718.119 34.0195L718.189 34.0195L718.189 36.6035ZM745.225 36.6035L739.688 36.6035L739.688 26.6016Q739.688 22.418 736.699 22.418Q735.258 22.418 734.326 23.5254Q733.395 24.6328 733.395 26.3379L733.395 36.6035L727.84 36.6035L727.84 18.6035L733.395 18.6035L733.395 21.4512L733.465 21.4512Q735.451 18.1641 739.248 18.1641Q745.225 18.1641 745.225 25.582L745.225 36.6035ZM794.039 36.6035L788.783 36.6035L788.783 34.0195L788.713 34.0195Q786.902 37.043 783.352 37.043Q780.732 37.043 779.229 35.5576Q777.727 34.0723 777.727 31.5938Q777.727 26.3555 783.932 25.5469L788.818 24.8965Q788.818 21.9434 785.619 21.9434Q782.402 21.9434 779.502 23.8594L779.502 19.6758Q780.662 19.0781 782.675 18.6211Q784.688 18.1641 786.34 18.1641Q794.039 18.1641 794.039 25.8457L794.039 36.6035ZM820.213 36.6035L825.75 36.6035L825.75 25.582Q825.75 18.1641 819.773 18.1641Q815.977 18.1641 813.99 21.4512L813.92 21.4512L813.92 18.6035L808.365 18.6035L808.365 36.6035L813.92 36.6035L813.92 26.3379Q813.92 24.6328 814.852 23.5254Q815.783 22.418 817.225 22.418Q820.213 22.418 820.213 26.6016L820.213 36.6035ZM893.25 36.6035L887.713 36.6035L887.713 26.6016Q887.713 22.418 884.725 22.418Q883.283 22.418 882.352 23.5254Q881.42 24.6328 881.42 26.3379L881.42 36.6035L875.865 36.6035L875.865 18.6035L881.42 18.6035L881.42 21.4512L881.49 21.4512Q883.477 18.1641 887.273 18.1641Q893.25 18.1641 893.25 25.582L893.25 36.6035ZM912.393 42.3076Q915.293 39.5566 915.293 34.5469L915.293 18.6035L909.738 18.6035L909.738 20.6953L909.668 20.6953Q908.033 18.1641 904.746 18.1641Q901.072 18.1641 898.822 20.8535Q896.572 23.543 896.572 28.1133Q896.572 32.1914 898.594 34.6172Q900.615 37.043 904.061 37.043Q907.77 37.043 909.668 34.0195L909.738 34.0195L909.738 35.4434Q909.738 37.9922 908.191 39.4775Q906.645 40.9629 903.832 40.9629Q901.002 40.9629 898.225 39.3457L898.225 44.0215Q900.352 45.0586 903.99 45.0586Q909.492 45.0586 912.393 42.3076ZM979.031 29.1855L967.289 29.1855Q967.57 33.1055 972.229 33.1055Q975.199 33.1055 977.449 31.6992L977.449 35.707Q974.953 37.043 970.963 37.043Q966.604 37.043 964.195 34.626Q961.787 32.209 961.787 27.8848Q961.787 23.4023 964.389 20.7832Q966.99 18.1641 970.787 18.1641Q974.725 18.1641 976.878 20.502Q979.031 22.8398 979.031 26.8477L979.031 29.1855ZM1027.69 35.9531Q1025.81 37.043 1022.26 37.043Q1018.11 37.043 1015.54 34.5293Q1012.97 32.0156 1012.97 28.043Q1012.97 23.4551 1015.73 20.8096Q1018.48 18.1641 1023.08 18.1641Q1026.26 18.1641 1027.69 19.0078L1027.69 23.7188Q1025.95 22.418 1023.8 22.418Q1021.41 22.418 1020.01 23.8154Q1018.62 25.2129 1018.62 27.6738Q1018.62 30.0645 1019.95 31.4268Q1021.29 32.7891 1023.63 32.7891Q1025.7 32.7891 1027.69 31.4883L1027.69 35.9531ZM1041.05 36.6035L1046.3 36.6035L1046.3 25.8457Q1046.3 18.1641 1038.6 18.1641Q1036.95 18.1641 1034.94 18.6211Q1032.93 19.0781 1031.77 19.6758L1031.77 23.8594Q1034.67 21.9434 1037.88 21.9434Q1041.08 21.9434 1041.08 24.8965L1036.2 25.5469Q1029.99 26.3555 1029.99 31.5938Q1029.99 34.0723 1031.49 35.5576Q1033 37.043 1035.62 37.043Q1039.17 37.043 1040.98 34.0195L1041.05 34.0195L1041.05 36.6035ZM1068.08 36.6035L1062.54 36.6035L1062.54 26.6016Q1062.54 22.418 1059.56 22.418Q1058.12 22.418 1057.18 23.5254Q1056.25 24.6328 1056.25 26.3379L1056.25 36.6035L1050.7 36.6035L1050.7 18.6035L1056.25 18.6035L1056.25 21.4512L1056.32 21.4512Q1058.31 18.1641 1062.11 18.1641Q1068.08 18.1641 1068.08 25.582L1068.08 36.6035ZM1119.39 29.1855L1131.13 29.1855L1131.13 26.8477Q1131.13 22.8398 1128.98 20.502Q1126.83 18.1641 1122.89 18.1641Q1119.09 18.1641 1116.49 20.7832Q1113.89 23.4023 1113.89 27.8848Q1113.89 32.209 1116.3 34.626Q1118.71 37.043 1123.07 37.043Q1127.06 37.043 1129.55 35.707L1129.55 31.6992Q1127.3 33.1055 1124.33 33.1055Q1119.67 33.1055 1119.39 29.1855ZM231.047 23.0684Q232.383 23.0684 233.385 23.6133L233.385 18.498Q232.893 18.2871 232.014 18.2871Q228.586 18.2871 227.268 21.9434L227.197 21.9434L227.197 18.6035L221.643 18.6035L221.643 36.6035L227.197 36.6035L227.197 28.0078Q227.197 25.7227 228.217 24.3955Q229.236 23.0684 231.047 23.0684ZM577.178 23.6133Q576.176 23.0684 574.84 23.0684Q573.029 23.0684 572.01 24.3955Q570.99 25.7227 570.99 28.0078L570.99 36.6035L565.436 36.6035L565.436 18.6035L570.99 18.6035L570.99 21.9434L571.061 21.9434Q572.379 18.2871 575.807 18.2871Q576.686 18.2871 577.178 18.498L577.178 23.6133ZM120.393 24.1758Q119.021 24.1758 118.107 23.3408Q117.193 22.5059 117.193 21.2754Q117.193 20.0098 118.134 19.2012Q119.074 18.3926 120.48 18.3926Q121.904 18.3926 122.81 19.21Q123.715 20.0273 123.715 21.2754Q123.715 22.5586 122.792 23.3672Q121.869 24.1758 120.393 24.1758ZM241.523 36.6035L235.969 36.6035L235.969 18.6035L241.523 18.6035L241.523 36.6035ZM510.574 18.6035L503.877 36.6035L497.549 36.6035L491.168 18.6035L497.109 18.6035L500.238 29.6953Q500.766 31.5762 500.854 32.8945L500.924 32.8945Q501.047 31.6465 501.574 29.8008L504.773 18.6035L510.574 18.6035ZM579.762 36.6035L585.316 36.6035L585.316 18.6035L579.762 18.6035L579.762 36.6035ZM763.664 36.6035L769.992 36.6035L776.689 18.6035L770.889 18.6035L767.689 29.8008Q767.162 31.6465 767.039 32.8945L766.969 32.8945Q766.881 31.5762 766.354 29.6953L763.225 18.6035L757.283 18.6035L763.664 36.6035ZM952.629 36.6035L958.184 36.6035L958.184 18.6035L952.629 18.6035L952.629 36.6035ZM993.902 36.6035L999.439 36.6035L999.439 18.6035L993.902 18.6035L993.902 28.9043Q993.902 30.6973 993.006 31.7432Q992.109 32.7891 990.615 32.7891Q987.592 32.7891 987.592 28.9746L987.592 18.6035L982.055 18.6035L982.055 29.4668Q982.055 37.043 988.313 37.043Q991.758 37.043 993.814 33.8613L993.902 33.8613L993.902 36.6035ZM1110.29 36.6035L1104.73 36.6035L1104.73 18.6035L1110.29 18.6035L1110.29 36.6035ZM973.881 25.7754Q973.881 21.9082 970.752 21.9082Q969.416 21.9082 968.44 23.0156Q967.465 24.123 967.254 25.7754L973.881 25.7754ZM1122.86 21.9082Q1125.98 21.9082 1125.98 25.7754L1119.36 25.7754Q1119.57 24.123 1120.54 23.0156Q1121.52 21.9082 1122.86 21.9082ZM180.844 28.5703L180.844 27.1289Q180.844 25.002 181.925 23.71Q183.006 22.418 184.711 22.418Q188.402 22.418 188.402 27.1641Q188.402 29.8535 187.356 31.3213Q186.311 32.7891 184.412 32.7891Q182.813 32.7891 181.828 31.6113Q180.844 30.4336 180.844 28.5703ZM595.459 27.1289L595.459 28.5703Q595.459 30.4336 596.443 31.6113Q597.428 32.7891 599.027 32.7891Q600.926 32.7891 601.972 31.3213Q603.018 29.8535 603.018 27.1641Q603.018 22.418 599.326 22.418Q597.621 22.418 596.54 23.71Q595.459 25.002 595.459 27.1289ZM659.197 23.7715Q660.287 22.418 662.256 22.418Q666.281 22.418 666.281 27.4629Q666.281 32.7891 662.291 32.7891Q658.107 32.7891 658.107 27.6035Q658.107 25.125 659.197 23.7715ZM691.611 26.918L691.611 28.7637Q691.611 30.5039 692.613 31.6465Q693.615 32.7891 695.18 32.7891Q697.078 32.7891 698.124 31.3213Q699.17 29.8535 699.17 27.1641Q699.17 24.9316 698.212 23.6748Q697.254 22.418 695.479 22.418Q693.809 22.418 692.71 23.666Q691.611 24.9141 691.611 26.918ZM909.809 26.5313L909.809 27.9551Q909.809 30.1348 908.745 31.4619Q907.682 32.7891 905.959 32.7891Q904.219 32.7891 903.217 31.4795Q902.215 30.1699 902.215 27.9199Q902.215 25.3008 903.27 23.8594Q904.324 22.418 906.17 22.418Q907.787 22.418 908.798 23.6221Q909.809 24.8262 909.809 26.5313ZM942.029 27.8496L942.029 26.4961Q942.029 24.7383 941.01 23.5781Q939.99 22.418 938.355 22.418Q936.51 22.418 935.473 23.8682Q934.436 25.3184 934.436 27.8496Q934.436 30.2227 935.438 31.5059Q936.439 32.7891 938.215 32.7891Q939.902 32.7891 940.966 31.4355Q942.029 30.082 942.029 27.8496ZM1087.88 28.7637L1087.88 26.918Q1087.88 24.9141 1088.97 23.666Q1090.07 22.418 1091.74 22.418Q1093.52 22.418 1094.48 23.6748Q1095.43 24.9316 1095.43 27.1641Q1095.43 29.8535 1094.39 31.3213Q1093.34 32.7891 1091.44 32.7891Q1089.88 32.7891 1088.88 31.6465Q1087.88 30.5039 1087.88 28.7637ZM55.8809 28.0781L55.8809 29.291Q55.8809 30.9434 54.8965 32.0244Q53.9121 33.1055 52.3477 33.1055Q51.2227 33.1055 50.5635 32.499Q49.9043 31.8926 49.9043 30.9434Q49.9043 28.8516 52.6113 28.5L55.8809 28.0781ZM165.762 29.291L165.762 28.0781L162.492 28.5Q159.785 28.8516 159.785 30.9434Q159.785 31.8926 160.444 32.499Q161.104 33.1055 162.229 33.1055Q163.793 33.1055 164.777 32.0244Q165.762 30.9434 165.762 29.291ZM483.82 28.0781L483.82 29.291Q483.82 30.9434 482.836 32.0244Q481.852 33.1055 480.287 33.1055Q479.162 33.1055 478.503 32.499Q477.844 31.8926 477.844 30.9434Q477.844 28.8516 480.551 28.5L483.82 28.0781ZM522.703 28.0781L522.703 29.291Q522.703 30.9434 521.719 32.0244Q520.734 33.1055 519.17 33.1055Q518.045 33.1055 517.386 32.499Q516.727 31.8926 516.727 30.9434Q516.727 28.8516 519.434 28.5L522.703 28.0781ZM718.225 28.0781L718.225 29.291Q718.225 30.9434 717.24 32.0244Q716.256 33.1055 714.691 33.1055Q713.566 33.1055 712.907 32.499Q712.248 31.8926 712.248 30.9434Q712.248 28.8516 714.955 28.5L718.225 28.0781ZM788.818 29.291L788.818 28.0781L785.549 28.5Q782.842 28.8516 782.842 30.9434Q782.842 31.8926 783.501 32.499Q784.16 33.1055 785.285 33.1055Q786.85 33.1055 787.834 32.0244Q788.818 30.9434 788.818 29.291ZM1041.08 28.0781L1041.08 29.291Q1041.08 30.9434 1040.1 32.0244Q1039.11 33.1055 1037.55 33.1055Q1036.42 33.1055 1035.76 32.499Q1035.11 31.8926 1035.11 30.9434Q1035.11 28.8516 1037.81 28.5L1041.08 28.0781ZM120.393 37.043Q119.021 37.043 118.107 36.1992Q117.193 35.3555 117.193 34.125Q117.193 32.8594 118.134 32.0508Q119.074 31.2422 120.48 31.2422Q121.904 31.2422 122.81 32.0596Q123.715 32.877 123.715 34.125Q123.715 35.4082 122.792 36.2256Q121.869 37.043 120.393 37.043ZM1148.64 36.1992Q1149.56 37.043 1150.93 37.043Q1152.4 37.043 1153.33 36.2256Q1154.25 35.4082 1154.25 34.125Q1154.25 32.877 1153.34 32.0596Q1152.44 31.2422 1151.02 31.2422Q1149.61 31.2422 1148.67 32.0508Q1147.73 32.8594 1147.73 34.125Q1147.73 35.3555 1148.64 36.1992ZM387.053 41.0684L389.637 32.1738L384.521 32.1738L382.729 41.0684L387.053 41.0684ZM450.949 41.0684L453.533 32.1738L448.418 32.1738L446.625 41.0684L450.949 41.0684ZM163.055 43.4766Q161.877 43.4766 161.112 42.7734Q160.348 42.0703 160.348 41.0684Q160.348 40.0137 161.121 39.3545Q161.895 38.6953 163.055 38.6953Q164.232 38.6953 164.979 39.3633Q165.727 40.0313 165.727 41.0684Q165.727 42.1055 164.979 42.791Q164.232 43.4766 163.055 43.4766Z" />
  </g>
  <g id="Phần-4-Lập-trìnhdự-án-web-hoàn-chỉnh" transform="translate(160.50586 408.13477)">
    <path d="M49.0957 12.5215L45.6328 12.5215L40.9922 8.19727L45.9141 8.19727L49.0957 12.5215ZM635.322 15.1758L635.322 14.3145Q637.836 13.875 637.836 11.6953Q637.836 8.91797 634.162 8.91797Q633.723 8.91797 632.141 9.02344L632.141 11.0801Q632.844 10.9043 633.512 10.9043Q634.953 10.9043 634.953 11.8711Q634.953 12.873 632.861 12.9961L632.861 15.1758L635.322 15.1758ZM36.1934 36.6035L41.7305 36.6035L41.7305 25.5469Q41.7305 18.1641 35.6133 18.1641Q32.1152 18.1641 30.0762 21.2754L30.0059 21.2754L30.0059 9.95508L24.4512 9.95508L24.4512 36.6035L30.0059 36.6035L30.0059 26.3379Q30.0059 24.6328 30.9199 23.5254Q31.834 22.418 33.3105 22.418Q36.1934 22.418 36.1934 26.373L36.1934 36.6035ZM279.721 36.6035L285.258 36.6035L285.258 25.5469Q285.258 18.1641 279.141 18.1641Q275.643 18.1641 273.604 21.2754L273.533 21.2754L273.533 9.95508L267.979 9.95508L267.979 36.6035L273.533 36.6035L273.533 26.3379Q273.533 24.6328 274.447 23.5254Q275.361 22.418 276.838 22.418Q279.721 22.418 279.721 26.373L279.721 36.6035ZM327.951 36.6035L322.396 36.6035L322.396 34.125L322.326 34.125Q320.428 37.043 316.754 37.043Q313.379 37.043 311.322 34.6611Q309.266 32.2793 309.266 28.0078Q309.266 23.543 311.533 20.8535Q313.801 18.1641 317.475 18.1641Q320.955 18.1641 322.326 20.6602L322.396 20.6602L322.396 9.95508L327.951 9.95508L327.951 36.6035ZM471.494 34.5117L471.424 34.5117L471.424 36.6035L465.869 36.6035L465.869 9.95508L471.424 9.95508L471.424 21.3105L471.494 21.3105Q473.551 18.1641 477.348 18.1641Q480.828 18.1641 482.709 20.5547Q484.59 22.9453 484.59 27.0938Q484.59 31.5938 482.393 34.3184Q480.195 37.043 476.521 37.043Q473.199 37.043 471.494 34.5117ZM509.867 36.6035L515.404 36.6035L515.404 25.5469Q515.404 18.1641 509.287 18.1641Q505.789 18.1641 503.75 21.2754L503.68 21.2754L503.68 9.95508L498.125 9.95508L498.125 36.6035L503.68 36.6035L503.68 26.3379Q503.68 24.6328 504.594 23.5254Q505.508 22.418 506.984 22.418Q509.867 22.418 509.867 26.373L509.867 36.6035ZM627.447 36.6035L621.91 36.6035L621.91 26.373Q621.91 22.418 619.027 22.418Q617.551 22.418 616.637 23.5254Q615.723 24.6328 615.723 26.3379L615.723 36.6035L610.168 36.6035L610.168 9.95508L615.723 9.95508L615.723 21.2754L615.793 21.2754Q617.832 18.1641 621.33 18.1641Q627.447 18.1641 627.447 25.5469L627.447 36.6035ZM675.594 36.6035L681.131 36.6035L681.131 25.5469Q681.131 18.1641 675.014 18.1641Q671.516 18.1641 669.477 21.2754L669.406 21.2754L669.406 9.95508L663.852 9.95508L663.852 36.6035L669.406 36.6035L669.406 26.3379Q669.406 24.6328 670.32 23.5254Q671.234 22.418 672.711 22.418Q675.594 22.418 675.594 26.373L675.594 36.6035ZM166.289 15.7559L169.928 15.7559L165.779 10.043L161.42 10.043L157.289 15.7559L160.928 15.7559L163.512 12.4512L166.289 15.7559ZM238.676 15.7559L242.666 15.7559L238.096 10.0781L233.156 10.0781L238.676 15.7559ZM379.93 10.0781L374.428 15.7559L370.42 15.7559L374.99 10.0781L379.93 10.0781ZM549.102 15.7559L553.092 15.7559L548.521 10.0781L543.582 10.0781L549.102 15.7559ZM59.6777 15.1758L56.1445 15.1758L53.666 12.7676L50.9941 15.1758L47.4609 15.1758L51.4688 10.7988L55.6699 10.7988L59.6777 15.1758ZM8.56055 36.6035L8.56055 27.9199L11.2676 27.9199Q15.8379 27.9199 18.5713 25.5732Q21.3047 23.2266 21.3047 19.4297Q21.3047 11.3965 11.7773 11.3965L2.88281 11.3965L2.88281 36.6035L8.56055 36.6035ZM111.604 11.3965L111.604 27.2871L114.627 27.2871L114.627 31.4355L111.604 31.4355L111.604 36.6035L106.541 36.6035L106.541 31.4355L95.5547 31.4355L95.5547 27.0938Q97.0137 25.459 98.5781 23.5166Q100.143 21.5742 101.602 19.5176Q103.061 17.4609 104.317 15.3779Q105.574 13.2949 106.453 11.3965L111.604 11.3965ZM153.158 36.6035L138.146 36.6035L138.146 11.3965L143.824 11.3965L143.824 31.998L153.158 31.998L153.158 36.6035ZM214.805 37.043Q217.283 37.043 218.514 36.3926L218.514 32.2793Q217.582 32.7891 216.703 32.7891Q214.471 32.7891 214.471 29.9766L214.471 22.6992L218.514 22.6992L218.514 18.6035L214.471 18.6035L214.471 13.1367L208.934 14.7188L208.934 18.6035L206.016 18.6035L206.016 22.6992L208.934 22.6992L208.934 30.9434Q208.934 37.043 214.805 37.043ZM349.73 36.6035L349.73 20.959Q352.068 20.8359 353.36 19.5615Q354.652 18.2871 354.652 16.2305Q354.652 15.0176 354.371 14.1738L351.137 14.1738Q351.453 15.2461 351.453 16.002Q351.453 18.6035 349.256 18.6035L344.193 18.6035L344.193 28.9043Q344.193 30.6973 343.297 31.7432Q342.4 32.7891 340.906 32.7891Q337.883 32.7891 337.883 28.9746L337.883 18.6035L332.346 18.6035L332.346 29.4668Q332.346 37.043 338.604 37.043Q342.049 37.043 344.105 33.8613L344.193 33.8613L344.193 36.6035L349.73 36.6035ZM8.56055 23.6133L8.56055 15.7559L10.793 15.7559Q15.3281 15.7559 15.3281 19.6406Q15.3281 23.6133 10.793 23.6133L8.56055 23.6133ZM61.1016 36.6035L55.8457 36.6035L55.8457 34.0195L55.7754 34.0195Q53.9648 37.043 50.4141 37.043Q47.7949 37.043 46.292 35.5576Q44.7891 34.0723 44.7891 31.5938Q44.7891 26.3555 50.9941 25.5469L55.8809 24.8965Q55.8809 21.9434 52.6816 21.9434Q49.4648 21.9434 46.5645 23.8594L46.5645 19.6758Q47.7246 19.0781 49.7373 18.6211Q51.75 18.1641 53.4023 18.1641Q61.1016 18.1641 61.1016 25.8457L61.1016 36.6035ZM77.3438 36.6035L82.8809 36.6035L82.8809 25.582Q82.8809 18.1641 76.9043 18.1641Q73.1074 18.1641 71.1211 21.4512L71.0508 21.4512L71.0508 18.6035L65.4961 18.6035L65.4961 36.6035L71.0508 36.6035L71.0508 26.3379Q71.0508 24.6328 71.9824 23.5254Q72.9141 22.418 74.3555 22.418Q77.3438 22.418 77.3438 26.6016L77.3438 36.6035ZM165.727 36.6035L170.982 36.6035L170.982 25.8457Q170.982 18.1641 163.283 18.1641Q161.631 18.1641 159.618 18.6211Q157.605 19.0781 156.445 19.6758L156.445 23.8594Q159.346 21.9434 162.563 21.9434Q165.762 21.9434 165.762 24.8965L160.875 25.5469Q154.67 26.3555 154.67 31.5938Q154.67 34.0723 156.173 35.5576Q157.676 37.043 160.295 37.043Q163.846 37.043 165.656 34.0195L165.727 34.0195L165.727 36.6035ZM181.002 34.5117L180.932 34.5117L180.932 44.8828L175.377 44.8828L175.377 18.6035L180.932 18.6035L180.932 21.3105L181.002 21.3105Q183.059 18.1641 186.785 18.1641Q190.283 18.1641 192.19 20.5635Q194.098 22.9629 194.098 27.0938Q194.098 31.5938 191.874 34.3184Q189.65 37.043 185.959 37.043Q182.707 37.043 181.002 34.5117ZM263.584 36.6035L258.047 36.6035L258.047 26.6016Q258.047 22.418 255.059 22.418Q253.617 22.418 252.686 23.5254Q251.754 24.6328 251.754 26.3379L251.754 36.6035L246.199 36.6035L246.199 18.6035L251.754 18.6035L251.754 21.4512L251.824 21.4512Q253.811 18.1641 257.607 18.1641Q263.584 18.1641 263.584 25.582L263.584 36.6035ZM381.582 36.6035L376.326 36.6035L376.326 34.0195L376.256 34.0195Q374.445 37.043 370.895 37.043Q368.275 37.043 366.772 35.5576Q365.27 34.0723 365.27 31.5938Q365.27 26.3555 371.475 25.5469L376.361 24.8965Q376.361 21.9434 373.162 21.9434Q369.945 21.9434 367.045 23.8594L367.045 19.6758Q368.205 19.0781 370.218 18.6211Q372.23 18.1641 373.883 18.1641Q381.582 18.1641 381.582 25.8457L381.582 36.6035ZM397.824 36.6035L403.361 36.6035L403.361 25.582Q403.361 18.1641 397.385 18.1641Q393.588 18.1641 391.602 21.4512L391.531 21.4512L391.531 18.6035L385.977 18.6035L385.977 36.6035L391.531 36.6035L391.531 26.3379Q391.531 24.6328 392.463 23.5254Q393.395 22.418 394.836 22.418Q397.824 22.418 397.824 26.6016L397.824 36.6035ZM450.822 29.1855L462.564 29.1855L462.564 26.8477Q462.564 22.8398 460.411 20.502Q458.258 18.1641 454.32 18.1641Q450.523 18.1641 447.922 20.7832Q445.32 23.4023 445.32 27.8848Q445.32 32.209 447.729 34.626Q450.137 37.043 454.496 37.043Q458.486 37.043 460.982 35.707L460.982 31.6992Q458.732 33.1055 455.762 33.1055Q451.104 33.1055 450.822 29.1855ZM528.377 37.043Q523.877 37.043 521.302 34.5205Q518.727 31.998 518.727 27.6738Q518.727 23.209 521.398 20.6865Q524.07 18.1641 528.623 18.1641Q533.105 18.1641 535.654 20.6865Q538.203 23.209 538.203 27.3574Q538.203 31.8398 535.575 34.4414Q532.947 37.043 528.377 37.043ZM551.527 36.6035L556.783 36.6035L556.783 25.8457Q556.783 18.1641 549.084 18.1641Q547.432 18.1641 545.419 18.6211Q543.406 19.0781 542.246 19.6758L542.246 23.8594Q545.146 21.9434 548.363 21.9434Q551.563 21.9434 551.563 24.8965L546.676 25.5469Q540.471 26.3555 540.471 31.5938Q540.471 34.0723 541.974 35.5576Q543.477 37.043 546.096 37.043Q549.646 37.043 551.457 34.0195L551.527 34.0195L551.527 36.6035ZM578.563 36.6035L573.025 36.6035L573.025 26.6016Q573.025 22.418 570.037 22.418Q568.596 22.418 567.664 23.5254Q566.732 24.6328 566.732 26.3379L566.732 36.6035L561.178 36.6035L561.178 18.6035L566.732 18.6035L566.732 21.4512L566.803 21.4512Q568.789 18.1641 572.586 18.1641Q578.563 18.1641 578.563 25.582L578.563 36.6035ZM601.098 37.043Q604.648 37.043 606.529 35.9531L606.529 31.4883Q604.543 32.7891 602.469 32.7891Q600.131 32.7891 598.795 31.4268Q597.459 30.0645 597.459 27.6738Q597.459 25.2129 598.856 23.8154Q600.254 22.418 602.645 22.418Q604.789 22.418 606.529 23.7188L606.529 19.0078Q605.105 18.1641 601.924 18.1641Q597.318 18.1641 594.567 20.8096Q591.816 23.4551 591.816 28.043Q591.816 32.0156 594.383 34.5293Q596.949 37.043 601.098 37.043ZM659.457 36.6035L653.92 36.6035L653.92 26.6016Q653.92 22.418 650.932 22.418Q649.49 22.418 648.559 23.5254Q647.627 24.6328 647.627 26.3379L647.627 36.6035L642.072 36.6035L642.072 18.6035L647.627 18.6035L647.627 21.4512L647.697 21.4512Q649.684 18.1641 653.48 18.1641Q659.457 18.1641 659.457 25.582L659.457 36.6035ZM233.385 23.6133Q232.383 23.0684 231.047 23.0684Q229.236 23.0684 228.217 24.3955Q227.197 25.7227 227.197 28.0078L227.197 36.6035L221.643 36.6035L221.643 18.6035L227.197 18.6035L227.197 21.9434L227.268 21.9434Q228.586 18.2871 232.014 18.2871Q232.893 18.2871 233.385 18.498L233.385 23.6133ZM118.107 23.3408Q119.021 24.1758 120.393 24.1758Q121.869 24.1758 122.792 23.3672Q123.715 22.5586 123.715 21.2754Q123.715 20.0273 122.81 19.21Q121.904 18.3926 120.48 18.3926Q119.074 18.3926 118.134 19.2012Q117.193 20.0098 117.193 21.2754Q117.193 22.5059 118.107 23.3408ZM100.529 27.2871L106.541 27.2871L106.541 18.4805Q105.926 19.623 105.205 20.792Q104.484 21.9609 103.693 23.0947Q102.902 24.2285 102.094 25.292Q101.285 26.3555 100.529 27.2871ZM235.969 36.6035L241.523 36.6035L241.523 18.6035L235.969 18.6035L235.969 36.6035ZM443.756 18.6035L438.57 36.6035L432.734 36.6035L430.08 26.0566Q429.816 25.002 429.781 23.7539L429.676 23.7539Q429.553 25.125 429.324 25.9863L426.477 36.6035L420.711 36.6035L415.631 18.6035L421.291 18.6035L423.77 30.3457Q423.945 31.1719 424.033 32.3496L424.139 32.3496Q424.227 31.1191 424.455 30.2754L427.549 18.6035L432.84 18.6035L435.617 30.3457Q435.723 30.7852 435.863 32.3848L435.986 32.3848Q436.074 31.3652 436.268 30.3457L438.605 18.6035L443.756 18.6035ZM631.842 36.6035L637.396 36.6035L637.396 18.6035L631.842 18.6035L631.842 36.6035ZM454.285 21.9082Q457.414 21.9082 457.414 25.7754L450.787 25.7754Q450.998 24.123 451.974 23.0156Q452.949 21.9082 454.285 21.9082ZM180.844 27.1289L180.844 28.5703Q180.844 30.4336 181.828 31.6113Q182.813 32.7891 184.412 32.7891Q186.311 32.7891 187.356 31.3213Q188.402 29.8535 188.402 27.1641Q188.402 22.418 184.711 22.418Q183.006 22.418 181.925 23.71Q180.844 25.002 180.844 27.1289ZM322.502 27.8496L322.502 26.4961Q322.502 24.7383 321.482 23.5781Q320.463 22.418 318.828 22.418Q316.982 22.418 315.945 23.8682Q314.908 25.3184 314.908 27.8496Q314.908 30.2227 315.91 31.5059Q316.912 32.7891 318.688 32.7891Q320.375 32.7891 321.438 31.4355Q322.502 30.082 322.502 27.8496ZM471.336 26.918L471.336 28.7637Q471.336 30.5039 472.338 31.6465Q473.34 32.7891 474.904 32.7891Q476.803 32.7891 477.849 31.3213Q478.895 29.8535 478.895 27.1641Q478.895 24.9316 477.937 23.6748Q476.979 22.418 475.203 22.418Q473.533 22.418 472.435 23.666Q471.336 24.9141 471.336 26.918ZM528.518 22.418Q526.549 22.418 525.459 23.7715Q524.369 25.125 524.369 27.6035Q524.369 32.7891 528.553 32.7891Q532.543 32.7891 532.543 27.4629Q532.543 22.418 528.518 22.418ZM55.8809 29.291L55.8809 28.0781L52.6113 28.5Q49.9043 28.8516 49.9043 30.9434Q49.9043 31.8926 50.5635 32.499Q51.2227 33.1055 52.3477 33.1055Q53.9121 33.1055 54.8965 32.0244Q55.8809 30.9434 55.8809 29.291ZM165.762 28.0781L165.762 29.291Q165.762 30.9434 164.777 32.0244Q163.793 33.1055 162.229 33.1055Q161.104 33.1055 160.444 32.499Q159.785 31.8926 159.785 30.9434Q159.785 28.8516 162.492 28.5L165.762 28.0781ZM376.361 29.291L376.361 28.0781L373.092 28.5Q370.385 28.8516 370.385 30.9434Q370.385 31.8926 371.044 32.499Q371.703 33.1055 372.828 33.1055Q374.393 33.1055 375.377 32.0244Q376.361 30.9434 376.361 29.291ZM551.563 28.0781L551.563 29.291Q551.563 30.9434 550.578 32.0244Q549.594 33.1055 548.029 33.1055Q546.904 33.1055 546.245 32.499Q545.586 31.8926 545.586 30.9434Q545.586 28.8516 548.293 28.5L551.563 28.0781ZM118.107 36.1992Q119.021 37.043 120.393 37.043Q121.869 37.043 122.792 36.2256Q123.715 35.4082 123.715 34.125Q123.715 32.877 122.81 32.0596Q121.904 31.2422 120.48 31.2422Q119.074 31.2422 118.134 32.0508Q117.193 32.8594 117.193 34.125Q117.193 35.3555 118.107 36.1992ZM161.112 42.7734Q161.877 43.4766 163.055 43.4766Q164.232 43.4766 164.979 42.791Q165.727 42.1055 165.727 41.0684Q165.727 40.0313 164.979 39.3633Q164.232 38.6953 163.055 38.6953Q161.895 38.6953 161.121 39.3545Q160.348 40.0137 160.348 41.0684Q160.348 42.0703 161.112 42.7734ZM338.7 42.7734Q339.465 43.4766 340.643 43.4766Q341.82 43.4766 342.567 42.791Q343.314 42.1055 343.314 41.0684Q343.314 40.0313 342.567 39.3633Q341.82 38.6953 340.643 38.6953Q339.482 38.6953 338.709 39.3545Q337.936 40.0137 337.936 41.0684Q337.936 42.0703 338.7 42.7734Z" />
  </g>
</svg>