<?xml version="1.0" encoding="utf-8"?>
<svg width="793px" height="768px" viewbox="0 0 793 768" version="1.1" xmlns:xlink="http://www.w3.org/1999/xlink" xmlns="http://www.w3.org/2000/svg">
  <defs>
    <path d="M0 0L65.6395 0L65.6395 63.2549L0 63.2549L0 0Z" id="path_1" />
    <path d="M0 0L93.5263 0L93.5263 84.0061L0 84.0061L0 0Z" id="path_2" />
    <path d="M0 0L65.7607 0L65.7607 59.0668L0 59.0668L0 0Z" id="path_3" />
    <path d="M0 0L247.174 0L247.174 238.194L0 238.194L0 0Z" id="path_4" />
    <path d="M0 0L184.611 0L184.611 177.904L0 177.904L0 0Z" id="path_5" />
    <path d="M0 0L221.53 0L221.53 213.494L0 213.494L0 0Z" transform="matrix(1 2.9026057E-09 -2.9026057E-09 1 0 0)" id="path_6" />
    <path d="M0 0L198.97 0L198.97 191.742L0 191.742L0 0Z" id="path_7" />
    <clipPath id="mask_1">
      <use xlink:href="#path_1" />
    </clipPath>
    <clipPath id="mask_2">
      <use xlink:href="#path_2" />
    </clipPath>
    <clipPath id="mask_3">
      <use xlink:href="#path_3" />
    </clipPath>
    <clipPath id="mask_4">
      <use xlink:href="#path_4" />
    </clipPath>
    <clipPath id="mask_5">
      <use xlink:href="#path_5" />
    </clipPath>
    <clipPath id="mask_6">
      <use xlink:href="#path_6" />
    </clipPath>
    <clipPath id="mask_7">
      <use xlink:href="#path_7" />
    </clipPath>
  </defs>
  <g id="Group-13" transform="translate(0 -7.2939453)">
    <path d="M34.7675 374.054C107.736 359.099 32.6837 314.282 56.041 225.311C79.3984 136.34 177.345 146.813 143.47 81.6345C109.595 16.4554 210.391 -23.2115 243.937 14.8718C274.927 50.0543 332.124 76.3265 360.107 63.8772C362.414 62.8507 364.523 61.561 366.402 59.9913C391.07 39.3845 451.483 33.9305 458.765 33.5459C466.047 33.1615 544.64 33.0974 496.203 112.249C447.766 191.4 439.184 238.827 492.362 259.546C545.539 280.264 628.021 346.602 579.281 387.776C530.54 428.95 468.763 418.236 448.058 444.117C427.352 469.998 417.444 550.257 354.648 510.69C291.852 471.124 363.012 427.279 283.097 424.103C203.181 420.926 196.951 487.451 97.9743 492.164C-1.00269 496.876 -30.3703 391.033 34.7677 374.054C99.9057 357.076 34.7678 374.054 34.7678 374.054L34.7678 374.054" transform="matrix(0.49999997 0.86602545 -0.86602545 0.49999997 495.1864 0)" id="New-shape-3" fill="#2D4B87" fill-opacity="0.8" fill-rule="evenodd" stroke="none" />
    <path d="M39.4608 378.806C124.596 365.485 35.1879 317.466 59.8643 226.891C84.5407 136.317 199.752 149.755 158.023 81.9955C116.294 14.2358 233.314 -23.6544 273.828 16.316C311.256 53.2417 379.152 81.7545 411.596 69.7622C414.271 68.7734 416.705 67.5092 418.861 65.9517C447.166 45.5043 517.864 41.578 526.394 41.3846C534.924 41.1912 627.111 43.2921 572.716 123.108C518.321 202.924 509.705 251.312 572.716 274.02C635.728 296.728 734.508 367.016 678.595 407.886C622.682 448.757 549.889 436.069 526.394 462.033C502.898 487.997 493.731 570.011 418.861 527.713C343.991 485.416 426.121 442.426 332.282 436.965C238.444 431.505 233.171 499.539 117.216 501.642C1.25964 503.745 -36.4266 394.419 39.461 378.806C115.349 363.194 39.4611 378.806 39.4611 378.806L39.4611 378.806" transform="translate(34.00305 165.91016)" id="New-shape-3" fill="#EF8318" fill-opacity="0.8980392" fill-rule="evenodd" stroke="none" />
    <g id="icons8_idea-2" transform="translate(256.67908 477.9502)">
      <path d="M0 0L65.6395 0L65.6395 63.2549L0 63.2549L0 0Z" id="Background" fill="none" fill-rule="evenodd" stroke="none" />
      <g clip-path="url(#mask_1)">
        <path d="M31.7941 0C21.0492 0 12.3074 8.42421 12.3074 18.7788C12.3074 23.6936 15.1599 27.3652 17.9202 30.9171C20.1237 33.7548 22.199 36.4573 22.5636 39.5343L22.5636 46.4529C22.5636 49.9314 25.2438 52.8115 28.7173 53.2941L28.7173 54.3597C28.7173 55.4485 29.6387 56.3364 30.7685 56.3364L32.8197 56.3364C33.9495 56.3364 34.871 55.4485 34.871 54.3597L34.871 53.2941C38.3444 52.8115 41.0247 49.9314 41.0247 46.4529L41.0247 40.4223C41.0407 36.9669 43.3043 34.0289 45.704 30.9171C48.4484 27.3652 51.2808 23.6936 51.2808 18.7788C51.2808 8.42421 42.5391 0 31.7941 0L31.7941 0ZM31.7941 1.97672C41.4093 1.97672 49.2296 9.51295 49.2296 18.7788C49.2296 23.0411 46.6015 26.4463 44.0615 29.7396C41.7618 32.7201 39.3901 35.7894 39.0215 39.4726L32.8197 39.4726L32.8197 36.5693C32.8197 36.0249 32.359 35.5809 31.7941 35.5809C31.2292 35.5809 30.7685 36.0249 30.7685 36.5693L30.7685 39.4764L24.6428 39.4764C24.2703 35.7932 21.8785 32.7162 19.5628 29.7318C17.0028 26.4386 14.3586 23.0372 14.3586 18.7788C14.3586 9.51295 22.179 1.97672 31.7941 1.97672L31.7941 1.97672ZM31.6539 4.93749C28.9136 4.96066 26.2373 5.73667 23.9097 7.21149C23.4369 7.50877 23.3087 8.12263 23.6212 8.57821C23.8175 8.86776 24.142 9.02219 24.4746 9.02219C24.6709 9.02219 24.8632 8.972 25.0394 8.86004C27.6956 7.17674 30.8887 6.55902 34.0336 7.11497C34.5945 7.21149 35.1273 6.8563 35.2275 6.31965C35.3317 5.783 34.9631 5.26952 34.4062 5.173C33.4888 5.00699 32.5713 4.92977 31.6539 4.93749L31.6539 4.93749ZM38.8292 6.79502C38.4366 6.74097 38.024 6.91471 37.8036 7.26218C37.5112 7.73319 37.6674 8.33933 38.1562 8.62117C39.0015 9.11535 39.7908 9.70991 40.4959 10.3933C40.6962 10.5863 40.9606 10.6828 41.221 10.6828C41.4854 10.6828 41.7498 10.5863 41.9502 10.3933C42.3508 10.0072 42.3508 9.38174 41.9502 8.99567C41.1209 8.20035 40.2034 7.50541 39.2138 6.93015C39.0937 6.86066 38.9614 6.81433 38.8292 6.79502L38.8292 6.79502ZM5.15212 7.42469C4.75149 7.43241 4.3749 7.66405 4.21465 8.04241C4.00632 8.54817 4.25872 9.12729 4.78354 9.32805L8.58954 10.8106C8.71374 10.8608 8.84194 10.8839 8.97014 10.8839C9.37478 10.8839 9.76339 10.6484 9.92365 10.2662C10.136 9.75659 9.87958 9.18134 9.35475 8.97672L5.55276 7.49418C5.42055 7.44399 5.28433 7.42083 5.15212 7.42469L5.15212 7.42469ZM58.4361 7.42469C58.3039 7.42083 58.1677 7.44399 58.0355 7.49418L54.2335 8.97672C53.7087 9.18134 53.4523 9.75659 53.6646 10.2662C53.8249 10.6484 54.2135 10.8839 54.6181 10.8839C54.7463 10.8839 54.8745 10.8608 54.9987 10.8106L58.8047 9.32805C59.3296 9.12729 59.582 8.54817 59.3736 8.04241C59.2134 7.66405 58.8368 7.43241 58.4361 7.42469L58.4361 7.42469ZM1.02562 17.7905C0.460726 17.7905 0 18.2344 0 18.7788C0 19.3232 0.460726 19.7672 1.02562 19.7672L7.17932 19.7672C7.74421 19.7672 8.20493 19.3232 8.20493 18.7788C8.20493 18.2344 7.74421 17.7905 7.17932 17.7905L1.02562 17.7905ZM56.4089 17.7905C55.844 17.7905 55.3833 18.2344 55.3833 18.7788C55.3833 19.3232 55.844 19.7672 56.4089 19.7672L62.5626 19.7672C63.1275 19.7672 63.5882 19.3232 63.5882 18.7788C63.5882 18.2344 63.1275 17.7905 62.5626 17.7905L56.4089 17.7905ZM27.6917 21.7439C27.4312 21.7439 27.1668 21.8404 26.9665 22.0334C26.5659 22.4195 26.5659 23.045 26.9665 23.431L29.0177 25.4078C29.2181 25.6008 29.4785 25.6973 29.7429 25.6973C30.0073 25.6973 30.2677 25.6008 30.468 25.4078C30.8687 25.0217 30.8687 24.3962 30.468 24.0102L28.4168 22.0334C28.2165 21.8404 27.9521 21.7439 27.6917 21.7439L27.6917 21.7439ZM35.8966 21.7439C35.6362 21.7439 35.3718 21.8404 35.1714 22.0334L31.069 25.9869C30.8767 26.1722 30.7685 26.4231 30.7685 26.6857L30.7685 32.6158C30.7685 33.1602 31.2292 33.6042 31.7941 33.6042C32.359 33.6042 32.8197 33.1602 32.8197 32.6158L32.8197 27.0949L36.6217 23.431C37.0224 23.045 37.0224 22.4195 36.6217 22.0334C36.4214 21.8404 36.157 21.7439 35.8966 21.7439L35.8966 21.7439ZM8.99017 26.6741C8.85396 26.6741 8.71774 26.6973 8.58954 26.7475L4.78354 28.23C4.25872 28.4307 4.00632 29.0099 4.21465 29.5156C4.3789 29.9017 4.76351 30.1334 5.16815 30.1334C5.29635 30.1334 5.42856 30.1102 5.55276 30.0639L9.35475 28.5813C9.87958 28.3767 10.136 27.8014 9.92365 27.2918C9.76339 26.9135 9.3868 26.6818 8.99017 26.6741L8.99017 26.6741ZM54.5981 26.6784C54.2015 26.6861 53.8249 26.9177 53.6646 27.2961C53.4523 27.8019 53.7087 28.381 54.2335 28.5856L58.0355 30.0643C58.1597 30.1145 58.2919 30.1338 58.4201 30.1338C58.8248 30.1338 59.2094 29.9021 59.3736 29.516C59.582 29.0103 59.3296 28.435 58.8047 28.2304L54.9987 26.7479C54.8705 26.6977 54.7343 26.6745 54.5981 26.6784L54.5981 26.6784ZM24.6148 41.5111L38.9734 41.5111L38.9734 42.6152L24.6148 44.3449L24.6148 41.5111ZM38.9734 44.6074L38.9734 46.4529C38.9734 46.4915 38.9614 46.5301 38.9614 46.5725L28.545 47.8273C27.9841 47.8929 27.5875 48.3871 27.6596 48.9276C27.7237 49.4295 28.1644 49.7924 28.6732 49.7924C28.7173 49.7924 28.7573 49.7924 28.8014 49.7847L38.4286 48.6265C37.5913 50.2596 35.8605 51.3946 33.8454 51.3946L29.7429 51.3946C26.9144 51.3946 24.6148 49.1786 24.6148 46.4529L24.6148 46.337L38.9734 44.6074ZM30.7685 53.3714L32.8197 53.3714L32.8197 54.3597L30.7685 54.3597L30.7685 53.3714Z" transform="translate(0 3.953434)" id="Shape" fill="#FFFFFF" fill-rule="evenodd" stroke="none" />
      </g>
    </g>
    <g id="icons8_services-4" transform="translate(380.7677 393.9082)">
      <path d="M0 0L93.5263 0L93.5263 84.0061L0 84.0061L0 0Z" id="Background" fill="none" fill-rule="evenodd" stroke="none" />
      <g clip-path="url(#mask_2)">
        <path d="M65.2413 0.00131469C65.0757 0.0064417 64.9102 0.032078 64.7503 0.0936059L62.0388 1.07805C61.3938 1.31391 61.0228 1.92406 61.1483 2.53421L62.1302 7.18983C60.8572 8.02045 59.7384 9.0049 58.7908 10.1227L53.6361 9.16897C52.9568 9.04079 52.2718 9.36381 51.9978 9.93807L50.8561 12.3582C50.5878 12.9324 50.8047 13.599 51.3756 13.9528L55.7254 16.619C55.4799 18.0085 55.4685 19.4134 55.6911 20.8131L51.2842 23.4127C50.7077 23.7562 50.4736 24.4176 50.7362 24.997L51.8322 27.4325C52.0891 28.0119 52.7684 28.3503 53.4534 28.2324L58.6309 27.3505C59.5557 28.4939 60.6517 29.4988 61.9018 30.3448L60.8344 34.9799C60.6974 35.5901 61.057 36.2054 61.6963 36.4515L64.3907 37.4769C65.0301 37.7179 65.7721 37.5231 66.166 37.0104L69.1344 33.1033C70.6814 33.3187 72.2455 33.3341 73.8038 33.1341L76.698 37.0924C76.972 37.4667 77.4401 37.682 77.9196 37.682C78.1023 37.682 78.2849 37.6513 78.4619 37.5846L81.1734 36.6002C81.8241 36.3694 82.1952 35.7542 82.0639 35.144L81.0878 30.4935C82.3607 29.6629 83.4796 28.6784 84.4215 27.5556L89.5761 28.5144C90.2554 28.6323 90.9405 28.3144 91.2145 27.7401L92.3561 25.3201C92.6244 24.7458 92.4075 24.0792 91.8367 23.7255L87.4812 21.0592C87.7266 19.6697 87.738 18.27 87.5211 16.8702L91.9223 14.2655C92.5046 13.922 92.7386 13.2606 92.476 12.6812L91.38 10.2457C91.1174 9.66632 90.4381 9.32792 89.7588 9.44585L84.5756 10.3277C83.6508 9.18435 82.5548 8.1794 81.3104 7.33339L82.3722 2.69829C82.5149 2.08814 82.1552 1.47286 81.5159 1.22674L78.8215 0.206408C78.1822 -0.0397039 77.4401 0.155134 77.0462 0.667866L74.0779 4.57489C72.5309 4.35954 70.9668 4.34929 69.4084 4.54413L66.5142 0.590956C66.2288 0.201279 65.7436 -0.0191946 65.2413 0.00131469L65.2413 0.00131469ZM64.7329 2.92936L67.4958 6.70307C67.8212 7.14915 68.4149 7.36963 69.0028 7.26708C70.8181 6.93893 72.6448 6.95432 74.4372 7.3081C75.0138 7.4209 75.6189 7.21068 75.9614 6.7646L78.787 3.03704L79.2722 3.22162L78.2561 7.64138C78.1363 8.16436 78.3817 8.70273 78.8783 9.00012C80.4082 9.90766 81.6869 11.0818 82.6801 12.4816C82.9998 12.9328 83.5992 13.1686 84.1872 13.0661L89.1192 12.2252L89.319 12.6662L85.1233 15.1478C84.621 15.44 84.3698 15.9784 84.4897 16.5014C84.855 18.1319 84.8436 19.7726 84.444 21.3826C84.3185 21.9056 84.5525 22.444 85.0491 22.7465L89.1934 25.2845L88.9879 25.7255L84.073 24.8077C83.485 24.7051 82.8913 24.9256 82.5603 25.3717C81.5499 26.7458 80.2427 27.8943 78.6843 28.7865C78.1819 29.0736 77.925 29.612 78.0335 30.1401L78.964 34.5701L78.4788 34.7495L75.7159 30.9758C75.4476 30.6015 74.9795 30.3862 74.5 30.3862C74.403 30.3862 74.3002 30.3913 74.2089 30.4118C72.3936 30.74 70.5669 30.7297 68.7745 30.3708C68.1979 30.258 67.5928 30.4682 67.2561 30.9143L64.4304 34.6367L63.9395 34.4522L64.9613 30.0375C65.0812 29.5146 64.83 28.9762 64.3334 28.6788C62.8035 27.7713 61.5248 26.5971 60.5316 25.1973C60.2119 24.7461 59.6182 24.5154 59.0246 24.6128L54.0925 25.4486L53.8927 25.0128L58.0941 22.5311C58.5907 22.2389 58.8419 21.7005 58.7277 21.1775C58.3567 19.547 58.3738 17.9063 58.7677 16.2963C58.899 15.7733 58.6592 15.2349 58.1626 14.9324L54.0183 12.3944L54.2238 11.9586L59.1387 12.8712C59.7267 12.9738 60.3261 12.7533 60.6514 12.3072C61.6675 10.9331 62.9691 9.7846 64.5274 8.89244C65.0298 8.60531 65.2867 8.06695 65.1782 7.53883L64.2477 3.10882L64.7329 2.92936ZM71.6061 10.9636C66.7711 10.9636 62.8381 14.4964 62.8381 18.8392C62.8381 23.1821 66.7711 26.7148 71.6061 26.7148C76.4412 26.7148 80.3742 23.1821 80.3742 18.8392C80.3742 14.4964 76.4412 10.9636 71.6061 10.9636L71.6061 10.9636ZM71.6057 13.2762C75.0251 13.2762 77.7993 15.7681 77.7993 18.8394C77.7993 21.9107 75.0251 24.4025 71.6057 24.4025C68.1864 24.4025 65.4121 21.9107 65.4121 18.8394C65.4121 15.7681 68.1864 13.2762 71.6057 13.2762L71.6057 13.2762ZM71.606 16.2143C69.9905 16.2143 68.6833 17.3884 68.6833 18.8395C68.6833 20.2905 69.9905 21.4647 71.606 21.4647C73.2215 21.4647 74.5287 20.2905 74.5287 18.8395C74.5287 17.3884 73.2215 16.2143 71.606 16.2143L71.606 16.2143ZM31.83 22.7766C30.4885 22.7766 29.324 23.597 28.9986 24.766L27.1263 31.4418C25.077 31.9392 23.1076 32.6724 21.2581 33.6414L14.6763 30.0933C13.5289 29.4729 12.0561 29.6319 11.1085 30.4881L8.58542 32.7493C7.63783 33.6056 7.45516 34.9233 8.14588 35.959L12.0847 41.8708C11.0229 43.5321 10.2009 45.301 9.6586 47.1468L2.21486 48.8183C0.913343 49.1106 0 50.1566 0 51.3666L0 54.5661C0 55.771 0.913343 56.817 2.21486 57.1092L9.64718 58.791C10.2009 60.6317 11.0172 62.4006 12.0961 64.0619L8.14588 69.9737C7.45516 71.0094 7.63212 72.3271 8.58542 73.1834L11.1085 75.4445C12.0561 76.2957 13.5232 76.4597 14.6763 75.8393L21.2581 72.3015C23.1019 73.2552 25.077 73.9935 27.132 74.4806L28.9986 81.1666C29.3183 82.3408 30.4828 83.156 31.83 83.156L35.392 83.156C36.7335 83.156 37.898 82.3356 38.2234 81.1666L40.0957 74.4908C42.1451 73.9935 44.1145 73.2552 45.964 72.2912L52.5458 75.8393C53.6931 76.4597 55.1659 76.3008 56.1192 75.4445L58.6366 73.1834C59.5842 72.3322 59.7669 71.0094 59.0762 69.9737L55.1431 64.0619C56.2048 62.4057 57.0211 60.6317 57.5634 58.7858L65.0072 57.1143C66.3087 56.8221 67.222 55.7761 67.222 54.5661L67.222 51.3666C67.222 50.1566 66.3087 49.1106 65.0072 48.8183L57.5748 47.1417C57.0211 45.301 56.1991 43.5269 55.1259 41.8708L59.0762 35.959C59.7669 34.9233 59.5899 33.6056 58.6366 32.7493L56.1192 30.4881C55.1659 29.637 53.6988 29.4729 52.5458 30.0933L45.964 33.6261C44.1145 32.6724 42.1451 31.9392 40.09 31.4521L38.2291 24.766C37.9037 23.597 36.7392 22.7766 35.392 22.7766L31.83 22.7766ZM31.83 25.402L35.3921 25.402L37.253 32.088C37.5099 33.0058 38.3091 33.7287 39.3366 33.9749C41.1404 34.4158 42.8758 35.0618 44.5027 35.9027C45.4331 36.3847 46.5634 36.3796 47.4653 35.8925L54.0471 32.3444L56.5702 34.6106L52.62 40.5224C52.0777 41.3326 52.072 42.3529 52.6086 43.1835C53.5448 44.6448 54.264 46.2087 54.7549 47.8238C55.0289 48.7518 55.8338 49.4645 56.8556 49.6952L64.2994 51.3667L64.2994 54.5662L56.8556 56.2377C55.8338 56.4684 55.0289 57.1863 54.7549 58.1092C54.264 59.7294 53.539 61.2881 52.6086 62.7494C52.072 63.58 52.0777 64.6004 52.62 65.4105L56.5702 71.3223L54.0471 73.5886L47.471 70.0405C46.5634 69.5534 45.4331 69.5482 44.5084 70.0302C42.8815 70.8711 41.1404 71.5171 39.3366 71.9581C38.3091 72.2042 37.5099 72.9271 37.253 73.8449L35.3921 80.531L31.83 80.531L29.9691 73.8449C29.7122 72.9323 28.913 72.2093 27.8855 71.9581C26.0817 71.5171 24.3463 70.8711 22.7194 70.0302C22.2571 69.7892 21.7433 69.6764 21.2353 69.6764C20.7215 69.6764 20.2077 69.7943 19.7511 70.0405L13.175 73.5886L10.6519 71.3223L14.6021 65.4156C15.1444 64.6055 15.1501 63.5852 14.6135 62.7494C13.6773 61.2881 12.9581 59.7294 12.4672 58.1092C12.1932 57.1811 11.3883 56.4633 10.3665 56.2377L2.92273 54.5662L2.92273 51.3667L10.3665 49.6952C11.3826 49.4696 12.1875 48.7467 12.4672 47.8238C12.9581 46.2035 13.6773 44.6448 14.6135 43.1835C15.1501 42.3478 15.1444 41.3274 14.6021 40.5173L10.6519 34.6106L13.175 32.3444L19.7511 35.8925C20.653 36.3796 21.789 36.3847 22.7194 35.9027C24.3463 35.0618 26.0817 34.4158 27.8855 33.9749C28.913 33.7287 29.7122 33.0058 29.9691 32.088L31.83 25.402ZM33.303 37.221C31.2766 37.2313 29.2444 37.5287 27.3263 38.1183C26.5614 38.3542 26.1561 39.0976 26.4187 39.7847C26.6242 40.3333 27.1951 40.6768 27.8001 40.6768C27.9543 40.6768 28.1141 40.6512 28.2739 40.5999C31.5106 39.6052 35.124 39.595 38.3664 40.5589C39.137 40.7794 39.959 40.4102 40.2102 39.718C40.4671 39.031 40.0504 38.2926 39.2854 38.0619C37.3617 37.4928 35.3295 37.2108 33.303 37.221L33.303 37.221ZM43.9318 40.5585C43.5608 40.5995 43.2069 40.7636 42.9557 41.0507C42.4591 41.6198 42.5675 42.4453 43.2012 42.8965C43.9604 43.4349 44.6739 44.0399 45.3076 44.6962C45.5987 44.9936 46.004 45.1423 46.415 45.1423C46.7518 45.1423 47.1 45.0346 47.374 44.8193C47.9791 44.3425 48.0419 43.5118 47.511 42.9632C46.7518 42.189 45.9126 41.4712 45.0107 40.8354C44.691 40.6098 44.3086 40.5226 43.9318 40.5585L43.9318 40.5585ZM33.6108 43.7783C27.9709 43.7783 23.3814 47.9007 23.3814 52.9665C23.3814 58.0323 27.9709 62.1546 33.6108 62.1546C39.2507 62.1546 43.8402 58.0323 43.8402 52.9665C43.8402 47.9007 39.2507 43.7783 33.6108 43.7783L33.6108 43.7783ZM17.2167 45.8647C16.6459 45.8801 16.115 46.198 15.8981 46.7056C15.607 47.3824 15.9837 48.1412 16.7372 48.4027L19.2204 49.259C19.3916 49.3205 19.5743 49.3462 19.7455 49.3462C20.3335 49.3462 20.8872 49.0231 21.1098 48.5002C21.401 47.8233 21.0185 47.0696 20.2707 46.8081L17.7876 45.9519C17.5992 45.8852 17.4051 45.8596 17.2167 45.8647L17.2167 45.8647ZM33.6112 46.4036C37.6413 46.4036 40.918 49.3467 40.918 52.9666C40.918 56.5865 37.6413 59.5296 33.6112 59.5296C29.5811 59.5296 26.3045 56.5865 26.3045 52.9666C26.3045 49.3467 29.5811 46.4036 33.6112 46.4036L33.6112 46.4036ZM33.6106 50.3416C31.9951 50.3416 30.6879 51.5158 30.6879 52.9668C30.6879 54.4178 31.9951 55.592 33.6106 55.592C35.2261 55.592 36.5333 54.4178 36.5333 52.9668C36.5333 51.5158 35.2261 50.3416 33.6106 50.3416L33.6106 50.3416ZM18.7466 51.6591L16.0922 51.7001C15.2816 51.7155 14.6366 52.3103 14.6537 53.0332C14.6708 53.7511 15.3216 54.3253 16.115 54.3253L16.1436 54.3253L18.798 54.2843C19.6086 54.2689 20.2536 53.6741 20.2365 52.9461C20.2194 52.2231 19.5629 51.6847 18.7466 51.6591L18.7466 51.6591ZM19.9338 56.5604C19.7397 56.5604 19.5514 56.5962 19.363 56.6629L16.9198 57.6012C16.172 57.8832 15.8295 58.6523 16.1435 59.324C16.3775 59.8213 16.9198 60.1238 17.4906 60.1238C17.679 60.1238 17.8731 60.088 18.0615 60.0162L20.5047 59.083C21.2468 58.801 21.595 58.0319 21.281 57.3602C21.047 56.8629 20.499 56.5604 19.9338 56.5604L19.9338 56.5604ZM23.0562 60.7194C22.6794 60.7194 22.3084 60.8476 22.023 61.1039L20.1392 62.7908C19.5684 63.3087 19.5684 64.1342 20.1392 64.652C20.4246 64.9033 20.8014 65.0314 21.1724 65.0314C21.5492 65.0314 21.9259 64.9033 22.2113 64.652L24.0894 62.96C24.6602 62.4473 24.6602 61.6167 24.0894 61.1039C23.804 60.8476 23.4329 60.7194 23.0562 60.7194L23.0562 60.7194Z" transform="translate(0 0.85033566)" id="Shape" fill="#FFFFFF" fill-rule="evenodd" stroke="none" />
      </g>
    </g>
    <g id="icons8_search-4" transform="translate(576.69714 468.70215)">
      <path d="M0 0L65.7607 0L65.7607 59.0668L0 59.0668L0 0Z" id="Background" fill="none" fill-rule="evenodd" stroke="none" />
      <g clip-path="url(#mask_3)">
        <path d="M25.6878 0C11.5234 0 0 10.3504 0 23.073C0 35.7955 11.5234 46.1459 25.6878 46.1459C31.3551 46.1459 36.593 44.4875 40.8435 41.6863C40.8435 41.6863 43.6973 44.1955 43.8338 44.2388C43.8338 44.2604 43.8297 44.2785 43.8297 44.3001C43.8297 45.533 44.3636 46.6939 45.3349 47.5627L55.9632 57.1092C56.9666 58.0105 58.2791 58.4575 59.5956 58.4575C60.9121 58.4575 62.2286 58.0105 63.228 57.1092L63.5812 56.7883C64.5526 55.9195 65.0864 54.7622 65.0864 53.5293C65.0864 52.2963 64.5526 51.1354 63.5812 50.2666L52.9529 40.7202C51.9334 39.8045 50.5928 39.361 49.2563 39.3791C49.2041 39.2529 46.4106 36.686 46.4106 36.686C49.5292 32.8682 51.3755 28.1634 51.3755 23.073C51.3755 10.3504 39.8522 0 25.6878 0L25.6878 0ZM25.6877 1.84545C38.7203 1.84545 49.3205 11.3667 49.3205 23.0726C49.3205 34.7785 38.7203 44.2997 25.6877 44.2997C12.6552 44.2997 2.05499 34.7785 2.05499 23.0726C2.05499 11.3667 12.6552 1.84545 25.6877 1.84545L25.6877 1.84545ZM25.6877 5.53732C20.4738 5.53732 15.5691 7.36152 11.8805 10.671C4.27048 17.51 4.27048 28.6355 11.8805 35.4709C15.5691 38.784 20.4738 40.6082 25.6877 40.6082C30.9015 40.6082 35.8062 38.784 39.4948 35.4745C47.1048 28.6355 47.1048 17.51 39.4948 10.671C35.8062 7.36152 30.9015 5.53732 25.6877 5.53732L25.6877 5.53732ZM25.6879 7.38373C30.3518 7.38373 34.7388 9.01686 38.0381 11.9803C44.8493 18.0946 44.8493 28.0521 38.0381 34.1664C34.7388 37.1298 30.3518 38.763 25.6879 38.763C21.0239 38.763 16.6369 37.1298 13.3377 34.1664C6.52641 28.0521 6.52641 18.0982 13.3377 11.9803C16.6369 9.01686 21.0239 7.38373 25.6879 7.38373L25.6879 7.38373ZM25.4911 10.1523C21.7543 10.192 18.1902 11.5331 15.513 13.9341C15.1116 14.2982 15.1116 14.8787 15.513 15.2428C15.7137 15.4194 15.9786 15.5132 16.2435 15.5132C16.5044 15.5132 16.7693 15.4194 16.97 15.2428C19.5869 12.8886 23.2033 11.7241 26.8999 12.0522C27.4659 12.0955 27.9676 11.7314 28.0238 11.223C28.0799 10.7147 27.6665 10.2641 27.1006 10.2136C26.5628 10.1667 26.0249 10.1451 25.4911 10.1523L25.4911 10.1523ZM32.7358 11.8829C32.3425 11.8324 31.9291 11.9946 31.7083 12.3227C31.4153 12.7589 31.5718 13.3249 32.0615 13.5881C32.9044 14.0496 33.6951 14.6048 34.4055 15.2429C34.6062 15.4231 34.8671 15.5133 35.132 15.5133C35.3969 15.5133 35.6578 15.4231 35.8625 15.2429C36.2598 14.8824 36.2598 14.2983 35.8625 13.9378C35.0317 13.1951 34.1085 12.5462 33.1211 12.0091C33.0007 11.9442 32.8683 11.9009 32.7358 11.8829L32.7358 11.8829ZM11.3025 22.1502C10.7365 22.1502 10.275 22.5612 10.275 23.0731C10.275 23.5851 10.7365 23.9961 11.3025 23.9961L13.3575 23.9961C13.9234 23.9961 14.385 23.5851 14.385 23.0731C14.385 22.5612 13.9234 22.1502 13.3575 22.1502L11.3025 22.1502ZM38.0181 22.1502C37.4521 22.1502 36.9906 22.5612 36.9906 23.0731C36.9906 23.5851 37.4521 23.9961 38.0181 23.9961L40.0731 23.9961C40.639 23.9961 41.1006 23.5851 41.1006 23.0731C41.1006 22.5612 40.639 22.1502 40.0731 22.1502L38.0181 22.1502ZM14.273 26.3C14.1406 26.2964 14.0001 26.318 13.8717 26.3649L11.9652 27.0571C11.4394 27.2481 11.1865 27.7853 11.3992 28.2576C11.5598 28.6181 11.9451 28.838 12.3505 28.838C12.4789 28.838 12.6114 28.8164 12.7358 28.7695L14.6423 28.0773C15.1681 27.8862 15.421 27.3491 15.2082 26.8768C15.0477 26.5235 14.6744 26.3036 14.273 26.3L14.273 26.3ZM37.0383 26.4762C36.6369 26.4762 36.2556 26.6889 36.0911 27.0386C35.8703 27.5109 36.1111 28.0517 36.6369 28.25L38.5274 28.971C38.6558 29.0215 38.7923 29.0431 38.9288 29.0431C39.3301 29.0431 39.7074 28.834 39.876 28.4807C40.0967 28.012 39.8519 27.4712 39.3301 27.273L37.4397 26.5519C37.3072 26.5015 37.1707 26.4762 37.0383 26.4762L37.0383 26.4762ZM16.9698 29.9808C16.7049 29.9808 16.444 30.071 16.2433 30.2512L14.7904 31.5563C14.389 31.9168 14.389 32.5008 14.7904 32.8614C14.9911 33.0416 15.252 33.1317 15.5169 33.1317C15.7818 33.1317 16.0427 33.0416 16.2433 32.8614L17.6963 31.5563C18.0977 31.1958 18.0977 30.6117 17.6963 30.2512C17.4956 30.071 17.2307 29.9808 16.9698 29.9808L16.9698 29.9808ZM34.4056 29.9808C34.1447 29.9808 33.8798 30.071 33.6792 30.2512C33.2778 30.6117 33.2778 31.1958 33.6792 31.5563L35.1321 32.8614C35.3328 33.0416 35.5937 33.1317 35.8586 33.1317C36.1235 33.1317 36.3844 33.0416 36.5851 32.8614C36.9865 32.5008 36.9865 31.9168 36.5851 31.5563L35.1321 30.2512C34.9314 30.071 34.6665 29.9808 34.4056 29.9808L34.4056 29.9808ZM20.871 32.3456C20.4696 32.3456 20.0883 32.5547 19.9237 32.908L19.121 34.606C18.9002 35.0747 19.1451 35.619 19.6668 35.8173C19.7993 35.8678 19.9318 35.8894 20.0682 35.8894C20.4656 35.8894 20.8469 35.6767 21.0155 35.327L21.8182 33.629C22.039 33.1603 21.7941 32.616 21.2723 32.4177C21.1399 32.3672 21.0034 32.3456 20.871 32.3456L20.871 32.3456ZM30.3235 32.418C30.1911 32.418 30.0506 32.4396 29.9222 32.4865C29.3924 32.6775 29.1395 33.2147 29.3522 33.687L30.1229 35.3994C30.2834 35.7599 30.6687 35.9762 31.0781 35.9762C31.2066 35.9762 31.335 35.9546 31.4634 35.9077C31.9892 35.7167 32.2421 35.1795 32.0294 34.7072L31.2587 32.9948C31.0982 32.6415 30.7249 32.4252 30.3235 32.418L30.3235 32.418ZM25.6874 33.2249C25.1215 33.2249 24.6599 33.6358 24.6599 34.1478L24.6599 35.9936C24.6599 36.5055 25.1215 36.9165 25.6874 36.9165C26.2533 36.9165 26.7149 36.5055 26.7149 35.9936L26.7149 34.1478C26.7149 33.6358 26.2533 33.2249 25.6874 33.2249L25.6874 33.2249ZM45.1183 38.1387L47.0449 39.8727C46.5592 40.089 46.0936 40.3594 45.6882 40.7235L45.335 41.0372C44.9336 41.3977 44.6326 41.8123 44.3878 42.2521L42.4612 40.5253C43.4124 39.7898 44.2995 38.9931 45.1183 38.1387L45.1183 38.1387ZM49.3203 41.2138C50.111 41.2138 50.9017 41.4842 51.5038 42.0249L62.1321 51.5714C62.7141 52.0941 63.0312 52.7899 63.0312 53.529C63.0312 54.268 62.7101 54.9638 62.1281 55.4866L61.7749 55.8038C60.5708 56.8818 58.6201 56.8818 57.416 55.8038L46.7877 46.2574C46.2057 45.7346 45.8846 45.0388 45.8846 44.2998C45.8846 43.5607 46.2057 42.8649 46.7877 42.3422L47.1409 42.0249C47.7429 41.4842 48.5336 41.2138 49.3203 41.2138L49.3203 41.2138Z" id="Shape" fill="#FFFFFF" fill-rule="evenodd" stroke="none" />
      </g>
    </g>
    <g id="game-console" transform="translate(102.22107 197.63281)">
      <path d="M0 0L247.174 0L247.174 238.194L0 238.194L0 0Z" id="Background" fill="none" fill-rule="evenodd" stroke="none" />
      <g clip-path="url(#mask_4)">
        <g id="Group" transform="translate(3.669535 3.4341586)">
          <g id="Group">
            <g id="Group">
              <path d="M239.932 12.882L239.932 143.921C239.932 151.035 233.951 156.799 226.569 156.799L13.3628 156.799C5.98141 156.799 0 151.035 0 143.921L0 12.882C0 5.76877 5.98141 0 13.3628 0L226.569 0C233.951 0 239.932 5.76877 239.932 12.882L239.932 12.882Z" id="Shape" fill="#555760" fill-rule="evenodd" stroke="none" />
              <path d="M27.836 12.882L27.836 143.921C27.836 151.035 21.8546 156.799 14.4732 156.799L0 156.799C7.38142 156.799 13.3628 151.035 13.3628 143.921L13.3628 12.882C13.3628 5.76877 7.38141 0 0 0L14.4732 0C21.8546 0 27.836 5.76877 27.836 12.882L27.836 12.882Z" transform="translate(212.09624 0)" id="Shape" fill="#36383F" fill-rule="evenodd" stroke="none" />
              <path d="M1.84159e-06 0L210.99 0L210.99 128.884L0 128.884L1.84159e-06 0Z" transform="translate(14.471314 13.95863)" id="Shape" fill="#52DEFF" fill-rule="evenodd" stroke="none" />
              <path d="M0 0L15.1225 0L15.1225 128.884L0 128.884L0 0Z" transform="translate(210.33847 13.95863)" id="Shape" fill="#55BAFF" fill-rule="evenodd" stroke="none" />
            </g>
          </g>
          <g id="Group" transform="translate(29.403479 40.85375)">
            <path d="M171.655 89.4301C168.807 92.5099 165.36 94.7941 161.368 96.0363C157.004 97.3994 152.408 97.3901 147.831 96.2131C137.408 93.5287 127.077 84.7639 119.768 72.2401C117.094 73.673 114.009 74.4825 110.741 74.4825C105.507 74.4825 100.776 72.4076 97.3826 69.0626C96.4798 68.1694 95.4177 67.4622 94.2639 66.9738C93.1053 66.4853 91.8549 66.2201 90.5611 66.2201C87.9784 66.2201 85.5453 67.2808 83.7397 69.0626C80.3507 72.4076 75.6197 74.4825 70.3866 74.4825C67.1134 74.4825 64.0334 73.673 61.3589 72.2401C50.8396 90.2675 34.0491 100.498 19.7546 96.0363C15.767 94.7941 12.3152 92.5099 9.46694 89.4301C3.36484 82.8286 0 72.5332 0 60.7816C0 53.7474 1.2069 46.1876 3.75105 38.5858C11.427 15.6643 28.7436 -0.0602967 44.7471 0.000184567L136.472 0.000184567C137.481 0.000184567 138.494 0.0606659 139.513 0.186271C154.595 2.0146 170.193 17.153 177.371 38.5858C184.168 58.8835 181.417 78.8742 171.655 89.4301L171.655 89.4301Z" transform="translate(0 93.09099)" id="Shape" fill="#EEF6FF" fill-rule="evenodd" stroke="none" />
            <path d="M54.4651 38.3995C61.2624 58.6972 58.5106 78.6879 48.7492 89.2438C45.9009 92.3236 42.454 94.6078 38.4616 95.85C34.0974 97.2131 29.5015 97.2038 24.925 96.0267C28.9029 94.7846 32.3402 92.5004 35.1836 89.4299C44.9451 78.874 47.6968 58.8833 40.8995 38.5903C33.2381 15.7059 15.9794 0 0 0L16.607 0C31.6884 1.82832 47.2864 16.9667 54.4651 38.3995L54.4651 38.3995Z" transform="translate(122.906136 93.27727)" id="Shape" fill="#DAE6EF" fill-rule="evenodd" stroke="none" />
            <g id="Group" transform="translate(60.163223 137.0237)">
              <path d="M15.2586 14.2949C12.4247 17.2258 7.94472 17.798 4.48332 15.9045C3.88952 15.5835 3.32952 15.1881 2.80813 14.7229C-0.754646 11.5268 -0.952572 6.1488 2.35917 2.7108C2.99642 2.05017 3.7109 1.51053 4.48332 1.09181C7.73713 -0.676027 11.9323 -0.308511 14.8096 2.27813C18.3724 5.47421 18.5751 10.8568 15.2585 14.2948L15.2586 14.2949Z" id="Shape" fill="#555760" fill-rule="evenodd" stroke="none" />
              <path d="M10.7752 14.2948C7.94143 17.2257 3.4614 17.798 0 15.9045C0.772421 15.4904 1.48691 14.9508 2.11932 14.2948C5.43589 10.8568 5.23313 5.47421 1.67518 2.27813C1.1538 1.81291 0.593794 1.41746 0 1.09181C3.25381 -0.676027 7.449 -0.308511 10.3263 2.27813C13.889 5.47421 14.0918 10.8568 10.7752 14.2948L10.7752 14.2948Z" transform="translate(4.483318 0)" id="Shape" fill="#36383F" fill-rule="evenodd" stroke="none" />
            </g>
            <g id="Group" transform="translate(103.24477 137.0237)">
              <path d="M15.2586 14.2949C12.4247 17.2258 7.94472 17.798 4.48332 15.9045C3.88952 15.5835 3.32952 15.1881 2.80814 14.7229C-0.754638 11.5268 -0.952572 6.1488 2.35918 2.7108C2.99642 2.05017 3.7109 1.51053 4.48332 1.09181C7.73713 -0.676027 11.9323 -0.308511 14.8096 2.27813C18.3724 5.47421 18.5751 10.8568 15.2585 14.2948L15.2586 14.2949Z" id="Shape" fill="#555760" fill-rule="evenodd" stroke="none" />
              <path d="M10.7752 14.2948C7.94142 17.2257 3.4614 17.798 0 15.9045C0.77242 15.4904 1.4869 14.9508 2.11933 14.2948C5.43589 10.8568 5.23314 5.47421 1.67518 2.27813C1.15381 1.81291 0.593801 1.41746 0 1.09181C3.2538 -0.676027 7.449 -0.308511 10.3262 2.27813C13.889 5.47421 14.0918 10.8568 10.7752 14.2948L10.7752 14.2948Z" transform="translate(4.483318 0)" id="Shape" fill="#36383F" fill-rule="evenodd" stroke="none" />
            </g>
            <path d="M61.1668 0L51.5116 26.3586L9.65522 26.3586L0 0L61.1668 0Z" transform="translate(59.93048 93.09195)" id="Shape" fill="#A8B3BA" fill-rule="evenodd" stroke="none" />
            <path d="M9.65522 0L0 26.3586L12.5132 26.3586L22.1684 0L9.65522 0Z" transform="translate(98.92883 93.09195)" id="Shape" fill="#879299" fill-rule="evenodd" stroke="none" />
            <g id="Group" transform="translate(6.0731993 0)">
              <path d="M61.3107 52.3237C55.1603 60.3255 45.3264 65.5314 34.2278 65.6012C34.1457 65.6058 34.0685 65.6058 33.9912 65.6058C15.2166 65.6058 0 50.9187 0 32.8029C0 14.6825 15.2166 0 33.9912 0C34.0588 0 34.1312 0 34.1988 0.00465323C44.7906 0.0604813 54.2334 4.7918 60.4224 12.1749L40.0643 31.8213L61.3107 52.3237Z" id="Shape" fill="#FFF148" fill-rule="evenodd" stroke="none" />
              <path d="M30.9015 52.319C24.7512 60.3208 14.9173 65.5267 3.81864 65.5965C8.82487 65.3266 17.2201 56.6409 17.2201 52.2818L2.82415 38.3902C-0.941383 34.7568 -0.941383 28.8718 2.82415 25.243L15.9649 12.5564C15.9649 9.32307 8.25522 0.283786 3.78968 0C14.3815 0.0558281 23.8243 4.78715 30.0133 12.1702L9.65523 31.8166L30.9015 52.319Z" transform="translate(30.409065 0.004825968)" id="Shape" fill="#FFCF4A" fill-rule="evenodd" stroke="none" />
              <path d="M23.9697 21.2607C23.9697 27.5319 18.6931 32.8029 11.9875 32.8029C10.9496 32.8029 9.94062 32.6773 8.98475 32.4354C3.23506 31.0118 -0.757364 25.578 0.12125 19.6092L3.00817 0L20.9669 0L23.849 19.6092C23.931 20.1674 23.9697 20.7164 23.9697 21.2607L23.9697 21.2607Z" transform="translate(131.50357 32.803066)" id="Shape" fill="#EEF6FF" fill-rule="evenodd" stroke="none" />
              <path d="M14.9849 21.2607C14.9849 27.5319 9.70833 32.8029 3.00277 32.8029C1.96484 32.8029 0.955872 32.6773 0 32.4354C3.14278 31.1327 5.41175 26.5549 5.41175 21.2654C5.41175 20.7211 5.38762 20.1674 5.33934 19.6092L3.59658 0L11.9821 0L14.8642 19.6092C14.9463 20.1674 14.9849 20.7164 14.9849 21.2607L14.9849 21.2607Z" transform="translate(140.48836 32.803066)" id="Shape" fill="#DAE6EF" fill-rule="evenodd" stroke="none" />
              <path d="M46.9244 32.8029L0 32.8029L2.20622 17.7994C3.56761 8.55081 11.1228 1.45615 20.4787 0.200046C21.4539 0.0697842 22.4532 0 23.4622 0C34.1505 0 43.2119 7.58779 44.7133 17.7994L46.9244 32.8029Z" transform="translate(120.02898 0)" id="Shape" fill="#FF455C" fill-rule="evenodd" stroke="none" />
              <path d="M26.4457 32.8029L12.6387 32.8029L11.2725 17.7994C10.4325 8.55081 5.769 1.45615 0 0.200046C0.975172 0.0697842 1.97449 0 2.98346 0C13.6718 0 22.7332 7.58779 24.2346 17.7994L26.4457 32.8029Z" transform="translate(140.50763 0)" id="Shape" fill="#E51C5F" fill-rule="evenodd" stroke="none" />
            </g>
          </g>
        </g>
        <g id="Group">
          <path d="M243.553 57.8249C241.553 57.8249 239.932 59.3867 239.932 61.3141L239.932 147.6C239.932 152.789 235.561 157.01 230.188 157.01L204.991 157.01C203.328 154.521 201.534 152.176 199.631 150.01L229.081 150.01C231.081 150.01 232.702 148.449 232.702 146.521L232.702 17.4663C232.702 15.5394 231.081 13.9772 229.081 13.9772L64.9255 13.9772C62.926 13.9772 61.3048 15.5389 61.3048 17.4663C61.3048 19.3938 62.926 20.9555 64.9255 20.9555L225.461 20.9555L225.461 143.032L192.335 143.032C185.036 137.243 177.003 134.12 169.403 134.135L131.574 134.135C129.575 134.135 127.953 135.697 127.953 137.624C127.953 139.552 129.575 141.113 131.574 141.113L149.003 141.113L141.904 160.493L105.171 160.493L98.0719 141.113L114.633 141.113C116.633 141.113 118.254 139.552 118.254 137.624C118.254 135.697 116.633 134.135 114.633 134.135L77.6801 134.135C70.0858 134.135 62.1 137.266 54.8363 143.032L21.7127 143.032L21.7127 20.9555L47.8865 20.9555C49.8861 20.9555 51.5072 19.3938 51.5072 17.4663C51.5072 15.5389 49.8861 13.9772 47.8865 13.9772L18.0919 13.9772C16.0924 13.9772 14.4712 15.5389 14.4712 17.4663L14.4712 146.521C14.4712 148.448 16.0924 150.01 18.0919 150.01L47.5423 150.01C45.6388 152.176 43.8453 154.52 42.1817 157.01L16.9855 157.01C11.6123 157.01 7.24141 152.789 7.24141 147.6L7.24141 16.387C7.24141 11.1989 11.6123 6.97835 16.9855 6.97835L230.091 6.97835C235.464 6.97835 239.835 11.1989 239.835 16.387L239.835 45.1885C239.835 47.1155 241.456 48.6777 243.456 48.6777C245.456 48.6777 247.077 47.116 247.077 45.1885L247.077 16.387C247.076 7.35099 239.457 0 230.091 0L16.9855 0C7.61942 0 0 7.35099 0 16.387L0 147.6C0 156.637 7.61942 163.988 16.9855 163.988L38.059 163.988C36.2158 167.533 34.6246 171.274 33.3303 175.14C26.2762 196.21 28.8112 217.498 39.7887 229.373C43.1545 233.013 47.1503 235.573 51.6651 236.98C66.6413 241.651 84.0941 232.59 95.8527 214.325C98.2641 215.16 100.826 215.594 103.409 215.594C109.463 215.594 115.126 213.295 119.355 209.121C120.523 207.968 122.026 207.332 123.586 207.332C125.147 207.332 126.649 207.967 127.817 209.12C132.047 213.295 137.71 215.594 143.764 215.594C146.348 215.594 148.909 215.16 151.32 214.325C161.02 229.392 174.593 238.195 187.455 238.194C190.185 238.194 192.885 237.798 195.507 236.98C200.022 235.573 204.018 233.013 207.384 229.373C218.362 217.498 220.897 196.21 213.842 175.14C212.548 171.274 210.957 167.533 209.114 163.988L230.187 163.988C239.553 163.988 247.173 156.637 247.173 147.6L247.173 61.3141C247.174 59.3872 245.553 57.8249 243.553 57.8249L243.553 57.8249ZM201.978 224.731C199.48 227.432 196.553 229.32 193.278 230.34C181.136 234.131 165.782 225.005 155.946 208.154C154.97 206.481 152.777 205.882 151.035 206.813C148.828 207.992 146.313 208.616 143.764 208.616C139.677 208.616 135.854 207.064 132.999 204.245C130.456 201.737 127.114 200.355 123.587 200.355C120.06 200.355 116.718 201.737 114.174 204.246C111.319 207.064 107.496 208.616 103.409 208.616C100.86 208.616 98.3462 207.992 96.1385 206.813C94.3967 205.882 92.203 206.482 91.2274 208.154C81.3916 225.005 66.0403 234.13 53.8945 230.34C50.6204 229.32 47.6939 227.432 45.1961 224.731C36.0367 214.823 34.0376 195.755 40.2222 177.283C47.2454 156.307 62.9854 141.114 77.6903 141.114L90.3932 141.114L99.1958 165.144C99.7071 166.54 101.075 167.472 102.61 167.472L144.466 167.472C146.001 167.472 147.37 166.54 147.88 165.144L156.683 141.114L169.498 141.114C184.188 141.114 199.929 156.308 206.952 177.283C213.136 195.755 211.138 214.823 201.978 224.731L201.978 224.731Z" id="Shape" fill="#000000" fill-rule="evenodd" stroke="none" />
          <path d="M20.8952 3.21518C18.4649 1.03281 15.3014 -0.110243 11.9795 0.00839071C8.66006 0.122837 5.58584 1.47803 3.32362 3.82368C-1.34371 8.66294 -1.06081 16.2633 3.9546 20.7662C6.27378 22.849 9.26207 23.9813 12.414 23.9813C12.5656 23.9813 12.7186 23.9785 12.8712 23.9734C16.1902 23.8585 19.2644 22.5033 21.5266 20.1572C26.193 15.3184 25.9096 7.71853 20.8952 3.21518L20.8952 3.21518ZM16.2215 15.4073C15.2773 16.3861 13.995 16.9518 12.611 17.0002C11.2274 17.0393 9.90556 16.5731 8.89128 15.6613C6.79368 13.7776 6.67541 10.5987 8.62769 8.57453C9.57197 7.5957 10.8547 7.02999 12.2392 6.98207C12.303 6.97974 12.3662 6.97835 12.4294 6.97835C13.744 6.97835 14.9905 7.45148 15.9584 8.32006L15.9584 8.32052C18.0555 10.2042 18.1738 13.3826 16.2215 15.4073L16.2215 15.4073Z" transform="translate(89.572586 178.06566)" id="Shape" fill="#000000" fill-rule="evenodd" stroke="none" />
          <path d="M20.8948 3.21471C18.4646 1.03281 15.3005 -0.110243 11.9792 0.00839071C8.65969 0.122837 5.58548 1.47803 3.32325 3.82415C-1.34359 8.66294 -1.0607 16.2638 3.95423 20.7662C6.2734 22.849 9.2617 23.9813 12.4137 23.9813C12.5652 23.9813 12.7183 23.9785 12.8708 23.9734C16.1898 23.8585 19.264 22.5033 21.5262 20.1572C26.1936 15.3184 25.9102 7.71853 20.8948 3.21471L20.8948 3.21471ZM16.2217 15.4073C15.2774 16.3861 13.9952 16.9518 12.6111 17.0002C11.2265 17.0393 9.90569 16.5731 8.89141 15.6613C6.79381 13.7776 6.67554 10.5987 8.62783 8.57453C9.57211 7.5957 10.8548 7.02999 12.2394 6.98207C12.3031 6.97974 12.3663 6.97835 12.4296 6.97835C13.7441 6.97835 14.9906 7.45148 15.9586 8.32006L15.9586 8.32052C18.0562 10.2042 18.1744 13.3826 16.2217 15.4073L16.2217 15.4073Z" transform="translate(132.65413 178.06566)" id="Shape" fill="#000000" fill-rule="evenodd" stroke="none" />
          <path d="M25.3199 10.4694L18.091 10.4694L18.091 3.48918C18.091 1.56222 16.4699 0 14.4703 0C12.4707 0 10.8496 1.56175 10.8496 3.48918L10.8496 10.4694L3.62071 10.4694C1.62111 10.4694 0 12.0311 0 13.9586C0 15.886 1.62111 17.4477 3.62071 17.4477L10.8496 17.4477L10.8496 24.428C10.8496 26.3554 12.4707 27.9171 14.4703 27.9171C16.4699 27.9171 18.091 26.3554 18.091 24.428L18.091 17.4477L25.3199 17.4477C27.3195 17.4477 28.9406 15.886 28.9406 13.9586C28.9406 12.0311 27.3195 10.4694 25.3199 10.4694L25.3199 10.4694Z" transform="translate(58.983738 154.68288)" id="Shape" fill="#000000" fill-rule="evenodd" stroke="none" />
          <path d="M37.6138 0C16.8735 0 0 16.28 0 36.2911C0 56.3023 16.8735 72.5823 37.6138 72.5823C49.4714 72.5823 60.7719 67.0898 67.8439 57.8896C68.9108 56.5018 68.763 54.5698 67.4963 53.3476L48.8038 35.3104L66.6085 18.1298C67.9163 16.8671 68.0259 14.8574 66.8619 13.4705C59.6784 4.9095 49.0181 0 37.6138 0L37.6138 0ZM41.1245 32.8448C39.7129 34.2074 39.7129 36.414 41.1245 37.7757L60.0588 56.0464C54.3125 62.1552 46.2895 65.6039 37.6133 65.6039C20.8659 65.6039 7.24092 52.4544 7.24092 36.2911C7.24092 20.1279 20.8659 6.97835 37.6133 6.97835C45.7334 6.97835 53.3885 10.0637 59.0624 15.5352L41.1245 32.8448Z" transform="translate(35.475677 41.04389)" id="Shape" fill="#000000" fill-rule="evenodd" stroke="none" />
          <path d="M53.2796 38.5786C53.967 37.8152 54.2774 36.8024 54.1302 35.8013L51.9225 20.8015C50.1769 8.94252 39.4987 0 27.083 0C14.6674 0 3.9892 8.94252 2.24354 20.802L0.0358741 35.8013C-0.111364 36.802 0.199053 37.8152 0.886496 38.5786C1.57442 39.3421 2.57181 39.7803 3.62085 39.7803L13.9331 39.7803L11.6323 55.4132C10.996 59.737 12.3342 64.1073 15.3041 67.4039C18.2693 70.6949 22.5625 72.5827 27.0826 72.5827C31.6026 72.5827 35.8958 70.6949 38.861 67.4039C41.8304 64.1073 43.1691 59.737 42.5324 55.4132L40.2315 39.7803L50.5438 39.7803C51.5943 39.7803 52.5917 39.3416 53.2796 38.5786L53.2796 38.5786ZM33.3936 62.828C31.8043 64.5917 29.5045 65.6036 27.0834 65.6036C24.6623 65.6036 22.362 64.5917 20.7732 62.828C19.1796 61.0588 18.4613 58.7131 18.8031 56.3917L21.2478 39.7795L32.9195 39.7795L35.3642 56.3917C35.7055 58.7136 34.9872 61.0593 33.3936 62.828L33.3936 62.828ZM7.79191 32.8015L9.41398 21.7813C10.6561 13.3416 18.2524 6.97738 27.0835 6.97738C35.9147 6.97738 43.5109 13.3412 44.7531 21.7808L46.3751 32.8015L7.79191 32.8015Z" transform="translate(155.50328 41.04389)" id="Shape" fill="#000000" fill-rule="evenodd" stroke="none" />
          <path d="M0 3.4822C0 1.55903 1.61867 0 3.6154 0C5.61213 0 7.2308 1.55903 7.2308 3.4822C7.2308 5.40536 5.61213 6.96439 3.6154 6.96439C1.61867 6.96439 0 5.40536 0 3.4822Z" transform="translate(100.05323 73.550644)" id="Ellipse" fill="#000000" fill-rule="evenodd" stroke="none" />
          <path d="M0 3.4822C0 1.55903 1.61867 0 3.6154 0C5.61213 0 7.2308 1.55903 7.2308 3.4822C7.2308 5.40536 5.61213 6.96439 3.6154 6.96439C1.61867 6.96439 0 5.40536 0 3.4822Z" transform="translate(113.0004 73.543884)" id="Ellipse" fill="#000000" fill-rule="evenodd" stroke="none" />
          <path d="M0 3.4822C0 1.55903 1.61867 0 3.61541 0C5.61214 0 7.23081 1.55903 7.23081 3.4822C7.23081 5.40536 5.61214 6.96439 3.61541 6.96439C1.61867 6.96439 0 5.40536 0 3.4822Z" transform="translate(126.24302 73.550644)" id="Ellipse" fill="#000000" fill-rule="evenodd" stroke="none" />
          <path d="M0 3.4822C0 1.55903 1.61867 0 3.6154 0C5.61213 0 7.2308 1.55903 7.2308 3.4822C7.2308 5.40536 5.61213 6.96439 3.6154 6.96439C1.61867 6.96439 0 5.40536 0 3.4822Z" transform="translate(139.89505 73.543884)" id="Ellipse" fill="#000000" fill-rule="evenodd" stroke="none" />
          <path d="M0 3.4822C0 1.55903 1.61867 0 3.61539 0C5.61212 0 7.23079 1.55903 7.23079 3.4822C7.23079 5.40536 5.61212 6.9644 3.61539 6.9644C1.61867 6.9644 0 5.40536 0 3.4822Z" transform="translate(67.58705 56.758205)" id="Ellipse" fill="#000000" fill-rule="evenodd" stroke="none" />
          <path d="M0 3.4822C0 1.55903 1.61867 0 3.6154 0C5.61213 0 7.2308 1.55903 7.2308 3.4822C7.2308 5.40537 5.61213 6.9644 3.6154 6.9644C1.61867 6.9644 0 5.40537 0 3.4822Z" transform="translate(159.15717 165.15909)" id="Ellipse" fill="#000000" fill-rule="evenodd" stroke="none" />
          <path d="M0 3.4822C0 1.55903 1.61867 0 3.61539 0C5.61212 0 7.23079 1.55903 7.23079 3.4822C7.23079 5.40537 5.61212 6.9644 3.61539 6.9644C1.61867 6.9644 0 5.40537 0 3.4822Z" transform="translate(180.85724 165.15909)" id="Ellipse" fill="#000000" fill-rule="evenodd" stroke="none" />
          <path d="M0 3.48219C0 1.55903 1.61867 0 3.6154 0C5.61213 0 7.2308 1.55903 7.2308 3.48219C7.2308 5.40535 5.61213 6.96439 3.6154 6.96439C1.61867 6.96439 0 5.40535 0 3.48219Z" transform="translate(170.00964 154.68867)" id="Ellipse" fill="#000000" fill-rule="evenodd" stroke="none" />
          <path d="M0 3.4822C0 1.55903 1.61867 0 3.6154 0C5.61213 0 7.2308 1.55903 7.2308 3.4822C7.2308 5.40537 5.61213 6.9644 3.6154 6.9644C1.61867 6.9644 0 5.40537 0 3.4822Z" transform="translate(170.00964 175.62758)" id="Ellipse" fill="#000000" fill-rule="evenodd" stroke="none" />
        </g>
      </g>
    </g>
    <g id="puzzle" transform="translate(456.26404 172.74512)">
      <path d="M0 0L184.611 0L184.611 177.904L0 177.904L0 0Z" id="Background" fill="none" fill-rule="evenodd" stroke="none" />
      <g clip-path="url(#mask_5)">
        <g id="Group">
          <g id="Group" transform="translate(2.704263 2.6060224)">
            <path d="M24.104 80.5914C23.9637 79.639 23.8927 78.671 23.8938 77.6921C23.9042 67.0641 32.6422 58.1629 43.6551 57.5938C55.701 56.9711 65.7075 66.2364 65.7075 77.7116L65.7075 77.7411C65.7064 79.3082 67.0361 80.5907 68.6623 80.5907L80.7435 80.5904C82.3365 80.5904 83.6281 79.3457 83.6281 77.8106L83.627 54.6869C83.6266 52.5058 84.9059 50.5117 86.9305 49.537C88.9562 48.5627 91.3781 48.774 93.1874 50.0839C94.8053 51.2546 96.7466 51.8526 98.7867 51.805C103.338 51.699 107.148 48.2212 107.494 43.8469C107.895 38.7828 103.733 34.5381 98.561 34.5381C96.6352 34.5381 94.8053 35.1149 93.2635 36.2074C92.0077 37.0976 90.4684 37.5743 88.9216 37.386C85.7803 37.0038 83.6266 34.4891 83.6266 31.659L83.6266 2.77976C83.6266 1.24464 82.3351 0 80.7421 0L5.97354 0C2.67434 0 0 2.57718 0 5.75653L0 77.812C0 79.3471 1.29156 80.5918 2.88455 80.5918L24.104 80.5918L24.104 80.5914Z" id="Shape" fill="#C1E3A0" fill-rule="evenodd" stroke="none" />
            <path d="M0 20.9969C0 22.1682 1.01825 23.0796 2.233 23.0386C2.48359 23.0303 2.73527 23.0261 2.98731 23.0261C14.8951 23.0261 24.5096 32.6691 23.8635 44.2777C23.2725 54.8926 14.033 63.3138 3.0021 63.3211C2.73563 63.3211 2.4699 63.3166 2.20525 63.3076C0.99482 63.2652 0.000374125 64.2253 0.000374125 65.3924L0.000737246 77.8113C0.000737246 79.3464 1.29229 80.5911 2.88528 80.5911L26.7376 80.5907C28.6284 80.5907 30.4587 81.3826 31.6092 82.8288C33.2765 84.9247 33.2433 87.7674 31.6561 89.8046C30.4414 91.363 29.8212 93.2331 29.8702 95.1983C29.9798 99.5834 33.5873 103.256 38.1262 103.59C43.3822 103.978 47.7879 99.9663 47.7879 94.9819C47.7879 93.1264 47.1894 91.3637 46.0565 89.8779C45.1331 88.667 44.638 87.1833 44.8338 85.6923C45.2311 82.6655 47.8402 80.5911 50.7763 80.5911L80.7439 80.5911C82.3369 80.5911 83.6284 79.3464 83.6284 77.8113L83.6284 5.75653C83.6284 2.57753 80.9541 0 77.6549 0L2.88457 0C1.29158 0 2.20073e-05 1.24464 2.20073e-05 2.77976L0 20.9969Z" transform="translate(95.57416 0)" id="Shape" fill="#C9DBFD" fill-rule="evenodd" stroke="none" />
            <path d="M81.3857 80.5773C80.6267 80.6026 79.8605 80.5891 79.0896 80.5363C68.865 79.832 60.6029 71.9097 59.8003 62.0613C58.8358 50.2244 68.5578 40.2948 80.6411 40.2948C80.8935 40.2948 81.1448 40.2989 81.3954 40.3076C82.6105 40.3486 83.6292 39.4372 83.6292 38.2655L83.6288 25.806C83.6288 24.2708 82.3372 23.0262 80.7442 23.0262L56.8894 23.0266C54.9982 23.0266 53.1676 22.2343 52.0174 20.7875C50.3509 18.6908 50.3848 15.8492 51.972 13.8131C53.1864 12.255 53.8065 10.386 53.7582 8.42137C53.6504 4.03595 50.044 0.362156 45.5055 0.0261546C40.2481 -0.36336 35.8409 3.64887 35.8409 8.63471C35.8409 10.4912 36.4401 12.255 37.5748 13.7418C38.4986 14.9524 38.9933 16.4358 38.7972 17.9264C38.3995 20.9529 35.7904 23.0273 32.8543 23.0273L2.88455 23.0273C1.29156 23.0273 0 24.2719 0 25.807L0 97.859C0 101.038 2.67434 103.616 5.97354 103.616L80.7435 103.616C82.3365 103.616 83.6281 102.371 83.6281 100.836L83.6281 82.628C83.6281 81.4515 82.6055 80.5363 81.3857 80.5773L81.3857 80.5773Z" transform="translate(0 69.077934)" id="Shape" fill="#FFE07D" fill-rule="evenodd" stroke="none" />
            <path d="M83.6133 2.11817C83.6231 2.37251 83.6278 2.62791 83.6278 2.88399C83.6245 13.4874 74.9334 22.3829 63.9483 22.9914C51.866 23.6602 41.8137 14.3793 41.8137 2.87809C41.8137 2.6352 41.8181 2.39302 41.8271 2.15153C41.8696 0.981245 40.9242 0 39.7091 0L26.7791 0.00034993C25.1861 0.00034993 23.8946 1.24499 23.8946 2.78011L23.8953 25.9039C23.8953 28.4929 22.0935 30.8181 19.3817 31.488C17.594 31.9297 15.7115 31.4707 14.2191 30.4248C12.7743 29.4119 11.08 28.8497 9.29154 28.7879C4.53348 28.6232 0.391995 32.1635 0.0270966 36.738C-0.376738 41.8041 3.78638 46.0512 8.96018 46.0512C10.886 46.0512 12.7155 45.4744 14.2573 44.382C15.5135 43.4921 17.0528 43.0154 18.5996 43.2037C21.7405 43.5863 23.8938 46.1009 23.8938 48.9307L23.8938 77.8096C23.8938 79.3447 25.1854 80.5893 26.7784 80.5893L101.548 80.5893C104.847 80.5893 107.522 78.0122 107.522 74.8328L107.522 2.77977C107.522 1.24465 106.23 1.06039e-05 104.637 1.06039e-05L85.7692 1.06039e-05C84.562 1.06039e-05 83.569 0.955552 83.6133 2.11819L83.6133 2.11817Z" transform="translate(71.68075 92.10359)" id="Shape" fill="#E27F84" fill-rule="evenodd" stroke="none" />
            <g id="Group" transform="translate(98.45621 0)">
              <path d="M8.29308 0L0 0C3.2992 0 5.97353 2.57718 5.97353 5.75653L5.97353 77.8106C5.97353 79.3457 4.68198 80.5904 3.08899 80.5904L11.3821 80.5904C12.9751 80.5904 14.2666 79.3457 14.2666 77.8106L14.2666 5.75653C14.2666 2.57718 11.5923 6.62746e-07 8.29308 6.62746e-07L8.29308 0Z" transform="translate(66.4798 0)" id="Shape" fill="#AECAFC" fill-rule="evenodd" stroke="none" />
              <path d="M15.5628 0L0 0.347473L0.0036092 0.347473L15.5661 0.347473L15.5628 0Z" transform="translate(0 80.58883)" id="Shape" fill="#AECAFC" fill-rule="evenodd" stroke="none" />
            </g>
            <path d="M11.3821 0L3.08898 0C4.68197 0 5.97353 1.24464 5.97353 2.77976L5.97353 74.8332C5.97353 78.0122 3.2992 80.5893 0 80.5893L8.29307 80.5893C11.5923 80.5893 14.2666 78.0122 14.2666 74.8332L14.2666 2.77976C14.2666 1.24429 12.975 0 11.3821 0L11.3821 0Z" transform="translate(164.936 92.10359)" id="Shape" fill="#C9646D" fill-rule="evenodd" stroke="none" />
          </g>
          <g id="Group">
            <path d="M2.70428 85.8038L26.8083 85.8038C27.5918 85.8038 28.3367 85.4765 28.8505 84.9059C29.364 84.3357 29.5958 83.579 29.4855 82.8312C29.364 82.006 29.3023 81.1599 29.3023 80.318C29.3023 70.6454 37.4681 62.7766 47.5049 62.7766C57.5417 62.7766 65.7075 70.6454 65.7075 80.318C65.7075 81.1613 65.6458 82.0063 65.5243 82.8298C65.414 83.5776 65.6455 84.3347 66.1593 84.9053C66.6731 85.4758 67.418 85.8031 68.2019 85.8031L86.3327 85.8028C87.0499 85.8028 87.7378 85.5283 88.2448 85.0394C88.7521 84.5508 89.037 83.8882 89.037 83.1967L89.0359 57.2929C89.0355 56.0917 89.7289 55.0114 90.843 54.4749C91.9594 53.9374 93.2715 54.052 94.2688 54.7744C96.2988 56.2435 98.7186 57.0198 101.266 57.0198C107.698 57.0198 112.93 51.9773 112.93 45.7791C112.93 39.581 107.697 34.5385 101.266 34.5385C98.7175 34.5385 96.2981 35.3147 94.2688 36.7838C93.2711 37.5059 91.9586 37.6212 90.8441 37.084C89.7285 36.5469 89.0355 35.4669 89.0355 34.2654L89.0355 2.60602C89.0355 1.16646 87.8247 0 86.3313 0L8.6778 0C3.8927 0 2.06319e-06 3.75128 2.06319e-06 8.36221L2.06319e-06 15.2074C2.06319e-06 16.6469 1.21079 17.8134 2.70427 17.8134C4.19774 17.8134 5.40853 16.6469 5.40853 15.2074L5.40853 8.3622C5.40853 6.6252 6.87496 5.21204 8.6778 5.21204L83.6273 5.21204L83.6273 34.2654C83.6273 37.4544 85.4666 40.3211 88.4272 41.7464C91.3871 43.1724 94.8706 42.8673 97.5172 40.9514C98.6025 40.1658 99.8984 39.7505 101.266 39.7505C104.715 39.7505 107.521 42.4549 107.521 45.7791C107.521 49.1034 104.715 51.8077 101.266 51.8077C99.8987 51.8077 98.6021 51.3925 97.5164 50.6069C94.8709 48.692 91.3886 48.3869 88.4261 49.8119C85.4659 51.2379 83.627 54.1049 83.627 57.2932L83.6277 80.5907L71.1142 80.5911C71.1153 80.5 71.116 80.409 71.116 80.318C71.116 67.7719 60.5239 57.5646 47.5049 57.5646C34.4855 57.5646 23.8938 67.7719 23.8938 80.318C23.8938 80.4094 23.8941 80.5004 23.8956 80.5918L5.40853 80.5918L5.40853 25.6318C5.40853 24.1922 4.19774 23.0258 2.70426 23.0258C1.21079 23.0258 0 24.1922 0 25.6318L0 83.1978C0 84.637 1.21079 85.8038 2.70426 85.8038L2.70428 85.8038Z" id="Shape" fill="#000000" fill-rule="evenodd" stroke="none" />
            <path d="M5.40817 19.876L5.40817 5.48411C5.40817 5.33401 5.53509 5.21204 5.69049 5.21204L20.6242 5.21204C22.1176 5.21204 23.3284 4.04524 23.3284 2.60602C23.3284 1.16646 22.1176 0 20.6242 0L5.69085 0C2.55283 0 0 2.46008 0 5.48411L0 19.876C0 21.3155 1.21079 22.482 2.70426 22.482C4.19774 22.482 5.40817 21.3155 5.40817 19.876L5.40817 19.876Z" transform="translate(11.947083 11.511863)" id="Shape" fill="#000000" fill-rule="evenodd" stroke="none" />
            <path d="M17.6387 0L2.70426 0C1.21079 0 0 1.16646 0 2.60602C0 4.04559 1.21079 5.21204 2.70426 5.21204L17.6387 5.21204C17.7944 5.21204 17.921 5.33435 17.921 5.48411L17.921 19.8753C17.921 21.3148 19.1318 22.4813 20.6252 22.4813C22.1187 22.4813 23.3295 21.3148 23.3295 19.8753L23.3295 5.48411C23.3295 2.46009 20.7763 0 17.6387 0L17.6387 0Z" transform="translate(149.33516 11.512828)" id="Shape" fill="#000000" fill-rule="evenodd" stroke="none" />
            <path d="M23.3288 16.9982L23.3288 2.60602C23.3288 1.16645 22.118 0 20.6245 0C19.131 0 17.9203 1.16645 17.9203 2.60602L17.9203 16.9982C17.9203 17.1483 17.7933 17.2703 17.6379 17.2703L2.70426 17.2703C1.21079 17.2703 0 18.4367 0 19.8763C0 21.3159 1.21079 22.4823 2.70426 22.4823L17.6379 22.4823C20.7756 22.4823 23.3288 20.0222 23.3288 16.9982L23.3288 16.9982Z" transform="translate(149.3359 143.90938)" id="Shape" fill="#000000" fill-rule="evenodd" stroke="none" />
            <path d="M20.6252 17.2693L5.69085 17.2693C5.53509 17.2693 5.40853 17.147 5.40853 16.9968L5.40853 2.60602C5.40853 1.16645 4.19774 0 2.70426 0C1.21079 0 0 1.16645 0 2.60602L0 16.9968C0 20.0209 2.55319 22.4813 5.69085 22.4813L20.6252 22.4813C22.1187 22.4813 23.3295 21.3149 23.3295 19.8753C23.3295 18.4361 22.1187 17.2693 20.6252 17.2693L20.6252 17.2693Z" transform="translate(11.947083 143.91035)" id="Shape" fill="#000000" fill-rule="evenodd" stroke="none" />
            <path d="M80.3592 0L2.70426 0C1.21079 0 0 1.16646 0 2.60602L0 25.834C0 26.5891 0.33965 27.3069 0.931714 27.8021C1.5234 28.2969 2.30836 28.5193 3.08467 28.4143C3.93958 28.2972 4.81648 28.2378 5.69159 28.2378C15.7284 28.2378 23.8942 36.1066 23.8942 45.7791C23.8942 55.4516 15.7284 63.3204 5.69159 63.3204C4.81865 63.3204 3.94138 63.261 3.08432 63.1439C2.30874 63.0387 1.52306 63.2614 0.931725 63.7565C0.340036 64.2517 0.000374125 64.9692 0.000374125 65.7242L0.00110037 83.1961C0.00110037 84.6356 1.21189 85.8021 2.70536 85.8021L29.5843 85.8017C30.8311 85.8017 31.9518 86.4696 32.5089 87.5443C33.0659 88.6194 32.9469 89.8834 32.1984 90.8439C30.6736 92.7998 29.8677 95.1316 29.8677 97.5865C29.8677 103.785 35.1003 108.828 41.5321 108.828C47.9639 108.828 53.1965 103.785 53.1965 97.5865C53.1965 95.1316 52.3906 92.8001 50.8661 90.8442C50.1176 89.8834 49.9986 88.6194 50.556 87.5446C51.1131 86.4699 52.2338 85.8021 53.4802 85.8021L86.3327 85.8021C87.8262 85.8021 89.037 84.6356 89.037 83.1961L89.037 8.36221C89.037 3.75129 85.1443 3.31373e-06 80.3592 3.31373e-06L80.3592 0ZM83.6283 80.5904L53.4801 80.5904C50.1705 80.5904 47.1961 82.3628 45.7175 85.2155C44.238 88.0686 44.5539 91.4248 46.5414 93.9746C47.3566 95.0208 47.7878 96.2703 47.7878 97.5872C47.7878 100.911 44.9815 103.616 41.532 103.616C38.0824 103.616 35.2761 100.912 35.2761 97.5872C35.2761 96.2703 35.707 95.0208 36.5226 93.9746C38.51 91.4248 38.8259 88.0686 37.3472 85.2155C35.8682 82.3625 32.8935 80.59 29.5842 80.59L5.4095 80.5904L5.40878 68.5311C18.563 68.6701 29.3029 58.4166 29.3029 45.7791C29.3029 33.233 18.7112 23.0258 5.69182 23.0258C5.59736 23.0258 5.50324 23.0265 5.40878 23.0275L5.40878 5.21204L80.3594 5.21204C82.1619 5.21204 83.6287 6.6252 83.6287 8.3622L83.6287 80.5904L83.6283 80.5904Z" transform="translate(95.57416 0)" id="Shape" fill="#000000" fill-rule="evenodd" stroke="none" />
            <path d="M88.1052 81.0257C87.5135 80.5303 86.7286 80.3075 85.9526 80.4132C85.0956 80.5303 84.2183 80.5897 83.3454 80.5897C73.3086 80.5897 65.1428 72.7209 65.1428 63.0484C65.1428 53.3758 73.3086 45.507 83.3454 45.507C84.2187 45.507 85.0967 45.5665 85.9541 45.6836C86.7311 45.7913 87.515 45.5661 88.1067 45.071C88.6984 44.5758 89.038 43.8583 89.038 43.1033L89.0373 25.6325C89.0373 24.1929 87.8265 23.0265 86.333 23.0265L59.4523 23.0268C58.2055 23.0268 57.0848 22.359 56.5274 21.2839C55.9703 20.2092 56.0893 18.9451 56.8386 17.9843C58.3634 16.0277 59.1693 13.6959 59.1693 11.241C59.1693 5.04283 53.9367 0 47.5049 0C41.0731 0 35.8405 5.04248 35.8405 11.2406C35.8405 13.6955 36.6467 16.0277 38.1723 17.985C38.9212 18.9454 39.0402 20.2095 38.4831 21.2843C37.926 22.3593 36.8054 23.0272 35.5585 23.0272L2.70426 23.0272C1.21079 23.0272 0 24.1936 0 25.6332L0 100.465C0 105.076 3.8927 108.827 8.6778 108.827L86.3323 108.827C87.8258 108.827 89.0366 107.661 89.0366 106.221L89.0366 82.9935C89.0366 82.2384 88.6966 81.5205 88.1052 81.0257L88.1052 81.0257ZM83.6281 103.615L8.6778 103.615C6.87496 103.615 5.40853 102.202 5.40853 100.465L5.40853 28.2392L35.5582 28.2392C38.8678 28.2392 41.8425 26.4664 43.3212 23.6137C44.8003 20.7603 44.484 17.4041 42.4959 14.8547C41.6799 13.8074 41.2487 12.5582 41.2487 11.241C41.2487 7.91675 44.055 5.21204 47.5045 5.21204C50.9541 5.21204 53.7604 7.9164 53.7604 11.241C53.7604 12.5582 53.3292 13.8077 52.5139 14.8536C50.5254 17.4037 50.2092 20.7603 51.6886 23.6133C53.1676 26.4664 56.1423 28.2385 59.4516 28.2385L83.6281 28.2382L83.6284 40.2964C83.534 40.2954 83.4391 40.2947 83.3447 40.2947C70.3256 40.2947 59.7336 50.5019 59.7336 63.048C59.7336 75.5941 70.3256 85.8014 83.3447 85.8014C83.4388 85.8014 83.5329 85.8007 83.6273 85.7996L83.6273 103.615L83.6281 103.615Z" transform="translate(0 69.076965)" id="Shape" fill="#000000" fill-rule="evenodd" stroke="none" />
            <path d="M110.225 0.00034993L86.1218 0.00034993C85.3382 0.00034993 84.5929 0.327661 84.0795 0.898217C83.566 1.46841 83.3342 2.2252 83.4445 2.97296C83.5661 3.79716 83.6277 4.6422 83.6277 5.48447C83.6277 15.157 75.4619 23.0258 65.4251 23.0258C55.3884 23.0258 47.2226 15.1566 47.2226 5.48447C47.2226 4.6422 47.2842 3.79716 47.4057 2.97261C47.5161 2.2252 47.2842 1.46807 46.7708 0.897867C46.257 0.327322 45.512 0 44.7285 0L26.5991 0.00034993C25.882 0.00034993 25.194 0.274854 24.687 0.763738C24.1797 1.25228 23.8949 1.91525 23.8949 2.60637L23.8959 28.5102C23.8959 29.7118 23.2029 30.7921 22.0873 31.3289C20.9717 31.8658 19.6596 31.7504 18.6623 31.0287C16.6327 29.5592 14.2129 28.7823 11.6644 28.7823C5.23257 28.7823 0 33.8248 0 40.0229C0 46.2211 5.23257 51.2636 11.6644 51.2636C14.2118 51.2636 16.6312 50.4873 18.6612 49.0182C19.6586 48.2966 20.9703 48.1819 22.0859 48.7191C23.2011 49.2559 23.8938 50.3355 23.8938 51.537L23.8938 83.1961C23.8938 84.6356 25.1046 85.8021 26.5981 85.8021L87.6899 85.8021C89.1833 85.8021 90.3941 84.6356 90.3941 83.1961C90.3941 81.7565 89.1833 80.59 87.6899 80.59L29.302 80.59L29.302 51.537C29.302 48.3476 27.4627 45.481 24.5024 44.0564C21.5422 42.6311 18.0591 42.9351 15.4125 44.8507C14.3268 45.6363 13.0306 46.0515 11.6637 46.0515C8.21411 46.0515 5.4078 43.3472 5.4078 40.0229C5.4078 36.6987 8.21411 33.9943 11.6637 33.9943C13.0309 33.9943 14.3272 34.4096 15.4125 35.1956C18.0587 37.1122 21.5425 37.4173 24.5028 35.9916C27.4638 34.5663 29.303 31.6993 29.303 28.5102L29.302 5.21238L41.8144 5.21203C41.8133 5.30307 41.813 5.39341 41.813 5.4841C41.813 18.0302 52.405 28.2375 65.424 28.2375C78.4435 28.2375 89.0352 18.0302 89.0352 5.4841C89.0352 5.39341 89.0348 5.30272 89.0337 5.21237L107.521 5.21237L107.521 77.4395C107.521 79.1765 106.055 80.5897 104.252 80.5897L98.2791 80.5897C96.7856 80.5897 95.5748 81.7561 95.5748 83.1957C95.5748 84.6352 96.7856 85.8017 98.2791 85.8017L104.252 85.8017C109.037 85.8017 112.93 82.0504 112.93 77.4395L112.93 2.60635C112.93 1.16713 111.719 0.000328722 110.225 0.000328722L110.225 0.00034993Z" transform="translate(71.681496 92.10262)" id="Shape" fill="#000000" fill-rule="evenodd" stroke="none" />
          </g>
        </g>
      </g>
    </g>
    <g id="marketing-strategy" transform="matrix(0.9998477 -0.017452406 0.017452406 0.9998477 0 439.26758)">
      <path d="M0 0L221.53 0L221.53 213.494L0 213.494L0 0Z" transform="matrix(1 2.9026057E-09 -2.9026057E-09 1 0 0)" id="Background" fill="none" fill-rule="evenodd" stroke="none" />
      <g clip-path="url(#mask_6)">
        <path d="M0 102.16C0 45.7388 47.4602 0 106.005 0C164.551 0 212.011 45.7388 212.011 102.16C212.011 158.582 164.551 204.321 106.005 204.321C47.4602 204.321 0 158.582 0 102.16Z" transform="matrix(1 2.9026057E-09 -2.9026057E-09 1 4.7596436 4.5839844)" id="Circle" fill="#52BBEF" fill-rule="evenodd" stroke="none" />
        <path d="M42.2239 18.044C40.9155 7.87261 31.9656 0 21.1119 0C10.2583 0 1.30798 7.87261 0 18.044L42.2239 18.044L42.2239 18.044Z" transform="matrix(1 2.9026057E-09 -2.9026057E-09 1 89.65344 0.0078125)" id="Shape" fill="#293D7C" fill-rule="evenodd" stroke="none" />
        <path d="M24.7914 0.311902C23.5959 0.109666 22.3671 0 21.1119 0C10.2583 0 1.30798 7.87261 0 18.044L7.3585 18.044C8.51547 9.04933 15.6499 1.8564 24.7914 0.311902L24.7914 0.311902Z" transform="matrix(1 2.9026057E-09 -2.9026057E-09 1 89.65344 0.0078125)" id="Shape" fill="#1A2B63" fill-rule="evenodd" stroke="none" />
        <path d="M193.615 0L132.394 0L132.394 13.5757C132.394 14.2653 131.811 14.8266 131.096 14.8266L66.805 14.8266C66.0894 14.8266 65.507 14.2653 65.507 13.5757L65.507 0L4.32675 0C1.94704 0 0 1.87642 0 4.16981L0 118.624C2.15602 124.027 4.77457 129.209 7.80892 134.125L29.3644 134.125L29.3644 131.19C29.3644 130.964 29.5625 130.773 29.797 130.773L66.5744 130.773L66.5744 117.429C66.5744 117.203 66.7726 117.012 67.0071 117.012L109.529 117.012C109.764 117.012 109.962 117.203 109.962 117.429L109.962 134.125L190.132 134.125C193.167 129.209 195.785 124.027 197.941 118.623L197.941 4.17023C197.942 1.87642 195.995 0 193.615 0L193.615 0Z" transform="matrix(1 2.9026057E-09 -2.9026057E-09 1 11.793823 24.780273)" id="Shape" fill="#A53535" fill-rule="evenodd" stroke="none" />
        <path d="M4.90567 4.16981C4.90567 1.87642 6.85271 0 9.23242 0L4.32675 0C1.94704 0 0 1.87642 0 4.16981L0 118.624C1.43388 122.217 3.07632 125.71 4.90567 129.094L4.90567 4.16981L4.90567 4.16981Z" transform="matrix(1 2.9026057E-09 -2.9026057E-09 1 11.794067 24.780273)" id="Shape" fill="#994334" fill-rule="evenodd" stroke="none" />
        <path d="M176.215 0L122.639 0L122.639 4.12561C122.639 4.8153 122.057 5.37656 121.341 5.37656L57.0504 5.37656C56.3347 5.37656 55.7523 4.8153 55.7523 4.12561L55.7523 0L2.21746 0C0.997748 0 0 0.966563 0 2.14787L0 113.077C0 114.259 0.997748 115.225 2.21746 115.225L56.8202 115.225L56.8202 107.98C56.8202 107.754 57.0183 107.563 57.2528 107.563L99.7748 107.563C100.009 107.563 100.208 107.754 100.208 107.98L100.208 115.225L176.215 115.225C177.434 115.225 178.432 114.259 178.432 113.077L178.432 2.14787C178.432 0.966563 177.434 0 176.215 0L176.215 0Z" transform="matrix(1 2.9026057E-09 -2.9026057E-09 1 21.54712 34.223633)" id="Shape" fill="#FFFFFF" fill-rule="evenodd" stroke="none" />
        <path d="M7.3585 113.077L7.3585 2.14787C7.3585 0.966563 8.35625 0 9.57596 0L2.21746 0C0.997748 0 0 0.966563 0 2.14787L0 113.077C0 114.259 0.997748 115.225 2.21746 115.225L9.57596 115.225C8.35625 115.225 7.3585 114.259 7.3585 113.077L7.3585 113.077Z" transform="matrix(1 2.9026057E-09 -2.9026057E-09 1 21.54712 34.223633)" id="Shape" fill="#D9EAFC" fill-rule="evenodd" stroke="none" />
        <g id="Group" transform="matrix(1 2.9026057E-09 -2.9026057E-09 1 54.50525 74.75781)">
          <path d="M13.9771 6.25472C13.711 5.2548 13.5695 4.20651 13.5695 3.12736C13.5695 2.04821 13.711 0.999926 13.9771 0L0 0C0.266097 0.999926 0.40758 2.04821 0.40758 3.12736C0.40758 4.20651 0.266097 5.2548 0 6.25472L13.9771 6.25472L13.9771 6.25472Z" transform="matrix(1 -8.2211704E-10 8.2211704E-10 1 15.810412 44.265656)" id="Shape" fill="#AEC1ED" fill-rule="evenodd" stroke="none" />
          <path d="M13.9776 6.25472C13.7119 5.2548 13.5704 4.20651 13.5704 3.12736C13.5704 2.04821 13.7119 0.999926 13.9776 0L0 0C0.266097 0.999926 0.40758 2.04821 0.40758 3.12736C0.40758 4.20651 0.266097 5.2548 0.000435738 6.25472L13.9776 6.25472L13.9776 6.25472Z" transform="matrix(1 -8.2211704E-10 8.2211704E-10 1 54.916916 44.263725)" id="Shape" fill="#AEC1ED" fill-rule="evenodd" stroke="none" />
          <path d="M13.9771 6.25472C13.7115 5.25479 13.57 4.20651 13.57 3.12736C13.57 2.04821 13.7115 0.999925 13.9771 0L0 0C0.265668 0.999925 0.407151 2.04821 0.407151 3.12736C0.407151 4.20651 0.265668 5.25479 0 6.25472L13.9771 6.25472L13.9771 6.25472Z" transform="matrix(1 -8.2211704E-10 8.2211704E-10 1 94.02392 44.265656)" id="Shape" fill="#AEC1ED" fill-rule="evenodd" stroke="none" />
          <path d="M16.6528 0L0 0L0 6.25472L16.6528 6.25472C16.3867 5.25438 16.2452 4.20651 16.2452 3.12694C16.2452 2.0478 16.3867 1.00034 16.6528 0L16.6528 0Z" transform="matrix(1 -8.2211704E-10 8.2211704E-10 1 27.364435 14.234314)" id="Shape" fill="#AEC1ED" fill-rule="evenodd" stroke="none" />
          <path d="M3.24506 6.98527C4.36526 6.98527 5.45257 7.1237 6.49012 7.38307L6.49012 0L0 0L0 7.38307C1.03755 7.1237 2.12486 6.98527 3.24506 6.98527L3.24506 6.98527Z" transform="matrix(1 -8.2211704E-10 8.2211704E-10 1 0.00050078117 27.851843)" id="Shape" fill="#AEC1ED" fill-rule="evenodd" stroke="none" />
          <path d="M0 0L6.49012 0L6.49012 6.87227L0 6.87227L0 0Z" transform="matrix(1 -8.2211704E-10 8.2211704E-10 1 0 0)" id="Rectangle" fill="#AEC1ED" fill-rule="evenodd" stroke="none" />
        </g>
        <path d="M44.1995 15.8353C44.1995 16.5233 43.6154 17.0862 42.9015 17.0862L1.29802 17.0862C0.584111 17.0862 0 16.5233 0 15.8353L0 1.25094C0 0.562927 0.584111 0 1.29802 0L42.9015 0C43.6154 0 44.1995 0.562927 44.1995 1.25094L44.1995 15.8353L44.1995 15.8353Z" transform="matrix(1 2.9026057E-09 -2.9026057E-09 1 35.65027 83.58203)" id="Shape" fill="#2BB381" fill-rule="evenodd" stroke="none" />
        <path d="M46.1469 23.34L4.54346 23.34C2.03827 23.34 0.000375604 21.376 0.000375602 18.9617L0.00037559 4.37734C0.000375588 1.96343 2.03827 -0.000965236 4.54346 -0.000965238L46.1469 -0.000965273C48.6521 -0.000965275 50.69 1.96343 50.69 4.37734L50.69 18.9617C50.69 21.376 48.6521 23.34 46.1469 23.34L46.1469 23.34ZM6.49025 17.0843L44.1996 17.0843L44.1996 6.25279L6.49025 6.25279L6.49025 17.0843L6.49025 17.0843Z" transform="matrix(1 2.9026057E-09 -2.9026057E-09 1 32.405884 80.45801)" id="Shape" fill="#37C47A" fill-rule="evenodd" stroke="none" />
        <path d="M44.1995 15.8349C44.1995 16.5229 43.6154 17.0858 42.9015 17.0858L1.29802 17.0858C0.584111 17.0858 0 16.5229 0 15.8349L0 1.25094C0 0.562927 0.584111 0 1.29802 0L42.9015 0C43.6154 0 44.1995 0.562927 44.1995 1.25094L44.1995 15.8349L44.1995 15.8349Z" transform="matrix(1 2.9026057E-09 -2.9026057E-09 1 35.650635 55.728516)" id="Shape" fill="#FFD00D" fill-rule="evenodd" stroke="none" />
        <path d="M46.1468 23.3405L4.54334 23.3405C2.03815 23.3405 0.000250408 21.3766 0.000250406 18.9622L0.000250394 4.3783C0.000250392 1.96399 2.03815 -1.67539e-09 4.54334 -3.73495e-09L46.1468 -3.79378e-08C48.652 -3.99974e-08 50.6899 1.96399 50.6899 4.3783L50.6899 18.9622C50.6899 21.3766 48.652 23.3405 46.1468 23.3405L46.1468 23.3405ZM6.48988 17.0858L44.1992 17.0858L44.1992 6.25472L6.48988 6.25472L6.48988 17.0858L6.48988 17.0858Z" transform="matrix(1 2.9026057E-09 -2.9026057E-09 1 32.406006 52.60742)" id="Shape" fill="#FFAF10" fill-rule="evenodd" stroke="none" />
        <path d="M17.9564 0L6.47152 0L6.47152 6.25472L16.0094 6.25472L16.0094 28.0091L0 28.0091C0.265668 29.009 0.407151 30.0569 0.407151 31.136C0.407151 32.2156 0.265668 33.2634 0 34.2638L17.9564 34.2638C20.4616 34.2638 22.4995 32.2998 22.4995 29.8855L22.4995 4.37831C22.4995 1.96398 20.4616 0 17.9564 0L17.9564 0Z" transform="matrix(1 2.9026057E-09 -2.9026057E-09 1 123.65161 60.989258)" id="Shape" fill="#AEC1ED" fill-rule="evenodd" stroke="none" />
        <path d="M34.0364 15.8349C34.0364 16.5229 33.4523 17.0858 32.7384 17.0858L1.29803 17.0858C0.584114 17.0858 0 16.5229 0 15.8349L0 1.25094C0 0.562927 0.584114 0 1.29803 0L32.7384 0C33.4523 0 34.0364 0.562927 34.0364 1.25094L34.0364 15.8349L34.0364 15.8349Z" transform="matrix(1 2.9026057E-09 -2.9026057E-09 1 94.06824 55.731445)" id="Shape" fill="#FE3745" fill-rule="evenodd" stroke="none" />
        <path d="M35.9834 23.3405L4.54309 23.3405C2.03833 23.3405 1.7574e-08 21.3766 1.55892e-08 18.9622L3.59948e-09 4.3783C1.61463e-09 1.96399 2.03833 -1.67575e-09 4.54309 -3.73495e-09L35.9834 -2.95826e-08C38.4886 -3.16421e-08 40.5265 1.96399 40.5265 4.3783L40.5265 18.9622C40.5265 21.3766 38.4886 23.3405 35.9834 23.3405L35.9834 23.3405ZM6.49101 17.0839L34.0373 17.0839L34.0373 6.25279L6.491 6.25279L6.49101 17.0839L6.49101 17.0839L6.49101 17.0839Z" transform="matrix(1 2.9026057E-09 -2.9026057E-09 1 90.82263 52.606445)" id="Shape" fill="#B7092B" fill-rule="evenodd" stroke="none" />
        <path d="M0 10.4704C0 4.68776 4.83939 0 10.8091 0C16.7788 0 21.6182 4.68776 21.6182 10.4704C21.6182 16.253 16.7788 20.9408 10.8091 20.9408C4.83939 20.9408 0 16.253 0 10.4704Z" transform="matrix(1 2.9026057E-09 -2.9026057E-09 1 100.275024 81.65527)" id="Ellipse" fill="#6DC3ED" fill-rule="evenodd" stroke="none" />
        <path d="M14.0545 27.1958C6.30488 27.1958 0.000375603 21.0954 0.000375597 13.5972C0.000375591 6.09906 6.30488 -0.00096524 14.0545 -0.000965246C21.8042 -0.000965253 28.1087 6.09905 28.1087 13.5972C28.1091 21.0954 21.8042 27.1958 14.0545 27.1958L14.0545 27.1958ZM14.0546 6.25376C9.88366 6.25376 6.49063 9.5479 6.49063 13.5972C6.49063 17.6469 9.88366 20.9411 14.0546 20.9411C18.2256 20.9411 21.6187 17.6465 21.6187 13.5972C21.6191 9.5479 18.2256 6.25376 14.0546 6.25376L14.0546 6.25376Z" transform="matrix(1 2.9026057E-09 -2.9026057E-09 1 97.03125 78.53223)" id="Shape" fill="#2DA1DC" fill-rule="evenodd" stroke="none" />
        <path d="M0 10.4704C0 4.68776 4.83939 0 10.8091 0C16.7788 0 21.6182 4.68776 21.6182 10.4704C21.6182 16.253 16.7788 20.9408 10.8091 20.9408C4.83939 20.9408 0 16.253 0 10.4704Z" transform="matrix(1 2.9026057E-09 -2.9026057E-09 1 46.93921 111.67383)" id="Ellipse" fill="#FE3745" fill-rule="evenodd" stroke="none" />
        <path d="M14.055 27.1972C6.30532 27.1972 0.000375603 21.0968 0.000375597 13.5986C0.000375591 6.10044 6.30532 -5.1834e-09 14.055 -1.15545e-08C21.8042 -1.79253e-08 28.1087 6.10002 28.1087 13.5986C28.1091 21.0968 21.8042 27.1972 14.055 27.1972L14.055 27.1972ZM14.0547 6.25569C9.88372 6.25569 6.49025 9.54984 6.49025 13.5996C6.49025 17.6489 9.88372 20.9434 14.0547 20.9434C18.2253 20.9434 21.6183 17.6489 21.6183 13.5996C21.6187 9.54984 18.2253 6.25569 14.0547 6.25569L14.0547 6.25569Z" transform="matrix(1 2.9026057E-09 -2.9026057E-09 1 43.69568 108.5459)" id="Shape" fill="#B7092B" fill-rule="evenodd" stroke="none" />
        <path d="M0 10.4704C0 4.68775 4.8392 0 10.8087 0C16.7781 0 21.6173 4.68775 21.6173 10.4704C21.6173 16.253 16.7781 20.9408 10.8087 20.9408C4.8392 20.9408 0 16.253 0 10.4704Z" transform="matrix(1 2.9026057E-09 -2.9026057E-09 1 86.04639 111.67969)" id="Ellipse" fill="#FFD00D" fill-rule="evenodd" stroke="none" />
        <path d="M14.0542 27.1972C6.30451 27.1972 1.7344e-08 21.0968 1.11796e-08 13.5986C5.01528e-09 6.10044 6.30451 -5.18304e-09 14.0542 -1.15542e-08C21.8034 -1.79249e-08 28.1079 6.10002 28.1079 13.5986C28.1079 21.0968 21.8034 27.1972 14.0542 27.1972L14.0542 27.1972ZM14.0543 6.25279C9.88329 6.25279 6.49025 9.54694 6.49025 13.5967C6.49025 17.646 9.88329 20.9405 14.0543 20.9405C18.2248 20.9405 21.6179 17.646 21.6179 13.5967C21.6179 9.54694 18.2248 6.25279 14.0543 6.25279L14.0543 6.25279Z" transform="matrix(1 2.9026057E-09 -2.9026057E-09 1 82.8042 108.55859)" id="Shape" fill="#FFAF10" fill-rule="evenodd" stroke="none" />
        <path d="M0 10.4704C0 4.68776 4.8392 0 10.8087 0C16.7781 0 21.6173 4.68776 21.6173 10.4704C21.6173 16.253 16.7781 20.9408 10.8087 20.9408C4.8392 20.9408 0 16.253 0 10.4704Z" transform="matrix(1 2.9026057E-09 -2.9026057E-09 1 125.15454 111.68262)" id="Ellipse" fill="#2BB381" fill-rule="evenodd" stroke="none" />
        <path d="M14.0538 27.1962C6.30462 27.1962 0.000125213 21.0958 0.000125207 13.5976C0.0001252 6.09947 6.30464 -0.00096524 14.0538 -0.000965246C21.803 -0.000965253 28.1071 6.09906 28.1071 13.5976C28.1076 21.0958 21.803 27.1962 14.0538 27.1962L14.0538 27.1962ZM14.0533 6.25472C9.88234 6.25472 6.48975 9.54887 6.48975 13.5986C6.48975 17.6479 9.88279 20.9425 14.0533 20.9425C18.2239 20.9425 21.6165 17.6479 21.6165 13.5986C21.6169 9.54887 18.2239 6.25472 14.0533 6.25472L14.0533 6.25472Z" transform="matrix(1 2.9026057E-09 -2.9026057E-09 1 121.91052 108.55957)" id="Shape" fill="#37C47A" fill-rule="evenodd" stroke="none" />
        <path d="M0 10.4704C0 4.68775 4.83939 0 10.8091 0C16.7788 0 21.6182 4.68775 21.6182 10.4704C21.6182 16.253 16.7788 20.9408 10.8091 20.9408C4.83939 20.9408 0 16.253 0 10.4704Z" transform="matrix(1 2.9026057E-09 -2.9026057E-09 1 164.25903 111.680664)" id="Ellipse" fill="#6DC3ED" fill-rule="evenodd" stroke="none" />
        <path d="M14.0537 27.1972C6.3045 27.1972 1.7344e-08 21.0968 1.11796e-08 13.5986C5.01528e-09 6.10044 6.30452 -5.18305e-09 14.0537 -1.15538e-08C21.8034 -1.79249e-08 28.1083 6.10002 28.1083 13.5986C28.1079 21.0968 21.8034 27.1972 14.0537 27.1972L14.0537 27.1972ZM14.0537 6.25762C9.88272 6.25762 6.49013 9.55177 6.49013 13.6015C6.49013 17.6508 9.88317 20.9454 14.0537 20.9454C18.2247 20.9454 21.6182 17.6508 21.6182 13.6015C21.6178 9.55177 18.2247 6.25762 14.0537 6.25762L14.0537 6.25762Z" transform="matrix(1 2.9026057E-09 -2.9026057E-09 1 161.0177 108.55176)" id="Shape" fill="#2DA1DC" fill-rule="evenodd" stroke="none" />
        <g id="Group" transform="matrix(1 2.9026057E-09 -2.9026057E-09 1 76.43555 17.204102)">
          <path d="M19.4063 6.25472L3.24506 6.25472C1.45249 6.25472 0 4.8545 0 3.12736C0 1.40022 1.45249 0 3.24506 0L19.4063 0C21.1989 0 22.6514 1.40022 22.6514 3.12736C22.6514 4.8545 21.1989 6.25472 19.4063 6.25472L19.4063 6.25472Z" transform="matrix(1 -8.2211704E-10 8.2211704E-10 1 75.42254 48.49725)" id="Shape" fill="#445EA0" fill-rule="evenodd" stroke="none" />
          <path d="M19.4063 6.25472L3.24506 6.25472C1.45249 6.25472 0 4.8545 0 3.12736C0 1.40022 1.45249 0 3.24506 0L19.4063 0C21.1989 0 22.6514 1.40022 22.6514 3.12736C22.6514 4.8545 21.1989 6.25472 19.4063 6.25472L19.4063 6.25472Z" transform="matrix(1 -8.2211704E-10 8.2211704E-10 1 75.42266 57.970062)" id="Shape" fill="#445EA0" fill-rule="evenodd" stroke="none" />
          <path d="M19.4063 6.25472L3.24506 6.25472C1.45249 6.25472 0 4.8545 0 3.12736C0 1.40022 1.45249 0 3.24506 0L19.4063 0C21.1989 0 22.6514 1.40022 22.6514 3.12736C22.6514 4.8545 21.1989 6.25472 19.4063 6.25472L19.4063 6.25472Z" transform="matrix(1 -8.2211704E-10 8.2211704E-10 1 75.42278 67.43902)" id="Shape" fill="#445EA0" fill-rule="evenodd" stroke="none" />
          <path d="M8.79715 6.25472L3.24506 6.25472C1.45249 6.25472 0 4.8545 0 3.12736C0 1.40022 1.45249 0 3.24506 0L8.79715 0C10.5893 0 12.0422 1.40022 12.0422 3.12736C12.0422 4.8545 10.5897 6.25472 8.79715 6.25472L8.79715 6.25472Z" transform="matrix(1 -8.2211704E-10 8.2211704E-10 1 100.64713 48.498215)" id="Shape" fill="#445EA0" fill-rule="evenodd" stroke="none" />
          <path d="M8.79715 6.25472L3.24506 6.25472C1.45249 6.25472 0 4.8545 0 3.12736C0 1.40022 1.45249 0 3.24506 0L8.79715 0C10.5893 0 12.0422 1.40022 12.0422 3.12736C12.0422 4.8545 10.5897 6.25472 8.79715 6.25472L8.79715 6.25472Z" transform="matrix(1 -8.2211704E-10 8.2211704E-10 1 100.64651 57.967167)" id="Shape" fill="#445EA0" fill-rule="evenodd" stroke="none" />
          <path d="M8.79715 6.25472L3.24506 6.25472C1.45249 6.25472 0 4.8545 0 3.12736C0 1.40022 1.45249 0 3.24506 0L8.79715 0C10.5893 0 12.0422 1.40022 12.0422 3.12736C12.0422 4.8545 10.5897 6.25472 8.79715 6.25472L8.79715 6.25472Z" transform="matrix(1 -8.2211704E-10 8.2211704E-10 1 100.64689 67.43998)" id="Shape" fill="#445EA0" fill-rule="evenodd" stroke="none" />
          <path d="M2.16338 23.2263C0.973519 23.2263 0 22.2881 0 21.1414L0 2.08491C0 0.938208 0.973519 0 2.16338 0L66.4541 0C67.644 0 68.6175 0.938208 68.6175 2.08491L68.6175 21.1414C68.6175 22.2881 67.644 23.2263 66.4541 23.2263L2.16338 23.2263L2.16338 23.2263Z" transform="matrix(1 -8.2211704E-10 8.2211704E-10 1 0.0001251953 0)" id="Shape" fill="#445EA0" fill-rule="evenodd" stroke="none" />
        </g>
        <path d="M6.13187 21.1414L6.13187 2.08491C6.13187 0.938208 7.10539 0 8.29524 0L2.16337 0C0.973519 0 0 0.938208 0 2.08491L0 21.1414C0 22.2881 0.973519 23.2263 2.16337 23.2263L8.29524 23.2263C7.10539 23.2263 6.13187 22.2881 6.13187 21.1414L6.13187 21.1414Z" transform="matrix(1 2.9026057E-09 -2.9026057E-09 1 76.436035 17.202148)" id="Shape" fill="#293D7C" fill-rule="evenodd" stroke="none" />
        <g id="Group" transform="matrix(1 2.9026057E-09 -2.9026057E-09 1 85.072266 25.705078)">
          <path d="M3.24506 6.25472C2.39269 6.25472 1.5533 5.92113 0.951884 5.34153C0.346141 4.75776 0 3.95298 0 3.12736C0 2.30591 0.346141 1.50113 0.951884 0.917359C1.5533 0.333585 2.38837 0 3.24506 0C4.09743 0 4.93682 0.333585 5.53824 0.917359C6.14399 1.50113 6.49013 2.30591 6.49013 3.12736C6.49013 3.95299 6.14399 4.75776 5.53824 5.34153C4.93682 5.92113 4.09743 6.25472 3.24506 6.25472L3.24506 6.25472Z" transform="matrix(1 -8.2211704E-10 8.2211704E-10 1 0.0005007813 -0.00096523465)" id="Shape" fill="#AEC1ED" fill-rule="evenodd" stroke="none" />
          <path d="M3.24506 6.25472C2.38836 6.25472 1.5533 5.92113 0.947124 5.34153C0.345699 4.75776 0 3.95298 0 3.12736C0 2.30591 0.346135 1.50113 0.947124 0.917359C1.55287 0.333585 2.38793 0 3.24506 0C4.09743 0 4.93249 0.333585 5.53824 0.917359C6.14398 1.50113 6.49013 2.30591 6.49013 3.12736C6.49013 3.95299 6.14399 4.75776 5.53824 5.34153C4.93249 5.92113 4.09743 6.25472 3.24506 6.25472L3.24506 6.25472Z" transform="matrix(1 -8.2211704E-10 8.2211704E-10 1 44.85598 -0.002895704)" id="Shape" fill="#AEC1ED" fill-rule="evenodd" stroke="none" />
        </g>
        <path d="M43.82 0L1.29803 0C0.584114 0 0 0.562927 0 1.25094L0 14.5943L6.60998 14.5943C6.84449 14.5943 7.04265 14.7853 7.04265 15.0113L7.04265 43.482L43.82 43.482C44.5339 43.482 45.1181 42.9191 45.1181 42.231L45.1181 1.25094C45.1181 0.562915 44.5344 0 43.82 0L43.82 0Z" transform="matrix(1 2.9026057E-09 -2.9026057E-09 1 77.503174 140.95703)" id="Shape" fill="#FFAF10" fill-rule="evenodd" stroke="none" />
        <g id="Group" transform="matrix(1 2.9026057E-09 -2.9026057E-09 1 77.50488 140.95996)">
          <path d="M6.13187 14.5943L6.13187 1.25094C6.13187 0.562927 6.71598 0 7.42989 0L1.29802 0C0.584114 0 0 0.562927 0 1.25094L0 14.5943L6.13187 14.5943L6.13187 14.5943Z" transform="matrix(1 -8.2211704E-10 8.2211704E-10 1 0.00025039059 0)" id="Shape" fill="#EF9614" fill-rule="evenodd" stroke="none" />
          <path d="M14.9273 6.25472L3.24506 6.25472C1.45292 6.25472 0 4.85449 0 3.12736C0 1.40022 1.45292 0 3.24506 0L14.9273 0C16.7194 0 18.1723 1.40022 18.1723 3.12736C18.1723 4.85449 16.7194 6.25472 14.9273 6.25472L14.9273 6.25472Z" transform="matrix(1 -8.2211704E-10 8.2211704E-10 1 13.472766 6.4448705)" id="Shape" fill="#EF9614" fill-rule="evenodd" stroke="none" />
        </g>
        <path d="M43.82 0L1.29802 0C0.584111 0 0 0.562927 0 1.25094L0 28.341C6.96607 34.3201 14.7551 39.426 23.1849 43.4824L43.82 43.4824C44.5339 43.4824 45.118 42.9195 45.118 42.2315L45.118 1.25138C45.118 0.562915 44.5339 0 43.82 0L43.82 0Z" transform="matrix(1 2.9026057E-09 -2.9026057E-09 1 40.292603 154.70703)" id="Shape" fill="#FFD00D" fill-rule="evenodd" stroke="none" />
        <g id="Group" transform="matrix(1 2.9026057E-09 -2.9026057E-09 1 40.293335 154.70703)">
          <path d="M6.13187 1.25094C6.13187 0.562927 6.71598 0 7.42989 0L1.29803 0C0.584111 0 0 0.562927 0 1.25094L0 28.341C1.97819 30.0389 4.02518 31.6639 6.13187 33.2171L6.13187 1.25094L6.13187 1.25094Z" transform="matrix(1 -8.2211704E-10 8.2211704E-10 1 0 0)" id="Shape" fill="#FFAF10" fill-rule="evenodd" stroke="none" />
          <path d="M22.7379 6.25472L3.24506 6.25472C1.45292 6.25472 0 4.8545 0 3.12736C0 1.40022 1.45292 0 3.24506 0L22.7379 0C24.5301 0 25.983 1.40022 25.983 3.12736C25.983 4.8545 24.5305 6.25472 22.7379 6.25472L22.7379 6.25472Z" transform="matrix(1 -8.2211704E-10 8.2211704E-10 1 9.567176 9.135946)" id="Shape" fill="#FFAF10" fill-rule="evenodd" stroke="none" />
          <path d="M22.7379 6.25472L3.24506 6.25472C1.45292 6.25472 0 4.8545 0 3.12736C0 1.40022 1.45292 0 3.24506 0L22.7379 0C24.5301 0 25.983 1.40022 25.983 3.12736C25.983 4.8545 24.5305 6.25472 22.7379 6.25472L22.7379 6.25472Z" transform="matrix(1 -8.2211704E-10 8.2211704E-10 1 9.567427 17.226543)" id="Shape" fill="#FFAF10" fill-rule="evenodd" stroke="none" />
          <path d="M22.7379 6.25472L3.24506 6.25472C1.45292 6.25472 0 4.8545 0 3.12736C0 1.40022 1.45292 0 3.24506 0L22.7379 0C24.5301 0 25.983 1.40022 25.983 3.12736C25.983 4.8545 24.5305 6.25472 22.7379 6.25472L22.7379 6.25472Z" transform="matrix(1 -8.2211704E-10 8.2211704E-10 1 9.567302 25.312313)" id="Shape" fill="#FFAF10" fill-rule="evenodd" stroke="none" />
        </g>
        <path d="M45.1181 42.231C45.1181 42.9191 44.5339 43.482 43.82 43.482L1.29803 43.482C0.584114 43.482 0 42.9191 0 42.231L0 1.25094C0 0.562927 0.584114 0 1.29803 0L43.82 0C44.5339 0 45.1181 0.562927 45.1181 1.25094L45.1181 42.231L45.1181 42.231Z" transform="matrix(1 2.9026057E-09 -2.9026057E-09 1 136.11877 170.00977)" id="Shape" fill="#FFD00D" fill-rule="evenodd" stroke="none" />
        <g id="Group" transform="matrix(1 2.9026057E-09 -2.9026057E-09 1 136.11829 170.0127)">
          <path d="M6.13316 42.231L6.13316 1.25094C6.13316 0.562927 6.71728 0 7.43119 0L1.29803 0C0.584114 0 0 0.562927 0 1.25094L0 42.231C0 42.9191 0.584114 43.482 1.29803 43.482L7.43119 43.482C6.71684 43.482 6.13316 42.9191 6.13316 42.231L6.13316 42.231Z" transform="matrix(1 -8.2211704E-10 8.2211704E-10 1 0.0006259767 0)" id="Shape" fill="#FFAF10" fill-rule="evenodd" stroke="none" />
          <path d="M3.2403 6.25472C2.38793 6.25472 1.54854 5.92114 0.947124 5.33736C0.345699 4.75775 0 3.95297 0 3.12736C0 2.30591 0.346135 1.49696 0.947124 0.917364C1.55287 0.333593 2.38793 0 3.2403 0C4.097 0 4.93206 0.33358 5.53824 0.917364C6.13966 1.50114 6.48536 2.30591 6.48536 3.12736C6.48536 3.94881 6.13923 4.75776 5.53824 5.33736C4.93206 5.92113 4.097 6.25472 3.2403 6.25472L3.2403 6.25472Z" transform="matrix(1 -8.2211704E-10 8.2211704E-10 1 7.6520643 9.488256)" id="Shape" fill="#FFAF10" fill-rule="evenodd" stroke="none" />
          <path d="M3.2403 6.25472C2.38793 6.25472 1.5533 5.92114 0.947124 5.33736C0.345699 4.75775 0 3.95297 0 3.12736C0 2.30591 0.346135 1.49696 0.947124 0.917364C1.55287 0.333593 2.38793 0 3.2403 0C4.097 0 4.93206 0.33358 5.53824 0.917364C6.13966 1.50114 6.48536 2.3055 6.48536 3.12736C6.48536 3.94881 6.13923 4.75776 5.53824 5.33736C4.93206 5.92114 4.097 6.25472 3.2403 6.25472L3.2403 6.25472Z" transform="matrix(1 -8.2211704E-10 8.2211704E-10 1 7.6520643 18.613585)" id="Shape" fill="#FFAF10" fill-rule="evenodd" stroke="none" />
          <path d="M3.2403 6.25472C2.38793 6.25472 1.5533 5.92114 0.947124 5.33736C0.345699 4.75775 0 3.95297 0 3.12736C0 2.30591 0.346135 1.49696 0.947124 0.917364C1.55287 0.333593 2.38793 0 3.2403 0C4.097 0 4.93206 0.33358 5.53824 0.917364C6.13966 1.50114 6.48536 2.30591 6.48536 3.12736C6.48536 3.95299 6.13923 4.75776 5.53824 5.33736C4.93206 5.92114 4.097 6.25472 3.2403 6.25472L3.2403 6.25472Z" transform="matrix(1 -8.2211704E-10 8.2211704E-10 1 7.651563 27.73505)" id="Shape" fill="#FFAF10" fill-rule="evenodd" stroke="none" />
          <path d="M18.0508 6.25472L3.24506 6.25472C1.45249 6.25472 0 4.8545 0 3.12736C0 1.40022 1.45249 0 3.24506 0L18.0508 0C19.8433 0 21.2958 1.40022 21.2958 3.12736C21.2958 4.8545 19.8429 6.25472 18.0508 6.25472L18.0508 6.25472Z" transform="matrix(1 -8.2211704E-10 8.2211704E-10 1 15.930606 9.490187)" id="Shape" fill="#FFAF10" fill-rule="evenodd" stroke="none" />
          <path d="M18.0508 6.25472L3.24506 6.25472C1.45249 6.25472 0 4.8545 0 3.12736C0 1.40022 1.45249 0 3.24506 0L18.0508 0C19.8433 0 21.2958 1.40022 21.2958 3.12736C21.2958 4.8545 19.8429 6.25472 18.0508 6.25472L18.0508 6.25472Z" transform="matrix(1 -8.2211704E-10 8.2211704E-10 1 15.9312315 18.61262)" id="Shape" fill="#FFAF10" fill-rule="evenodd" stroke="none" />
          <path d="M18.0508 6.25472L3.24506 6.25472C1.45249 6.25472 0 4.8545 0 3.12736C0 1.40022 1.45249 0 3.24506 0L18.0508 0C19.8433 0 21.2958 1.40022 21.2958 3.12736C21.2958 4.8545 19.8429 6.25472 18.0508 6.25472L18.0508 6.25472Z" transform="matrix(1 -8.2211704E-10 8.2211704E-10 1 15.93023 27.73698)" id="Shape" fill="#FFAF10" fill-rule="evenodd" stroke="none" />
        </g>
      </g>
    </g>
    <g id="brick" transform="translate(318.62622 498.11328)">
      <path d="M0 0L198.97 0L198.97 191.742L0 191.742L0 0Z" id="Background" fill="none" fill-rule="evenodd" stroke="none" />
      <g clip-path="url(#mask_7)">
        <g id="Group" transform="translate(0 4.68312)">
          <path d="M34.5298 34.333L0 34.333L0 4.05803C0 1.81705 1.88516 0 4.21101 0L30.3188 0C32.6442 0 34.5298 1.81668 34.5298 4.05803L34.5298 34.333Z" transform="translate(14.936672 52.00174)" id="Shape" fill="#83B3F1" fill-rule="evenodd" stroke="none" />
          <g id="Group" transform="translate(149.50319 103.99962)">
            <path d="M34.5298 35.3213L0 35.3213L0 4.05803C0 1.81705 1.88516 0 4.21101 0L30.3188 0C32.6442 0 34.5298 1.81668 34.5298 4.05803L34.5298 35.3213Z" id="Shape" fill="#FFDD54" fill-rule="evenodd" stroke="none" />
          </g>
          <path d="M34.5298 34.333L0 34.333L0 4.05803C0 1.81705 1.88516 0 4.21101 0L30.3188 0C32.6442 0 34.5298 1.81668 34.5298 4.05803L34.5298 34.333Z" transform="translate(89.68126 0)" id="Shape" fill="#4478BD" fill-rule="evenodd" stroke="none" />
          <path d="M34.5298 34.333L0 34.333L0 4.05803C0 1.81705 1.88516 0 4.21101 0L30.3188 0C32.6442 0 34.5298 1.81668 34.5298 4.05803L34.5298 34.333Z" transform="translate(149.50319 0)" id="Shape" fill="#39659F" fill-rule="evenodd" stroke="none" />
          <path d="M62.1139 0.000371432L68.9376 25.1417L62.1139 51.9975L4.21062 51.9975C1.88633 51.9972 0 50.1831 0 47.9395L0 4.05766C0 1.81818 1.88633 0 4.21062 0L62.1139 0L62.1139 0.000371432Z" transform="translate(0 78.37759)" id="Shape" fill="#98D3F3" fill-rule="evenodd" stroke="none" />
          <path d="M62.11 0L67.7274 23.7033L62.11 52.0009L4.21062 52.0009C1.88672 52.0009 0 50.1831 0 47.9395L0 4.0614C0 1.8178 1.88633 0 4.21062 0L62.11 0Z" transform="translate(74.745834 130.3745)" id="Shape" fill="#FFDD54" fill-rule="evenodd" stroke="none" />
          <path d="M62.1139 4.06139L62.1139 47.9395C62.1139 50.1831 60.2276 52.0009 57.9033 52.0009L0 52.0009L0 0L57.9033 0C60.2276 0 62.1139 1.8178 62.1139 4.0614L62.1139 4.06139Z" transform="translate(136.85576 130.3745)" id="Shape" fill="#F7BE48" fill-rule="evenodd" stroke="none" />
          <path d="M62.11 2.85717e-06L68.3469 26.2663L62.11 51.9968L4.21062 51.9968C1.88672 51.9968 0 50.179 0 47.9391L0 4.05765C0 1.81817 1.88633 0 4.21062 0L62.11 2.85717e-06Z" transform="translate(74.745834 26.375847)" id="Shape" fill="#39659F" fill-rule="evenodd" stroke="none" />
          <path d="M62.1139 4.05765L62.1139 47.9395C62.1139 50.179 60.2276 51.9971 57.9033 51.9971L0 51.9971L0 0L57.9033 0C60.2276 0 62.1139 1.81817 62.1139 4.05765L62.1139 4.05765Z" transform="translate(136.85576 26.375847)" id="Shape" fill="#294865" fill-rule="evenodd" stroke="none" />
          <path d="M62.11 4.05728L62.11 47.9391C62.11 50.1827 60.2237 51.9968 57.8994 51.9968L0 51.9968L0 0L57.8994 0C60.2237 0 62.11 1.8178 62.11 4.05728L62.11 4.05728Z" transform="translate(62.113922 78.37759)" id="Shape" fill="#83B3F1" fill-rule="evenodd" stroke="none" />
        </g>
      </g>
    </g>
  </g>
</svg>