<?xml version="1.0" encoding="utf-8"?>
<svg width="273px" height="273px" viewbox="0 0 273 273" version="1.1" xmlns:xlink="http://www.w3.org/1999/xlink" xmlns="http://www.w3.org/2000/svg">
  <defs>
    <path d="M0 0L273 0L273 273L0 273L0 0Z" id="path_1" />
    <clipPath id="mask_1">
      <use xlink:href="#path_1" />
    </clipPath>
  </defs>
  <g id="svg">
    <path d="M0 0L273 0L273 273L0 273L0 0Z" id="Background" fill="none" fill-rule="evenodd" stroke="none" />
    <g clip-path="url(#mask_1)">
      <path d="M127.663 97.2817C129.895 97.2817 132.186 97.2139 134.508 97.0783C149.157 122.063 148.128 148.181 148.115 148.453L158.262 148.949C158.289 148.429 158.515 143.128 157.553 135.101C158.23 128.943 170.898 119.136 181.812 112.628C182.381 112.655 183.171 112.681 184.159 112.681L184.165 112.681C211.252 112.681 241.66 97.0697 245.794 53.2678L246.317 47.7113L240.734 47.7113C218.879 47.7113 202.077 53.8761 190.8 66.0269C178.19 79.6223 176.305 96.7326 176.126 104.174C169.971 107.842 161.114 113.74 154.856 120.518C152.615 111.588 148.937 101.424 142.927 91.3503C142.698 4.41414 65.9847 0 50.5889 0C48.0422 0 46.5871 0.105834 46.5871 0.105834L41.7318 0.456411L41.8638 5.31149C41.8906 6.23072 45.3764 97.2817 127.663 97.2817L127.663 97.2817ZM198.321 72.8605C206.622 63.9571 218.926 58.983 234.946 58.0375C228.669 96.627 198.764 101.959 186.388 102.468C186.838 95.701 188.988 82.875 198.321 72.8605L198.321 72.8605L198.321 72.8605ZM132.684 87.003C130.984 87.0826 129.303 87.1217 127.663 87.1217C65.1279 87.1217 54.2598 28.3108 52.4011 10.1798C73.0454 10.5568 130.19 17.939 132.684 87.003L132.684 87.003ZM247.918 166.359C242.752 160.485 236.984 157.601 230.905 157.932C221.016 158.375 214.52 166.869 214.21 167.365C207.096 174.939 194.056 186.349 185.167 189.361C181.906 177.433 174.321 172.691 168.324 170.824C162.648 169.051 157.562 169.587 155.789 169.872C152.674 169.832 134.893 169.594 128.702 169.521C101.997 144.309 75.547 144.288 63.2497 146.099L63.2497 131.658L0 131.658L0 232.215L63.2492 232.215L63.2492 220.078C79.0928 228.354 115.233 245.358 144.736 245.358C148.612 245.358 152.376 245.061 155.961 244.419C193.942 237.567 245.788 204.248 247.977 202.832L248.864 202.105C254.394 196.403 261.313 181.592 247.918 166.359L247.918 166.359ZM53.0891 222.055L10.1602 222.055L10.1602 141.819L53.0895 141.819L53.0895 222.055L53.0891 222.055L53.0891 222.055ZM241.899 194.657C236.177 198.288 188.108 228.299 154.161 234.418C123.559 239.975 75.4815 215.218 63.2492 208.54L63.2492 156.403C72.6127 154.757 97.7487 153.398 123.079 178.212L124.561 179.661L126.631 179.661C128.119 179.661 156.119 180.038 156.119 180.038L156.662 180.045L157.198 179.939C157.238 179.925 161.127 179.224 165.308 180.527C169.838 181.936 172.955 185.092 174.763 190.125C152.888 190.191 98.1682 190.489 98.1682 190.489L98.221 200.649C98.221 200.649 167.411 200.273 181.248 200.273C196.846 200.273 219.131 176.969 221.995 173.86C223.159 172.312 227.108 168.251 231.401 168.079C234.325 168.04 237.274 169.64 240.284 173.066C249.783 183.868 243.632 192.599 241.899 194.657L241.899 194.657Z" transform="translate(10.019043 12.228027)" id="Shape" fill="#464646" fill-rule="evenodd" stroke="none" />
    </g>
  </g>
</svg>