<?xml version="1.0" encoding="utf-8"?>
<svg width="713px" height="17px" viewbox="0 0 713 17" version="1.1" xmlns:xlink="http://www.w3.org/1999/xlink" xmlns="http://www.w3.org/2000/svg">
  <g id="Group-14">
    <path d="M0 8.5C0 3.80558 4.25329 0 9.5 0C14.7467 0 19 3.80558 19 8.5C19 13.1944 14.7467 17 9.5 17C4.25329 17 0 13.1944 0 8.5Z" id="Ellipse" fill="#EDBC21" fill-rule="evenodd" stroke="none" />
    <path d="M0 8.5C0 3.80558 4.25329 0 9.5 0C14.7467 0 19 3.80558 19 8.5C19 13.1944 14.7467 17 9.5 17C4.25329 17 0 13.1944 0 8.5Z" transform="translate(29 0)" id="Ellipse-2" fill="#FC4850" fill-rule="evenodd" stroke="none" />
    <path d="M5.999 0L643.001 0Q643.148 0 643.295 0.00722606Q643.442 0.0144521 643.589 0.0288868Q643.736 0.0433215 643.881 0.0649301Q644.027 0.0865387 644.171 0.115269Q644.316 0.143999 644.459 0.179782Q644.601 0.215565 644.742 0.258315Q644.883 0.301064 645.022 0.350677Q645.161 0.40029 645.297 0.456647Q645.433 0.513003 645.566 0.575968Q645.699 0.638933 645.829 0.708354Q645.959 0.777776 646.085 0.853486Q646.211 0.929196 646.334 1.01101Q646.456 1.09283 646.575 1.18056Q646.693 1.26828 646.807 1.36171Q646.921 1.45514 647.03 1.55403Q647.139 1.65293 647.243 1.75707Q647.347 1.8612 647.446 1.97032Q647.545 2.07944 647.638 2.19327Q647.732 2.30711 647.819 2.4254Q647.907 2.54369 647.989 2.66613Q648.071 2.78858 648.146 2.9149Q648.222 3.04121 648.292 3.17109Q648.361 3.30097 648.424 3.4341Q648.487 3.56722 648.543 3.70328Q648.6 3.83934 648.649 3.978Q648.699 4.11666 648.742 4.25758Q648.784 4.39851 648.82 4.54136Q648.856 4.68422 648.885 4.82865Q648.913 4.97309 648.935 5.11876Q648.957 5.26444 648.971 5.411Q648.986 5.55755 648.993 5.70464Q649 5.85173 649 5.999L649 6.001Q649 6.14827 648.993 6.29536Q648.986 6.44245 648.971 6.589Q648.957 6.73556 648.935 6.88124Q648.913 7.02691 648.885 7.17135Q648.856 7.31578 648.82 7.45864Q648.784 7.60149 648.742 7.74242Q648.699 7.88334 648.649 8.022Q648.6 8.16066 648.543 8.29672Q648.487 8.43277 648.424 8.5659Q648.361 8.69903 648.292 8.82891Q648.222 8.95879 648.146 9.0851Q648.071 9.21142 647.989 9.33387Q647.907 9.45631 647.819 9.5746Q647.732 9.69289 647.638 9.80673Q647.545 9.92056 647.446 10.0297Q647.347 10.1388 647.243 10.2429Q647.139 10.3471 647.03 10.446Q646.921 10.5449 646.807 10.6383Q646.693 10.7317 646.575 10.8194Q646.456 10.9072 646.334 10.989Q646.211 11.0708 646.085 11.1465Q645.959 11.2222 645.829 11.2916Q645.699 11.3611 645.566 11.424Q645.433 11.487 645.297 11.5434Q645.161 11.5997 645.022 11.6493Q644.883 11.6989 644.742 11.7417Q644.601 11.7844 644.459 11.8202Q644.316 11.856 644.171 11.8847Q644.027 11.9135 643.881 11.9351Q643.736 11.9567 643.589 11.9711Q643.442 11.9855 643.295 11.9928Q643.148 12 643.001 12L5.999 12Q5.85173 12 5.70464 11.9928Q5.55755 11.9855 5.411 11.9711Q5.26444 11.9567 5.11876 11.9351Q4.97309 11.9135 4.82865 11.8847Q4.68422 11.856 4.54136 11.8202Q4.39851 11.7844 4.25758 11.7417Q4.11666 11.6989 3.978 11.6493Q3.83934 11.5997 3.70328 11.5434Q3.56722 11.487 3.4341 11.424Q3.30097 11.3611 3.17109 11.2916Q3.04121 11.2222 2.9149 11.1465Q2.78858 11.0708 2.66613 10.989Q2.54369 10.9072 2.4254 10.8194Q2.30711 10.7317 2.19327 10.6383Q2.07944 10.5449 1.97032 10.446Q1.8612 10.3471 1.75707 10.2429Q1.65293 10.1388 1.55403 10.0297Q1.45514 9.92056 1.36171 9.80673Q1.26829 9.69289 1.18056 9.5746Q1.09283 9.45631 1.01101 9.33386Q0.929196 9.21142 0.853486 9.0851Q0.777776 8.95879 0.708354 8.82891Q0.638933 8.69903 0.575968 8.5659Q0.513003 8.43277 0.456647 8.29672Q0.40029 8.16066 0.350677 8.022Q0.301064 7.88334 0.258315 7.74242Q0.215565 7.60149 0.179782 7.45864Q0.143999 7.31578 0.115269 7.17135Q0.0865387 7.02691 0.0649301 6.88124Q0.0433215 6.73556 0.0288868 6.589Q0.0144521 6.44245 0.00722606 6.29536Q0 6.14827 0 6.001L0 5.999Q0 5.85173 0.00722606 5.70464Q0.0144521 5.55755 0.0288868 5.411Q0.0433215 5.26444 0.0649301 5.11876Q0.0865387 4.97309 0.115269 4.82865Q0.143999 4.68422 0.179782 4.54136Q0.215565 4.39851 0.258315 4.25758Q0.301064 4.11666 0.350677 3.978Q0.40029 3.83934 0.456647 3.70328Q0.513003 3.56722 0.575968 3.4341Q0.638933 3.30097 0.708354 3.17109Q0.777776 3.04121 0.853486 2.9149Q0.929196 2.78858 1.01101 2.66613Q1.09283 2.54369 1.18056 2.4254Q1.26828 2.30711 1.36171 2.19327Q1.45514 2.07944 1.55403 1.97032Q1.65293 1.8612 1.75707 1.75707Q1.8612 1.65293 1.97032 1.55403Q2.07944 1.45514 2.19327 1.36171Q2.30711 1.26829 2.4254 1.18056Q2.54369 1.09283 2.66613 1.01101Q2.78858 0.929196 2.9149 0.853486Q3.04121 0.777776 3.17109 0.708354Q3.30097 0.638933 3.4341 0.575968Q3.56722 0.513003 3.70328 0.456647Q3.83934 0.40029 3.978 0.350677Q4.11666 0.301064 4.25758 0.258315Q4.39851 0.215565 4.54136 0.179782Q4.68422 0.143999 4.82865 0.115269Q4.97309 0.0865387 5.11876 0.0649301Q5.26444 0.0433215 5.411 0.0288868Q5.55755 0.0144521 5.70464 0.00722606Q5.85173 0 5.999 0L5.999 0Z" transform="translate(63.19995 3)" id="Rectangle-10" fill="#D3D3D3" fill-rule="evenodd" stroke="none" />
  </g>
</svg>