<svg width="888" height="784" xmlns="http://www.w3.org/2000/svg" xmlns:xlink="http://www.w3.org/1999/xlink" overflow="hidden"><defs><clipPath id="clip0"><rect x="135" y="14" width="888" height="784"/></clipPath></defs><g clip-path="url(#clip0)" transform="translate(-135 -14)"><path d="M227 142.167C227 133.238 234.238 126 243.167 126L358 126 358 126 554.5 126 996.833 126C1005.76 126 1013 133.238 1013 142.167L1013 142.167 1013 142.167 1013 166.417 1013 206.833C1013 215.762 1005.76 223 996.833 223L554.5 223 358 223 358 223 243.167 223C234.238 223 227 215.762 227 206.833L227 166.417 205.377 174.086 227 142.167Z" fill="#D9D9D9" fill-rule="evenodd"/><path d="M229 30.1671C229 21.2383 236.238 14 245.167 14L360 14 360 14 556.5 14 998.833 14C1007.76 14 1015 21.2383 1015 30.1671L1015 30.1671 1015 30.1671 1015 54.4169 1015 94.8329C1015 103.762 1007.76 111 998.833 111L556.5 111 360 111 360 111 245.167 111C236.238 111 229 103.762 229 94.8329L229 54.4169 207.377 62.0861 229 30.1671Z" fill="#D9D9D9" fill-rule="evenodd"/><path d="M144 72C144 57.0883 156.088 45 171 45 185.912 45 198 57.0883 198 72 198 86.9117 185.912 99 171 99 156.088 99 144 86.9117 144 72Z" stroke="#EF8318" stroke-width="4" stroke-miterlimit="8" fill="#FFFFFF" fill-rule="evenodd"/><text font-family="Arial,Arial_MSFontService,sans-serif" font-weight="700" font-size="24" transform="translate(151.599 80)">Lv1<tspan fill="#404040" font-size="24" x="86.9995" y="-24">Học các hàm cơ bản của python, ứng dụng làm một phần mềm </tspan><tspan fill="#404040" font-size="24" x="86.9995" y="5">quản lý đơn giản tương tác với kiểu dữ liệu list</tspan><tspan fill="#404040" font-size="24" x="626" y="5">.</tspan></text><path d="M0 0 0.40063 46.9501" stroke="#EF8318" stroke-width="4" stroke-miterlimit="8" fill="none" fill-rule="evenodd" transform="matrix(-1 0 0 1 171.401 99)"/><path d="M144 173C144 158.088 156.088 146 171 146 185.912 146 198 158.088 198 173 198 187.912 185.912 200 171 200 156.088 200 144 187.912 144 173Z" stroke="#EF8318" stroke-width="4" stroke-miterlimit="8" fill="#FFFFFF" fill-rule="evenodd"/><text font-family="Arial,Arial_MSFontService,sans-serif" font-weight="700" font-size="24" transform="translate(151.199 180)">Lv2<tspan fill="#404040" font-size="24" x="87.4001" y="-10">Học lưu đồ thuật toán, cách tạo và dùng hàm, làm quen cách dùng </tspan><tspan fill="#404040" font-size="24" x="87.4001" y="19">thư viện. </tspan></text><path d="M171 200 171 251.655" stroke="#EF8318" stroke-width="4" stroke-miterlimit="8" fill="none" fill-rule="evenodd"/><path d="M227 254.167C227 245.238 234.238 238 243.167 238L358 238 358 238 554.5 238 996.833 238C1005.76 238 1013 245.238 1013 254.167L1013 254.167 1013 254.167 1013 278.417 1013 318.833C1013 327.762 1005.76 335 996.833 335L554.5 335 358 335 358 335 243.167 335C234.238 335 227 327.762 227 318.833L227 278.417 205.377 286.086 227 254.167Z" fill="#D9D9D9" fill-rule="evenodd"/><path d="M144 278C144 263.088 156.088 251 171 251 185.912 251 198 263.088 198 278 198 292.912 185.912 305 171 305 156.088 305 144 292.912 144 278Z" stroke="#EF8318" stroke-width="4" stroke-miterlimit="8" fill="#FFFFFF" fill-rule="evenodd"/><text font-family="Arial,Arial_MSFontService,sans-serif" font-weight="700" font-size="24" transform="translate(151.199 286)">Lv3<tspan fill="#404040" font-size="24" x="87.4001" y="-10">Học d</tspan><tspan fill="#404040" font-size="24" x="154.067" y="-10">ung </tspan><tspan fill="#404040" font-size="24" x="204.733" y="-10">class, oop cơ bản thư viện tkinter, tư duy </tspan><tspan fill="#404040" font-size="24" x="683.073" y="-10">UX</tspan><tspan fill="#404040" font-size="24" x="716.407" y="-10">/UI. Ứng </tspan><tspan fill="#404040" font-size="24" x="87.4001" y="19">dụng làm giao diện cho trang web</tspan></text><path d="M171 305 171 365.41" stroke="#EF8318" stroke-width="4" stroke-miterlimit="8" fill="none" fill-rule="evenodd"/><path d="M225 368.167C225 359.238 232.238 352 241.167 352L356 352 356 352 552.5 352 994.833 352C1003.76 352 1011 359.238 1011 368.167L1011 368.167 1011 368.167 1011 392.417 1011 432.833C1011 441.762 1003.76 449 994.833 449L552.5 449 356 449 356 449 241.167 449C232.238 449 225 441.762 225 432.833L225 392.417 203.377 400.086 225 368.167Z" fill="#D9D9D9" fill-rule="evenodd"/><path d="M144 392C144 377.088 156.088 365 171 365 185.912 365 198 377.088 198 392 198 406.912 185.912 419 171 419 156.088 419 144 406.912 144 392Z" stroke="#EF8318" stroke-width="4" stroke-miterlimit="8" fill="#FFFFFF" fill-rule="evenodd"/><text font-family="Arial,Arial_MSFontService,sans-serif" font-weight="700" font-size="24" transform="translate(151.199 400)">Lv4<tspan fill="#404040" font-size="24" x="85.4006" y="11">Học pygame. Làm game sử dụng OOP nâng cao</tspan></text><path d="M171 419 171 480.103" stroke="#EF8318" stroke-width="4" stroke-miterlimit="8" fill="none" fill-rule="evenodd"/><path d="M227 485.167C227 476.238 234.238 469 243.167 469L358 469 358 469 554.5 469 996.833 469C1005.76 469 1013 476.238 1013 485.167L1013 485.167 1013 485.167 1013 509.417 1013 549.833C1013 558.762 1005.76 566 996.833 566L554.5 566 358 566 358 566 243.167 566C234.238 566 227 558.762 227 549.833L227 509.417 205.377 517.086 227 485.167Z" fill="#D9D9D9" fill-rule="evenodd"/><path d="M144 507C144 492.088 156.088 480 171 480 185.912 480 198 492.088 198 507 198 521.912 185.912 534 171 534 156.088 534 144 521.912 144 507Z" stroke="#EF8318" stroke-width="4" stroke-miterlimit="8" fill="#FFFFFF" fill-rule="evenodd"/><text font-family="Arial,Arial_MSFontService,sans-serif" font-weight="700" font-size="24" transform="translate(149.637 517)">Lv5<tspan fill="#404040" font-size="24" x="88.9618" y="-3">Tiếp cận </tspan><tspan fill="#404040" font-size="24" x="192.528" y="-3">W</tspan><tspan fill="#404040" font-size="24" x="214.762" y="-3">o</tspan><tspan fill="#404040" font-size="24" x="229.428" y="-3">r</tspan><tspan fill="#404040" font-size="24" x="238.762" y="-3">dpress, thiết kế website, plugin, slideshow các thứ, </tspan><tspan fill="#404040" font-size="24" x="88.9618" y="26">ứng dụng làm ưebsite đơn giản</tspan></text><path d="M171 534 171.395 597.58" stroke="#EF8318" stroke-width="4" stroke-miterlimit="8" fill="none" fill-rule="evenodd"/><path d="M229 600.167C229 591.238 236.238 584 245.167 584L360 584 360 584 556.5 584 998.833 584C1007.76 584 1015 591.238 1015 600.167L1015 600.167 1015 600.167 1015 624.417 1015 664.833C1015 673.762 1007.76 681 998.833 681L556.5 681 360 681 360 681 245.167 681C236.238 681 229 673.762 229 664.833L229 624.417 207.377 632.086 229 600.167Z" fill="#D9D9D9" fill-rule="evenodd"/><path d="M144 624.5C144 609.864 156.088 598 171 598 185.912 598 198 609.864 198 624.5 198 639.136 185.912 651 171 651 156.088 651 144 639.136 144 624.5Z" stroke="#EF8318" stroke-width="4" stroke-miterlimit="8" fill="#FFFFFF" fill-rule="evenodd"/><text font-family="Arial,Arial_MSFontService,sans-serif" font-weight="700" font-size="24" transform="translate(151.594 632)">Lv6<tspan fill="#404040" font-size="24" x="93.926" y="9">Html, ứng dụng làm web thông tin</tspan><tspan fill="#404040" font-size="24" x="483.259" y="9">.</tspan></text><path d="M171 651 171.606 712.935" stroke="#EF8318" stroke-width="4" stroke-miterlimit="8" fill="none" fill-rule="evenodd"/><path d="M229 716.167C229 707.238 236.238 700 245.167 700L360 700 360 700 556.5 700 998.833 700C1007.76 700 1015 707.238 1015 716.167L1015 716.167 1015 716.167 1015 740.417 1015 780.833C1015 789.762 1007.76 797 998.833 797L556.5 797 360 797 360 797 245.167 797C236.238 797 229 789.762 229 780.833L229 740.417 207.377 748.086 229 716.167Z" fill="#D9D9D9" fill-rule="evenodd"/><path d="M145 740C145 725.088 157.088 713 172 713 186.912 713 199 725.088 199 740 199 754.912 186.912 767 172 767 157.088 767 145 754.912 145 740Z" stroke="#EF8318" stroke-width="4" stroke-miterlimit="8" fill="#FFFFFF" fill-rule="evenodd"/><text font-family="Arial,Arial_MSFontService,sans-serif" font-weight="700" font-size="24" transform="translate(152.199 748)">Lv7<tspan fill="#404040" font-size="24" x="92.859" y="9">Framework, bootstrap</tspan><tspan fill="#404040" font-size="24" x="344.859" y="9">.</tspan></text></g></svg>