<?xml version="1.0" encoding="utf-8"?>
<svg width="1319px" height="649px" viewbox="0 0 1319 649" version="1.1" xmlns:xlink="http://www.w3.org/1999/xlink" xmlns="http://www.w3.org/2000/svg">
  <path d="M0 0L5 0L5 60L0 60L0 0Z" transform="translate(41.9104 84.65137)" id="Rectangle-19" fill="#EF8318" fill-rule="evenodd" stroke="none" />
  <path d="M0 0L5 0L5 60L0 60L0 0Z" transform="translate(41.9104 214.14746)" id="Rectangle-20" fill="#EF8318" fill-rule="evenodd" stroke="none" />
  <path d="M0 0L5 0L5 60L0 60L0 0Z" transform="translate(42.010498 344.14746)" id="Rectangle-21" fill="#EF8318" fill-rule="evenodd" stroke="none" />
  <path d="M0 35C0 15.67 18.3563 0 41 0C63.6437 0 82 15.67 82 35C82 54.33 63.6437 70 41 70C18.3563 70 0 54.33 0 35Z" transform="translate(3.9104004 14.147461)" id="Ellipse-24" fill="#E2DBDB" fill-opacity="0.49803922" fill-rule="evenodd" stroke="#EF8318" stroke-width="4" />
  <path d="M0 35C0 15.67 18.3563 0 41 0C63.6437 0 82 15.67 82 35C82 54.33 63.6437 70 41 70C18.3563 70 0 54.33 0 35Z" transform="translate(3.9104004 13.147461)" id="Ellipse-25" fill="#E2DBDB" fill-opacity="0.09960785" fill-rule="evenodd" stroke="#EF8318" stroke-opacity="0.2" stroke-width="4" />
  <path d="M0 35C0 15.67 18.3563 0 41 0C63.6437 0 82 15.67 82 35C82 54.33 63.6437 70 41 70C18.3563 70 0 54.33 0 35Z" transform="translate(3.7106934 144.14746)" id="Ellipse-26" fill="#E2DBDB" fill-opacity="0.49803922" fill-rule="evenodd" stroke="#EF8318" stroke-width="4" />
  <path d="M0 35C0 15.67 18.3563 0 41 0C63.6437 0 82 15.67 82 35C82 54.33 63.6437 70 41 70C18.3563 70 0 54.33 0 35Z" transform="translate(3.8103027 274.14746)" id="Ellipse-27" fill="#E2DBDB" fill-opacity="0.49803922" fill-rule="evenodd" stroke="#EF8318" stroke-width="4" />
  <path d="M0 35C0 15.67 18.3563 0 41 0C63.6437 0 82 15.67 82 35C82 54.33 63.6437 70 41 70C18.3563 70 0 54.33 0 35Z" transform="translate(4.010498 401.5498)" id="Ellipse-28" fill="#E2DBDB" fill-opacity="0.49803922" fill-rule="evenodd" stroke="#EF8318" stroke-width="4" />
  <g id="1" transform="translate(34.9104 25.64746)">
    <path d="M14.625 10.834L14.625 36.6035L9.08789 36.6035L9.08789 17.0918Q8.63086 17.4961 8.00684 17.8564Q7.38281 18.2168 6.67969 18.5068Q5.97656 18.7969 5.2207 18.999Q4.46484 19.2012 3.72656 19.2891L3.72656 14.6133Q5.88867 13.9805 7.80469 12.9961Q9.7207 12.0117 11.2676 10.834L14.625 10.834Z" />
  </g>
  <g id="2" transform="translate(34.9104 154.64746)">
    <path d="M7.54102 31.998L18.2285 31.998L18.2285 36.6035L1.45898 36.6035L1.45898 34.7051Q1.45898 32.7715 2.10938 31.2334Q2.75977 29.6953 3.74414 28.4736Q4.72852 27.252 5.89746 26.3115Q7.06641 25.3711 8.12109 24.6152Q9.22851 23.8242 10.0635 23.1035Q10.8984 22.3828 11.4697 21.6709Q12.041 20.959 12.3223 20.2295Q12.6035 19.5 12.6035 18.6738Q12.6035 17.0566 11.6895 16.2305Q10.7754 15.4043 8.89453 15.4043Q5.64258 15.4043 2.67188 17.9883L2.67188 13.1016Q5.95898 10.9746 10.0898 10.9746Q12.0059 10.9746 13.5264 11.4756Q15.0469 11.9766 16.1016 12.9082Q17.1563 13.8398 17.71 15.167Q18.2637 16.4941 18.2637 18.1289Q18.2637 19.8691 17.7275 21.2227Q17.1914 22.5762 16.3037 23.6836Q15.416 24.791 14.2559 25.7139Q13.0957 26.6367 11.8477 27.498Q11.0039 28.0957 10.2217 28.6846Q9.43945 29.2734 8.8418 29.8447Q8.24414 30.416 7.89258 30.9609Q7.54101 31.5059 7.54102 31.998Z" />
  </g>
  <g id="3" transform="translate(35.110596 285.14746)">
    <path d="M2.05664 35.7773L2.05664 30.9434Q4.58789 32.7891 7.96289 32.7891Q10.0898 32.7891 11.2764 31.875Q12.4629 30.9609 12.4629 29.3262Q12.4629 27.6387 10.9951 26.7246Q9.52734 25.8105 6.96094 25.8105L4.62305 25.8105L4.62305 21.5566L6.78516 21.5566Q11.707 21.5566 11.707 18.2871Q11.707 15.2109 7.92773 15.2109Q5.39648 15.2109 3.00586 16.8457L3.00586 12.3105Q5.66016 10.9746 9.19336 10.9746Q13.0605 10.9746 15.2139 12.7148Q17.3672 14.4551 17.3672 17.2324Q17.3672 22.1719 12.3574 23.4199L12.3574 23.5078Q15.0293 23.8418 16.5762 25.4502Q18.123 27.0586 18.123 29.3965Q18.123 32.9297 15.5391 34.9863Q12.9551 37.043 8.40234 37.043Q4.5 37.043 2.05664 35.7773Z" />
  </g>
  <g id="4" transform="translate(33.9104 405.15527)">
    <path d="M16.7344 11.3965L16.7344 27.2871L19.7578 27.2871L19.7578 31.4355L16.7344 31.4355L16.7344 36.6035L11.6719 36.6035L11.6719 31.4355L0.685547 31.4355L0.685547 27.0938Q2.14453 25.459 3.70898 23.5166Q5.27344 21.5742 6.73242 19.5176Q8.19141 17.4609 9.44824 15.3779Q10.7051 13.2949 11.584 11.3965L16.7344 11.3965ZM5.66016 27.2871L11.6719 27.2871L11.6719 18.4805Q11.0566 19.623 10.3359 20.792Q9.61523 21.9609 8.82422 23.0947Q8.0332 24.2285 7.22461 25.292Q6.41602 26.3555 5.66016 27.2871Z" />
  </g>
  <path d="M19.999 0L1179 0Q1179.49 0 1179.98 0.0240897Q1180.47 0.0481793 1180.96 0.0963006Q1181.45 0.144422 1181.94 0.216459Q1182.42 0.288496 1182.9 0.384275Q1183.38 0.480054 1183.86 0.599345Q1184.34 0.718635 1184.81 0.86115Q1185.28 1.00366 1185.74 1.16906Q1186.2 1.33446 1186.65 1.52233Q1187.11 1.71021 1187.55 1.92012Q1188 2.13003 1188.43 2.36146Q1188.86 2.59289 1189.28 2.84529Q1189.7 3.09768 1190.11 3.37044Q1190.52 3.64319 1190.91 3.93565Q1191.31 4.22811 1191.69 4.53956Q1192.07 4.85102 1192.43 5.18072Q1192.8 5.51042 1193.14 5.85757Q1193.49 6.20472 1193.82 6.56849Q1194.15 6.93226 1194.46 7.31177Q1194.77 7.69128 1195.06 8.08561Q1195.36 8.47994 1195.63 8.88815Q1195.9 9.29636 1196.15 9.71746Q1196.41 10.1386 1196.64 10.5715Q1196.87 11.0045 1197.08 11.4483Q1197.29 11.8921 1197.48 12.3457Q1197.67 12.7993 1197.83 13.2615Q1198 13.7238 1198.14 14.1936Q1198.28 14.6634 1198.4 15.1396Q1198.52 15.6159 1198.62 16.0974Q1198.71 16.5789 1198.78 17.0645Q1198.86 17.5502 1198.9 18.0388Q1198.95 18.5273 1198.98 19.0177Q1199 19.5081 1199 19.999L1199 77.0229Q1199 77.5139 1198.98 78.0042Q1198.95 78.4946 1198.9 78.9832Q1198.86 79.4718 1198.78 79.9574Q1198.71 80.443 1198.62 80.9245Q1198.52 81.406 1198.4 81.8823Q1198.28 82.3585 1198.14 82.8283Q1198 83.2981 1197.83 83.7604Q1197.67 84.2226 1197.48 84.6762Q1197.29 85.1298 1197.08 85.5736Q1196.87 86.0174 1196.64 86.4504Q1196.41 86.8834 1196.15 87.3045Q1195.9 87.7256 1195.63 88.1338Q1195.36 88.542 1195.06 88.9363Q1194.77 89.3307 1194.46 89.7102Q1194.15 90.0897 1193.82 90.4534Q1193.49 90.8172 1193.14 91.1644Q1192.8 91.5115 1192.43 91.8412Q1192.07 92.1709 1191.69 92.4824Q1191.31 92.7938 1190.91 93.0863Q1190.52 93.3787 1190.11 93.6515Q1189.7 93.9242 1189.28 94.1766Q1188.86 94.429 1188.43 94.6605Q1188 94.8919 1187.55 95.1018Q1187.11 95.3117 1186.65 95.4996Q1186.2 95.6875 1185.74 95.8529Q1185.28 96.0183 1184.81 96.1608Q1184.34 96.3033 1183.86 96.4226Q1183.38 96.5419 1182.9 96.6376Q1182.42 96.7334 1181.94 96.8055Q1181.45 96.8775 1180.96 96.9256Q1180.47 96.9738 1179.98 96.9978Q1179.49 97.0219 1179 97.0219L19.999 97.0219Q19.5081 97.0219 19.0177 96.9978Q18.5273 96.9738 18.0388 96.9256Q17.5502 96.8775 17.0645 96.8055Q16.5789 96.7334 16.0974 96.6376Q15.6159 96.5419 15.1396 96.4226Q14.6634 96.3033 14.1936 96.1608Q13.7238 96.0183 13.2615 95.8529Q12.7993 95.6875 12.3457 95.4996Q11.8921 95.3117 11.4483 95.1018Q11.0045 94.8919 10.5715 94.6605Q10.1386 94.429 9.71746 94.1766Q9.29636 93.9242 8.88815 93.6515Q8.47994 93.3787 8.08561 93.0863Q7.69128 92.7938 7.31177 92.4824Q6.93226 92.1709 6.56849 91.8412Q6.20472 91.5115 5.85757 91.1644Q5.51042 90.8172 5.18072 90.4534Q4.85102 90.0897 4.53956 89.7102Q4.22811 89.3307 3.93565 88.9363Q3.64319 88.542 3.37044 88.1338Q3.09768 87.7256 2.84529 87.3045Q2.59289 86.8834 2.36146 86.4504Q2.13003 86.0174 1.92012 85.5736Q1.71021 85.1298 1.52233 84.6762Q1.33446 84.2226 1.16906 83.7604Q1.00366 83.2981 0.86115 82.8283Q0.718635 82.3585 0.599345 81.8823Q0.480054 81.406 0.384275 80.9245Q0.288496 80.443 0.216459 79.9574Q0.144422 79.4718 0.0963006 78.9832Q0.0481793 78.4946 0.0240897 78.0042Q0 77.5139 0 77.0229L0 19.999Q0 19.5081 0.0240897 19.0177Q0.0481793 18.5273 0.0963006 18.0388Q0.144422 17.5502 0.216459 17.0645Q0.288496 16.5789 0.384275 16.0974Q0.480054 15.6159 0.599345 15.1396Q0.718635 14.6634 0.86115 14.1936Q1.00366 13.7238 1.16906 13.2615Q1.33446 12.7993 1.52233 12.3457Q1.71021 11.8921 1.92012 11.4483Q2.13003 11.0045 2.36146 10.5715Q2.59289 10.1386 2.84529 9.71746Q3.09768 9.29636 3.37044 8.88815Q3.64319 8.47994 3.93565 8.08561Q4.22811 7.69128 4.53956 7.31177Q4.85102 6.93226 5.18072 6.56849Q5.51042 6.20472 5.85757 5.85757Q6.20472 5.51042 6.56849 5.18072Q6.93226 4.85102 7.31177 4.53956Q7.69128 4.22811 8.08561 3.93565Q8.47994 3.64319 8.88815 3.37044Q9.29636 3.09768 9.71746 2.84529Q10.1386 2.59289 10.5715 2.36146Q11.0045 2.13003 11.4483 1.92012Q11.8921 1.71021 12.3457 1.52233Q12.7993 1.33446 13.2615 1.16906Q13.7238 1.00366 14.1936 0.86115Q14.6634 0.718635 15.1396 0.599345Q15.6159 0.480054 16.0974 0.384275Q16.5789 0.288496 17.0645 0.216459Q17.5502 0.144422 18.0388 0.0963006Q18.5273 0.0481793 19.0177 0.0240897Q19.5081 0 19.999 0L19.999 0Z" transform="translate(119.923584 0)" id="Rectangle-22" fill="#E2DBDB" fill-opacity="0.49803922" fill-rule="evenodd" stroke="none" />
  <g id="Phần-1-Giới-thiệu-chung-về-JavaWeb-và-cách-cài-đặt-công-cụ." transform="translate(163.12329 20.09961)">
    <path d="M49.0957 12.5215L45.6328 12.5215L40.9922 8.19727L45.9141 8.19727L49.0957 12.5215ZM447.891 12.5215L451.354 12.5215L448.172 8.19727L443.25 8.19727L447.891 12.5215ZM36.1934 36.6035L41.7305 36.6035L41.7305 25.5469Q41.7305 18.1641 35.6133 18.1641Q32.1152 18.1641 30.0762 21.2754L30.0059 21.2754L30.0059 9.95508L24.4512 9.95508L24.4512 36.6035L30.0059 36.6035L30.0059 26.3379Q30.0059 24.6328 30.9199 23.5254Q31.834 22.418 33.3105 22.418Q36.1934 22.418 36.1934 26.373L36.1934 36.6035ZM242.016 36.6035L247.553 36.6035L247.553 25.5469Q247.553 18.1641 241.436 18.1641Q237.938 18.1641 235.898 21.2754L235.828 21.2754L235.828 9.95508L230.273 9.95508L230.273 36.6035L235.828 36.6035L235.828 26.3379Q235.828 24.6328 236.742 23.5254Q237.656 22.418 239.133 22.418Q242.016 22.418 242.016 26.373L242.016 36.6035ZM347.924 36.6035L342.387 36.6035L342.387 26.373Q342.387 22.418 339.504 22.418Q338.027 22.418 337.113 23.5254Q336.199 24.6328 336.199 26.3379L336.199 36.6035L330.645 36.6035L330.645 9.95508L336.199 9.95508L336.199 21.2754L336.27 21.2754Q338.309 18.1641 341.807 18.1641Q347.924 18.1641 347.924 25.5469L347.924 36.6035ZM612.58 34.5117L612.51 34.5117L612.51 36.6035L606.955 36.6035L606.955 9.95508L612.51 9.95508L612.51 21.3105L612.58 21.3105Q614.637 18.1641 618.434 18.1641Q621.914 18.1641 623.795 20.5547Q625.676 22.9453 625.676 27.0938Q625.676 31.5938 623.479 34.3184Q621.281 37.043 617.607 37.043Q614.285 37.043 612.58 34.5117ZM759.234 36.6035L753.697 36.6035L753.697 26.373Q753.697 22.418 750.814 22.418Q749.338 22.418 748.424 23.5254Q747.51 24.6328 747.51 26.3379L747.51 36.6035L741.955 36.6035L741.955 9.95508L747.51 9.95508L747.51 21.2754L747.58 21.2754Q749.619 18.1641 753.117 18.1641Q759.234 18.1641 759.234 25.5469L759.234 36.6035ZM850.5 16.0195L847.986 16.0195L847.986 36.6035L842.432 36.6035L842.432 34.125L842.361 34.125Q840.463 37.043 836.789 37.043Q833.414 37.043 831.357 34.6611Q829.301 32.2793 829.301 28.0078Q829.301 23.543 831.568 20.8535Q833.836 18.1641 837.51 18.1641Q840.99 18.1641 842.361 20.6602L842.432 20.6602L842.432 16.0195L836.631 16.0195L836.631 12.416L842.432 12.416L842.432 9.95508L847.986 9.95508L847.986 12.416L850.5 12.416L850.5 16.0195ZM163.705 14.9209Q164.602 15.7559 166.008 15.7559Q167.432 15.7559 168.319 14.9473Q169.207 14.1387 169.207 12.873Q169.207 11.625 168.319 10.834Q167.432 10.043 166.008 10.043Q164.602 10.043 163.705 10.834Q162.809 11.625 162.809 12.873Q162.809 14.0859 163.705 14.9209ZM196.611 14.9209Q197.508 15.7559 198.914 15.7559Q200.338 15.7559 201.226 14.9473Q202.113 14.1387 202.113 12.873Q202.113 11.625 201.226 10.834Q200.338 10.043 198.914 10.043Q197.508 10.043 196.611 10.834Q195.715 11.625 195.715 12.873Q195.715 14.0859 196.611 14.9209ZM254.76 15.7559Q253.354 15.7559 252.457 14.9209Q251.561 14.0859 251.561 12.873Q251.561 11.625 252.457 10.834Q253.354 10.043 254.76 10.043Q256.184 10.043 257.071 10.834Q257.959 11.625 257.959 12.873Q257.959 14.1387 257.071 14.9473Q256.184 15.7559 254.76 15.7559ZM272.83 15.7559L276.469 15.7559L272.32 10.043L267.961 10.043L263.83 15.7559L267.469 15.7559L270.053 12.4512L272.83 15.7559ZM810.721 14.9209Q811.617 15.7559 813.023 15.7559Q814.447 15.7559 815.335 14.9473Q816.223 14.1387 816.223 12.873Q816.223 11.625 815.335 10.834Q814.447 10.043 813.023 10.043Q811.617 10.043 810.721 10.834Q809.824 11.625 809.824 12.873Q809.824 14.0859 810.721 14.9209ZM928.758 15.7559L925.119 15.7559L922.342 12.4512L919.758 15.7559L916.119 15.7559L920.25 10.043L924.609 10.043L928.758 15.7559ZM188.016 10.0781L182.514 15.7559L178.506 15.7559L183.076 10.0781L188.016 10.0781ZM670.008 15.7559L666.018 15.7559L660.498 10.0781L665.438 10.0781L670.008 15.7559ZM718.629 10.0781L713.127 15.7559L709.119 15.7559L713.689 10.0781L718.629 10.0781ZM802.125 15.7559L798.135 15.7559L792.615 10.0781L797.555 10.0781L802.125 15.7559ZM865.099 14.2969Q866.689 12.8379 866.9 10.3594L863.736 10.3594Q863.402 12.7324 860.994 12.7324Q858.498 12.7324 858.199 10.3594L855.053 10.3594Q855.123 12.75 856.74 14.2529Q858.357 15.7559 860.924 15.7559Q863.508 15.7559 865.099 14.2969ZM59.6777 15.1758L56.1445 15.1758L53.666 12.7676L50.9941 15.1758L47.4609 15.1758L51.4688 10.7988L55.6699 10.7988L59.6777 15.1758ZM458.402 15.1758L461.936 15.1758L457.928 10.7988L453.727 10.7988L449.719 15.1758L453.252 15.1758L455.924 12.7676L458.402 15.1758ZM109.494 10.834L109.494 36.6035L103.957 36.6035L103.957 17.0918Q103.5 17.4961 102.876 17.8564Q102.252 18.2168 101.549 18.5068Q100.846 18.7969 100.09 18.999Q99.334 19.2012 98.5957 19.2891L98.5957 14.6133Q100.758 13.9805 102.674 12.9961Q104.59 12.0117 106.137 10.834L109.494 10.834ZM158.836 34.916Q155.145 37.043 149.66 37.043Q143.578 37.043 140.071 33.6768Q136.564 30.3105 136.564 24.4043Q136.564 18.4629 140.396 14.7188Q144.229 10.9746 150.592 10.9746Q154.6 10.9746 157.658 12.082L157.658 17.4082Q154.74 15.7207 150.521 15.7207Q146.988 15.7207 144.765 18.0146Q142.541 20.3086 142.541 24.1406Q142.541 28.0254 144.536 30.1523Q146.531 32.2793 149.924 32.2793Q151.963 32.2793 153.158 31.6992L153.158 26.7773L148.113 26.7773L148.113 22.2422L158.836 22.2422L158.836 34.916ZM8.56055 36.6035L8.56055 27.9199L11.2676 27.9199Q15.8379 27.9199 18.5713 25.5732Q21.3047 23.2266 21.3047 19.4297Q21.3047 11.3965 11.7773 11.3965L2.88281 11.3965L2.88281 36.6035L8.56055 36.6035ZM488.074 26.6016Q488.074 31.6641 485.728 34.3535Q483.381 37.043 478.934 37.043Q476.947 37.043 475.26 36.3574L475.26 31.0313Q476.719 32.1387 478.529 32.1387Q482.414 32.1387 482.414 26.373L482.414 11.3965L488.074 11.3965L488.074 26.6016ZM584.824 11.3965L578.162 36.6035L571.869 36.6035L567.686 20.4316Q567.352 19.166 567.281 17.6016L567.211 17.6016Q567.053 19.3242 566.754 20.4316L562.465 36.6035L555.908 36.6035L549.281 11.3965L555.486 11.3965L559.037 28.1836Q559.266 29.2559 559.371 31.0664L559.477 31.0664Q559.547 29.7129 559.986 28.1133L564.557 11.3965L570.639 11.3965L574.77 28.3242Q574.998 29.2559 575.174 31.0313L575.244 31.0313Q575.314 29.6426 575.613 28.2188L579.094 11.3965L584.824 11.3965ZM227.145 36.3926Q225.914 37.043 223.436 37.043Q217.564 37.043 217.564 30.9434L217.564 22.6992L214.646 22.6992L214.646 18.6035L217.564 18.6035L217.564 14.7188L223.102 13.1367L223.102 18.6035L227.145 18.6035L227.145 22.6992L223.102 22.6992L223.102 29.9766Q223.102 32.7891 225.334 32.7891Q226.213 32.7891 227.145 32.2793L227.145 36.3926ZM883.389 36.3926Q882.158 37.043 879.68 37.043Q873.809 37.043 873.809 30.9434L873.809 22.6992L870.891 22.6992L870.891 18.6035L873.809 18.6035L873.809 14.7188L879.346 13.1367L879.346 18.6035L883.389 18.6035L883.389 22.6992L879.346 22.6992L879.346 29.9766Q879.346 32.7891 881.578 32.7891Q882.457 32.7891 883.389 32.2793L883.389 36.3926ZM189.422 20.8359Q191.83 23.332 191.83 27.3574Q191.83 31.8398 189.202 34.4414Q186.574 37.043 182.004 37.043Q177.504 37.043 174.929 34.5205Q172.354 31.998 172.354 27.6738Q172.354 23.209 175.025 20.6865Q177.697 18.1641 182.25 18.1641Q183.445 18.1641 184.939 18.4277Q185.941 18.6035 186.873 18.6035Q189.984 18.6035 189.984 16.125Q189.984 15.2461 189.668 14.1738L193.043 14.1738Q193.447 15.3867 193.447 16.4766Q193.447 20.4492 189.422 20.8359ZM8.56055 23.6133L8.56055 15.7559L10.793 15.7559Q15.3281 15.7559 15.3281 19.6406Q15.3281 23.6133 10.793 23.6133L8.56055 23.6133ZM61.1016 36.6035L55.8457 36.6035L55.8457 34.0195L55.7754 34.0195Q53.9648 37.043 50.4141 37.043Q47.7949 37.043 46.292 35.5576Q44.7891 34.0723 44.7891 31.5938Q44.7891 26.3555 50.9941 25.5469L55.8809 24.8965Q55.8809 21.9434 52.6816 21.9434Q49.4648 21.9434 46.5645 23.8594L46.5645 19.6758Q47.7246 19.0781 49.7373 18.6211Q51.75 18.1641 53.4023 18.1641Q61.1016 18.1641 61.1016 25.8457L61.1016 36.6035ZM77.3438 36.6035L82.8809 36.6035L82.8809 25.582Q82.8809 18.1641 76.9043 18.1641Q73.1074 18.1641 71.1211 21.4512L71.0508 21.4512L71.0508 18.6035L65.4961 18.6035L65.4961 36.6035L71.0508 36.6035L71.0508 26.3379Q71.0508 24.6328 71.9824 23.5254Q72.9141 22.418 74.3555 22.418Q77.3438 22.418 77.3438 26.6016L77.3438 36.6035ZM266.607 29.1855L278.35 29.1855L278.35 26.8477Q278.35 22.8398 276.196 20.502Q274.043 18.1641 270.105 18.1641Q266.309 18.1641 263.707 20.7832Q261.105 23.4023 261.105 27.8848Q261.105 32.209 263.514 34.626Q265.922 37.043 270.281 37.043Q274.271 37.043 276.768 35.707L276.768 31.6992Q274.518 33.1055 271.547 33.1055Q266.889 33.1055 266.607 29.1855ZM321.574 37.043Q325.125 37.043 327.006 35.9531L327.006 31.4883Q325.02 32.7891 322.945 32.7891Q320.607 32.7891 319.271 31.4268Q317.936 30.0645 317.936 27.6738Q317.936 25.2129 319.333 23.8154Q320.73 22.418 323.121 22.418Q325.266 22.418 327.006 23.7188L327.006 19.0078Q325.582 18.1641 322.4 18.1641Q317.795 18.1641 315.044 20.8096Q312.293 23.4551 312.293 28.043Q312.293 32.0156 314.859 34.5293Q317.426 37.043 321.574 37.043ZM391.482 36.6035L385.945 36.6035L385.945 26.6016Q385.945 22.418 382.957 22.418Q381.516 22.418 380.584 23.5254Q379.652 24.6328 379.652 26.3379L379.652 36.6035L374.098 36.6035L374.098 18.6035L379.652 18.6035L379.652 21.4512L379.723 21.4512Q381.709 18.1641 385.506 18.1641Q391.482 18.1641 391.482 25.582L391.482 36.6035ZM410.625 42.3076Q413.525 39.5566 413.525 34.5469L413.525 18.6035L407.971 18.6035L407.971 20.6953L407.9 20.6953Q406.266 18.1641 402.979 18.1641Q399.305 18.1641 397.055 20.8535Q394.805 23.543 394.805 28.1133Q394.805 32.1914 396.826 34.6172Q398.848 37.043 402.293 37.043Q406.002 37.043 407.9 34.0195L407.971 34.0195L407.971 35.4434Q407.971 37.9922 406.424 39.4775Q404.877 40.9629 402.064 40.9629Q399.234 40.9629 396.457 39.3457L396.457 44.0215Q398.584 45.0586 402.223 45.0586Q407.725 45.0586 410.625 42.3076ZM452.039 29.1855L463.781 29.1855L463.781 26.8477Q463.781 22.8398 461.628 20.502Q459.475 18.1641 455.537 18.1641Q451.74 18.1641 449.139 20.7832Q446.537 23.4023 446.537 27.8848Q446.537 32.209 448.945 34.626Q451.354 37.043 455.713 37.043Q459.703 37.043 462.199 35.707L462.199 31.6992Q459.949 33.1055 456.979 33.1055Q452.32 33.1055 452.039 29.1855ZM502.77 36.6035L508.025 36.6035L508.025 25.8457Q508.025 18.1641 500.326 18.1641Q498.674 18.1641 496.661 18.6211Q494.648 19.0781 493.488 19.6758L493.488 23.8594Q496.389 21.9434 499.605 21.9434Q502.805 21.9434 502.805 24.8965L497.918 25.5469Q491.713 26.3555 491.713 31.5938Q491.713 34.0723 493.216 35.5576Q494.719 37.043 497.338 37.043Q500.889 37.043 502.699 34.0195L502.77 34.0195L502.77 36.6035ZM541.652 36.6035L546.908 36.6035L546.908 25.8457Q546.908 18.1641 539.209 18.1641Q537.557 18.1641 535.544 18.6211Q533.531 19.0781 532.371 19.6758L532.371 23.8594Q535.271 21.9434 538.488 21.9434Q541.688 21.9434 541.688 24.8965L536.801 25.5469Q530.596 26.3555 530.596 31.5938Q530.596 34.0723 532.099 35.5576Q533.602 37.043 536.221 37.043Q539.771 37.043 541.582 34.0195L541.652 34.0195L541.652 36.6035ZM591.908 29.1855L603.65 29.1855L603.65 26.8477Q603.65 22.8398 601.497 20.502Q599.344 18.1641 595.406 18.1641Q591.609 18.1641 589.008 20.7832Q586.406 23.4023 586.406 27.8848Q586.406 32.209 588.814 34.626Q591.223 37.043 595.582 37.043Q599.572 37.043 602.068 35.707L602.068 31.6992Q599.818 33.1055 596.848 33.1055Q592.189 33.1055 591.908 29.1855ZM673.699 36.6035L668.443 36.6035L668.443 34.0195L668.373 34.0195Q666.563 37.043 663.012 37.043Q660.393 37.043 658.89 35.5576Q657.387 34.0723 657.387 31.5938Q657.387 26.3555 663.592 25.5469L668.479 24.8965Q668.479 21.9434 665.279 21.9434Q662.063 21.9434 659.162 23.8594L659.162 19.6758Q660.322 19.0781 662.335 18.6211Q664.348 18.1641 666 18.1641Q673.699 18.1641 673.699 25.8457L673.699 36.6035ZM696.234 37.043Q699.785 37.043 701.666 35.9531L701.666 31.4883Q699.68 32.7891 697.605 32.7891Q695.268 32.7891 693.932 31.4268Q692.596 30.0645 692.596 27.6738Q692.596 25.2129 693.993 23.8154Q695.391 22.418 697.781 22.418Q699.926 22.418 701.666 23.7188L701.666 19.0078Q700.242 18.1641 697.061 18.1641Q692.455 18.1641 689.704 20.8096Q686.953 23.4551 686.953 28.043Q686.953 32.0156 689.52 34.5293Q692.086 37.043 696.234 37.043ZM720.281 36.6035L715.025 36.6035L715.025 34.0195L714.955 34.0195Q713.145 37.043 709.594 37.043Q706.975 37.043 705.472 35.5576Q703.969 34.0723 703.969 31.5938Q703.969 26.3555 710.174 25.5469L715.061 24.8965Q715.061 21.9434 711.861 21.9434Q708.645 21.9434 705.744 23.8594L705.744 19.6758Q706.904 19.0781 708.917 18.6211Q710.93 18.1641 712.582 18.1641Q720.281 18.1641 720.281 25.8457L720.281 36.6035ZM732.885 37.043Q736.436 37.043 738.316 35.9531L738.316 31.4883Q736.33 32.7891 734.256 32.7891Q731.918 32.7891 730.582 31.4268Q729.246 30.0645 729.246 27.6738Q729.246 25.2129 730.644 23.8154Q732.041 22.418 734.432 22.418Q736.576 22.418 738.316 23.7188L738.316 19.0078Q736.893 18.1641 733.711 18.1641Q729.105 18.1641 726.354 20.8096Q723.604 23.4551 723.604 28.043Q723.604 32.0156 726.17 34.5293Q728.736 37.043 732.885 37.043ZM781.77 37.043Q785.32 37.043 787.201 35.9531L787.201 31.4883Q785.215 32.7891 783.141 32.7891Q780.803 32.7891 779.467 31.4268Q778.131 30.0645 778.131 27.6738Q778.131 25.2129 779.528 23.8154Q780.926 22.418 783.316 22.418Q785.461 22.418 787.201 23.7188L787.201 19.0078Q785.777 18.1641 782.596 18.1641Q777.99 18.1641 775.239 20.8096Q772.488 23.4551 772.488 28.043Q772.488 32.0156 775.055 34.5293Q777.621 37.043 781.77 37.043ZM805.816 36.6035L800.561 36.6035L800.561 34.0195L800.49 34.0195Q798.68 37.043 795.129 37.043Q792.51 37.043 791.007 35.5576Q789.504 34.0723 789.504 31.5938Q789.504 26.3555 795.709 25.5469L800.596 24.8965Q800.596 21.9434 797.396 21.9434Q794.18 21.9434 791.279 23.8594L791.279 19.6758Q792.439 19.0781 794.452 18.6211Q796.465 18.1641 798.117 18.1641Q805.816 18.1641 805.816 25.8457L805.816 36.6035ZM862.857 36.6035L868.113 36.6035L868.113 25.8457Q868.113 18.1641 860.414 18.1641Q858.762 18.1641 856.749 18.6211Q854.736 19.0781 853.576 19.6758L853.576 23.8594Q856.477 21.9434 859.693 21.9434Q862.893 21.9434 862.893 24.8965L858.006 25.5469Q851.801 26.3555 851.801 31.5938Q851.801 34.0723 853.304 35.5576Q854.807 37.043 857.426 37.043Q860.977 37.043 862.787 34.0195L862.857 34.0195L862.857 36.6035ZM904.658 37.043Q908.209 37.043 910.09 35.9531L910.09 31.4883Q908.104 32.7891 906.029 32.7891Q903.691 32.7891 902.355 31.4268Q901.02 30.0645 901.02 27.6738Q901.02 25.2129 902.417 23.8154Q903.814 22.418 906.205 22.418Q908.35 22.418 910.09 23.7188L910.09 19.0078Q908.666 18.1641 905.484 18.1641Q900.879 18.1641 898.128 20.8096Q895.377 23.4551 895.377 28.043Q895.377 32.0156 897.943 34.5293Q900.51 37.043 904.658 37.043ZM922.307 37.043Q917.807 37.043 915.231 34.5205Q912.656 31.998 912.656 27.6738Q912.656 23.209 915.328 20.6865Q918 18.1641 922.553 18.1641Q927.035 18.1641 929.584 20.6865Q932.133 23.209 932.133 27.3574Q932.133 31.8398 929.505 34.4414Q926.877 37.043 922.307 37.043ZM947.566 36.6035L953.104 36.6035L953.104 25.582Q953.104 18.1641 947.127 18.1641Q943.33 18.1641 941.344 21.4512L941.273 21.4512L941.273 18.6035L935.719 18.6035L935.719 36.6035L941.273 36.6035L941.273 26.3379Q941.273 24.6328 942.205 23.5254Q943.137 22.418 944.578 22.418Q947.566 22.418 947.566 26.6016L947.566 36.6035ZM975.146 34.5469Q975.146 39.5566 972.246 42.3076Q969.346 45.0586 963.844 45.0586Q960.205 45.0586 958.078 44.0215L958.078 39.3457Q960.855 40.9629 963.686 40.9629Q966.498 40.9629 968.045 39.4775Q969.592 37.9922 969.592 35.4434L969.592 34.0195L969.521 34.0195Q967.623 37.043 963.914 37.043Q960.469 37.043 958.447 34.6172Q956.426 32.1914 956.426 28.1133Q956.426 23.543 958.676 20.8535Q960.926 18.1641 964.6 18.1641Q967.887 18.1641 969.521 20.6953L969.592 20.6953L969.592 18.6035L975.146 18.6035L975.146 34.5469ZM997.928 37.043Q1001.48 37.043 1003.36 35.9531L1003.36 31.4883Q1001.37 32.7891 999.299 32.7891Q996.961 32.7891 995.625 31.4268Q994.289 30.0645 994.289 27.6738Q994.289 25.2129 995.687 23.8154Q997.084 22.418 999.475 22.418Q1001.62 22.418 1003.36 23.7188L1003.36 19.0078Q1001.94 18.1641 998.754 18.1641Q994.148 18.1641 991.397 20.8096Q988.646 23.4551 988.646 28.043Q988.646 32.0156 991.213 34.5293Q993.779 37.043 997.928 37.043ZM118.107 23.3408Q119.021 24.1758 120.393 24.1758Q121.869 24.1758 122.792 23.3672Q123.715 22.5586 123.715 21.2754Q123.715 20.0273 122.81 19.21Q121.904 18.3926 120.48 18.3926Q119.074 18.3926 118.134 19.2012Q117.193 20.0098 117.193 21.2754Q117.193 22.5059 118.107 23.3408ZM163.195 36.6035L168.75 36.6035L168.75 18.6035L163.195 18.6035L163.195 36.6035ZM196.102 36.6035L201.656 36.6035L201.656 18.6035L196.102 18.6035L196.102 36.6035ZM257.502 36.6035L251.947 36.6035L251.947 18.6035L257.502 18.6035L257.502 36.6035ZM298.758 36.6035L293.221 36.6035L293.221 33.8613L293.133 33.8613Q291.076 37.043 287.631 37.043Q281.373 37.043 281.373 29.4668L281.373 18.6035L286.91 18.6035L286.91 28.9746Q286.91 32.7891 289.934 32.7891Q291.428 32.7891 292.324 31.7432Q293.221 30.6973 293.221 28.9043L293.221 18.6035L298.758 18.6035L298.758 36.6035ZM363.885 36.6035L369.422 36.6035L369.422 18.6035L363.885 18.6035L363.885 28.9043Q363.885 30.6973 362.988 31.7432Q362.092 32.7891 360.598 32.7891Q357.574 32.7891 357.574 28.9746L357.574 18.6035L352.037 18.6035L352.037 29.4668Q352.037 37.043 358.295 37.043Q361.74 37.043 363.797 33.8613L363.885 33.8613L363.885 36.6035ZM438.539 36.6035L432.211 36.6035L425.83 18.6035L431.771 18.6035L434.9 29.6953Q435.428 31.5762 435.516 32.8945L435.586 32.8945Q435.709 31.6465 436.236 29.8008L439.436 18.6035L445.236 18.6035L438.539 36.6035ZM522.861 36.6035L516.533 36.6035L510.152 18.6035L516.094 18.6035L519.223 29.6953Q519.75 31.5762 519.838 32.8945L519.908 32.8945Q520.031 31.6465 520.559 29.8008L523.758 18.6035L529.559 18.6035L522.861 36.6035ZM643.324 36.6035L649.652 36.6035L656.35 18.6035L650.549 18.6035L647.35 29.8008Q646.822 31.6465 646.699 32.8945L646.629 32.8945Q646.541 31.5762 646.014 29.6953L642.885 18.6035L636.943 18.6035L643.324 36.6035ZM810.211 36.6035L815.766 36.6035L815.766 18.6035L810.211 18.6035L810.211 36.6035ZM1024.1 36.6035L1018.56 36.6035L1018.56 33.8613L1018.48 33.8613Q1016.42 37.043 1012.97 37.043Q1006.72 37.043 1006.72 29.4668L1006.72 18.6035L1012.25 18.6035L1012.25 28.9746Q1012.25 32.7891 1015.28 32.7891Q1016.77 32.7891 1017.67 31.7432Q1018.56 30.6973 1018.56 28.9043L1018.56 18.6035L1024.1 18.6035L1024.1 36.6035ZM270.07 21.9082Q273.199 21.9082 273.199 25.7754L266.572 25.7754Q266.783 24.123 267.759 23.0156Q268.734 21.9082 270.07 21.9082ZM455.502 21.9082Q458.631 21.9082 458.631 25.7754L452.004 25.7754Q452.215 24.123 453.19 23.0156Q454.166 21.9082 455.502 21.9082ZM595.371 21.9082Q598.5 21.9082 598.5 25.7754L591.873 25.7754Q592.084 24.123 593.06 23.0156Q594.035 21.9082 595.371 21.9082ZM182.145 22.418Q180.176 22.418 179.086 23.7715Q177.996 25.125 177.996 27.6035Q177.996 32.7891 182.18 32.7891Q186.17 32.7891 186.17 27.4629Q186.17 22.418 182.145 22.418ZM408.041 26.5313L408.041 27.9551Q408.041 30.1348 406.978 31.4619Q405.914 32.7891 404.191 32.7891Q402.451 32.7891 401.449 31.4795Q400.447 30.1699 400.447 27.9199Q400.447 25.3008 401.502 23.8594Q402.557 22.418 404.402 22.418Q406.02 22.418 407.03 23.6221Q408.041 24.8262 408.041 26.5313ZM612.422 26.918L612.422 28.7637Q612.422 30.5039 613.424 31.6465Q614.426 32.7891 615.99 32.7891Q617.889 32.7891 618.935 31.3213Q619.98 29.8535 619.98 27.1641Q619.98 24.9316 619.022 23.6748Q618.064 22.418 616.289 22.418Q614.619 22.418 613.521 23.666Q612.422 24.9141 612.422 26.918ZM842.537 27.8496L842.537 26.4961Q842.537 24.7383 841.518 23.5781Q840.498 22.418 838.863 22.418Q837.018 22.418 835.98 23.8682Q834.943 25.3184 834.943 27.8496Q834.943 30.2227 835.945 31.5059Q836.947 32.7891 838.723 32.7891Q840.41 32.7891 841.474 31.4355Q842.537 30.082 842.537 27.8496ZM922.447 22.418Q920.479 22.418 919.389 23.7715Q918.299 25.125 918.299 27.6035Q918.299 32.7891 922.482 32.7891Q926.473 32.7891 926.473 27.4629Q926.473 22.418 922.447 22.418ZM969.662 27.9551L969.662 26.5313Q969.662 24.8262 968.651 23.6221Q967.641 22.418 966.023 22.418Q964.178 22.418 963.123 23.8594Q962.068 25.3008 962.068 27.9199Q962.068 30.1699 963.07 31.4795Q964.072 32.7891 965.813 32.7891Q967.535 32.7891 968.599 31.4619Q969.662 30.1348 969.662 27.9551ZM55.8809 29.291L55.8809 28.0781L52.6113 28.5Q49.9043 28.8516 49.9043 30.9434Q49.9043 31.8926 50.5635 32.499Q51.2227 33.1055 52.3477 33.1055Q53.9121 33.1055 54.8965 32.0244Q55.8809 30.9434 55.8809 29.291ZM502.805 28.0781L502.805 29.291Q502.805 30.9434 501.82 32.0244Q500.836 33.1055 499.271 33.1055Q498.146 33.1055 497.487 32.499Q496.828 31.8926 496.828 30.9434Q496.828 28.8516 499.535 28.5L502.805 28.0781ZM541.688 28.0781L541.688 29.291Q541.688 30.9434 540.703 32.0244Q539.719 33.1055 538.154 33.1055Q537.029 33.1055 536.37 32.499Q535.711 31.8926 535.711 30.9434Q535.711 28.8516 538.418 28.5L541.688 28.0781ZM668.479 29.291L668.479 28.0781L665.209 28.5Q662.502 28.8516 662.502 30.9434Q662.502 31.8926 663.161 32.499Q663.82 33.1055 664.945 33.1055Q666.51 33.1055 667.494 32.0244Q668.479 30.9434 668.479 29.291ZM715.061 29.291L715.061 28.0781L711.791 28.5Q709.084 28.8516 709.084 30.9434Q709.084 31.8926 709.743 32.499Q710.402 33.1055 711.527 33.1055Q713.092 33.1055 714.076 32.0244Q715.061 30.9434 715.061 29.291ZM800.596 29.291L800.596 28.0781L797.326 28.5Q794.619 28.8516 794.619 30.9434Q794.619 31.8926 795.278 32.499Q795.938 33.1055 797.063 33.1055Q798.627 33.1055 799.611 32.0244Q800.596 30.9434 800.596 29.291ZM862.893 28.0781L862.893 29.291Q862.893 30.9434 861.908 32.0244Q860.924 33.1055 859.359 33.1055Q858.234 33.1055 857.575 32.499Q856.916 31.8926 856.916 30.9434Q856.916 28.8516 859.623 28.5L862.893 28.0781ZM118.107 36.1992Q119.021 37.043 120.393 37.043Q121.869 37.043 122.792 36.2256Q123.715 35.4082 123.715 34.125Q123.715 32.877 122.81 32.0596Q121.904 31.2422 120.48 31.2422Q119.074 31.2422 118.134 32.0508Q117.193 32.8594 117.193 34.125Q117.193 35.3555 118.107 36.1992ZM1028.97 36.1992Q1029.88 37.043 1031.26 37.043Q1032.73 37.043 1033.66 36.2256Q1034.58 35.4082 1034.58 34.125Q1034.58 32.877 1033.67 32.0596Q1032.77 31.2422 1031.34 31.2422Q1029.94 31.2422 1029 32.0508Q1028.06 32.8594 1028.06 34.125Q1028.06 35.3555 1028.97 36.1992ZM268.515 42.7734Q269.279 43.4766 270.457 43.4766Q271.635 43.4766 272.382 42.791Q273.129 42.1055 273.129 41.0684Q273.129 40.0313 272.382 39.3633Q271.635 38.6953 270.457 38.6953Q269.297 38.6953 268.523 39.3545Q267.75 40.0137 267.75 41.0684Q267.75 42.0703 268.515 42.7734ZM858.243 42.7734Q859.008 43.4766 860.186 43.4766Q861.363 43.4766 862.11 42.791Q862.857 42.1055 862.857 41.0684Q862.857 40.0313 862.11 39.3633Q861.363 38.6953 860.186 38.6953Q859.025 38.6953 858.252 39.3545Q857.479 40.0137 857.479 41.0684Q857.479 42.0703 858.243 42.7734ZM1015.17 43.4766Q1013.99 43.4766 1013.23 42.7734Q1012.46 42.0703 1012.46 41.0684Q1012.46 40.0137 1013.24 39.3545Q1014.01 38.6953 1015.17 38.6953Q1016.35 38.6953 1017.1 39.3633Q1017.84 40.0313 1017.84 41.0684Q1017.84 42.1055 1017.1 42.791Q1016.35 43.4766 1015.17 43.4766Z" />
  </g>
  <path d="M19.999 0L1179 0Q1179.49 0 1179.98 0.0240897Q1180.47 0.0481793 1180.96 0.0963006Q1181.45 0.144422 1181.94 0.216459Q1182.42 0.288496 1182.9 0.384275Q1183.38 0.480054 1183.86 0.599345Q1184.34 0.718635 1184.81 0.86115Q1185.28 1.00366 1185.74 1.16906Q1186.2 1.33446 1186.65 1.52233Q1187.11 1.71021 1187.55 1.92012Q1188 2.13003 1188.43 2.36146Q1188.86 2.59289 1189.28 2.84529Q1189.7 3.09768 1190.11 3.37044Q1190.52 3.64319 1190.91 3.93565Q1191.31 4.22811 1191.69 4.53956Q1192.07 4.85102 1192.43 5.18072Q1192.8 5.51042 1193.14 5.85757Q1193.49 6.20472 1193.82 6.56849Q1194.15 6.93226 1194.46 7.31177Q1194.77 7.69128 1195.06 8.08561Q1195.36 8.47994 1195.63 8.88815Q1195.9 9.29636 1196.15 9.71746Q1196.41 10.1386 1196.64 10.5715Q1196.87 11.0045 1197.08 11.4483Q1197.29 11.8921 1197.48 12.3457Q1197.67 12.7993 1197.83 13.2615Q1198 13.7238 1198.14 14.1936Q1198.28 14.6634 1198.4 15.1396Q1198.52 15.6159 1198.62 16.0974Q1198.71 16.5789 1198.78 17.0645Q1198.86 17.5502 1198.9 18.0388Q1198.95 18.5273 1198.98 19.0177Q1199 19.5081 1199 19.999L1199 64.0229Q1199 64.5139 1198.98 65.0042Q1198.95 65.4946 1198.9 65.9832Q1198.86 66.4718 1198.78 66.9574Q1198.71 67.443 1198.62 67.9245Q1198.52 68.4061 1198.4 68.8823Q1198.28 69.3585 1198.14 69.8283Q1198 70.2981 1197.83 70.7604Q1197.67 71.2226 1197.48 71.6762Q1197.29 72.1298 1197.08 72.5736Q1196.87 73.0174 1196.64 73.4504Q1196.41 73.8834 1196.15 74.3045Q1195.9 74.7256 1195.63 75.1338Q1195.36 75.542 1195.06 75.9363Q1194.77 76.3307 1194.46 76.7102Q1194.15 77.0897 1193.82 77.4534Q1193.49 77.8172 1193.14 78.1644Q1192.8 78.5115 1192.43 78.8412Q1192.07 79.1709 1191.69 79.4824Q1191.31 79.7938 1190.91 80.0863Q1190.52 80.3787 1190.11 80.6515Q1189.7 80.9242 1189.28 81.1766Q1188.86 81.429 1188.43 81.6605Q1188 81.8919 1187.55 82.1018Q1187.11 82.3117 1186.65 82.4996Q1186.2 82.6875 1185.74 82.8529Q1185.28 83.0183 1184.81 83.1608Q1184.34 83.3033 1183.86 83.4226Q1183.38 83.5419 1182.9 83.6376Q1182.42 83.7334 1181.94 83.8055Q1181.45 83.8775 1180.96 83.9256Q1180.47 83.9737 1179.98 83.9978Q1179.49 84.0219 1179 84.0219L19.999 84.0219Q19.5081 84.0219 19.0177 83.9978Q18.5273 83.9738 18.0388 83.9256Q17.5502 83.8775 17.0645 83.8055Q16.5789 83.7334 16.0974 83.6376Q15.6159 83.5419 15.1396 83.4226Q14.6634 83.3033 14.1936 83.1608Q13.7238 83.0183 13.2615 82.8529Q12.7993 82.6875 12.3457 82.4996Q11.8921 82.3117 11.4483 82.1018Q11.0045 81.8919 10.5715 81.6605Q10.1386 81.429 9.71746 81.1766Q9.29636 80.9242 8.88815 80.6515Q8.47994 80.3787 8.08561 80.0863Q7.69128 79.7938 7.31177 79.4824Q6.93226 79.1709 6.56849 78.8412Q6.20472 78.5115 5.85757 78.1644Q5.51042 77.8172 5.18072 77.4534Q4.85102 77.0897 4.53956 76.7102Q4.22811 76.3307 3.93565 75.9363Q3.64319 75.542 3.37044 75.1338Q3.09768 74.7256 2.84529 74.3045Q2.59289 73.8834 2.36146 73.4504Q2.13003 73.0174 1.92012 72.5736Q1.71021 72.1298 1.52233 71.6762Q1.33446 71.2226 1.16906 70.7604Q1.00366 70.2981 0.86115 69.8283Q0.718635 69.3585 0.599345 68.8823Q0.480054 68.4061 0.384275 67.9245Q0.288496 67.443 0.216459 66.9574Q0.144422 66.4718 0.0963006 65.9832Q0.0481793 65.4946 0.0240897 65.0042Q0 64.5139 0 64.0229L0 19.999Q0 19.5081 0.0240897 19.0177Q0.0481793 18.5273 0.0963006 18.0388Q0.144422 17.5502 0.216459 17.0645Q0.288496 16.5789 0.384275 16.0974Q0.480054 15.6159 0.599345 15.1396Q0.718635 14.6634 0.86115 14.1936Q1.00366 13.7238 1.16906 13.2615Q1.33446 12.7993 1.52233 12.3457Q1.71021 11.8921 1.92012 11.4483Q2.13003 11.0045 2.36146 10.5715Q2.59289 10.1386 2.84529 9.71746Q3.09768 9.29636 3.37044 8.88815Q3.64319 8.47994 3.93565 8.08561Q4.22811 7.69128 4.53956 7.31177Q4.85102 6.93226 5.18072 6.56849Q5.51042 6.20472 5.85757 5.85757Q6.20472 5.51042 6.56849 5.18072Q6.93226 4.85102 7.31177 4.53956Q7.69128 4.22811 8.08561 3.93565Q8.47994 3.64319 8.88815 3.37044Q9.29636 3.09768 9.71746 2.84529Q10.1386 2.59289 10.5715 2.36146Q11.0045 2.13003 11.4483 1.92012Q11.8921 1.71021 12.3457 1.52233Q12.7993 1.33446 13.2615 1.16906Q13.7238 1.00366 14.1936 0.86115Q14.6634 0.718635 15.1396 0.599345Q15.6159 0.480054 16.0974 0.384275Q16.5789 0.288496 17.0645 0.216459Q17.5502 0.144422 18.0388 0.0963006Q18.5273 0.0481793 19.0177 0.0240897Q19.5081 0 19.999 0L19.999 0Z" transform="translate(118.92334 130.59961)" id="Rectangle-23" fill="#E2DBDB" fill-opacity="0.49803922" fill-rule="evenodd" stroke="none" />
  <g id="Phần-2-JavaCore" transform="translate(161.92358 150.95898)">
    <path d="M49.0957 12.5215L45.6328 12.5215L40.9922 8.19727L45.9141 8.19727L49.0957 12.5215ZM36.1934 36.6035L41.7305 36.6035L41.7305 25.5469Q41.7305 18.1641 35.6133 18.1641Q32.1152 18.1641 30.0762 21.2754L30.0059 21.2754L30.0059 9.95508L24.4512 9.95508L24.4512 36.6035L30.0059 36.6035L30.0059 26.3379Q30.0059 24.6328 30.9199 23.5254Q31.834 22.418 33.3105 22.418Q36.1934 22.418 36.1934 26.373L36.1934 36.6035ZM59.6777 15.1758L56.1445 15.1758L53.666 12.7676L50.9941 15.1758L47.4609 15.1758L51.4688 10.7988L55.6699 10.7988L59.6777 15.1758ZM102.41 31.998L113.098 31.998L113.098 36.6035L96.3281 36.6035L96.3281 34.7051Q96.3281 32.7715 96.9785 31.2334Q97.6289 29.6953 98.6133 28.4736Q99.5977 27.252 100.767 26.3115Q101.936 25.3711 102.99 24.6152Q104.098 23.8242 104.933 23.1035Q105.768 22.3828 106.339 21.6709Q106.91 20.959 107.191 20.2295Q107.473 19.5 107.473 18.6738Q107.473 17.0566 106.559 16.2305Q105.645 15.4043 103.764 15.4043Q100.512 15.4043 97.541 17.9883L97.541 13.1016Q100.828 10.9746 104.959 10.9746Q106.875 10.9746 108.396 11.4756Q109.916 11.9766 110.971 12.9082Q112.025 13.8398 112.579 15.167Q113.133 16.4941 113.133 18.1289Q113.133 19.8691 112.597 21.2227Q112.061 22.5762 111.173 23.6836Q110.285 24.791 109.125 25.7139Q107.965 26.6367 106.717 27.498Q105.873 28.0957 105.091 28.6846Q104.309 29.2734 103.711 29.8447Q103.113 30.416 102.762 30.9609Q102.41 31.5059 102.41 31.998ZM230.502 35.707Q227.742 37.043 223.295 37.043Q217.494 37.043 214.172 33.6328Q210.85 30.2227 210.85 24.5449Q210.85 18.498 214.585 14.7363Q218.32 10.9746 224.279 10.9746Q227.971 10.9746 230.502 11.9063L230.502 17.373Q227.971 15.8613 224.736 15.8613Q221.186 15.8613 219.006 18.0938Q216.826 20.3262 216.826 24.1406Q216.826 27.7969 218.883 29.9678Q220.939 32.1387 224.42 32.1387Q227.742 32.1387 230.502 30.5215L230.502 35.707ZM8.56055 36.6035L8.56055 27.9199L11.2676 27.9199Q15.8379 27.9199 18.5713 25.5732Q21.3047 23.2266 21.3047 19.4297Q21.3047 11.3965 11.7773 11.3965L2.88281 11.3965L2.88281 36.6035L8.56055 36.6035ZM148.658 26.6016Q148.658 31.6641 146.312 34.3535Q143.965 37.043 139.518 37.043Q137.531 37.043 135.844 36.3574L135.844 31.0313Q137.303 32.1387 139.113 32.1387Q142.998 32.1387 142.998 26.373L142.998 11.3965L148.658 11.3965L148.658 26.6016ZM8.56055 23.6133L8.56055 15.7559L10.793 15.7559Q15.3281 15.7559 15.3281 19.6406Q15.3281 23.6133 10.793 23.6133L8.56055 23.6133ZM61.1016 36.6035L55.8457 36.6035L55.8457 34.0195L55.7754 34.0195Q53.9648 37.043 50.4141 37.043Q47.7949 37.043 46.292 35.5576Q44.7891 34.0723 44.7891 31.5938Q44.7891 26.3555 50.9941 25.5469L55.8809 24.8965Q55.8809 21.9434 52.6816 21.9434Q49.4648 21.9434 46.5645 23.8594L46.5645 19.6758Q47.7246 19.0781 49.7373 18.6211Q51.75 18.1641 53.4023 18.1641Q61.1016 18.1641 61.1016 25.8457L61.1016 36.6035ZM77.3438 36.6035L82.8809 36.6035L82.8809 25.582Q82.8809 18.1641 76.9043 18.1641Q73.1074 18.1641 71.1211 21.4512L71.0508 21.4512L71.0508 18.6035L65.4961 18.6035L65.4961 36.6035L71.0508 36.6035L71.0508 26.3379Q71.0508 24.6328 71.9824 23.5254Q72.9141 22.418 74.3555 22.418Q77.3438 22.418 77.3438 26.6016L77.3438 36.6035ZM163.354 36.6035L168.609 36.6035L168.609 25.8457Q168.609 18.1641 160.91 18.1641Q159.258 18.1641 157.245 18.6211Q155.232 19.0781 154.072 19.6758L154.072 23.8594Q156.973 21.9434 160.189 21.9434Q163.389 21.9434 163.389 24.8965L158.502 25.5469Q152.297 26.3555 152.297 31.5938Q152.297 34.0723 153.8 35.5576Q155.303 37.043 157.922 37.043Q161.473 37.043 163.283 34.0195L163.354 34.0195L163.354 36.6035ZM202.236 36.6035L207.492 36.6035L207.492 25.8457Q207.492 18.1641 199.793 18.1641Q198.141 18.1641 196.128 18.6211Q194.115 19.0781 192.955 19.6758L192.955 23.8594Q195.855 21.9434 199.072 21.9434Q202.271 21.9434 202.271 24.8965L197.385 25.5469Q191.18 26.3555 191.18 31.5938Q191.18 34.0723 192.683 35.5576Q194.186 37.043 196.805 37.043Q200.355 37.043 202.166 34.0195L202.236 34.0195L202.236 36.6035ZM235.854 34.5205Q238.43 37.043 242.93 37.043Q247.5 37.043 250.128 34.4414Q252.756 31.8398 252.756 27.3574Q252.756 23.209 250.207 20.6865Q247.658 18.1641 243.176 18.1641Q238.623 18.1641 235.951 20.6865Q233.279 23.209 233.279 27.6738Q233.279 31.998 235.854 34.5205ZM275.115 29.1855L286.857 29.1855L286.857 26.8477Q286.857 22.8398 284.704 20.502Q282.551 18.1641 278.613 18.1641Q274.816 18.1641 272.215 20.7832Q269.613 23.4023 269.613 27.8848Q269.613 32.209 272.021 34.626Q274.43 37.043 278.789 37.043Q282.779 37.043 285.275 35.707L285.275 31.6992Q283.025 33.1055 280.055 33.1055Q275.396 33.1055 275.115 29.1855ZM268.102 23.6133Q267.1 23.0684 265.764 23.0684Q263.953 23.0684 262.934 24.3955Q261.914 25.7227 261.914 28.0078L261.914 36.6035L256.359 36.6035L256.359 18.6035L261.914 18.6035L261.914 21.9434L261.984 21.9434Q263.303 18.2871 266.73 18.2871Q267.609 18.2871 268.102 18.498L268.102 23.6133ZM118.107 23.3408Q119.021 24.1758 120.393 24.1758Q121.869 24.1758 122.792 23.3672Q123.715 22.5586 123.715 21.2754Q123.715 20.0273 122.81 19.21Q121.904 18.3926 120.48 18.3926Q119.074 18.3926 118.134 19.2012Q117.193 20.0098 117.193 21.2754Q117.193 22.5059 118.107 23.3408ZM190.143 18.6035L183.445 36.6035L177.117 36.6035L170.736 18.6035L176.678 18.6035L179.807 29.6953Q180.334 31.5762 180.422 32.8945L180.492 32.8945Q180.615 31.6465 181.143 29.8008L184.342 18.6035L190.143 18.6035ZM278.578 21.9082Q281.707 21.9082 281.707 25.7754L275.08 25.7754Q275.291 24.123 276.267 23.0156Q277.242 21.9082 278.578 21.9082ZM240.012 23.7715Q241.102 22.418 243.07 22.418Q247.096 22.418 247.096 27.4629Q247.096 32.7891 243.105 32.7891Q238.922 32.7891 238.922 27.6035Q238.922 25.125 240.012 23.7715ZM55.8809 29.291L55.8809 28.0781L52.6113 28.5Q49.9043 28.8516 49.9043 30.9434Q49.9043 31.8926 50.5635 32.499Q51.2227 33.1055 52.3477 33.1055Q53.9121 33.1055 54.8965 32.0244Q55.8809 30.9434 55.8809 29.291ZM160.119 28.5L163.389 28.0781L163.389 29.291Q163.389 30.9434 162.404 32.0244Q161.42 33.1055 159.855 33.1055Q158.73 33.1055 158.071 32.499Q157.412 31.8926 157.412 30.9434Q157.412 28.8516 160.119 28.5ZM199.002 28.5L202.271 28.0781L202.271 29.291Q202.271 30.9434 201.287 32.0244Q200.303 33.1055 198.738 33.1055Q197.613 33.1055 196.954 32.499Q196.295 31.8926 196.295 30.9434Q196.295 28.8516 199.002 28.5ZM118.107 36.1992Q119.021 37.043 120.393 37.043Q121.869 37.043 122.792 36.2256Q123.715 35.4082 123.715 34.125Q123.715 32.877 122.81 32.0596Q121.904 31.2422 120.48 31.2422Q119.074 31.2422 118.134 32.0508Q117.193 32.8594 117.193 34.125Q117.193 35.3555 118.107 36.1992Z" />
  </g>
  <path d="M19.999 0L1179 0Q1179.49 0 1179.98 0.0240897Q1180.47 0.0481793 1180.96 0.0963006Q1181.45 0.144422 1181.94 0.216459Q1182.42 0.288496 1182.9 0.384275Q1183.38 0.480054 1183.86 0.599345Q1184.34 0.718635 1184.81 0.86115Q1185.28 1.00366 1185.74 1.16906Q1186.2 1.33446 1186.65 1.52233Q1187.11 1.71021 1187.55 1.92012Q1188 2.13003 1188.43 2.36146Q1188.86 2.59289 1189.28 2.84529Q1189.7 3.09768 1190.11 3.37044Q1190.52 3.64319 1190.91 3.93565Q1191.31 4.22811 1191.69 4.53956Q1192.07 4.85102 1192.43 5.18072Q1192.8 5.51042 1193.14 5.85757Q1193.49 6.20472 1193.82 6.56849Q1194.15 6.93226 1194.46 7.31177Q1194.77 7.69128 1195.06 8.08561Q1195.36 8.47994 1195.63 8.88815Q1195.9 9.29636 1196.15 9.71746Q1196.41 10.1386 1196.64 10.5715Q1196.87 11.0045 1197.08 11.4483Q1197.29 11.8921 1197.48 12.3457Q1197.67 12.7993 1197.83 13.2615Q1198 13.7238 1198.14 14.1936Q1198.28 14.6634 1198.4 15.1396Q1198.52 15.6159 1198.62 16.0974Q1198.71 16.5789 1198.78 17.0645Q1198.86 17.5502 1198.9 18.0388Q1198.95 18.5273 1198.98 19.0177Q1199 19.5081 1199 19.999L1199 64.0229Q1199 64.5139 1198.98 65.0042Q1198.95 65.4946 1198.9 65.9832Q1198.86 66.4718 1198.78 66.9574Q1198.71 67.443 1198.62 67.9245Q1198.52 68.4061 1198.4 68.8823Q1198.28 69.3585 1198.14 69.8283Q1198 70.2981 1197.83 70.7604Q1197.67 71.2226 1197.48 71.6762Q1197.29 72.1298 1197.08 72.5736Q1196.87 73.0174 1196.64 73.4504Q1196.41 73.8834 1196.15 74.3045Q1195.9 74.7256 1195.63 75.1338Q1195.36 75.542 1195.06 75.9363Q1194.77 76.3307 1194.46 76.7102Q1194.15 77.0897 1193.82 77.4534Q1193.49 77.8172 1193.14 78.1644Q1192.8 78.5115 1192.43 78.8412Q1192.07 79.1709 1191.69 79.4824Q1191.31 79.7938 1190.91 80.0863Q1190.52 80.3787 1190.11 80.6515Q1189.7 80.9242 1189.28 81.1766Q1188.86 81.429 1188.43 81.6605Q1188 81.8919 1187.55 82.1018Q1187.11 82.3117 1186.65 82.4996Q1186.2 82.6875 1185.74 82.8529Q1185.28 83.0183 1184.81 83.1608Q1184.34 83.3033 1183.86 83.4226Q1183.38 83.5419 1182.9 83.6376Q1182.42 83.7334 1181.94 83.8055Q1181.45 83.8775 1180.96 83.9256Q1180.47 83.9737 1179.98 83.9978Q1179.49 84.0219 1179 84.0219L19.999 84.0219Q19.5081 84.0219 19.0177 83.9978Q18.5273 83.9738 18.0388 83.9256Q17.5502 83.8775 17.0645 83.8055Q16.5789 83.7334 16.0974 83.6376Q15.6159 83.5419 15.1396 83.4226Q14.6634 83.3033 14.1936 83.1608Q13.7238 83.0183 13.2615 82.8529Q12.7993 82.6875 12.3457 82.4996Q11.8921 82.3117 11.4483 82.1018Q11.0045 81.8919 10.5715 81.6605Q10.1386 81.429 9.71746 81.1766Q9.29636 80.9242 8.88815 80.6515Q8.47994 80.3787 8.08561 80.0863Q7.69128 79.7938 7.31177 79.4824Q6.93226 79.1709 6.56849 78.8412Q6.20472 78.5115 5.85757 78.1644Q5.51042 77.8172 5.18072 77.4534Q4.85102 77.0897 4.53956 76.7102Q4.22811 76.3307 3.93565 75.9363Q3.64319 75.542 3.37044 75.1338Q3.09768 74.7256 2.84529 74.3045Q2.59289 73.8834 2.36146 73.4504Q2.13003 73.0174 1.92012 72.5736Q1.71021 72.1298 1.52233 71.6762Q1.33446 71.2226 1.16906 70.7604Q1.00366 70.2981 0.86115 69.8283Q0.718635 69.3585 0.599345 68.8823Q0.480054 68.4061 0.384275 67.9245Q0.288496 67.443 0.216459 66.9574Q0.144422 66.4718 0.0963006 65.9832Q0.0481793 65.4946 0.0240897 65.0042Q0 64.5139 0 64.0229L0 19.999Q0 19.5081 0.0240897 19.0177Q0.0481793 18.5273 0.0963006 18.0388Q0.144422 17.5502 0.216459 17.0645Q0.288496 16.5789 0.384275 16.0974Q0.480054 15.6159 0.599345 15.1396Q0.718635 14.6634 0.86115 14.1936Q1.00366 13.7238 1.16906 13.2615Q1.33446 12.7993 1.52233 12.3457Q1.71021 11.8921 1.92012 11.4483Q2.13003 11.0045 2.36146 10.5715Q2.59289 10.1386 2.84529 9.71746Q3.09768 9.29636 3.37044 8.88815Q3.64319 8.47994 3.93565 8.08561Q4.22811 7.69128 4.53956 7.31177Q4.85102 6.93226 5.18072 6.56849Q5.51042 6.20472 5.85757 5.85757Q6.20472 5.51042 6.56849 5.18072Q6.93226 4.85102 7.31177 4.53956Q7.69128 4.22811 8.08561 3.93565Q8.47994 3.64319 8.88815 3.37044Q9.29636 3.09768 9.71746 2.84529Q10.1386 2.59289 10.5715 2.36146Q11.0045 2.13003 11.4483 1.92012Q11.8921 1.71021 12.3457 1.52233Q12.7993 1.33446 13.2615 1.16906Q13.7238 1.00366 14.1936 0.86115Q14.6634 0.718635 15.1396 0.599345Q15.6159 0.480054 16.0974 0.384275Q16.5789 0.288496 17.0645 0.216459Q17.5502 0.144422 18.0388 0.0963006Q18.5273 0.0481793 19.0177 0.0240897Q19.5081 0 19.999 0L19.999 0Z" transform="translate(118.923584 259.96875)" id="Rectangle-24" fill="#E2DBDB" fill-opacity="0.49803922" fill-rule="evenodd" stroke="none" />
  <g id="Phần-3Java-Web-" transform="translate(159.02368 275.26855)">
    <path d="M45.6328 12.5215L49.0957 12.5215L45.9141 8.19727L40.9922 8.19727L45.6328 12.5215ZM41.7305 36.6035L36.1934 36.6035L36.1934 26.373Q36.1934 22.418 33.3105 22.418Q31.834 22.418 30.9199 23.5254Q30.0059 24.6328 30.0059 26.3379L30.0059 36.6035L24.4512 36.6035L24.4512 9.95508L30.0059 9.95508L30.0059 21.2754L30.0762 21.2754Q32.1152 18.1641 35.6133 18.1641Q41.7305 18.1641 41.7305 25.5469L41.7305 36.6035ZM273.094 34.5117L273.164 34.5117Q274.869 37.043 278.191 37.043Q281.865 37.043 284.063 34.3184Q286.26 31.5938 286.26 27.0938Q286.26 22.9453 284.379 20.5547Q282.498 18.1641 279.018 18.1641Q275.221 18.1641 273.164 21.3105L273.094 21.3105L273.094 9.95508L267.539 9.95508L267.539 36.6035L273.094 36.6035L273.094 34.5117ZM56.1445 15.1758L59.6777 15.1758L55.6699 10.7988L51.4688 10.7988L47.4609 15.1758L50.9941 15.1758L53.666 12.7676L56.1445 15.1758ZM96.9258 30.9434L96.9258 35.7773Q99.3691 37.043 103.271 37.043Q107.824 37.043 110.408 34.9863Q112.992 32.9297 112.992 29.3965Q112.992 27.0586 111.445 25.4502Q109.898 23.8418 107.227 23.5078L107.227 23.4199Q112.236 22.1719 112.236 17.2324Q112.236 14.4551 110.083 12.7148Q107.93 10.9746 104.063 10.9746Q100.529 10.9746 97.875 12.3105L97.875 16.8457Q100.266 15.2109 102.797 15.2109Q106.576 15.2109 106.576 18.2871Q106.576 21.5566 101.654 21.5566L99.4922 21.5566L99.4922 25.8105L101.83 25.8105Q104.396 25.8105 105.864 26.7246Q107.332 27.6387 107.332 29.3262Q107.332 30.9609 106.146 31.875Q104.959 32.7891 102.832 32.7891Q99.457 32.7891 96.9258 30.9434ZM8.56055 27.9199L8.56055 36.6035L2.88281 36.6035L2.88281 11.3965L11.7773 11.3965Q21.3047 11.3965 21.3047 19.4297Q21.3047 23.2266 18.5713 25.5732Q15.8379 27.9199 11.2676 27.9199L8.56055 27.9199ZM136.38 34.3535Q138.727 31.6641 138.727 26.6016L138.727 11.3965L133.066 11.3965L133.066 26.373Q133.066 32.1387 129.182 32.1387Q127.371 32.1387 125.912 31.0313L125.912 36.3574Q127.6 37.043 129.586 37.043Q134.033 37.043 136.38 34.3535ZM238.746 36.6035L245.408 11.3965L239.678 11.3965L236.197 28.2188Q235.898 29.6426 235.828 31.0313L235.758 31.0313Q235.582 29.2559 235.354 28.3242L231.223 11.3965L225.141 11.3965L220.57 28.1133Q220.131 29.7129 220.061 31.0664L219.955 31.0664Q219.85 29.2559 219.621 28.1836L216.07 11.3965L209.865 11.3965L216.492 36.6035L223.049 36.6035L227.338 20.4316Q227.637 19.3242 227.795 17.6016L227.865 17.6016Q227.936 19.166 228.27 20.4316L232.453 36.6035L238.746 36.6035ZM8.56055 15.7559L8.56055 23.6133L10.793 23.6133Q15.3281 23.6133 15.3281 19.6406Q15.3281 15.7559 10.793 15.7559L8.56055 15.7559ZM55.8457 36.6035L61.1016 36.6035L61.1016 25.8457Q61.1016 18.1641 53.4023 18.1641Q51.75 18.1641 49.7373 18.6211Q47.7246 19.0781 46.5645 19.6758L46.5645 23.8594Q49.4648 21.9434 52.6816 21.9434Q55.8809 21.9434 55.8809 24.8965L50.9941 25.5469Q44.7891 26.3555 44.7891 31.5938Q44.7891 34.0723 46.292 35.5576Q47.7949 37.043 50.4141 37.043Q53.9648 37.043 55.7754 34.0195L55.8457 34.0195L55.8457 36.6035ZM82.8809 36.6035L77.3438 36.6035L77.3438 26.6016Q77.3438 22.418 74.3555 22.418Q72.9141 22.418 71.9824 23.5254Q71.0508 24.6328 71.0508 26.3379L71.0508 36.6035L65.4961 36.6035L65.4961 18.6035L71.0508 18.6035L71.0508 21.4512L71.1211 21.4512Q73.1074 18.1641 76.9043 18.1641Q82.8809 18.1641 82.8809 25.582L82.8809 36.6035ZM158.678 36.6035L153.422 36.6035L153.422 34.0195L153.352 34.0195Q151.541 37.043 147.99 37.043Q145.371 37.043 143.868 35.5576Q142.365 34.0723 142.365 31.5938Q142.365 26.3555 148.57 25.5469L153.457 24.8965Q153.457 21.9434 150.258 21.9434Q147.041 21.9434 144.141 23.8594L144.141 19.6758Q145.301 19.0781 147.313 18.6211Q149.326 18.1641 150.979 18.1641Q158.678 18.1641 158.678 25.8457L158.678 36.6035ZM197.561 36.6035L192.305 36.6035L192.305 34.0195L192.234 34.0195Q190.424 37.043 186.873 37.043Q184.254 37.043 182.751 35.5576Q181.248 34.0723 181.248 31.5938Q181.248 26.3555 187.453 25.5469L192.34 24.8965Q192.34 21.9434 189.141 21.9434Q185.924 21.9434 183.023 23.8594L183.023 19.6758Q184.184 19.0781 186.196 18.6211Q188.209 18.1641 189.861 18.1641Q197.561 18.1641 197.561 25.8457L197.561 36.6035ZM264.234 29.1855L252.492 29.1855Q252.773 33.1055 257.432 33.1055Q260.402 33.1055 262.652 31.6992L262.652 35.707Q260.156 37.043 256.166 37.043Q251.807 37.043 249.398 34.626Q246.99 32.209 246.99 27.8848Q246.99 23.4023 249.592 20.7832Q252.193 18.1641 255.99 18.1641Q259.928 18.1641 262.081 20.502Q264.234 22.8398 264.234 26.8477L264.234 29.1855ZM120.393 24.1758Q119.021 24.1758 118.107 23.3408Q117.193 22.5059 117.193 21.2754Q117.193 20.0098 118.134 19.2012Q119.074 18.3926 120.48 18.3926Q121.904 18.3926 122.81 19.21Q123.715 20.0273 123.715 21.2754Q123.715 22.5586 122.792 23.3672Q121.869 24.1758 120.393 24.1758ZM173.514 36.6035L180.211 18.6035L174.41 18.6035L171.211 29.8008Q170.684 31.6465 170.561 32.8945L170.49 32.8945Q170.402 31.5762 169.875 29.6953L166.746 18.6035L160.805 18.6035L167.186 36.6035L173.514 36.6035ZM259.084 25.7754Q259.084 21.9082 255.955 21.9082Q254.619 21.9082 253.644 23.0156Q252.668 24.123 252.457 25.7754L259.084 25.7754ZM273.006 28.7637L273.006 26.918Q273.006 24.9141 274.104 23.666Q275.203 22.418 276.873 22.418Q278.648 22.418 279.606 23.6748Q280.564 24.9316 280.564 27.1641Q280.564 29.8535 279.519 31.3213Q278.473 32.7891 276.574 32.7891Q275.01 32.7891 274.008 31.6465Q273.006 30.5039 273.006 28.7637ZM55.8809 28.0781L55.8809 29.291Q55.8809 30.9434 54.8965 32.0244Q53.9121 33.1055 52.3477 33.1055Q51.2227 33.1055 50.5635 32.499Q49.9043 31.8926 49.9043 30.9434Q49.9043 28.8516 52.6113 28.5L55.8809 28.0781ZM153.457 29.291L153.457 28.0781L150.188 28.5Q147.48 28.8516 147.48 30.9434Q147.48 31.8926 148.14 32.499Q148.799 33.1055 149.924 33.1055Q151.488 33.1055 152.473 32.0244Q153.457 30.9434 153.457 29.291ZM192.34 29.291L192.34 28.0781L189.07 28.5Q186.363 28.8516 186.363 30.9434Q186.363 31.8926 187.022 32.499Q187.682 33.1055 188.807 33.1055Q190.371 33.1055 191.355 32.0244Q192.34 30.9434 192.34 29.291ZM120.393 37.043Q119.021 37.043 118.107 36.1992Q117.193 35.3555 117.193 34.125Q117.193 32.8594 118.134 32.0508Q119.074 31.2422 120.48 31.2422Q121.904 31.2422 122.81 32.0596Q123.715 32.877 123.715 34.125Q123.715 35.4082 122.792 36.2256Q121.869 37.043 120.393 37.043Z" />
  </g>
  <path d="M19.999 0L1179 0Q1179.49 0 1179.98 0.0240897Q1180.47 0.0481793 1180.96 0.0963006Q1181.45 0.144422 1181.94 0.216459Q1182.42 0.288496 1182.9 0.384275Q1183.38 0.480054 1183.86 0.599345Q1184.34 0.718635 1184.81 0.86115Q1185.28 1.00366 1185.74 1.16906Q1186.2 1.33446 1186.65 1.52233Q1187.11 1.71021 1187.55 1.92012Q1188 2.13003 1188.43 2.36146Q1188.86 2.59289 1189.28 2.84529Q1189.7 3.09768 1190.11 3.37044Q1190.52 3.64319 1190.91 3.93565Q1191.31 4.22811 1191.69 4.53956Q1192.07 4.85102 1192.43 5.18072Q1192.8 5.51042 1193.14 5.85757Q1193.49 6.20472 1193.82 6.56849Q1194.15 6.93226 1194.46 7.31177Q1194.77 7.69128 1195.06 8.08561Q1195.36 8.47994 1195.63 8.88815Q1195.9 9.29636 1196.15 9.71746Q1196.41 10.1386 1196.64 10.5715Q1196.87 11.0045 1197.08 11.4483Q1197.29 11.8921 1197.48 12.3457Q1197.67 12.7993 1197.83 13.2615Q1198 13.7238 1198.14 14.1936Q1198.28 14.6634 1198.4 15.1396Q1198.52 15.6159 1198.62 16.0974Q1198.71 16.5789 1198.78 17.0645Q1198.86 17.5502 1198.9 18.0388Q1198.95 18.5273 1198.98 19.0177Q1199 19.5081 1199 19.999L1199 53.001Q1199 53.4919 1198.98 53.9823Q1198.95 54.4727 1198.9 54.9612Q1198.86 55.4498 1198.78 55.9355Q1198.71 56.4211 1198.62 56.9026Q1198.52 57.3841 1198.4 57.8604Q1198.28 58.3366 1198.14 58.8064Q1198 59.2762 1197.83 59.7385Q1197.67 60.2007 1197.48 60.6543Q1197.29 61.1079 1197.08 61.5517Q1196.87 61.9955 1196.64 62.4285Q1196.41 62.8614 1196.15 63.2825Q1195.9 63.7036 1195.63 64.1118Q1195.36 64.5201 1195.06 64.9144Q1194.77 65.3087 1194.46 65.6882Q1194.15 66.0677 1193.82 66.4315Q1193.49 66.7953 1193.14 67.1424Q1192.8 67.4896 1192.43 67.8193Q1192.07 68.149 1191.69 68.4604Q1191.31 68.7719 1190.91 69.0643Q1190.52 69.3568 1190.11 69.6296Q1189.7 69.9023 1189.28 70.1547Q1188.86 70.4071 1188.43 70.6385Q1188 70.87 1187.55 71.0799Q1187.11 71.2898 1186.65 71.4777Q1186.2 71.6655 1185.74 71.8309Q1185.28 71.9963 1184.81 72.1388Q1184.34 72.2814 1183.86 72.4007Q1183.38 72.5199 1182.9 72.6157Q1182.42 72.7115 1181.94 72.7835Q1181.45 72.8556 1180.96 72.9037Q1180.47 72.9518 1179.98 72.9759Q1179.49 73 1179 73L19.999 73Q19.5081 73 19.0177 72.9759Q18.5273 72.9518 18.0388 72.9037Q17.5502 72.8556 17.0645 72.7835Q16.5789 72.7115 16.0974 72.6157Q15.6159 72.5199 15.1396 72.4007Q14.6634 72.2814 14.1936 72.1388Q13.7238 71.9963 13.2615 71.8309Q12.7993 71.6655 12.3457 71.4777Q11.8921 71.2898 11.4483 71.0799Q11.0045 70.87 10.5715 70.6385Q10.1386 70.4071 9.71746 70.1547Q9.29636 69.9023 8.88815 69.6296Q8.47994 69.3568 8.08561 69.0643Q7.69128 68.7719 7.31177 68.4604Q6.93226 68.149 6.56849 67.8193Q6.20472 67.4896 5.85757 67.1424Q5.51042 66.7953 5.18072 66.4315Q4.85102 66.0677 4.53956 65.6882Q4.22811 65.3087 3.93565 64.9144Q3.64319 64.5201 3.37044 64.1118Q3.09768 63.7036 2.84529 63.2825Q2.59289 62.8614 2.36146 62.4285Q2.13003 61.9955 1.92012 61.5517Q1.71021 61.1079 1.52233 60.6543Q1.33446 60.2007 1.16906 59.7385Q1.00366 59.2762 0.86115 58.8064Q0.718635 58.3366 0.599345 57.8604Q0.480054 57.3841 0.384275 56.9026Q0.288496 56.4211 0.216459 55.9355Q0.144422 55.4498 0.0963006 54.9613Q0.0481793 54.4727 0.0240897 53.9823Q0 53.4919 0 53.001L0 19.999Q0 19.5081 0.0240897 19.0177Q0.0481793 18.5273 0.0963006 18.0388Q0.144422 17.5502 0.216459 17.0645Q0.288496 16.5789 0.384275 16.0974Q0.480054 15.6159 0.599345 15.1396Q0.718635 14.6634 0.86115 14.1936Q1.00366 13.7238 1.16906 13.2615Q1.33446 12.7993 1.52233 12.3457Q1.71021 11.8921 1.92012 11.4483Q2.13003 11.0045 2.36146 10.5715Q2.59289 10.1386 2.84529 9.71746Q3.09768 9.29636 3.37044 8.88815Q3.64319 8.47994 3.93565 8.08561Q4.22811 7.69128 4.53956 7.31177Q4.85102 6.93226 5.18072 6.56849Q5.51042 6.20472 5.85757 5.85757Q6.20472 5.51042 6.56849 5.18072Q6.93226 4.85102 7.31177 4.53956Q7.69128 4.22811 8.08561 3.93565Q8.47994 3.64319 8.88815 3.37044Q9.29636 3.09768 9.71746 2.84529Q10.1386 2.59289 10.5715 2.36146Q11.0045 2.13003 11.4483 1.92012Q11.8921 1.71021 12.3457 1.52233Q12.7993 1.33446 13.2615 1.16906Q13.7238 1.00366 14.1936 0.86115Q14.6634 0.718635 15.1396 0.599345Q15.6159 0.480054 16.0974 0.384275Q16.5789 0.288496 17.0645 0.216459Q17.5502 0.144422 18.0388 0.0963006Q18.5273 0.0481793 19.0177 0.0240897Q19.5081 0 19.999 0L19.999 0Z" transform="translate(118.923584 398.56738)" id="Rectangle-25" fill="#E2DBDB" fill-opacity="0.49803922" fill-rule="evenodd" stroke="none" />
  <g id="Phần-4-Spring-MVC" transform="translate(158.92358 416.26953)">
    <path d="M45.6328 12.5215L49.0957 12.5215L45.9141 8.19727L40.9922 8.19727L45.6328 12.5215ZM41.7305 36.6035L36.1934 36.6035L36.1934 26.373Q36.1934 22.418 33.3105 22.418Q31.834 22.418 30.9199 23.5254Q30.0059 24.6328 30.0059 26.3379L30.0059 36.6035L24.4512 36.6035L24.4512 9.95508L30.0059 9.95508L30.0059 21.2754L30.0762 21.2754Q32.1152 18.1641 35.6133 18.1641Q41.7305 18.1641 41.7305 25.5469L41.7305 36.6035ZM197.244 15.7559Q195.838 15.7559 194.941 14.9209Q194.045 14.0859 194.045 12.873Q194.045 11.625 194.941 10.834Q195.838 10.043 197.244 10.043Q198.668 10.043 199.556 10.834Q200.443 11.625 200.443 12.873Q200.443 14.1387 199.556 14.9473Q198.668 15.7559 197.244 15.7559ZM56.1445 15.1758L59.6777 15.1758L55.6699 10.7988L51.4688 10.7988L47.4609 15.1758L50.9941 15.1758L53.666 12.7676L56.1445 15.1758ZM136.986 30.0117L136.986 35.6367Q138.357 36.3398 140.229 36.6914Q142.102 37.043 144.176 37.043Q146.197 37.043 148.017 36.6563Q149.836 36.2695 151.207 35.3818Q152.578 34.4941 153.378 33.0615Q154.178 31.6289 154.178 29.5195Q154.178 27.9902 153.721 26.8389Q153.264 25.6875 152.402 24.791Q151.541 23.8945 150.337 23.1826Q149.133 22.4707 147.621 21.8379Q146.514 21.3809 145.635 20.9502Q144.756 20.5195 144.141 20.0713Q143.525 19.623 143.191 19.1221Q142.857 18.6211 142.857 17.9883Q142.857 17.4082 143.156 16.9424Q143.455 16.4766 144 16.1426Q144.545 15.8086 145.336 15.624Q146.127 15.4395 147.094 15.4395Q147.797 15.4395 148.579 15.5449Q149.361 15.6504 150.152 15.8701Q150.943 16.0898 151.69 16.4238Q152.438 16.7578 153.07 17.1973L153.07 11.9414Q151.787 11.4492 150.267 11.2119Q148.746 10.9746 146.777 10.9746Q144.773 10.9746 142.98 11.4053Q141.188 11.8359 139.825 12.75Q138.463 13.6641 137.672 15.0791Q136.881 16.4941 136.881 18.4629Q136.881 20.9766 138.331 22.752Q139.781 24.5273 142.734 25.7578Q143.895 26.2324 144.896 26.6895Q145.898 27.1465 146.628 27.6387Q147.357 28.1309 147.779 28.7109Q148.201 29.291 148.201 30.0293Q148.201 30.5742 147.938 31.04Q147.674 31.5059 147.138 31.8486Q146.602 32.1914 145.802 32.3848Q145.002 32.5781 143.93 32.5781Q142.102 32.5781 140.309 31.9365Q138.516 31.2949 136.986 30.0117ZM328.535 37.043Q332.982 37.043 335.742 35.707L335.742 30.5215Q332.982 32.1387 329.66 32.1387Q326.18 32.1387 324.123 29.9678Q322.066 27.7969 322.066 24.1406Q322.066 20.3262 324.246 18.0938Q326.426 15.8613 329.977 15.8613Q333.211 15.8613 335.742 17.373L335.742 11.9063Q333.211 10.9746 329.52 10.9746Q323.561 10.9746 319.825 14.7363Q316.09 18.498 316.09 24.5449Q316.09 30.2227 319.412 33.6328Q322.734 37.043 328.535 37.043ZM8.56055 27.9199L8.56055 36.6035L2.88281 36.6035L2.88281 11.3965L11.7773 11.3965Q21.3047 11.3965 21.3047 19.4297Q21.3047 23.2266 18.5713 25.5732Q15.8379 27.9199 11.2676 27.9199L8.56055 27.9199ZM111.604 27.2871L111.604 11.3965L106.453 11.3965Q105.574 13.2949 104.317 15.3779Q103.061 17.4609 101.602 19.5176Q100.143 21.5742 98.5781 23.5166Q97.0137 25.459 95.5547 27.0938L95.5547 31.4355L106.541 31.4355L106.541 36.6035L111.604 36.6035L111.604 31.4355L114.627 31.4355L114.627 27.2871L111.604 27.2871ZM282.322 36.6035L287.93 36.6035L287.93 11.3965L279.826 11.3965L274.676 26.3027Q274.148 27.8496 273.674 29.9414L273.568 29.9414Q273.287 28.1309 272.672 26.3379L267.521 11.3965L259.207 11.3965L259.207 36.6035L264.322 36.6035L264.322 22.6641Q264.322 19.8516 264.094 16.125L264.252 16.125Q264.797 18.9551 265.043 19.6406L271.055 36.6035L275.695 36.6035L281.602 19.4648Q281.953 18.4453 282.393 16.125L282.533 16.125Q282.322 19.0781 282.322 21.5215L282.322 36.6035ZM314.648 11.3965L305.965 36.6035L299.531 36.6035L290.953 11.3965L297.07 11.3965L302.326 28.9395Q302.748 30.3633 302.836 31.4531L302.941 31.4531Q303.064 30.2754 303.486 28.8691L308.707 11.3965L314.648 11.3965ZM8.56055 15.7559L8.56055 23.6133L10.793 23.6133Q15.3281 23.6133 15.3281 19.6406Q15.3281 15.7559 10.793 15.7559L8.56055 15.7559ZM55.8457 36.6035L61.1016 36.6035L61.1016 25.8457Q61.1016 18.1641 53.4023 18.1641Q51.75 18.1641 49.7373 18.6211Q47.7246 19.0781 46.5645 19.6758L46.5645 23.8594Q49.4648 21.9434 52.6816 21.9434Q55.8809 21.9434 55.8809 24.8965L50.9941 25.5469Q44.7891 26.3555 44.7891 31.5938Q44.7891 34.0723 46.292 35.5576Q47.7949 37.043 50.4141 37.043Q53.9648 37.043 55.7754 34.0195L55.8457 34.0195L55.8457 36.6035ZM82.8809 36.6035L77.3438 36.6035L77.3438 26.6016Q77.3438 22.418 74.3555 22.418Q72.9141 22.418 71.9824 23.5254Q71.0508 24.6328 71.0508 26.3379L71.0508 36.6035L65.4961 36.6035L65.4961 18.6035L71.0508 18.6035L71.0508 21.4512L71.1211 21.4512Q73.1074 18.1641 76.9043 18.1641Q82.8809 18.1641 82.8809 25.582L82.8809 36.6035ZM163.406 34.5117L163.336 34.5117L163.336 44.8828L157.781 44.8828L157.781 18.6035L163.336 18.6035L163.336 21.3105L163.406 21.3105Q165.463 18.1641 169.189 18.1641Q172.688 18.1641 174.595 20.5635Q176.502 22.9629 176.502 27.0938Q176.502 31.5938 174.278 34.3184Q172.055 37.043 168.363 37.043Q165.111 37.043 163.406 34.5117ZM216.51 36.6035L222.047 36.6035L222.047 25.582Q222.047 18.1641 216.07 18.1641Q212.273 18.1641 210.287 21.4512L210.217 21.4512L210.217 18.6035L204.662 18.6035L204.662 36.6035L210.217 36.6035L210.217 26.3379Q210.217 24.6328 211.148 23.5254Q212.08 22.418 213.521 22.418Q216.51 22.418 216.51 26.6016L216.51 36.6035ZM244.09 34.5469Q244.09 39.5566 241.189 42.3076Q238.289 45.0586 232.787 45.0586Q229.148 45.0586 227.021 44.0215L227.021 39.3457Q229.799 40.9629 232.629 40.9629Q235.441 40.9629 236.988 39.4775Q238.535 37.9922 238.535 35.4434L238.535 34.0195L238.465 34.0195Q236.566 37.043 232.857 37.043Q229.412 37.043 227.391 34.6172Q225.369 32.1914 225.369 28.1133Q225.369 23.543 227.619 20.8535Q229.869 18.1641 233.543 18.1641Q236.83 18.1641 238.465 20.6953L238.535 20.6953L238.535 18.6035L244.09 18.6035L244.09 34.5469ZM189.51 23.0684Q190.846 23.0684 191.848 23.6133L191.848 18.498Q191.355 18.2871 190.477 18.2871Q187.049 18.2871 185.73 21.9434L185.66 21.9434L185.66 18.6035L180.105 18.6035L180.105 36.6035L185.66 36.6035L185.66 28.0078Q185.66 25.7227 186.68 24.3955Q187.699 23.0684 189.51 23.0684ZM120.393 24.1758Q119.021 24.1758 118.107 23.3408Q117.193 22.5059 117.193 21.2754Q117.193 20.0098 118.134 19.2012Q119.074 18.3926 120.48 18.3926Q121.904 18.3926 122.81 19.21Q123.715 20.0273 123.715 21.2754Q123.715 22.5586 122.792 23.3672Q121.869 24.1758 120.393 24.1758ZM106.541 27.2871L100.529 27.2871Q101.285 26.3555 102.094 25.292Q102.902 24.2285 103.693 23.0947Q104.484 21.9609 105.205 20.792Q105.926 19.623 106.541 18.4805L106.541 27.2871ZM199.986 36.6035L194.432 36.6035L194.432 18.6035L199.986 18.6035L199.986 36.6035ZM163.248 27.1289L163.248 28.5703Q163.248 30.4336 164.232 31.6113Q165.217 32.7891 166.816 32.7891Q168.715 32.7891 169.761 31.3213Q170.807 29.8535 170.807 27.1641Q170.807 22.418 167.115 22.418Q165.41 22.418 164.329 23.71Q163.248 25.002 163.248 27.1289ZM238.605 27.9551L238.605 26.5313Q238.605 24.8262 237.595 23.6221Q236.584 22.418 234.967 22.418Q233.121 22.418 232.066 23.8594Q231.012 25.3008 231.012 27.9199Q231.012 30.1699 232.014 31.4795Q233.016 32.7891 234.756 32.7891Q236.479 32.7891 237.542 31.4619Q238.605 30.1348 238.605 27.9551ZM55.8809 28.0781L55.8809 29.291Q55.8809 30.9434 54.8965 32.0244Q53.9121 33.1055 52.3477 33.1055Q51.2227 33.1055 50.5635 32.499Q49.9043 31.8926 49.9043 30.9434Q49.9043 28.8516 52.6113 28.5L55.8809 28.0781ZM120.393 37.043Q119.021 37.043 118.107 36.1992Q117.193 35.3555 117.193 34.125Q117.193 32.8594 118.134 32.0508Q119.074 31.2422 120.48 31.2422Q121.904 31.2422 122.81 32.0596Q123.715 32.877 123.715 34.125Q123.715 35.4082 122.792 36.2256Q121.869 37.043 120.393 37.043Z" />
  </g>
  <path d="M0 35C0 15.67 18.3563 0 41 0C63.6437 0 82 15.67 82 35C82 54.33 63.6437 70 41 70C18.3563 70 0 54.33 0 35Z" transform="translate(2 542.58496)" id="Ellipse-29" fill="#E2DBDB" fill-opacity="0.49803922" fill-rule="evenodd" stroke="#EF8318" stroke-width="4" />
  <g id="5" transform="translate(37.723633 552.78516)">
    <path d="M2.49609 35.9531L2.49609 31.207Q5.08008 32.7891 7.99805 32.7891Q10.1953 32.7891 11.4346 31.7432Q12.6738 30.6973 12.6738 28.9043Q12.6738 25.1602 7.38281 25.1602Q5.43164 25.1602 2.88281 25.459L3.83203 11.3965L17.1738 11.3965L17.1738 15.9316L8.06836 15.9316L7.7168 20.9766Q9.07031 20.8711 10.0547 20.8711Q13.9395 20.8711 16.1367 22.9102Q18.334 24.9492 18.334 28.3945Q18.334 32.209 15.7148 34.626Q13.0957 37.043 8.61328 37.043Q4.97461 37.043 2.49609 35.9531Z" />
  </g>
  <path d="M0 0L5 0L5 60L0 60L0 0Z" transform="translate(42.84424 482.56836)" id="Rectangle-26" fill="#EF8318" fill-rule="evenodd" stroke="none" />
  <path d="M19.999 0L1179 0Q1179.49 0 1179.98 0.0240897Q1180.47 0.0481793 1180.96 0.0963006Q1181.45 0.144422 1181.94 0.216459Q1182.42 0.288496 1182.9 0.384275Q1183.38 0.480054 1183.86 0.599345Q1184.34 0.718635 1184.81 0.86115Q1185.28 1.00366 1185.74 1.16906Q1186.2 1.33446 1186.65 1.52233Q1187.11 1.71021 1187.55 1.92012Q1188 2.13003 1188.43 2.36146Q1188.86 2.59289 1189.28 2.84529Q1189.7 3.09768 1190.11 3.37044Q1190.52 3.64319 1190.91 3.93565Q1191.31 4.22811 1191.69 4.53956Q1192.07 4.85102 1192.43 5.18072Q1192.8 5.51042 1193.14 5.85757Q1193.49 6.20472 1193.82 6.56849Q1194.15 6.93226 1194.46 7.31177Q1194.77 7.69128 1195.06 8.08561Q1195.36 8.47994 1195.63 8.88815Q1195.9 9.29636 1196.15 9.71746Q1196.41 10.1386 1196.64 10.5715Q1196.87 11.0045 1197.08 11.4483Q1197.29 11.8921 1197.48 12.3457Q1197.67 12.7993 1197.83 13.2615Q1198 13.7238 1198.14 14.1936Q1198.28 14.6634 1198.4 15.1396Q1198.52 15.6159 1198.62 16.0974Q1198.71 16.5789 1198.78 17.0645Q1198.86 17.5502 1198.9 18.0388Q1198.95 18.5273 1198.98 19.0177Q1199 19.5081 1199 19.999L1199 53.001Q1199 53.4919 1198.98 53.9823Q1198.95 54.4727 1198.9 54.9612Q1198.86 55.4498 1198.78 55.9355Q1198.71 56.4211 1198.62 56.9026Q1198.52 57.3841 1198.4 57.8604Q1198.28 58.3366 1198.14 58.8064Q1198 59.2762 1197.83 59.7385Q1197.67 60.2007 1197.48 60.6543Q1197.29 61.1079 1197.08 61.5517Q1196.87 61.9955 1196.64 62.4285Q1196.41 62.8614 1196.15 63.2825Q1195.9 63.7036 1195.63 64.1118Q1195.36 64.5201 1195.06 64.9144Q1194.77 65.3087 1194.46 65.6882Q1194.15 66.0677 1193.82 66.4315Q1193.49 66.7953 1193.14 67.1424Q1192.8 67.4896 1192.43 67.8193Q1192.07 68.149 1191.69 68.4604Q1191.31 68.7719 1190.91 69.0643Q1190.52 69.3568 1190.11 69.6296Q1189.7 69.9023 1189.28 70.1547Q1188.86 70.4071 1188.43 70.6385Q1188 70.87 1187.55 71.0799Q1187.11 71.2898 1186.65 71.4777Q1186.2 71.6655 1185.74 71.8309Q1185.28 71.9963 1184.81 72.1388Q1184.34 72.2814 1183.86 72.4007Q1183.38 72.5199 1182.9 72.6157Q1182.42 72.7115 1181.94 72.7835Q1181.45 72.8556 1180.96 72.9037Q1180.47 72.9518 1179.98 72.9759Q1179.49 73 1179 73L19.999 73Q19.5081 73 19.0177 72.9759Q18.5273 72.9518 18.0388 72.9037Q17.5502 72.8556 17.0645 72.7835Q16.5789 72.7115 16.0974 72.6157Q15.6159 72.5199 15.1396 72.4007Q14.6634 72.2814 14.1936 72.1388Q13.7238 71.9963 13.2615 71.8309Q12.7993 71.6655 12.3457 71.4777Q11.8921 71.2898 11.4483 71.0799Q11.0045 70.87 10.5715 70.6385Q10.1386 70.4071 9.71746 70.1547Q9.29636 69.9023 8.88815 69.6296Q8.47994 69.3568 8.08561 69.0643Q7.69128 68.7719 7.31177 68.4604Q6.93226 68.149 6.56849 67.8193Q6.20472 67.4896 5.85757 67.1424Q5.51042 66.7953 5.18072 66.4315Q4.85102 66.0677 4.53956 65.6882Q4.22811 65.3087 3.93565 64.9144Q3.64319 64.5201 3.37044 64.1118Q3.09768 63.7036 2.84529 63.2825Q2.59289 62.8614 2.36146 62.4285Q2.13003 61.9955 1.92012 61.5517Q1.71021 61.1079 1.52233 60.6543Q1.33446 60.2007 1.16906 59.7385Q1.00366 59.2762 0.86115 58.8064Q0.718635 58.3366 0.599345 57.8604Q0.480054 57.3841 0.384275 56.9026Q0.288496 56.4211 0.216459 55.9355Q0.144422 55.4498 0.0963006 54.9613Q0.0481793 54.4727 0.0240897 53.9823Q0 53.4919 0 53.001L0 19.999Q0 19.5081 0.0240897 19.0177Q0.0481793 18.5273 0.0963006 18.0388Q0.144422 17.5502 0.216459 17.0645Q0.288496 16.5789 0.384275 16.0974Q0.480054 15.6159 0.599345 15.1396Q0.718635 14.6634 0.86115 14.1936Q1.00366 13.7238 1.16906 13.2615Q1.33446 12.7993 1.52233 12.3457Q1.71021 11.8921 1.92012 11.4483Q2.13003 11.0045 2.36146 10.5715Q2.59289 10.1386 2.84529 9.71746Q3.09768 9.29636 3.37044 8.88815Q3.64319 8.47994 3.93565 8.08561Q4.22811 7.69128 4.53956 7.31177Q4.85102 6.93226 5.18072 6.56849Q5.51042 6.20472 5.85757 5.85757Q6.20472 5.51042 6.56849 5.18072Q6.93226 4.85102 7.31177 4.53956Q7.69128 4.22811 8.08561 3.93565Q8.47994 3.64319 8.88815 3.37044Q9.29636 3.09768 9.71746 2.84529Q10.1386 2.59289 10.5715 2.36146Q11.0045 2.13003 11.4483 1.92012Q11.8921 1.71021 12.3457 1.52233Q12.7993 1.33446 13.2615 1.16906Q13.7238 1.00366 14.1936 0.86115Q14.6634 0.718635 15.1396 0.599345Q15.6159 0.480054 16.0974 0.384275Q16.5789 0.288496 17.0645 0.216459Q17.5502 0.144422 18.0388 0.0963006Q18.5273 0.0481793 19.0177 0.0240897Q19.5081 0 19.999 0L19.999 0Z" transform="translate(118.923584 541.86914)" id="Rectangle-27" fill="#E2DBDB" fill-opacity="0.49803922" fill-rule="evenodd" stroke="none" />
  <g id="Phần-5Hoàn-thiện-Trang-Web-hoàn-chỉnh" transform="translate(151.22363 542.56836)">
    <path d="M49.0957 12.5215L45.6328 12.5215L40.9922 8.19727L45.9141 8.19727L49.0957 12.5215ZM659.338 15.1758L659.338 14.3145Q661.852 13.875 661.852 11.6953Q661.852 8.91797 658.178 8.91797Q657.738 8.91797 656.156 9.02344L656.156 11.0801Q656.859 10.9043 657.527 10.9043Q658.969 10.9043 658.969 11.8711Q658.969 12.873 656.877 12.9961L656.877 15.1758L659.338 15.1758ZM36.1934 36.6035L41.7305 36.6035L41.7305 25.5469Q41.7305 18.1641 35.6133 18.1641Q32.1152 18.1641 30.0762 21.2754L30.0059 21.2754L30.0059 9.95508L24.4512 9.95508L24.4512 36.6035L30.0059 36.6035L30.0059 26.3379Q30.0059 24.6328 30.9199 23.5254Q31.834 22.418 33.3105 22.418Q36.1934 22.418 36.1934 26.373L36.1934 36.6035ZM254.092 36.6035L259.629 36.6035L259.629 25.5469Q259.629 18.1641 253.512 18.1641Q250.014 18.1641 247.975 21.2754L247.904 21.2754L247.904 9.95508L242.35 9.95508L242.35 36.6035L247.904 36.6035L247.904 26.3379Q247.904 24.6328 248.818 23.5254Q249.732 22.418 251.209 22.418Q254.092 22.418 254.092 26.373L254.092 36.6035ZM495.51 34.5117L495.439 34.5117L495.439 36.6035L489.885 36.6035L489.885 9.95508L495.439 9.95508L495.439 21.3105L495.51 21.3105Q497.566 18.1641 501.363 18.1641Q504.844 18.1641 506.725 20.5547Q508.605 22.9453 508.605 27.0938Q508.605 31.5938 506.408 34.3184Q504.211 37.043 500.537 37.043Q497.215 37.043 495.51 34.5117ZM533.883 36.6035L539.42 36.6035L539.42 25.5469Q539.42 18.1641 533.303 18.1641Q529.805 18.1641 527.766 21.2754L527.695 21.2754L527.695 9.95508L522.141 9.95508L522.141 36.6035L527.695 36.6035L527.695 26.3379Q527.695 24.6328 528.609 23.5254Q529.523 22.418 531 22.418Q533.883 22.418 533.883 26.373L533.883 36.6035ZM651.463 36.6035L645.926 36.6035L645.926 26.373Q645.926 22.418 643.043 22.418Q641.566 22.418 640.652 23.5254Q639.738 24.6328 639.738 26.3379L639.738 36.6035L634.184 36.6035L634.184 9.95508L639.738 9.95508L639.738 21.2754L639.809 21.2754Q641.848 18.1641 645.346 18.1641Q651.463 18.1641 651.463 25.5469L651.463 36.6035ZM699.609 36.6035L705.146 36.6035L705.146 25.5469Q705.146 18.1641 699.029 18.1641Q695.531 18.1641 693.492 21.2754L693.422 21.2754L693.422 9.95508L687.867 9.95508L687.867 36.6035L693.422 36.6035L693.422 26.3379Q693.422 24.6328 694.336 23.5254Q695.25 22.418 696.727 22.418Q699.609 22.418 699.609 26.373L699.609 36.6035ZM266.836 15.7559Q265.43 15.7559 264.533 14.9209Q263.637 14.0859 263.637 12.873Q263.637 11.625 264.533 10.834Q265.43 10.043 266.836 10.043Q268.26 10.043 269.147 10.834Q270.035 11.625 270.035 12.873Q270.035 14.1387 269.147 14.9473Q268.26 15.7559 266.836 15.7559ZM284.906 15.7559L288.545 15.7559L284.396 10.043L280.037 10.043L275.906 15.7559L279.545 15.7559L282.129 12.4512L284.906 15.7559ZM188.543 15.7559L184.553 15.7559L179.033 10.0781L183.973 10.0781L188.543 15.7559ZM573.117 15.7559L577.107 15.7559L572.537 10.0781L567.598 10.0781L573.117 15.7559ZM59.6777 15.1758L56.1445 15.1758L53.666 12.7676L50.9941 15.1758L47.4609 15.1758L51.4688 10.7988L55.6699 10.7988L59.6777 15.1758ZM8.56055 36.6035L8.56055 27.9199L11.2676 27.9199Q15.8379 27.9199 18.5713 25.5732Q21.3047 23.2266 21.3047 19.4297Q21.3047 11.3965 11.7773 11.3965L2.88281 11.3965L2.88281 36.6035L8.56055 36.6035ZM97.3652 35.9531L97.3652 31.207Q99.9492 32.7891 102.867 32.7891Q105.064 32.7891 106.304 31.7432Q107.543 30.6973 107.543 28.9043Q107.543 25.1602 102.252 25.1602Q100.301 25.1602 97.752 25.459L98.7012 11.3965L112.043 11.3965L112.043 15.9316L102.938 15.9316L102.586 20.9766Q103.939 20.8711 104.924 20.8711Q108.809 20.8711 111.006 22.9102Q113.203 24.9492 113.203 28.3945Q113.203 32.209 110.584 34.626Q107.965 37.043 103.482 37.043Q99.8438 37.043 97.3652 35.9531ZM150.029 36.6035L144.334 36.6035L144.334 26.3379L133.893 26.3379L133.893 36.6035L128.215 36.6035L128.215 11.3965L133.893 11.3965L133.893 21.4512L144.334 21.4512L144.334 11.3965L150.029 11.3965L150.029 36.6035ZM336.498 16.0195L343.688 16.0195L343.688 11.3965L323.648 11.3965L323.648 16.0195L330.803 16.0195L330.803 36.6035L336.498 36.6035L336.498 16.0195ZM467.754 11.3965L461.092 36.6035L454.799 36.6035L450.615 20.4316Q450.281 19.166 450.211 17.6016L450.141 17.6016Q449.982 19.3242 449.684 20.4316L445.395 36.6035L438.838 36.6035L432.211 11.3965L438.416 11.3965L441.967 28.1836Q442.195 29.2559 442.301 31.0664L442.406 31.0664Q442.477 29.7129 442.916 28.1133L447.486 11.3965L453.568 11.3965L457.699 28.3242Q457.928 29.2559 458.104 31.0313L458.174 31.0313Q458.244 29.6426 458.543 28.2188L462.023 11.3965L467.754 11.3965ZM239.221 36.3926Q237.99 37.043 235.512 37.043Q229.641 37.043 229.641 30.9434L229.641 22.6992L226.723 22.6992L226.723 18.6035L229.641 18.6035L229.641 14.7188L235.178 13.1367L235.178 18.6035L239.221 18.6035L239.221 22.6992L235.178 22.6992L235.178 29.9766Q235.178 32.7891 237.41 32.7891Q238.289 32.7891 239.221 32.2793L239.221 36.3926ZM8.56055 23.6133L8.56055 15.7559L10.793 15.7559Q15.3281 15.7559 15.3281 19.6406Q15.3281 23.6133 10.793 23.6133L8.56055 23.6133ZM61.1016 36.6035L55.8457 36.6035L55.8457 34.0195L55.7754 34.0195Q53.9648 37.043 50.4141 37.043Q47.7949 37.043 46.292 35.5576Q44.7891 34.0723 44.7891 31.5938Q44.7891 26.3555 50.9941 25.5469L55.8809 24.8965Q55.8809 21.9434 52.6816 21.9434Q49.4648 21.9434 46.5645 23.8594L46.5645 19.6758Q47.7246 19.0781 49.7373 18.6211Q51.75 18.1641 53.4023 18.1641Q61.1016 18.1641 61.1016 25.8457L61.1016 36.6035ZM77.3438 36.6035L82.8809 36.6035L82.8809 25.582Q82.8809 18.1641 76.9043 18.1641Q73.1074 18.1641 71.1211 21.4512L71.0508 21.4512L71.0508 18.6035L65.4961 18.6035L65.4961 36.6035L71.0508 36.6035L71.0508 26.3379Q71.0508 24.6328 71.9824 23.5254Q72.9141 22.418 74.3555 22.418Q77.3438 22.418 77.3438 26.6016L77.3438 36.6035ZM156.753 34.5205Q159.328 37.043 163.828 37.043Q168.398 37.043 171.026 34.4414Q173.654 31.8398 173.654 27.3574Q173.654 23.209 171.105 20.6865Q168.557 18.1641 164.074 18.1641Q159.521 18.1641 156.85 20.6865Q154.178 23.209 154.178 27.6738Q154.178 31.998 156.753 34.5205ZM192.234 36.6035L186.979 36.6035L186.979 34.0195L186.908 34.0195Q185.098 37.043 181.547 37.043Q178.928 37.043 177.425 35.5576Q175.922 34.0723 175.922 31.5938Q175.922 26.3555 182.127 25.5469L187.014 24.8965Q187.014 21.9434 183.814 21.9434Q180.598 21.9434 177.697 23.8594L177.697 19.6758Q178.857 19.0781 180.87 18.6211Q182.883 18.1641 184.535 18.1641Q192.234 18.1641 192.234 25.8457L192.234 36.6035ZM208.477 36.6035L214.014 36.6035L214.014 25.582Q214.014 18.1641 208.037 18.1641Q204.24 18.1641 202.254 21.4512L202.184 21.4512L202.184 18.6035L196.629 18.6035L196.629 36.6035L202.184 36.6035L202.184 26.3379Q202.184 24.6328 203.115 23.5254Q204.047 22.418 205.488 22.418Q208.477 22.418 208.477 26.6016L208.477 36.6035ZM278.684 29.1855L290.426 29.1855L290.426 26.8477Q290.426 22.8398 288.272 20.502Q286.119 18.1641 282.182 18.1641Q278.385 18.1641 275.783 20.7832Q273.182 23.4023 273.182 27.8848Q273.182 32.209 275.59 34.626Q277.998 37.043 282.357 37.043Q286.348 37.043 288.844 35.707L288.844 31.6992Q286.594 33.1055 283.623 33.1055Q278.965 33.1055 278.684 29.1855ZM311.115 36.6035L305.578 36.6035L305.578 26.6016Q305.578 22.418 302.59 22.418Q301.148 22.418 300.217 23.5254Q299.285 24.6328 299.285 26.3379L299.285 36.6035L293.73 36.6035L293.73 18.6035L299.285 18.6035L299.285 21.4512L299.355 21.4512Q301.342 18.1641 305.139 18.1641Q311.115 18.1641 311.115 25.582L311.115 36.6035ZM370.582 36.6035L375.838 36.6035L375.838 25.8457Q375.838 18.1641 368.139 18.1641Q366.486 18.1641 364.474 18.6211Q362.461 19.0781 361.301 19.6758L361.301 23.8594Q364.201 21.9434 367.418 21.9434Q370.617 21.9434 370.617 24.8965L365.73 25.5469Q359.525 26.3555 359.525 31.5938Q359.525 34.0723 361.028 35.5576Q362.531 37.043 365.15 37.043Q368.701 37.043 370.512 34.0195L370.582 34.0195L370.582 36.6035ZM397.617 36.6035L392.08 36.6035L392.08 26.6016Q392.08 22.418 389.092 22.418Q387.65 22.418 386.719 23.5254Q385.787 24.6328 385.787 26.3379L385.787 36.6035L380.232 36.6035L380.232 18.6035L385.787 18.6035L385.787 21.4512L385.857 21.4512Q387.844 18.1641 391.641 18.1641Q397.617 18.1641 397.617 25.582L397.617 36.6035ZM416.76 42.3076Q419.66 39.5566 419.66 34.5469L419.66 18.6035L414.105 18.6035L414.105 20.6953L414.035 20.6953Q412.4 18.1641 409.113 18.1641Q405.439 18.1641 403.189 20.8535Q400.939 23.543 400.939 28.1133Q400.939 32.1914 402.961 34.6172Q404.982 37.043 408.428 37.043Q412.137 37.043 414.035 34.0195L414.105 34.0195L414.105 35.4434Q414.105 37.9922 412.559 39.4775Q411.012 40.9629 408.199 40.9629Q405.369 40.9629 402.592 39.3457L402.592 44.0215Q404.719 45.0586 408.357 45.0586Q413.859 45.0586 416.76 42.3076ZM474.838 29.1855L486.58 29.1855L486.58 26.8477Q486.58 22.8398 484.427 20.502Q482.273 18.1641 478.336 18.1641Q474.539 18.1641 471.938 20.7832Q469.336 23.4023 469.336 27.8848Q469.336 32.209 471.744 34.626Q474.152 37.043 478.512 37.043Q482.502 37.043 484.998 35.707L484.998 31.6992Q482.748 33.1055 479.777 33.1055Q475.119 33.1055 474.838 29.1855ZM552.393 37.043Q547.893 37.043 545.317 34.5205Q542.742 31.998 542.742 27.6738Q542.742 23.209 545.414 20.6865Q548.086 18.1641 552.639 18.1641Q557.121 18.1641 559.67 20.6865Q562.219 23.209 562.219 27.3574Q562.219 31.8398 559.591 34.4414Q556.963 37.043 552.393 37.043ZM575.543 36.6035L580.799 36.6035L580.799 25.8457Q580.799 18.1641 573.1 18.1641Q571.447 18.1641 569.435 18.6211Q567.422 19.0781 566.262 19.6758L566.262 23.8594Q569.162 21.9434 572.379 21.9434Q575.578 21.9434 575.578 24.8965L570.691 25.5469Q564.486 26.3555 564.486 31.5938Q564.486 34.0723 565.989 35.5576Q567.492 37.043 570.111 37.043Q573.662 37.043 575.473 34.0195L575.543 34.0195L575.543 36.6035ZM602.578 36.6035L597.041 36.6035L597.041 26.6016Q597.041 22.418 594.053 22.418Q592.611 22.418 591.68 23.5254Q590.748 24.6328 590.748 26.3379L590.748 36.6035L585.193 36.6035L585.193 18.6035L590.748 18.6035L590.748 21.4512L590.818 21.4512Q592.805 18.1641 596.602 18.1641Q602.578 18.1641 602.578 25.582L602.578 36.6035ZM625.113 37.043Q628.664 37.043 630.545 35.9531L630.545 31.4883Q628.559 32.7891 626.484 32.7891Q624.146 32.7891 622.811 31.4268Q621.475 30.0645 621.475 27.6738Q621.475 25.2129 622.872 23.8154Q624.27 22.418 626.66 22.418Q628.805 22.418 630.545 23.7188L630.545 19.0078Q629.121 18.1641 625.939 18.1641Q621.334 18.1641 618.583 20.8096Q615.832 23.4551 615.832 28.043Q615.832 32.0156 618.398 34.5293Q620.965 37.043 625.113 37.043ZM683.473 36.6035L677.936 36.6035L677.936 26.6016Q677.936 22.418 674.947 22.418Q673.506 22.418 672.574 23.5254Q671.643 24.6328 671.643 26.3379L671.643 36.6035L666.088 36.6035L666.088 18.6035L671.643 18.6035L671.643 21.4512L671.713 21.4512Q673.699 18.1641 677.496 18.1641Q683.473 18.1641 683.473 25.582L683.473 36.6035ZM358.277 23.6133Q357.275 23.0684 355.939 23.0684Q354.129 23.0684 353.109 24.3955Q352.09 25.7227 352.09 28.0078L352.09 36.6035L346.535 36.6035L346.535 18.6035L352.09 18.6035L352.09 21.9434L352.16 21.9434Q353.479 18.2871 356.906 18.2871Q357.785 18.2871 358.277 18.498L358.277 23.6133ZM118.107 23.3408Q119.021 24.1758 120.393 24.1758Q121.869 24.1758 122.792 23.3672Q123.715 22.5586 123.715 21.2754Q123.715 20.0273 122.81 19.21Q121.904 18.3926 120.48 18.3926Q119.074 18.3926 118.134 19.2012Q117.193 20.0098 117.193 21.2754Q117.193 22.5059 118.107 23.3408ZM269.578 36.6035L264.023 36.6035L264.023 18.6035L269.578 18.6035L269.578 36.6035ZM655.857 36.6035L661.412 36.6035L661.412 18.6035L655.857 18.6035L655.857 36.6035ZM282.146 21.9082Q285.275 21.9082 285.275 25.7754L278.648 25.7754Q278.859 24.123 279.835 23.0156Q280.811 21.9082 282.146 21.9082ZM478.301 21.9082Q481.43 21.9082 481.43 25.7754L474.803 25.7754Q475.014 24.123 475.989 23.0156Q476.965 21.9082 478.301 21.9082ZM160.91 23.7715Q162 22.418 163.969 22.418Q167.994 22.418 167.994 27.4629Q167.994 32.7891 164.004 32.7891Q159.82 32.7891 159.82 27.6035Q159.82 25.125 160.91 23.7715ZM414.176 26.5313L414.176 27.9551Q414.176 30.1348 413.112 31.4619Q412.049 32.7891 410.326 32.7891Q408.586 32.7891 407.584 31.4795Q406.582 30.1699 406.582 27.9199Q406.582 25.3008 407.637 23.8594Q408.691 22.418 410.537 22.418Q412.154 22.418 413.165 23.6221Q414.176 24.8262 414.176 26.5313ZM495.352 26.918L495.352 28.7637Q495.352 30.5039 496.354 31.6465Q497.355 32.7891 498.92 32.7891Q500.818 32.7891 501.864 31.3213Q502.91 29.8535 502.91 27.1641Q502.91 24.9316 501.952 23.6748Q500.994 22.418 499.219 22.418Q497.549 22.418 496.45 23.666Q495.352 24.9141 495.352 26.918ZM552.533 22.418Q550.564 22.418 549.475 23.7715Q548.385 25.125 548.385 27.6035Q548.385 32.7891 552.568 32.7891Q556.559 32.7891 556.559 27.4629Q556.559 22.418 552.533 22.418ZM55.8809 29.291L55.8809 28.0781L52.6113 28.5Q49.9043 28.8516 49.9043 30.9434Q49.9043 31.8926 50.5635 32.499Q51.2227 33.1055 52.3477 33.1055Q53.9121 33.1055 54.8965 32.0244Q55.8809 30.9434 55.8809 29.291ZM187.014 29.291L187.014 28.0781L183.744 28.5Q181.037 28.8516 181.037 30.9434Q181.037 31.8926 181.696 32.499Q182.355 33.1055 183.48 33.1055Q185.045 33.1055 186.029 32.0244Q187.014 30.9434 187.014 29.291ZM370.617 28.0781L370.617 29.291Q370.617 30.9434 369.633 32.0244Q368.648 33.1055 367.084 33.1055Q365.959 33.1055 365.3 32.499Q364.641 31.8926 364.641 30.9434Q364.641 28.8516 367.348 28.5L370.617 28.0781ZM575.578 28.0781L575.578 29.291Q575.578 30.9434 574.594 32.0244Q573.609 33.1055 572.045 33.1055Q570.92 33.1055 570.261 32.499Q569.602 31.8926 569.602 30.9434Q569.602 28.8516 572.309 28.5L575.578 28.0781ZM118.107 36.1992Q119.021 37.043 120.393 37.043Q121.869 37.043 122.792 36.2256Q123.715 35.4082 123.715 34.125Q123.715 32.877 122.81 32.0596Q121.904 31.2422 120.48 31.2422Q119.074 31.2422 118.134 32.0508Q117.193 32.8594 117.193 34.125Q117.193 35.3555 118.107 36.1992ZM280.591 42.7734Q281.355 43.4766 282.533 43.4766Q283.711 43.4766 284.458 42.791Q285.205 42.1055 285.205 41.0684Q285.205 40.0313 284.458 39.3633Q283.711 38.6953 282.533 38.6953Q281.373 38.6953 280.6 39.3545Q279.826 40.0137 279.826 41.0684Q279.826 42.0703 280.591 42.7734Z" />
  </g>
</svg>