<?xml version="1.0" encoding="utf-8"?>
<svg width="251px" height="7px" viewbox="0 0 251 7" version="1.1" xmlns:xlink="http://www.w3.org/1999/xlink" xmlns="http://www.w3.org/2000/svg">
  <g id="Group-13">
    <path d="M0 3.5C0 1.567 1.49421 0 3.3374 0C5.1806 0 6.67481 1.567 6.67481 3.5C6.67481 5.433 5.1806 7 3.3374 7C1.49421 7 0 5.433 0 3.5Z" id="Ellipse" fill="#EDBC21" fill-rule="evenodd" stroke="none" />
    <path d="M0 3.5C0 1.567 1.49421 0 3.3374 0C5.1806 0 6.67481 1.567 6.67481 3.5C6.67481 5.433 5.1806 7 3.3374 7C1.49421 7 0 5.433 0 3.5Z" transform="translate(10.187744 0)" id="Ellipse-2" fill="#FC4850" fill-rule="evenodd" stroke="none" />
    <path d="M2.46959 0L225.528 0Q225.649 0 225.77 0.0118917Q225.891 0.0237835 226.01 0.0474524Q226.129 0.0711214 226.245 0.10634Q226.361 0.141558 226.473 0.187986Q226.585 0.234415 226.692 0.291606Q226.799 0.348797 226.9 0.416201Q227.001 0.483604 227.094 0.560571Q227.188 0.637537 227.274 0.723326Q227.36 0.809114 227.437 0.902898Q227.514 0.996682 227.581 1.09756Q227.649 1.19843 227.706 1.30543Q227.763 1.41243 227.809 1.52452Q227.856 1.63661 227.891 1.7527Q227.926 1.8688 227.95 1.9878Q227.974 2.10679 227.985 2.22753Q227.997 2.34827 227.997 2.46959L227.997 2.47159Q227.997 2.59291 227.985 2.71365Q227.974 2.83439 227.95 2.95338Q227.926 3.07237 227.891 3.18847Q227.856 3.30457 227.809 3.41666Q227.763 3.52875 227.706 3.63574Q227.649 3.74274 227.581 3.84362Q227.514 3.94449 227.437 4.03828Q227.36 4.13206 227.274 4.21785Q227.188 4.30364 227.094 4.38061Q227.001 4.45757 226.9 4.52498Q226.799 4.59238 226.692 4.64957Q226.585 4.70676 226.473 4.75319Q226.361 4.79962 226.245 4.83484Q226.129 4.87005 226.01 4.89372Q225.891 4.91739 225.77 4.92929Q225.649 4.94118 225.528 4.94118L2.46959 4.94118Q2.34827 4.94118 2.22753 4.92929Q2.10679 4.91739 1.9878 4.89372Q1.8688 4.87005 1.7527 4.83484Q1.63661 4.79962 1.52452 4.75319Q1.41243 4.70676 1.30543 4.64957Q1.19843 4.59238 1.09756 4.52498Q0.996682 4.45757 0.902898 4.38061Q0.809114 4.30364 0.723326 4.21785Q0.637537 4.13206 0.560571 4.03828Q0.483604 3.94449 0.416201 3.84362Q0.348797 3.74274 0.291606 3.63574Q0.234415 3.52875 0.187986 3.41666Q0.141558 3.30457 0.10634 3.18847Q0.0711214 3.07237 0.0474524 2.95338Q0.0237835 2.83439 0.0118917 2.71365Q0 2.59291 0 2.47159L0 2.46959Q0 2.34827 0.0118917 2.22753Q0.0237835 2.10679 0.0474524 1.9878Q0.0711214 1.8688 0.10634 1.7527Q0.141558 1.63661 0.187986 1.52452Q0.234415 1.41243 0.291606 1.30543Q0.348797 1.19843 0.416201 1.09756Q0.483604 0.996682 0.560571 0.902898Q0.637537 0.809114 0.723326 0.723326Q0.809114 0.637537 0.902898 0.560571Q0.996682 0.483604 1.09756 0.416201Q1.19843 0.348797 1.30543 0.291606Q1.41243 0.234415 1.52452 0.187986Q1.63661 0.141558 1.7527 0.10634Q1.8688 0.0711214 1.9878 0.0474524Q2.10679 0.0237835 2.22753 0.0118917Q2.34827 0 2.46959 0Z" transform="translate(22.202637 1.2353516)" id="Rectangle-10" fill="#D3D3D3" fill-rule="evenodd" stroke="none" />
  </g>
</svg>