<svg width="832" height="543" xmlns="http://www.w3.org/2000/svg" xmlns:xlink="http://www.w3.org/1999/xlink" overflow="hidden"><defs><clipPath id="clip0"><rect x="206" y="123" width="832" height="543"/></clipPath></defs><g clip-path="url(#clip0)" transform="translate(-206 -123)"><path d="M209 153C209 138.088 221.088 126 236 126 250.912 126 263 138.088 263 153 263 167.912 250.912 180 236 180 221.088 180 209 167.912 209 153Z" stroke="#EF8318" stroke-width="4" stroke-miterlimit="8" fill="#FFFFFF" fill-rule="evenodd"/><text font-family="Calibri,Calibri_MSFontService,sans-serif" font-weight="700" font-size="24" transform="translate(229.763 160)">1</text><path d="M314 135C314 130.029 318.029 126 323 126L1019 126C1023.97 126 1028 130.029 1028 135L1028 171C1028 175.971 1023.97 180 1019 180L323 180C318.029 180 314 175.971 314 171Z" fill="#D9D9D9" fill-rule="evenodd"/><text fill="#404040" font-family="Arial,Arial_MSFontService,sans-serif" font-weight="700" font-size="24" transform="translate(323.6 161)">Làm <tspan font-size="24" x="56" y="0">quen với môi trường và cách viết lệnh trong Java</tspan></text><path d="M209 222C209 207.088 221.088 195 236 195 250.912 195 263 207.088 263 222 263 236.912 250.912 249 236 249 221.088 249 209 236.912 209 222Z" stroke="#EF8318" stroke-width="4" stroke-miterlimit="8" fill="#FFFFFF" fill-rule="evenodd"/><text font-family="Calibri,Calibri_MSFontService,sans-serif" font-weight="700" font-size="24" transform="translate(229.763 229)">2</text><path d="M314 204C314 199.029 318.029 195 323 195L1019 195C1023.97 195 1028 199.029 1028 204L1028 240C1028 244.971 1023.97 249 1019 249L323 249C318.029 249 314 244.971 314 240Z" fill="#D9D9D9" fill-rule="evenodd"/><text fill="#404040" font-family="Arial,Arial_MSFontService,sans-serif" font-weight="700" font-size="24" transform="translate(323.6 230)">Các toán tử trong lập trình và các khái niệm cơ bản</text><path d="M209 291C209 276.088 221.088 264 236 264 250.912 264 263 276.088 263 291 263 305.912 250.912 318 236 318 221.088 318 209 305.912 209 291Z" stroke="#EF8318" stroke-width="4" stroke-miterlimit="8" fill="#FFFFFF" fill-rule="evenodd"/><text font-family="Calibri,Calibri_MSFontService,sans-serif" font-weight="700" font-size="24" transform="translate(229.763 298)">3</text><path d="M314 273C314 268.029 318.029 264 323 264L1019 264C1023.97 264 1028 268.029 1028 273L1028 309C1028 313.971 1023.97 318 1019 318L323 318C318.029 318 314 313.971 314 309Z" fill="#D9D9D9" fill-rule="evenodd"/><text fill="#404040" font-family="Arial,Arial_MSFontService,sans-serif" font-weight="700" font-size="24" transform="translate(323.6 299)">Cấu trúc rẽ nhánh và vòng lặp</text><path d="M209 360C209 345.088 221.088 333 236 333 250.912 333 263 345.088 263 360 263 374.912 250.912 387 236 387 221.088 387 209 374.912 209 360Z" stroke="#EF8318" stroke-width="4" stroke-miterlimit="8" fill="#FFFFFF" fill-rule="evenodd"/><text font-family="Calibri,Calibri_MSFontService,sans-serif" font-weight="700" font-size="24" transform="translate(229.763 367)">4</text><path d="M314 342C314 337.029 318.029 333 323 333L1019 333C1023.97 333 1028 337.029 1028 342L1028 378C1028 382.971 1023.97 387 1019 387L323 387C318.029 387 314 382.971 314 378Z" fill="#D9D9D9" fill-rule="evenodd"/><text fill="#404040" font-family="Arial,Arial_MSFontService,sans-serif" font-weight="700" font-size="24" transform="translate(323.6 368)">Các kiểu dữ liệu đặc biệt</text><path d="M209 430C209 415.088 221.088 403 236 403 250.912 403 263 415.088 263 430 263 444.912 250.912 457 236 457 221.088 457 209 444.912 209 430Z" stroke="#EF8318" stroke-width="4" stroke-miterlimit="8" fill="#FFFFFF" fill-rule="evenodd"/><text font-family="Calibri,Calibri_MSFontService,sans-serif" font-weight="700" font-size="24" transform="translate(229.763 437)">5</text><path d="M314 412C314 407.029 318.029 403 323 403L1019 403C1023.97 403 1028 407.029 1028 412L1028 448C1028 452.971 1023.97 457 1019 457L323 457C318.029 457 314 452.971 314 448Z" fill="#D9D9D9" fill-rule="evenodd"/><text fill="#404040" font-family="Arial,Arial_MSFontService,sans-serif" font-weight="700" font-size="24" transform="translate(323.6 438)">Class <tspan font-size="24" x="70.6667" y="0">-</tspan><tspan font-size="24" x="85.3333" y="0">Object</tspan></text><path d="M209 499C209 484.088 221.088 472 236 472 250.912 472 263 484.088 263 499 263 513.912 250.912 526 236 526 221.088 526 209 513.912 209 499Z" stroke="#EF8318" stroke-width="4" stroke-miterlimit="8" fill="#FFFFFF" fill-rule="evenodd"/><text font-family="Calibri,Calibri_MSFontService,sans-serif" font-weight="700" font-size="24" transform="translate(229.763 506)">6</text><path d="M314 481C314 476.029 318.029 472 323 472L1019 472C1023.97 472 1028 476.029 1028 481L1028 517C1028 521.971 1023.97 526 1019 526L323 526C318.029 526 314 521.971 314 517Z" fill="#D9D9D9" fill-rule="evenodd"/><text fill="#404040" font-family="Arial,Arial_MSFontService,sans-serif" font-weight="700" font-size="24" transform="translate(323.6 507)">Lập trình hướng đối tượng (OOP)</text><path d="M209 568C209 553.088 221.088 541 236 541 250.912 541 263 553.088 263 568 263 582.912 250.912 595 236 595 221.088 595 209 582.912 209 568Z" stroke="#EF8318" stroke-width="4" stroke-miterlimit="8" fill="#FFFFFF" fill-rule="evenodd"/><text font-family="Calibri,Calibri_MSFontService,sans-serif" font-weight="700" font-size="24" transform="translate(229.763 575)">7</text><path d="M314 550C314 545.029 318.029 541 323 541L1019 541C1023.97 541 1028 545.029 1028 550L1028 586C1028 590.971 1023.97 595 1019 595L323 595C318.029 595 314 590.971 314 586Z" fill="#D9D9D9" fill-rule="evenodd"/><text fill="#404040" font-family="Arial,Arial_MSFontService,sans-serif" font-weight="700" font-size="24" transform="translate(323.6 576)">Áp dụng lập trình hướng đối tượng và sử dụng Interface</text><path d="M209 636.5C209 621.864 221.088 610 236 610 250.912 610 263 621.864 263 636.5 263 651.136 250.912 663 236 663 221.088 663 209 651.136 209 636.5Z" stroke="#EF8318" stroke-width="4" stroke-miterlimit="8" fill="#FFFFFF" fill-rule="evenodd"/><text font-family="Calibri,Calibri_MSFontService,sans-serif" font-weight="700" font-size="24" transform="translate(229.763 644)">8</text><path d="M314 618.834C314 613.955 317.955 610 322.834 610L1019.17 610C1024.05 610 1028 613.955 1028 618.834L1028 654.166C1028 659.045 1024.05 663 1019.17 663L322.834 663C317.955 663 314 659.045 314 654.166Z" fill="#D9D9D9" fill-rule="evenodd"/><text fill="#404040" font-family="Arial,Arial_MSFontService,sans-serif" font-weight="700" font-size="24" transform="translate(323.6 645)">Kiểm tra và ôn tập</text><path d="M236 180 236 195.24" stroke="#EF8318" stroke-width="4" stroke-miterlimit="8" fill="none" fill-rule="evenodd"/><path d="M236 249 236 264.24" stroke="#EF8318" stroke-width="4" stroke-miterlimit="8" fill="none" fill-rule="evenodd"/><path d="M236 318 236 333.24" stroke="#EF8318" stroke-width="4" stroke-miterlimit="8" fill="none" fill-rule="evenodd"/><path d="M236 387 236 402.24" stroke="#EF8318" stroke-width="4" stroke-miterlimit="8" fill="none" fill-rule="evenodd"/><path d="M236 457 236 472.24" stroke="#EF8318" stroke-width="4" stroke-miterlimit="8" fill="none" fill-rule="evenodd"/><path d="M236 526 236 541.24" stroke="#EF8318" stroke-width="4" stroke-miterlimit="8" fill="none" fill-rule="evenodd"/><path d="M236 595 236 610.24" stroke="#EF8318" stroke-width="4" stroke-miterlimit="8" fill="none" fill-rule="evenodd"/></g></svg>