<?xml version="1.0" encoding="utf-8"?>
<svg width="804px" height="574px" viewbox="0 0 804 574" version="1.1" xmlns:xlink="http://www.w3.org/1999/xlink" xmlns="http://www.w3.org/2000/svg">
  <defs>
    <path d="M0 0L273 0L273 273L0 273L0 0Z" id="path_1" />
    <clipPath id="mask_1">
      <use xlink:href="#path_1" />
    </clipPath>
  </defs>
  <path d="M0 0L804 0L804 574L0 574L0 0Z" id="Rectangle" fill="#FFFCFC" fill-rule="evenodd" stroke="none" />
  <path d="M0 0L804 0L804 574L0 574L0 0Z" id="Rectangle-2" fill="#FFFFFF" fill-rule="evenodd" stroke="none" />
  <g id="svg" transform="translate(266 58)">
    <path d="M0 0L273 0L273 273L0 273L0 0Z" id="Background" fill="none" fill-rule="evenodd" stroke="none" />
    <g clip-path="url(#mask_1)">
      <path d="M127.663 97.2817C129.895 97.2817 132.186 97.2139 134.508 97.0783C149.157 122.063 148.128 148.181 148.115 148.453L158.262 148.949C158.289 148.429 158.515 143.128 157.553 135.101C158.23 128.943 170.898 119.136 181.812 112.628C182.381 112.655 183.171 112.681 184.159 112.681L184.165 112.681C211.252 112.681 241.66 97.0697 245.794 53.2678L246.317 47.7113L240.734 47.7113C218.879 47.7113 202.077 53.8761 190.8 66.0269C178.19 79.6223 176.305 96.7326 176.126 104.174C169.971 107.842 161.114 113.74 154.856 120.518C152.615 111.588 148.937 101.424 142.927 91.3503C142.698 4.41414 65.9847 0 50.5889 0C48.0422 0 46.5871 0.105834 46.5871 0.105834L41.7318 0.456411L41.8638 5.31149C41.8906 6.23072 45.3764 97.2817 127.663 97.2817L127.663 97.2817ZM198.321 72.8605C206.622 63.9571 218.926 58.983 234.946 58.0375C228.669 96.627 198.764 101.959 186.388 102.468C186.838 95.701 188.988 82.875 198.321 72.8605L198.321 72.8605L198.321 72.8605ZM132.684 87.003C130.984 87.0826 129.303 87.1217 127.663 87.1217C65.1279 87.1217 54.2598 28.3108 52.4011 10.1798C73.0454 10.5568 130.19 17.939 132.684 87.003L132.684 87.003ZM247.918 166.359C242.752 160.485 236.984 157.601 230.905 157.932C221.016 158.375 214.52 166.869 214.21 167.365C207.096 174.939 194.056 186.349 185.167 189.361C181.906 177.433 174.321 172.691 168.324 170.824C162.648 169.051 157.562 169.587 155.789 169.872C152.674 169.832 134.893 169.594 128.702 169.521C101.997 144.309 75.547 144.288 63.2497 146.099L63.2497 131.658L0 131.658L0 232.215L63.2492 232.215L63.2492 220.078C79.0928 228.354 115.233 245.358 144.736 245.358C148.612 245.358 152.376 245.061 155.961 244.419C193.942 237.567 245.788 204.248 247.977 202.832L248.864 202.105C254.394 196.403 261.313 181.592 247.918 166.359L247.918 166.359ZM53.0891 222.055L10.1602 222.055L10.1602 141.819L53.0895 141.819L53.0895 222.055L53.0891 222.055L53.0891 222.055ZM241.899 194.657C236.177 198.288 188.108 228.299 154.161 234.418C123.559 239.975 75.4815 215.218 63.2492 208.54L63.2492 156.403C72.6127 154.757 97.7487 153.398 123.079 178.212L124.561 179.661L126.631 179.661C128.119 179.661 156.119 180.038 156.119 180.038L156.662 180.045L157.198 179.939C157.238 179.925 161.127 179.224 165.308 180.527C169.838 181.936 172.955 185.092 174.763 190.125C152.888 190.191 98.1682 190.489 98.1682 190.489L98.221 200.649C98.221 200.649 167.411 200.273 181.248 200.273C196.846 200.273 219.131 176.969 221.995 173.86C223.159 172.312 227.108 168.251 231.401 168.079C234.325 168.04 237.274 169.64 240.284 173.066C249.783 183.868 243.632 192.599 241.899 194.657L241.899 194.657Z" transform="translate(10.019043 12.228027)" id="Shape" fill="#464646" fill-rule="evenodd" stroke="none" />
    </g>
  </g>
  <g id="LẬP-TRÌNH-CĂN-BẢN" transform="translate(104 331)">
    <path d="M524.688 4.875Q525.844 4.75 527.188 4.75Q529.938 4.75 531.703 6.0625Q533.469 7.375 533.469 9.59375Q533.469 11.5 532.266 12.8125Q531.063 14.125 529.281 14.3438L529.281 15.9063L525.906 15.9063L525.906 12.3125Q528.303 12.3125 529.058 11.199Q529.406 10.6863 529.406 9.9375Q529.406 7.96875 526.469 7.96875Q525.938 7.96875 524.688 8.21875L524.688 4.875ZM55.3438 15.9375L59.1563 15.9375L52.4063 5.5625L48.25 5.5625L41.5313 15.9375L45.0625 15.9375L50.2188 8.75L55.3438 15.9375ZM205.625 15.9688L209.594 15.9688L202.688 5.71875L197.438 5.71875L205.625 15.9688ZM390.453 13.7656Q392.906 11.5938 393.219 8.0625L390.031 8.0625Q389.719 10.2813 388.203 11.5938Q386.688 12.9063 384.563 12.9063Q379.563 12.9063 379.188 8.0625L376.063 8.0625Q376.219 11.625 378.531 13.7813Q380.844 15.9375 384.5 15.9375Q388 15.9375 390.453 13.7656ZM360.844 63.0313Q355.875 65.6563 348.469 65.6563Q338.906 65.6563 333.156 59.5Q327.406 53.3438 327.406 43.3438Q327.406 32.5938 333.875 25.9688Q340.344 19.3438 350.281 19.3438Q356.656 19.3438 360.844 21.1875L360.844 26.7813Q356.031 24.0938 350.219 24.0938Q342.5 24.0938 337.703 29.25Q332.906 34.4063 332.906 43.0313Q332.906 51.2188 337.391 56.0781Q341.875 60.9375 349.156 60.9375Q355.906 60.9375 360.844 57.9375L360.844 63.0313ZM5.875 64.9063L29.125 64.9063L29.125 60.1563L11.125 60.1563L11.125 20.0938L5.875 20.0938L5.875 64.9063ZM64.875 64.9063L70.6875 64.9063L53.4375 20.0938L48 20.0938L30.8125 64.9063L36.6563 64.9063L41.125 52.3438L60.125 52.3438L64.875 64.9063ZM82.5313 47.9688L82.5313 64.9063L77.2813 64.9063L77.2813 20.0938L89.5938 20.0938Q96.7813 20.0938 100.734 23.5938Q104.688 27.0938 104.688 33.4688Q104.688 39.8438 100.297 43.9063Q95.9063 47.9688 88.4375 47.9688L82.5313 47.9688ZM144.219 24.8438L157.156 24.8438L157.156 20.0938L126.063 20.0938L126.063 24.8438L138.969 24.8438L138.969 64.9063L144.219 64.9063L144.219 24.8438ZM196.313 64.9063L190.063 64.9063L182.563 52.3438Q181.531 50.5938 180.563 49.3594Q179.594 48.125 178.578 47.3438Q177.563 46.5625 176.391 46.2031Q175.219 45.8438 173.75 45.8438L169.438 45.8438L169.438 64.9063L164.188 64.9063L164.188 20.0938L177.563 20.0938Q180.5 20.0938 182.984 20.8281Q185.469 21.5625 187.297 23.0625Q189.125 24.5625 190.156 26.7969Q191.188 29.0313 191.188 32.0313Q191.188 34.375 190.484 36.3281Q189.781 38.2813 188.484 39.8125Q187.188 41.3438 185.359 42.4219Q183.531 43.5 181.25 44.0938L181.25 44.2188Q182.375 44.7188 183.203 45.3594Q184.031 46 184.781 46.875Q185.531 47.75 186.266 48.8594Q187 49.9688 187.906 51.4375L196.313 64.9063ZM202.469 64.9063L207.719 64.9063L207.719 20.0938L202.469 20.0938L202.469 64.9063ZM255.625 64.9063L249.188 64.9063L226.125 29.1875Q225.25 27.8438 224.688 26.375L224.5 26.375Q224.75 27.8125 224.75 32.5313L224.75 64.9063L219.5 64.9063L219.5 20.0938L226.313 20.0938L248.75 55.25Q250.156 57.4375 250.563 58.25L250.688 58.25Q250.375 56.3125 250.375 51.6563L250.375 20.0938L255.625 20.0938L255.625 64.9063ZM295.813 64.9063L301.063 64.9063L301.063 20.0938L295.813 20.0938L295.813 39.75L272.625 39.75L272.625 20.0938L267.375 20.0938L267.375 64.9063L272.625 64.9063L272.625 44.4688L295.813 44.4688L295.813 64.9063ZM398.844 64.9063L404.656 64.9063L387.406 20.0938L381.969 20.0938L364.781 64.9063L370.625 64.9063L375.094 52.3438L394.094 52.3438L398.844 64.9063ZM447.375 64.9063L440.938 64.9063L417.875 29.1875Q417 27.8438 416.438 26.375L416.25 26.375Q416.5 27.8125 416.5 32.5313L416.5 64.9063L411.25 64.9063L411.25 20.0938L418.063 20.0938L440.5 55.25Q441.906 57.4375 442.313 58.25L442.438 58.25Q442.125 56.3125 442.125 51.6563L442.125 20.0938L447.375 20.0938L447.375 64.9063ZM476.656 20.0938L476.656 64.9063L489.719 64.9063Q496 64.9063 500.125 61.3438Q504.25 57.7813 504.25 52.0313Q504.25 47.4063 501.531 44.5156Q498.813 41.625 494.281 41.0938L494.281 40.9688Q497.906 39.7813 499.969 36.9688Q502.031 34.1563 502.031 30.3438Q502.031 25.7813 498.625 22.9375Q495.219 20.0938 489.406 20.0938L476.656 20.0938ZM548.031 64.9063L542.219 64.9063L537.469 52.3438L518.469 52.3438L514 64.9063L508.156 64.9063L525.344 20.0938L530.781 20.0938L548.031 64.9063ZM584.313 64.9063L590.75 64.9063L590.75 20.0938L585.5 20.0938L585.5 51.6563Q585.5 56.3125 585.813 58.25L585.688 58.25Q585.281 57.4375 583.875 55.25L561.438 20.0938L554.625 20.0938L554.625 64.9063L559.875 64.9063L559.875 32.5313Q559.875 27.8125 559.625 26.375L559.813 26.375Q560.375 27.8438 561.25 29.1875L584.313 64.9063ZM82.5313 24.8438L82.5313 43.2188L88.0313 43.2188Q93.4688 43.2188 96.3281 40.7344Q99.1875 38.25 99.1875 33.7188Q99.1875 24.8438 88.6875 24.8438L82.5313 24.8438ZM169.438 24.8438L169.438 41.0938L176.563 41.0938Q178.531 41.0938 180.203 40.5Q181.875 39.9063 183.094 38.7969Q184.313 37.6875 185 36.0781Q185.688 34.4688 185.688 32.4688Q185.688 28.875 183.359 26.8594Q181.031 24.8438 176.625 24.8438L169.438 24.8438ZM481.906 39.3125L481.906 24.8438L487.938 24.8438Q496.531 24.8438 496.531 31.375Q496.531 35.1563 494.063 37.2344Q491.594 39.3125 487.281 39.3125L481.906 39.3125ZM51.375 28.5313L58.4063 47.625L42.875 47.625L49.8438 28.5313Q50.25 27.4375 50.5625 25.5313L50.6875 25.5313Q51.0313 27.5938 51.375 28.5313ZM385.344 28.5313L392.375 47.625L376.844 47.625L383.813 28.5313Q384.219 27.4375 384.531 25.5313L384.656 25.5313Q385 27.5938 385.344 28.5313ZM535.75 47.625L528.719 28.5313Q528.375 27.5938 528.031 25.5313L527.906 25.5313Q527.594 27.4375 527.188 28.5313L520.219 47.625L535.75 47.625ZM481.906 60.1563L481.906 44.0313L487.938 44.0313Q498.75 44.0313 498.75 51.9688Q498.75 55.7813 496.203 57.9688Q493.656 60.1563 489.031 60.1563L481.906 60.1563ZM49.2813 73.8125Q50.1875 74.7188 51.4688 74.7188Q52.75 74.7188 53.6563 73.8125Q54.5625 72.9063 54.5625 71.625Q54.5625 70.3438 53.6563 69.4844Q52.75 68.625 51.4688 68.625Q50.25 68.625 49.3125 69.4844Q48.375 70.3438 48.375 71.625Q48.375 72.9063 49.2813 73.8125Z" />
  </g>
  <g id="Định-hướng-lập-trình-viên-làm" transform="translate(104 420)">
    <g id="Định-hướng-lập-trình-viên-làm-quen-" fill="#766A6A">
      <path d="M233.092 15.1934L230.947 15.1934L228.064 11.1504L225.164 15.1934L223.178 15.1934L226.957 9.35742L229.295 9.35742L233.092 15.1934ZM390.873 15.1934L393.018 15.1934L389.221 9.35742L386.883 9.35742L383.104 15.1934L385.09 15.1934L387.99 11.1504L390.873 15.1934ZM152.672 9.42773L148.066 15.1934L145.834 15.1934L149.754 9.42773L152.672 9.42773ZM299.449 15.1934L297.217 15.1934L292.611 9.42773L295.564 9.42773L299.449 15.1934ZM447.879 15.1934L445.646 15.1934L441.041 9.42773L443.994 9.42773L447.879 15.1934ZM80.4609 36.6035L83.3438 36.6035L83.3438 25.5117Q83.3438 18.1816 77.2617 18.1816Q73.4297 18.1816 71.3555 21.5918L71.2852 21.5918L71.2852 9.95508L68.4023 9.95508L68.4023 36.6035L71.2852 36.6035L71.2852 26.4082Q71.2852 23.8594 72.7266 22.2334Q74.168 20.6074 76.2773 20.6074Q80.4609 20.6074 80.4609 26.2324L80.4609 36.6035ZM113.578 36.6035L110.695 36.6035L110.695 26.2324Q110.695 20.6074 106.512 20.6074Q104.402 20.6074 102.961 22.2334Q101.52 23.8594 101.52 26.4082L101.52 36.6035L98.6367 36.6035L98.6367 9.95508L101.52 9.95508L101.52 21.5918L101.59 21.5918Q103.664 18.1816 107.496 18.1816Q113.578 18.1816 113.578 25.5117L113.578 36.6035ZM213.105 36.6035L215.988 36.6035L215.988 9.95508L213.105 9.95508L213.105 36.6035ZM339.914 36.6035L337.031 36.6035L337.031 26.2324Q337.031 20.6074 332.848 20.6074Q330.738 20.6074 329.297 22.2334Q327.855 23.8594 327.855 26.4082L327.855 36.6035L324.973 36.6035L324.973 9.95508L327.855 9.95508L327.855 21.5918L327.926 21.5918Q330 18.1816 333.832 18.1816Q339.914 18.1816 339.914 25.5117L339.914 36.6035ZM430.23 36.6035L433.113 36.6035L433.113 9.95508L430.23 9.95508L430.23 36.6035ZM39.4688 13.5059Q40.0137 14.0332 40.7871 14.0332Q41.5781 14.0332 42.1318 13.4883Q42.6855 12.9434 42.6855 12.1699Q42.6855 11.3613 42.1318 10.8252Q41.5781 10.2891 40.7871 10.2891Q40.0137 10.2891 39.4688 10.8252Q38.9238 11.3613 38.9238 12.1699Q38.9238 12.9785 39.4688 13.5059ZM373.928 14.0332Q373.154 14.0332 372.609 13.5059Q372.064 12.9785 372.064 12.1699Q372.064 11.3613 372.609 10.8252Q373.154 10.2891 373.928 10.2891Q374.719 10.2891 375.272 10.8252Q375.826 11.3613 375.826 12.1699Q375.826 12.9434 375.272 13.4883Q374.719 14.0332 373.928 14.0332ZM14.4551 25.3359L14.4551 36.6035L21.1348 36.6035Q27.3398 36.6035 31.04 33.0791Q34.7402 29.5547 34.7402 23.6836Q34.7402 11.3965 21.416 11.3965L14.4551 11.3965L14.4551 22.6113L11.6426 22.6113L11.6426 25.3359L14.4551 25.3359ZM279.516 36.4277Q278.496 36.9902 276.826 36.9902Q272.098 36.9902 272.098 31.7168L272.098 21.0645L269.004 21.0645L269.004 18.6035L272.098 18.6035L272.098 14.209L274.98 13.2773L274.98 18.6035L279.516 18.6035L279.516 21.0645L274.98 21.0645L274.98 31.207Q274.98 33.0176 275.596 33.791Q276.211 34.5645 277.635 34.5645Q278.725 34.5645 279.516 33.9668L279.516 36.4277ZM17.4082 22.6113L17.4082 14.0684L21.3457 14.0684Q31.6465 14.0684 31.6465 23.7539Q31.6465 28.623 28.8867 31.2773Q26.127 33.9316 21.1699 33.9316L17.4082 33.9316L17.4082 25.3359L23.3145 25.3359L23.3145 22.6113L17.4082 22.6113ZM130.682 36.6035L133.564 36.6035L133.564 20.6777Q137.59 20.0449 137.59 16.5645Q137.59 15.1582 137.256 14.1738L134.9 14.1738Q135.252 15.1934 135.252 16.4766Q135.252 17.3555 134.558 17.9795Q133.863 18.6035 132.826 18.6035L130.682 18.6035L130.682 28.9746Q130.682 31.4883 129.319 33.0439Q127.957 34.5996 125.848 34.5996Q121.488 34.5996 121.488 28.9043L121.488 18.6035L118.623 18.6035L118.623 29.3613Q118.623 37.0254 125.057 37.0254Q128.818 37.0254 130.611 33.7559L130.682 33.7559L130.682 36.6035ZM155.537 14.1738L157.893 14.1738Q158.227 15.1582 158.227 16.5645Q158.227 19.9395 154.377 20.6426Q156.662 23.1211 156.662 27.5332Q156.662 31.8398 154.228 34.4326Q151.793 37.0254 147.697 37.0254Q143.707 37.0254 141.325 34.5029Q138.943 31.9805 138.943 27.8145Q138.943 23.2793 141.422 20.7305Q143.9 18.1816 148.119 18.1816Q148.963 18.1816 150.475 18.4277Q151.547 18.6035 153.463 18.6035Q154.5 18.6035 155.194 17.9795Q155.889 17.3555 155.889 16.4766Q155.889 15.1934 155.537 14.1738ZM62.9707 36.6035L60.0879 36.6035L60.0879 26.3379Q60.0879 20.6074 55.9043 20.6074Q53.7422 20.6074 52.3271 22.2334Q50.9121 23.8594 50.9121 26.3379L50.9121 36.6035L48.0293 36.6035L48.0293 18.6035L50.9121 18.6035L50.9121 21.5918L50.9824 21.5918Q53.0215 18.1816 56.8887 18.1816Q59.8418 18.1816 61.4063 20.0889Q62.9707 21.9961 62.9707 25.5996L62.9707 36.6035ZM173.73 36.6035L176.613 36.6035L176.613 25.5996Q176.613 21.9961 175.049 20.0889Q173.484 18.1816 170.531 18.1816Q166.664 18.1816 164.625 21.5918L164.555 21.5918L164.555 18.6035L161.672 18.6035L161.672 36.6035L164.555 36.6035L164.555 26.3379Q164.555 23.8594 165.97 22.2334Q167.385 20.6074 169.547 20.6074Q173.73 20.6074 173.73 26.3379L173.73 36.6035ZM197.408 35.1621Q197.408 45.0762 187.916 45.0762Q184.576 45.0762 182.08 43.8105L182.08 40.9277Q185.121 42.6152 187.881 42.6152Q194.525 42.6152 194.525 35.5488L194.525 33.5801L194.455 33.5801Q192.398 37.0254 188.268 37.0254Q184.91 37.0254 182.862 34.626Q180.814 32.2266 180.814 28.1836Q180.814 23.5957 183.021 20.8887Q185.227 18.1816 189.059 18.1816Q192.697 18.1816 194.455 21.0996L194.525 21.0996L194.525 18.6035L197.408 18.6035L197.408 35.1621ZM234.709 36.6035L231.826 36.6035L231.826 33.791L231.756 33.791Q229.875 37.0254 226.219 37.0254Q223.529 37.0254 222.009 35.6016Q220.488 34.1777 220.488 31.8223Q220.488 26.7773 226.43 25.9512L231.826 25.1953Q231.826 20.6074 228.117 20.6074Q224.865 20.6074 222.246 22.8223L222.246 19.8691Q224.9 18.1816 228.363 18.1816Q234.709 18.1816 234.709 24.8965L234.709 36.6035ZM243.023 34.002L243.094 34.002Q244.992 37.0254 248.49 37.0254Q252.305 37.0254 254.502 34.3096Q256.699 31.5938 256.699 27.0762Q256.699 23.0156 254.748 20.5986Q252.797 18.1816 249.316 18.1816Q245.221 18.1816 243.094 21.7676L243.023 21.7676L243.023 18.6035L240.141 18.6035L240.141 44.8828L243.023 44.8828L243.023 34.002ZM316.658 36.6035L319.541 36.6035L319.541 25.5996Q319.541 21.9961 317.977 20.0889Q316.412 18.1816 313.459 18.1816Q309.592 18.1816 307.553 21.5918L307.482 21.5918L307.482 18.6035L304.6 18.6035L304.6 36.6035L307.482 36.6035L307.482 26.3379Q307.482 23.8594 308.897 22.2334Q310.313 20.6074 312.475 20.6074Q316.658 20.6074 316.658 26.3379L316.658 36.6035ZM382.928 28.3242L395.637 28.3242L395.637 26.8125Q395.637 22.752 393.703 20.4668Q391.77 18.1816 388.236 18.1816Q384.703 18.1816 382.321 20.8271Q379.939 23.4727 379.939 27.6738Q379.939 32.1211 382.119 34.5732Q384.299 37.0254 388.113 37.0254Q392.016 37.0254 394.389 35.3027L394.389 32.5957Q391.84 34.5996 388.799 34.5996Q386.092 34.5996 384.545 32.9648Q382.998 31.3301 382.928 28.3242ZM414.938 36.6035L412.055 36.6035L412.055 26.3379Q412.055 20.6074 407.871 20.6074Q405.709 20.6074 404.294 22.2334Q402.879 23.8594 402.879 26.3379L402.879 36.6035L399.996 36.6035L399.996 18.6035L402.879 18.6035L402.879 21.5918L402.949 21.5918Q404.988 18.1816 408.855 18.1816Q411.809 18.1816 413.373 20.0889Q414.938 21.9961 414.938 25.5996L414.938 36.6035ZM451.834 36.6035L448.951 36.6035L448.951 33.791L448.881 33.791Q447 37.0254 443.344 37.0254Q440.654 37.0254 439.134 35.6016Q437.613 34.1777 437.613 31.8223Q437.613 26.7773 443.555 25.9512L448.951 25.1953Q448.951 20.6074 445.242 20.6074Q441.99 20.6074 439.371 22.8223L439.371 19.8691Q442.025 18.1816 445.488 18.1816Q451.834 18.1816 451.834 24.8965L451.834 36.6035ZM479.941 36.6035L482.824 36.6035L482.824 25.5117Q482.824 18.1816 476.883 18.1816Q472.91 18.1816 470.906 21.9082Q470.396 20.2383 469.025 19.21Q467.654 18.1816 465.809 18.1816Q462.135 18.1816 460.219 21.4512L460.148 21.4512L460.148 18.6035L457.266 18.6035L457.266 36.6035L460.148 36.6035L460.148 26.3379Q460.148 23.7891 461.379 22.1982Q462.609 20.6074 464.508 20.6074Q468.604 20.6074 468.604 25.916L468.604 36.6035L471.486 36.6035L471.486 26.3379Q471.486 23.9824 472.778 22.2949Q474.07 20.6074 475.916 20.6074Q478.096 20.6074 479.019 21.9434Q479.941 23.2793 479.941 26.2676L479.941 36.6035ZM513.498 44.8828L510.615 44.8828L510.615 33.5098L510.545 33.5098Q508.664 37.0254 504.393 37.0254Q501 37.0254 498.952 34.6084Q496.904 32.1914 496.904 28.0254Q496.904 23.543 499.154 20.8623Q501.404 18.1816 505.201 18.1816Q508.893 18.1816 510.545 21.0996L510.615 21.0996L510.615 18.6035L513.498 18.6035L513.498 44.8828ZM554.174 28.3242L541.465 28.3242Q541.535 31.3301 543.082 32.9648Q544.629 34.5996 547.336 34.5996Q550.377 34.5996 552.926 32.5957L552.926 35.3027Q550.553 37.0254 546.65 37.0254Q542.836 37.0254 540.656 34.5732Q538.477 32.1211 538.477 27.6738Q538.477 23.4727 540.858 20.8271Q543.24 18.1816 546.773 18.1816Q550.307 18.1816 552.24 20.4668Q554.174 22.752 554.174 26.8125L554.174 28.3242ZM570.592 36.6035L573.475 36.6035L573.475 25.5996Q573.475 21.9961 571.91 20.0889Q570.346 18.1816 567.393 18.1816Q563.525 18.1816 561.486 21.5918L561.416 21.5918L561.416 18.6035L558.533 18.6035L558.533 36.6035L561.416 36.6035L561.416 26.3379Q561.416 23.8594 562.831 22.2334Q564.246 20.6074 566.408 20.6074Q570.592 20.6074 570.592 26.3379L570.592 36.6035ZM290.572 20.9414Q291.996 20.9414 292.752 21.5215L292.752 18.5332Q292.154 18.2871 291.029 18.2871Q289.465 18.2871 288.199 19.3506Q286.934 20.4141 286.318 22.3125L286.248 22.3125L286.248 18.6035L283.365 18.6035L283.365 36.6035L286.248 36.6035L286.248 27.4277Q286.248 24.4219 287.487 22.6816Q288.727 20.9414 290.572 20.9414ZM39.3105 36.6035L42.1934 36.6035L42.1934 18.6035L39.3105 18.6035L39.3105 36.6035ZM298.764 36.6035L295.881 36.6035L295.881 18.6035L298.764 18.6035L298.764 36.6035ZM362.186 36.6035L369.357 18.6035L366.316 18.6035L361.535 31.752Q361.148 32.8418 360.973 34.1953L360.902 34.1953Q360.779 33.123 360.27 31.6816L355.699 18.6035L352.535 18.6035L359.355 36.6035L362.186 36.6035ZM375.334 36.6035L372.451 36.6035L372.451 18.6035L375.334 18.6035L375.334 36.6035ZM531.006 36.6035L533.889 36.6035L533.889 18.6035L531.006 18.6035L531.006 28.9746Q531.006 31.4883 529.644 33.0439Q528.281 34.5996 526.172 34.5996Q521.813 34.5996 521.813 28.9043L521.813 18.6035L518.947 18.6035L518.947 29.3613Q518.947 37.0254 525.381 37.0254Q529.143 37.0254 530.936 33.7559L531.006 33.7559L531.006 36.6035ZM147.908 20.6074Q145.131 20.6074 143.514 22.4971Q141.896 24.3867 141.896 27.709Q141.896 30.9082 143.531 32.7539Q145.166 34.5996 147.908 34.5996Q150.703 34.5996 152.206 32.7891Q153.709 30.9785 153.709 27.6387Q153.709 24.2637 152.206 22.4355Q150.703 20.6074 147.908 20.6074ZM194.525 28.4648L194.525 25.8105Q194.525 23.666 193.075 22.1367Q191.625 20.6074 189.463 20.6074Q186.791 20.6074 185.279 22.5498Q183.768 24.4922 183.768 27.9902Q183.768 30.9961 185.218 32.7979Q186.668 34.5996 189.059 34.5996Q191.484 34.5996 193.005 32.877Q194.525 31.1543 194.525 28.4648ZM243.023 29.2559L243.023 26.7422Q243.023 24.1055 244.553 22.3564Q246.082 20.6074 248.596 20.6074Q250.969 20.6074 252.357 22.3125Q253.746 24.0176 253.746 27.0234Q253.746 30.5918 252.261 32.5957Q250.775 34.5996 248.156 34.5996Q245.924 34.5996 244.474 33.0439Q243.023 31.4883 243.023 29.2559ZM391.479 21.9961Q392.666 23.3848 392.684 25.8809L382.963 25.8809Q383.297 23.5254 384.721 22.0664Q386.145 20.6074 388.184 20.6074Q390.293 20.6074 391.479 21.9961ZM510.615 28.5L510.615 25.8809Q510.615 23.666 509.165 22.1367Q507.715 20.6074 505.482 20.6074Q502.881 20.6074 501.369 22.5322Q499.857 24.457 499.857 27.9551Q499.857 31.0664 501.316 32.833Q502.775 34.5996 505.078 34.5996Q507.609 34.5996 509.112 32.8682Q510.615 31.1367 510.615 28.5ZM551.221 25.8809Q551.203 23.3848 550.017 21.9961Q548.83 20.6074 546.721 20.6074Q544.682 20.6074 543.258 22.0664Q541.834 23.5254 541.5 25.8809L551.221 25.8809ZM231.826 27.498L227.484 28.0957Q225.48 28.377 224.461 29.0889Q223.441 29.8008 223.441 31.6113Q223.441 32.9297 224.382 33.7646Q225.322 34.5996 226.887 34.5996Q229.031 34.5996 230.429 33.0967Q231.826 31.5938 231.826 29.291L231.826 27.498ZM448.951 27.498L444.609 28.0957Q442.605 28.377 441.586 29.0889Q440.566 29.8008 440.566 31.6113Q440.566 32.9297 441.507 33.7646Q442.447 34.5996 444.012 34.5996Q446.156 34.5996 447.554 33.0967Q448.951 31.5938 448.951 29.291L448.951 27.498ZM39.5215 41.6133Q40.0313 42.123 40.752 42.123Q41.4727 42.123 41.9824 41.6133Q42.4922 41.1035 42.4922 40.3828Q42.4922 39.6621 41.9824 39.1787Q41.4727 38.6953 40.752 38.6953Q40.0664 38.6953 39.5391 39.1787Q39.0117 39.6621 39.0117 40.3828Q39.0117 41.1035 39.5215 41.6133ZM228.311 42.123Q227.59 42.123 227.08 41.6133Q226.57 41.1035 226.57 40.3828Q226.57 39.6621 227.098 39.1787Q227.625 38.6953 228.311 38.6953Q229.031 38.6953 229.541 39.1787Q230.051 39.6621 230.051 40.3828Q230.051 41.1035 229.541 41.6133Q229.031 42.123 228.311 42.123Z" />
    </g>
    <g id="nhanh-chóng-với-lập-trình" fill="#766A6A">
      <path d="M391.4 63.1934L393.545 63.1934L389.748 57.3574L387.41 57.3574L383.631 63.1934L385.617 63.1934L388.518 59.1504L391.4 63.1934ZM255.662 57.4277L251.057 63.1934L248.824 63.1934L252.744 57.4277L255.662 57.4277ZM345.979 57.4277L341.373 63.1934L339.141 63.1934L343.061 57.4277L345.979 57.4277ZM457.67 63.1934L459.902 63.1934L456.018 57.4277L453.064 57.4277L457.67 63.1934ZM132.352 84.6035L129.469 84.6035L129.469 74.2324Q129.469 68.6074 125.285 68.6074Q123.176 68.6074 121.734 70.2334Q120.293 71.8594 120.293 74.4082L120.293 84.6035L117.41 84.6035L117.41 57.9551L120.293 57.9551L120.293 69.5918L120.363 69.5918Q122.438 66.1816 126.27 66.1816Q132.352 66.1816 132.352 73.5117L132.352 84.6035ZM188.531 84.6035L191.414 84.6035L191.414 73.5117Q191.414 66.1816 185.332 66.1816Q181.5 66.1816 179.426 69.5918L179.355 69.5918L179.355 57.9551L176.473 57.9551L176.473 84.6035L179.355 84.6035L179.355 74.4082Q179.355 71.8594 180.797 70.2334Q182.238 68.6074 184.348 68.6074Q188.531 68.6074 188.531 74.2324L188.531 84.6035ZM235.395 84.6035L238.277 84.6035L238.277 73.5117Q238.277 66.1816 232.195 66.1816Q228.363 66.1816 226.289 69.5918L226.219 69.5918L226.219 57.9551L223.336 57.9551L223.336 84.6035L226.219 84.6035L226.219 74.4082Q226.219 71.8594 227.66 70.2334Q229.102 68.6074 231.211 68.6074Q235.395 68.6074 235.395 74.2324L235.395 84.6035ZM376.441 84.6035L373.559 84.6035L373.559 57.9551L376.441 57.9551L376.441 84.6035ZM497.484 84.6035L500.367 84.6035L500.367 73.5117Q500.367 66.1816 494.285 66.1816Q490.453 66.1816 488.379 69.5918L488.309 69.5918L488.309 57.9551L485.426 57.9551L485.426 84.6035L488.309 84.6035L488.309 74.4082Q488.309 71.8594 489.75 70.2334Q491.191 68.6074 493.301 68.6074Q497.484 68.6074 497.484 74.2324L497.484 84.6035ZM355.137 61.5059Q355.682 62.0332 356.455 62.0332Q357.246 62.0332 357.8 61.4883Q358.354 60.9434 358.354 60.1699Q358.354 59.3613 357.8 58.8252Q357.246 58.2891 356.455 58.2891Q355.682 58.2891 355.137 58.8252Q354.592 59.3613 354.592 60.1699Q354.592 60.9785 355.137 61.5059ZM437.279 84.9902Q438.949 84.9902 439.969 84.4277L439.969 81.9668Q439.178 82.5645 438.088 82.5645Q436.664 82.5645 436.049 81.791Q435.434 81.0176 435.434 79.207L435.434 69.0645L439.969 69.0645L439.969 66.6035L435.434 66.6035L435.434 61.2773L432.551 62.209L432.551 66.6035L429.457 66.6035L429.457 69.0645L432.551 69.0645L432.551 79.7168Q432.551 84.9902 437.279 84.9902ZM348.844 62.1738L351.199 62.1738Q351.533 63.1582 351.533 64.5645Q351.533 67.9395 347.684 68.6426Q349.969 71.1211 349.969 75.5332Q349.969 79.8398 347.534 82.4326Q345.1 85.0254 341.004 85.0254Q337.014 85.0254 334.632 82.5029Q332.25 79.9805 332.25 75.8145Q332.25 71.2793 334.729 68.7305Q337.207 66.1816 341.426 66.1816Q342.27 66.1816 343.781 66.4277Q344.854 66.6035 346.77 66.6035Q347.807 66.6035 348.501 65.9795Q349.195 65.3555 349.195 64.4766Q349.195 63.1934 348.844 62.1738ZM111.979 84.6035L109.096 84.6035L109.096 74.3379Q109.096 68.6074 104.912 68.6074Q102.75 68.6074 101.335 70.2334Q99.9199 71.8594 99.9199 74.3379L99.9199 84.6035L97.0371 84.6035L97.0371 66.6035L99.9199 66.6035L99.9199 69.5918L99.9902 69.5918Q102.029 66.1816 105.896 66.1816Q108.85 66.1816 110.414 68.0889Q111.979 69.9961 111.979 73.5996L111.979 84.6035ZM147.785 84.6035L150.668 84.6035L150.668 72.8965Q150.668 66.1816 144.322 66.1816Q140.859 66.1816 138.205 67.8691L138.205 70.8223Q140.824 68.6074 144.076 68.6074Q147.785 68.6074 147.785 73.1953L142.389 73.9512Q136.447 74.7773 136.447 79.8223Q136.447 82.1777 137.968 83.6016Q139.488 85.0254 142.178 85.0254Q145.834 85.0254 147.715 81.791L147.785 81.791L147.785 84.6035ZM171.041 84.6035L168.158 84.6035L168.158 74.3379Q168.158 68.6074 163.975 68.6074Q161.813 68.6074 160.397 70.2334Q158.982 71.8594 158.982 74.3379L158.982 84.6035L156.1 84.6035L156.1 66.6035L158.982 66.6035L158.982 69.5918L159.053 69.5918Q161.092 66.1816 164.959 66.1816Q167.912 66.1816 169.477 68.0889Q171.041 69.9961 171.041 73.5996L171.041 84.6035ZM218.977 83.7773Q216.902 85.0254 214.055 85.0254Q210.205 85.0254 207.841 82.5205Q205.477 80.0156 205.477 76.0254Q205.477 71.5781 208.025 68.8799Q210.574 66.1816 214.828 66.1816Q217.201 66.1816 219.012 67.0605L219.012 70.0137Q217.008 68.6074 214.723 68.6074Q211.963 68.6074 210.196 70.585Q208.43 72.5625 208.43 75.7793Q208.43 78.9434 210.091 80.7715Q211.752 82.5996 214.547 82.5996Q216.902 82.5996 218.977 81.0352L218.977 83.7773ZM251.232 85.0254Q247.242 85.0254 244.86 82.5029Q242.479 79.9805 242.479 75.8145Q242.479 71.2793 244.957 68.7305Q247.436 66.1816 251.654 66.1816Q255.68 66.1816 257.938 68.6602Q260.197 71.1387 260.197 75.5332Q260.197 79.8398 257.763 82.4326Q255.328 85.0254 251.232 85.0254ZM276.861 84.6035L279.744 84.6035L279.744 73.5996Q279.744 69.9961 278.18 68.0889Q276.615 66.1816 273.662 66.1816Q269.795 66.1816 267.756 69.5918L267.686 69.5918L267.686 66.6035L264.803 66.6035L264.803 84.6035L267.686 84.6035L267.686 74.3379Q267.686 71.8594 269.101 70.2334Q270.516 68.6074 272.678 68.6074Q276.861 68.6074 276.861 74.3379L276.861 84.6035ZM300.539 83.1621Q300.539 93.0762 291.047 93.0762Q287.707 93.0762 285.211 91.8105L285.211 88.9277Q288.252 90.6152 291.012 90.6152Q297.656 90.6152 297.656 83.5488L297.656 81.5801L297.586 81.5801Q295.529 85.0254 291.398 85.0254Q288.041 85.0254 285.993 82.626Q283.945 80.2266 283.945 76.1836Q283.945 71.5957 286.151 68.8887Q288.357 66.1816 292.189 66.1816Q295.828 66.1816 297.586 69.0996L297.656 69.0996L297.656 66.6035L300.539 66.6035L300.539 83.1621ZM392.279 84.6035L395.162 84.6035L395.162 72.8965Q395.162 66.1816 388.816 66.1816Q385.354 66.1816 382.699 67.8691L382.699 70.8223Q385.318 68.6074 388.57 68.6074Q392.279 68.6074 392.279 73.1953L386.883 73.9512Q380.941 74.7773 380.941 79.8223Q380.941 82.1777 382.462 83.6016Q383.982 85.0254 386.672 85.0254Q390.328 85.0254 392.209 81.791L392.279 81.791L392.279 84.6035ZM403.547 82.002L403.477 82.002L403.477 92.8828L400.594 92.8828L400.594 66.6035L403.477 66.6035L403.477 69.7676L403.547 69.7676Q405.674 66.1816 409.77 66.1816Q413.25 66.1816 415.201 68.5986Q417.152 71.0156 417.152 75.0762Q417.152 79.5938 414.955 82.3096Q412.758 85.0254 408.943 85.0254Q405.445 85.0254 403.547 82.002ZM479.994 84.6035L477.111 84.6035L477.111 74.3379Q477.111 68.6074 472.928 68.6074Q470.766 68.6074 469.351 70.2334Q467.936 71.8594 467.936 74.3379L467.936 84.6035L465.053 84.6035L465.053 66.6035L467.936 66.6035L467.936 69.5918L468.006 69.5918Q470.045 66.1816 473.912 66.1816Q476.865 66.1816 478.43 68.0889Q479.994 69.9961 479.994 73.5996L479.994 84.6035ZM453.205 69.5215Q452.449 68.9414 451.025 68.9414Q449.18 68.9414 447.94 70.6816Q446.701 72.4219 446.701 75.4277L446.701 84.6035L443.818 84.6035L443.818 66.6035L446.701 66.6035L446.701 70.3125L446.771 70.3125Q447.387 68.4141 448.652 67.3506Q449.918 66.2871 451.482 66.2871Q452.607 66.2871 453.205 66.5332L453.205 69.5215ZM323.215 84.6035L330.387 66.6035L327.346 66.6035L322.564 79.752Q322.178 80.8418 322.002 82.1953L321.932 82.1953Q321.809 81.123 321.299 79.6816L316.729 66.6035L313.564 66.6035L320.385 84.6035L323.215 84.6035ZM354.979 84.6035L357.861 84.6035L357.861 66.6035L354.979 66.6035L354.979 84.6035ZM456.334 84.6035L459.217 84.6035L459.217 66.6035L456.334 66.6035L456.334 84.6035ZM251.443 68.6074Q248.666 68.6074 247.049 70.4971Q245.432 72.3867 245.432 75.709Q245.432 78.9082 247.066 80.7539Q248.701 82.5996 251.443 82.5996Q254.238 82.5996 255.741 80.7891Q257.244 78.9785 257.244 75.6387Q257.244 72.2637 255.741 70.4355Q254.238 68.6074 251.443 68.6074ZM297.656 76.4648L297.656 73.8105Q297.656 71.666 296.206 70.1367Q294.756 68.6074 292.594 68.6074Q289.922 68.6074 288.41 70.5498Q286.898 72.4922 286.898 75.9902Q286.898 78.9961 288.349 80.7979Q289.799 82.5996 292.189 82.5996Q294.615 82.5996 296.136 80.877Q297.656 79.1543 297.656 76.4648ZM341.215 68.6074Q338.438 68.6074 336.82 70.4971Q335.203 72.3867 335.203 75.709Q335.203 78.9082 336.838 80.7539Q338.473 82.5996 341.215 82.5996Q344.01 82.5996 345.513 80.7891Q347.016 78.9785 347.016 75.6387Q347.016 72.2637 345.513 70.4355Q344.01 68.6074 341.215 68.6074ZM403.477 74.7422L403.477 77.2559Q403.477 79.4883 404.927 81.0439Q406.377 82.5996 408.609 82.5996Q411.229 82.5996 412.714 80.5957Q414.199 78.5918 414.199 75.0234Q414.199 72.0176 412.811 70.3125Q411.422 68.6074 409.049 68.6074Q406.535 68.6074 405.006 70.3564Q403.477 72.1055 403.477 74.7422ZM143.443 76.0957L147.785 75.498L147.785 77.291Q147.785 79.5938 146.388 81.0967Q144.99 82.5996 142.846 82.5996Q141.281 82.5996 140.341 81.7646Q139.4 80.9297 139.4 79.6113Q139.4 77.8008 140.42 77.0889Q141.439 76.377 143.443 76.0957ZM387.938 76.0957L392.279 75.498L392.279 77.291Q392.279 79.5938 390.882 81.0967Q389.484 82.5996 387.34 82.5996Q385.775 82.5996 384.835 81.7646Q383.895 80.9297 383.895 79.6113Q383.895 77.8008 384.914 77.0889Q385.934 76.377 387.938 76.0957ZM387.533 89.6133Q388.043 90.123 388.764 90.123Q389.484 90.123 389.994 89.6133Q390.504 89.1035 390.504 88.3828Q390.504 87.6621 389.994 87.1787Q389.484 86.6953 388.764 86.6953Q388.078 86.6953 387.551 87.1787Q387.023 87.6621 387.023 88.3828Q387.023 89.1035 387.533 89.6133Z" />
    </g>
  </g>
</svg>